<svg width="128" height="48" viewBox="0 0 128 48" fill="none" xmlns="http://www.w3.org/2000/svg">
<path d="M91.1251 15.7812C91.3946 15.8698 91.5851 16.0824 91.7737 16.2807C94.4365 19.0438 97.1172 21.7874 99.7745 24.5541C99.7799 21.7857 99.7673 19.0173 99.7799 16.2489C100.5 16.2471 101.219 16.2595 101.94 16.2365C102.008 16.4862 102.037 16.7412 102.029 16.9998C102.015 21.21 102.035 25.4202 102.02 29.6304C101.967 29.6552 101.861 29.703 101.808 29.7278C98.9462 26.8584 96.1757 23.8987 93.3189 21.0258C93.292 23.7854 93.3513 26.5485 93.2902 29.3098C92.5643 29.2779 91.8384 29.2939 91.1143 29.2974C91.1161 24.7914 91.0964 20.2855 91.1251 15.7812Z" fill="white"/>
<path d="M34.0613 16.121C35.7377 15.5188 37.5416 15.9509 39.1748 16.4699C39.1946 17.4954 39.1838 18.5192 39.1838 19.5447C38.1812 18.9425 37.096 18.3403 35.894 18.3067C35.2867 18.2677 34.5411 18.6343 34.5303 19.3056C34.489 19.7962 34.886 20.1717 35.2633 20.4233C36.7187 21.3213 38.4112 21.9536 39.5306 23.2926C40.8925 25.1311 40.1702 28.0696 38.1111 29.104C36.212 30.0976 33.9499 29.692 31.9915 29.0916C31.8783 27.9368 31.8047 26.7802 31.758 25.6218C32.8917 26.3196 34.1476 26.9714 35.5203 26.9484C36.1042 26.9094 36.7924 26.7341 37.0798 26.1762C37.3799 25.6749 37.1517 25.0125 36.7043 24.6759C35.4215 23.6646 33.7613 23.1722 32.633 21.9642C31.9017 21.2114 31.5316 20.1434 31.634 19.1072C31.7094 17.7346 32.7587 16.5425 34.0613 16.121Z" fill="white"/>
<path d="M81.7845 17.2855C82.0486 16.77 82.2355 16.2139 82.5894 15.748C84.7185 20.2434 86.7704 24.7742 88.8564 29.2908C88.0604 29.2961 87.2627 29.2837 86.4667 29.3032C86.093 28.5362 85.7481 27.7569 85.4049 26.9776C83.4141 26.9669 81.4234 26.974 79.4326 26.974C79.0804 27.7516 78.7355 28.5327 78.3528 29.2978C77.5784 29.2872 76.8058 29.2943 76.0332 29.2908C77.9701 25.3002 79.8602 21.2849 81.7845 17.2855ZM82.3181 20.5534C81.639 22.0607 80.9939 23.5839 80.2896 25.0788C81.7144 25.1426 83.1446 25.093 84.5712 25.1018C83.8867 23.5077 83.1752 21.9243 82.4924 20.3284C82.4493 20.3851 82.3612 20.4967 82.3181 20.5534Z" fill="white"/>
<path d="M6.54297 16.2509C7.78091 16.2438 9.01705 16.2633 10.2532 16.2402C11.218 17.6005 12.0894 19.021 13.0417 20.3902C14.0371 18.9998 15.0414 17.6129 16.071 16.2473C17.1598 16.2579 18.2486 16.242 19.3374 16.2562C17.688 18.5375 15.9111 20.7356 14.303 23.0399C14.2742 25.1211 14.2958 27.2058 14.294 29.2888C13.2609 29.2959 12.2278 29.2923 11.1947 29.2906C11.1785 27.2235 11.2288 25.1512 11.1713 23.086C9.65848 20.7905 8.05042 18.5534 6.54297 16.2509Z" fill="white"/>
<path d="M20.6914 29.2929C20.6986 24.9445 20.6824 20.5944 20.7004 16.2461C23.3829 16.2532 26.0654 16.2479 28.7479 16.2496C28.7551 17.137 28.7389 18.0262 28.7605 18.9135C27.0841 18.9791 25.397 18.8551 23.7171 18.9702C23.7207 19.7531 23.7153 20.536 23.7243 21.3171C25.1616 21.3118 26.6008 21.2994 28.0382 21.3259C28.0202 22.2062 28.0328 23.0883 28.031 23.9721C26.5918 23.9704 25.1545 23.9721 23.7171 23.9686C23.7225 24.8259 23.7189 25.6849 23.7189 26.5422C25.415 26.5439 27.1111 26.528 28.8072 26.5475C28.8108 27.4632 28.818 28.3789 28.8036 29.2964C26.0995 29.2876 23.3955 29.2911 20.6914 29.2929Z" fill="white"/>
<path d="M65.978 16.2484C67.6508 16.2856 69.3289 16.1652 70.9945 16.3405C72.0725 16.4645 73.2458 16.8878 73.8099 17.8673C74.4118 18.9495 74.4208 20.4356 73.5925 21.4098C73.2314 21.8508 72.696 22.0864 72.1947 22.3361C73.1577 22.5965 74.0148 23.2855 74.3238 24.2402C74.6885 25.4145 74.5879 26.8067 73.8189 27.8074C72.9637 28.8843 71.5065 29.1889 70.1949 29.2722C68.7863 29.3112 67.3795 29.2828 65.9727 29.2934C65.9834 24.9451 65.9691 20.5968 65.978 16.2484ZM68.1772 17.9931C68.1844 19.2188 68.1808 20.4462 68.1808 21.6737C69.1654 21.6471 70.2542 21.8225 71.1382 21.2858C72.1893 20.7048 72.3133 18.8946 71.2011 18.3154C70.2686 17.8532 69.1834 18.0214 68.1772 17.9931ZM68.179 23.4148C68.1844 24.768 68.1808 26.123 68.1826 27.4762C69.187 27.4408 70.2614 27.6214 71.2065 27.1946C72.4678 26.626 72.6367 24.6422 71.5245 23.854C70.5453 23.1863 69.2912 23.475 68.179 23.4148Z" fill="white"/>
<path d="M106.192 29.2962C106.198 24.9461 106.16 20.5942 106.21 16.2441C106.95 16.2548 107.691 16.2512 108.431 16.2477C108.461 18.196 108.431 20.1444 108.442 22.0927C110.305 20.1444 112.163 18.1925 114.035 16.253C114.913 16.2477 115.794 16.2512 116.674 16.2495C114.698 18.3501 112.694 20.4278 110.702 22.516C112.908 24.7655 115.089 27.0397 117.299 29.2838C116.317 29.3033 115.336 29.2856 114.353 29.298C112.389 27.2593 110.418 25.2277 108.445 23.1997C108.434 25.2295 108.449 27.2593 108.44 29.2909C107.691 29.2962 106.941 29.2891 106.192 29.2962Z" fill="white"/>
<path d="M66.4587 2.50627C67.1019 1.6738 67.6931 0.798818 68.383 0C61.6489 11.7325 54.9633 23.4952 48.2436 35.2366C46.569 38.198 44.8532 41.1383 43.1966 44.1086C43.0511 44.0324 42.9199 43.9368 42.8049 43.8216C40.4404 41.4464 38.0634 39.0854 35.6953 36.7138C37.377 36.696 39.057 36.712 40.7387 36.7049C49.3126 25.3071 57.8866 13.9076 66.4587 2.50627Z" fill="#C4261B"/>
<path d="M0.000282487 9.71143C20.0966 9.6831 40.1911 9.71321 60.2873 9.69727C53.6036 18.3992 46.9665 27.1367 40.2522 35.8156C26.8397 35.805 13.4272 35.8085 0.0146563 35.8209C-0.0158879 27.1172 0.0128595 18.4152 0.000282487 9.71143ZM34.0625 16.1197C32.7598 16.5412 31.7106 17.7333 31.6351 19.106C31.5327 20.1421 31.9028 21.2102 32.6341 21.9629C33.7624 23.1709 35.4226 23.6633 36.7054 24.6747C37.1528 25.0112 37.381 25.6736 37.0809 26.1749C36.7935 26.7328 36.1053 26.9082 35.5214 26.9471C34.1487 26.9702 32.8928 26.3184 31.7591 25.6205C31.8058 26.7789 31.8794 27.9355 31.9926 29.0903C33.9511 29.6907 36.2131 30.0964 38.1123 29.1027C40.1713 28.0683 40.8936 25.1299 39.5317 23.2913C38.4123 21.9523 36.7198 21.32 35.2645 20.422C34.8871 20.1705 34.4901 19.795 34.5314 19.3043C34.5422 18.633 35.2878 18.2664 35.8951 18.3054C37.0971 18.339 38.1823 18.9412 39.1849 19.5435C39.1849 18.5179 39.1957 17.4942 39.1759 16.4686C37.5427 15.9497 35.7388 15.5175 34.0625 16.1197ZM6.54393 16.2508C8.05137 18.5533 9.65944 20.7904 11.1723 23.0859C11.2298 25.1511 11.1795 27.2234 11.1956 29.2905C12.2287 29.2922 13.2619 29.2958 14.295 29.2887C14.2968 27.2057 14.2752 25.121 14.304 23.0398C15.912 20.7355 17.689 18.5374 19.3384 16.2561C18.2495 16.2419 17.1607 16.2578 16.0719 16.2472C15.0424 17.6128 14.038 18.9997 13.0427 20.3901C12.0904 19.0209 11.219 17.6004 10.2542 16.2401C9.01801 16.2632 7.78187 16.2437 6.54393 16.2508ZM20.6931 29.294C23.3971 29.2922 26.1012 29.2887 28.8053 29.2975C28.8196 28.38 28.8124 27.4643 28.8089 26.5486C27.1128 26.5291 25.4167 26.5451 23.7205 26.5433C23.7205 25.686 23.7241 24.827 23.7188 23.9697C25.1561 23.9733 26.5935 23.9715 28.0327 23.9733C28.0345 23.0894 28.0219 22.2074 28.0399 21.3271C26.6025 21.3005 25.1633 21.3129 23.7259 21.3182C23.717 20.5371 23.7223 19.7542 23.7188 18.9713C25.3987 18.8562 27.0858 18.9802 28.7621 18.9147C28.7406 18.0273 28.7568 17.1381 28.7496 16.2508C26.0671 16.249 23.3846 16.2543 20.7021 16.2472C20.6841 20.5956 20.7003 24.9457 20.6931 29.294Z" fill="#005192"/>
<path d="M59.1928 17.2931C60.6428 14.7691 61.9957 12.1885 63.4888 9.69281C83.7809 9.70521 104.075 9.71407 124.367 9.6875C124.432 18.3966 124.385 27.1092 124.39 35.82C99.2075 35.8041 74.0265 35.8165 48.8438 35.8147C52.2701 29.6278 55.7503 23.4711 59.1928 17.2931ZM91.1259 15.7823C91.0972 20.2865 91.1169 24.7924 91.1151 29.2984C91.8392 29.2949 92.5651 29.2789 93.2909 29.3108C93.352 26.5495 93.2927 23.7864 93.3197 21.0268C96.1765 23.8997 98.947 26.8594 101.809 29.7288C101.861 29.704 101.967 29.6562 102.021 29.6314C102.036 25.4212 102.016 21.211 102.03 17.0008C102.037 16.7423 102.009 16.4872 101.94 16.2375C101.22 16.2605 100.501 16.2481 99.7807 16.2499C99.7681 19.0183 99.7807 21.7867 99.7753 24.5551C97.118 21.7884 94.4373 19.0448 91.7745 16.2817C91.5859 16.0834 91.3954 15.8708 91.1259 15.7823ZM81.7866 17.286C79.8623 21.2854 77.9721 25.3008 76.0353 29.2913C76.8079 29.2949 77.5805 29.2878 78.3548 29.2984C78.7375 28.5332 79.0825 27.7521 79.4347 26.9746C81.4254 26.9746 83.4162 26.9675 85.407 26.9781C85.7501 27.7574 86.0951 28.5368 86.4688 29.3037C87.2648 29.2842 88.0625 29.2966 88.8584 29.2913C86.7725 24.7747 84.7206 20.2439 82.5915 15.7486C82.2375 16.2144 82.0507 16.7706 81.7866 17.286ZM65.979 16.2499C65.9701 20.5982 65.9844 24.9465 65.9737 29.2949C67.3805 29.2842 68.7873 29.3126 70.1959 29.2736C71.5075 29.1904 72.9647 28.8857 73.8199 27.8088C74.5889 26.8081 74.6895 25.4159 74.3248 24.2416C74.0158 23.2869 73.1587 22.5979 72.1957 22.3375C72.697 22.0878 73.2324 21.8522 73.5935 21.4112C74.4218 20.437 74.4128 18.951 73.8109 17.8687C73.2468 16.8893 72.0735 16.4659 70.9955 16.342C69.3299 16.1666 67.6518 16.287 65.979 16.2499ZM106.193 29.2966C106.942 29.2895 107.692 29.2966 108.441 29.2913C108.45 27.2597 108.435 25.2299 108.446 23.2001C110.419 25.2281 112.39 27.2597 114.354 29.2984C115.337 29.286 116.318 29.3037 117.3 29.2842C115.091 27.0401 112.909 24.7659 110.703 22.5164C112.696 20.4282 114.699 18.3505 116.675 16.2499C115.795 16.2516 114.914 16.2481 114.036 16.2534C112.164 18.1929 110.306 20.1448 108.443 22.0931C108.432 20.1448 108.462 18.1964 108.432 16.2481C107.692 16.2516 106.951 16.2552 106.211 16.2445C106.161 20.5946 106.199 24.9465 106.193 29.2966Z" fill="#005192"/>
<path d="M68.1777 17.9938C69.1839 18.0222 70.2691 17.8539 71.2016 18.3162C72.3138 18.8954 72.1898 20.7056 71.1387 21.2865C70.2547 21.8232 69.1659 21.6478 68.1813 21.6744C68.1813 20.447 68.1849 19.2195 68.1777 17.9938Z" fill="#005192"/>
<path d="M82.3195 20.5531C82.3626 20.4964 82.4507 20.3848 82.4938 20.3281C83.1765 21.924 83.888 23.5075 84.5726 25.1016C83.146 25.0927 81.7158 25.1423 80.291 25.0785C80.9953 23.5836 81.6404 22.0604 82.3195 20.5531Z" fill="#005192"/>
<path d="M68.1797 23.4164C69.2919 23.4766 70.546 23.1879 71.5252 23.8556C72.6373 24.6438 72.4685 26.6276 71.2072 27.1962C70.2621 27.623 69.1876 27.4424 68.1833 27.4778C68.1815 26.1246 68.1851 24.7696 68.1797 23.4164Z" fill="#005192"/>
<path d="M48.4167 45.0948L49.0367 44.3648C49.2967 44.5915 49.6 44.7848 49.9467 44.9448C50.2933 45.0982 50.6633 45.1748 51.0567 45.1748C51.5833 45.1748 51.97 45.0782 52.2167 44.8848C52.4633 44.6848 52.5867 44.4448 52.5867 44.1648C52.5867 43.9915 52.5433 43.8315 52.4567 43.6848C52.37 43.5382 52.21 43.3982 51.9767 43.2648C51.7433 43.1315 51.41 43.0048 50.9767 42.8848C50.41 42.7248 49.9633 42.5382 49.6367 42.3248C49.31 42.1115 49.0767 41.8748 48.9367 41.6148C48.7967 41.3482 48.7267 41.0682 48.7267 40.7748C48.7267 40.4282 48.8267 40.1115 49.0267 39.8248C49.2267 39.5315 49.5 39.2982 49.8467 39.1248C50.2 38.9448 50.6067 38.8548 51.0667 38.8548C51.52 38.8548 51.9233 38.9248 52.2767 39.0648C52.63 39.1982 52.96 39.3848 53.2667 39.6248L52.6367 40.3348C52.43 40.1548 52.1967 40.0115 51.9367 39.9048C51.6767 39.7982 51.3933 39.7448 51.0867 39.7448C50.6267 39.7448 50.2833 39.8482 50.0567 40.0548C49.83 40.2615 49.7167 40.4848 49.7167 40.7248C49.7167 40.9715 49.8267 41.1948 50.0467 41.3948C50.2667 41.5882 50.68 41.7715 51.2867 41.9448C52.14 42.1848 52.7333 42.4848 53.0667 42.8448C53.4067 43.2048 53.5767 43.6215 53.5767 44.0948C53.5767 44.4615 53.4733 44.7948 53.2667 45.0948C53.0667 45.3948 52.7767 45.6348 52.3967 45.8148C52.0167 45.9882 51.5567 46.0748 51.0167 46.0748C50.5367 46.0748 50.0733 45.9882 49.6267 45.8148C49.18 45.6415 48.7767 45.4015 48.4167 45.0948ZM54.9704 43.9248V40.7848H55.9304V43.7948C55.9304 44.2815 56.0437 44.6382 56.2704 44.8648C56.4971 45.0848 56.7704 45.1948 57.0904 45.1948C57.3304 45.1948 57.5504 45.1282 57.7504 44.9948C57.9504 44.8615 58.1104 44.6748 58.2304 44.4348C58.3571 44.1882 58.4204 43.8982 58.4204 43.5648V40.7848H59.3804V45.9648H58.4204V45.1348C58.2937 45.4015 58.0837 45.6248 57.7904 45.8048C57.5037 45.9848 57.1804 46.0748 56.8204 46.0748C56.4871 46.0748 56.1771 45.9915 55.8904 45.8248C55.6104 45.6515 55.3871 45.4048 55.2204 45.0848C55.0537 44.7648 54.9704 44.3782 54.9704 43.9248ZM61.3311 45.9648V40.7848H62.2911V41.8248C62.4244 41.5115 62.6444 41.2415 62.9511 41.0148C63.2644 40.7815 63.6144 40.6648 64.0011 40.6648V41.6448C62.8611 41.7048 62.2911 42.3348 62.2911 43.5348V45.9648H61.3311ZM65.2383 45.9648V40.7848H66.1983V41.8248C66.3316 41.5115 66.5516 41.2415 66.8583 41.0148C67.1716 40.7815 67.5216 40.6648 67.9083 40.6648V41.6448C66.7683 41.7048 66.1983 42.3348 66.1983 43.5348V45.9648H65.2383ZM68.6955 43.3748C68.6955 42.8415 68.8055 42.3715 69.0255 41.9648C69.2455 41.5582 69.5422 41.2415 69.9155 41.0148C70.2955 40.7815 70.7188 40.6648 71.1855 40.6648C71.6588 40.6648 72.0822 40.7815 72.4555 41.0148C72.8355 41.2415 73.1355 41.5582 73.3555 41.9648C73.5755 42.3715 73.6855 42.8415 73.6855 43.3748C73.6855 43.9015 73.5755 44.3682 73.3555 44.7748C73.1355 45.1815 72.8355 45.5015 72.4555 45.7348C72.0822 45.9615 71.6588 46.0748 71.1855 46.0748C70.7188 46.0748 70.2955 45.9615 69.9155 45.7348C69.5422 45.5015 69.2455 45.1815 69.0255 44.7748C68.8055 44.3682 68.6955 43.9015 68.6955 43.3748ZM69.6855 43.3748C69.6855 43.9548 69.8322 44.4048 70.1255 44.7248C70.4188 45.0382 70.7722 45.1948 71.1855 45.1948C71.4655 45.1948 71.7188 45.1248 71.9455 44.9848C72.1722 44.8382 72.3522 44.6315 72.4855 44.3648C72.6255 44.0915 72.6955 43.7615 72.6955 43.3748C72.6955 42.9882 72.6255 42.6582 72.4855 42.3848C72.3522 42.1115 72.1722 41.9048 71.9455 41.7648C71.7188 41.6182 71.4655 41.5448 71.1855 41.5448C70.9122 41.5448 70.6588 41.6182 70.4255 41.7648C70.1988 41.9048 70.0188 42.1115 69.8855 42.3848C69.7522 42.6582 69.6855 42.9882 69.6855 43.3748ZM74.9513 46.8948L75.4414 46.1748C75.6147 46.3415 75.8413 46.4715 76.1214 46.5648C76.4014 46.6648 76.688 46.7148 76.9814 46.7148C77.4947 46.7148 77.8847 46.5848 78.1514 46.3248C78.418 46.0648 78.5514 45.6415 78.5514 45.0548V44.8248C78.3647 45.0715 78.1347 45.2648 77.8613 45.4048C77.588 45.5448 77.2847 45.6148 76.9514 45.6148C76.5314 45.6148 76.1547 45.5115 75.8214 45.3048C75.488 45.0915 75.2247 44.8015 75.0314 44.4348C74.838 44.0615 74.7413 43.6315 74.7413 43.1448C74.7413 42.6582 74.838 42.2282 75.0314 41.8548C75.2247 41.4815 75.488 41.1915 75.8214 40.9848C76.1547 40.7715 76.5314 40.6648 76.9514 40.6648C77.2847 40.6648 77.588 40.7348 77.8613 40.8748C78.1347 41.0082 78.3647 41.2015 78.5514 41.4548V40.7848H79.5113V45.0648C79.5113 45.8648 79.2947 46.4815 78.8614 46.9148C78.4347 47.3548 77.8047 47.5748 76.9714 47.5748C76.6114 47.5748 76.258 47.5215 75.9114 47.4148C75.5647 47.3082 75.2447 47.1348 74.9513 46.8948ZM75.7314 43.1448C75.7314 43.6448 75.868 44.0382 76.1414 44.3248C76.4147 44.6115 76.7447 44.7548 77.1314 44.7548C77.5514 44.7548 77.9014 44.6148 78.1814 44.3348C78.468 44.0482 78.6114 43.6515 78.6114 43.1448C78.6114 42.6315 78.468 42.2348 78.1814 41.9548C77.9014 41.6748 77.5514 41.5348 77.1314 41.5348C76.7447 41.5348 76.4147 41.6782 76.1414 41.9648C75.868 42.2515 75.7314 42.6448 75.7314 43.1448ZM81.0618 44.5348C81.0618 44.0615 81.2452 43.6682 81.6118 43.3548C81.9852 43.0415 82.4985 42.8848 83.1518 42.8848C83.3718 42.8848 83.5752 42.8982 83.7618 42.9248C83.9552 42.9448 84.1452 42.9815 84.3318 43.0348V42.9248C84.3318 42.0048 83.9052 41.5448 83.0518 41.5448C82.8452 41.5448 82.6218 41.5782 82.3818 41.6448C82.1485 41.7048 81.9185 41.8015 81.6918 41.9348L81.3618 41.1648C81.6352 41.0115 81.9285 40.8915 82.2418 40.8048C82.5618 40.7115 82.8885 40.6648 83.2218 40.6648C83.8552 40.6648 84.3585 40.8482 84.7318 41.2148C85.1052 41.5815 85.2918 42.0815 85.2918 42.7148V45.9648H84.3318V45.2648C84.1518 45.5182 83.9252 45.7182 83.6518 45.8648C83.3785 46.0048 83.0752 46.0748 82.7418 46.0748C82.4152 46.0748 82.1252 46.0115 81.8718 45.8848C81.6185 45.7515 81.4185 45.5682 81.2718 45.3348C81.1318 45.1015 81.0618 44.8348 81.0618 44.5348ZM82.0218 44.4648C82.0218 44.6915 82.0985 44.8815 82.2518 45.0348C82.4052 45.1815 82.6285 45.2548 82.9218 45.2548C83.1752 45.2548 83.4085 45.1982 83.6218 45.0848C83.8352 44.9715 84.0052 44.8148 84.1318 44.6148C84.2652 44.4082 84.3318 44.1715 84.3318 43.9048V43.7348C84.1452 43.6948 83.9585 43.6648 83.7718 43.6448C83.5918 43.6248 83.3985 43.6148 83.1918 43.6148C82.7852 43.6148 82.4885 43.6982 82.3018 43.8648C82.1152 44.0315 82.0218 44.2315 82.0218 44.4648ZM87.3163 44.2948V41.6348H86.4263V40.7848H87.3163V39.5448H88.2663V40.7848H89.7563V41.6348H88.2663V44.2148C88.2663 44.5615 88.343 44.8115 88.4963 44.9648C88.6563 45.1115 88.8897 45.1848 89.1963 45.1848C89.363 45.1848 89.5363 45.1648 89.7163 45.1248L89.8163 45.9748C89.7097 46.0015 89.593 46.0248 89.4663 46.0448C89.3397 46.0648 89.2097 46.0748 89.0763 46.0748C88.5297 46.0748 88.0997 45.9248 87.7863 45.6248C87.473 45.3248 87.3163 44.8815 87.3163 44.2948ZM90.7403 43.3948C90.7403 42.8615 90.8469 42.3915 91.0603 41.9848C91.2736 41.5715 91.5636 41.2482 91.9303 41.0148C92.3036 40.7815 92.7236 40.6648 93.1903 40.6648C93.6703 40.6648 94.0836 40.7748 94.4303 40.9948C94.7836 41.2082 95.0536 41.5082 95.2403 41.8948C95.4269 42.2748 95.5203 42.7182 95.5203 43.2248C95.5203 43.3782 95.5103 43.5248 95.4903 43.6648H91.7203C91.7736 44.1582 91.9436 44.5382 92.2303 44.8048C92.5169 45.0648 92.8736 45.1948 93.3003 45.1948C93.5403 45.1948 93.7836 45.1382 94.0303 45.0248C94.2836 44.9115 94.4869 44.7582 94.6403 44.5648L95.3203 45.1348C95.0936 45.4148 94.8003 45.6415 94.4403 45.8148C94.0803 45.9882 93.6836 46.0748 93.2503 46.0748C92.7636 46.0748 92.3303 45.9648 91.9503 45.7448C91.5703 45.5182 91.2736 45.2048 91.0603 44.8048C90.8469 44.3982 90.7403 43.9282 90.7403 43.3948ZM93.2003 41.4948C92.8536 41.4948 92.5436 41.6182 92.2703 41.8648C91.9969 42.1115 91.8236 42.4648 91.7503 42.9248H94.5703C94.5369 42.4515 94.3969 42.0948 94.1503 41.8548C93.9036 41.6148 93.5869 41.4948 93.2003 41.4948ZM99.8087 45.9648V38.9648H102.309C102.782 38.9648 103.202 39.0615 103.569 39.2548C103.935 39.4415 104.222 39.7082 104.429 40.0548C104.635 40.3948 104.739 40.7948 104.739 41.2548C104.739 41.7082 104.635 42.1048 104.429 42.4448C104.222 42.7848 103.935 43.0482 103.569 43.2348C103.202 43.4215 102.782 43.5148 102.309 43.5148H100.809V45.9648H99.8087ZM102.209 39.8748H100.809V42.6448H102.209C102.649 42.6448 103.005 42.5215 103.279 42.2748C103.559 42.0215 103.699 41.6815 103.699 41.2548C103.699 40.8348 103.559 40.5015 103.279 40.2548C103.005 40.0015 102.649 39.8748 102.209 39.8748ZM105.714 43.3748C105.714 42.8415 105.824 42.3715 106.044 41.9648C106.264 41.5582 106.56 41.2415 106.934 41.0148C107.314 40.7815 107.737 40.6648 108.204 40.6648C108.677 40.6648 109.1 40.7815 109.474 41.0148C109.854 41.2415 110.154 41.5582 110.374 41.9648C110.594 42.3715 110.704 42.8415 110.704 43.3748C110.704 43.9015 110.594 44.3682 110.374 44.7748C110.154 45.1815 109.854 45.5015 109.474 45.7348C109.1 45.9615 108.677 46.0748 108.204 46.0748C107.737 46.0748 107.314 45.9615 106.934 45.7348C106.56 45.5015 106.264 45.1815 106.044 44.7748C105.824 44.3682 105.714 43.9015 105.714 43.3748ZM106.704 43.3748C106.704 43.9548 106.85 44.4048 107.144 44.7248C107.437 45.0382 107.79 45.1948 108.204 45.1948C108.484 45.1948 108.737 45.1248 108.964 44.9848C109.19 44.8382 109.37 44.6315 109.504 44.3648C109.644 44.0915 109.714 43.7615 109.714 43.3748C109.714 42.9882 109.644 42.6582 109.504 42.3848C109.37 42.1115 109.19 41.9048 108.964 41.7648C108.737 41.6182 108.484 41.5448 108.204 41.5448C107.93 41.5448 107.677 41.6182 107.444 41.7648C107.217 41.9048 107.037 42.1115 106.904 42.3848C106.77 42.6582 106.704 42.9882 106.704 43.3748ZM112.21 45.9648V40.7848H113.17V41.8248C113.303 41.5115 113.523 41.2415 113.83 41.0148C114.143 40.7815 114.493 40.6648 114.88 40.6648V41.6448C113.74 41.7048 113.17 42.3348 113.17 43.5348V45.9648H112.21ZM116.287 44.2948V41.6348H115.397V40.7848H116.287V39.5448H117.237V40.7848H118.727V41.6348H117.237V44.2148C117.237 44.5615 117.313 44.8115 117.467 44.9648C117.627 45.1115 117.86 45.1848 118.167 45.1848C118.333 45.1848 118.507 45.1648 118.687 45.1248L118.787 45.9748C118.68 46.0015 118.563 46.0248 118.437 46.0448C118.31 46.0648 118.18 46.0748 118.047 46.0748C117.5 46.0748 117.07 45.9248 116.757 45.6248C116.443 45.3248 116.287 44.8815 116.287 44.2948ZM119.761 44.5348C119.761 44.0615 119.944 43.6682 120.311 43.3548C120.684 43.0415 121.197 42.8848 121.851 42.8848C122.071 42.8848 122.274 42.8982 122.461 42.9248C122.654 42.9448 122.844 42.9815 123.031 43.0348V42.9248C123.031 42.0048 122.604 41.5448 121.751 41.5448C121.544 41.5448 121.321 41.5782 121.081 41.6448C120.847 41.7048 120.617 41.8015 120.391 41.9348L120.061 41.1648C120.334 41.0115 120.627 40.8915 120.941 40.8048C121.261 40.7115 121.587 40.6648 121.921 40.6648C122.554 40.6648 123.057 40.8482 123.431 41.2148C123.804 41.5815 123.991 42.0815 123.991 42.7148V45.9648H123.031V45.2648C122.851 45.5182 122.624 45.7182 122.351 45.8648C122.077 46.0048 121.774 46.0748 121.441 46.0748C121.114 46.0748 120.824 46.0115 120.571 45.8848C120.317 45.7515 120.117 45.5682 119.971 45.3348C119.831 45.1015 119.761 44.8348 119.761 44.5348ZM120.721 44.4648C120.721 44.6915 120.797 44.8815 120.951 45.0348C121.104 45.1815 121.327 45.2548 121.621 45.2548C121.874 45.2548 122.107 45.1982 122.321 45.0848C122.534 44.9715 122.704 44.8148 122.831 44.6148C122.964 44.4082 123.031 44.1715 123.031 43.9048V43.7348C122.844 43.6948 122.657 43.6648 122.471 43.6448C122.291 43.6248 122.097 43.6148 121.891 43.6148C121.484 43.6148 121.187 43.6982 121.001 43.8648C120.814 44.0315 120.721 44.2315 120.721 44.4648ZM125.845 45.9648V38.6648H126.805V45.9648H125.845Z" fill="white"/>
</svg>
