<svg width="24" height="24" viewBox="0 0 24 24" fill="none" xmlns="http://www.w3.org/2000/svg">
<path fill-rule="evenodd" clip-rule="evenodd" d="M3.79487 4.54286C3.65327 4.54286 3.53847 4.65798 3.53847 4.8V8.91429C3.53847 9.05631 3.65327 9.17143 3.79487 9.17143H7.89741C8.039 9.17143 8.15381 9.05631 8.15381 8.91429V4.8C8.15381 4.65798 8.039 4.54286 7.89741 4.54286H3.79487ZM2 4.8C2 3.8059 2.80358 3 3.79487 3H7.89741C8.88869 3 9.69228 3.8059 9.69228 4.8V8.91429C9.69228 9.90839 8.88869 10.7143 7.89741 10.7143H3.79487C2.80358 10.7143 2 9.90839 2 8.91429V4.8ZM3.79487 14.8286C3.65327 14.8286 3.53847 14.9437 3.53847 15.0857V19.2C3.53847 19.342 3.65327 19.4571 3.79487 19.4571H7.89741C8.039 19.4571 8.15381 19.342 8.15381 19.2V15.0857C8.15381 14.9437 8.039 14.8286 7.89741 14.8286H3.79487ZM2 15.0857C2 14.0916 2.80358 13.2857 3.79487 13.2857H7.89741C8.88869 13.2857 9.69228 14.0916 9.69228 15.0857V19.2C9.69228 20.1941 8.88869 21 7.89741 21H3.79487C2.80358 21 2 20.1941 2 19.2V15.0857Z" fill="#151515"/>
<path fill-rule="evenodd" clip-rule="evenodd" d="M15.7949 4.54286C15.6533 4.54286 15.5385 4.65798 15.5385 4.8V8.91429C15.5385 9.05631 15.6533 9.17143 15.7949 9.17143H19.8974C20.039 9.17143 20.1538 9.05631 20.1538 8.91429V4.8C20.1538 4.65798 20.039 4.54286 19.8974 4.54286H15.7949ZM14 4.8C14 3.8059 14.8036 3 15.7949 3H19.8974C20.8887 3 21.6923 3.8059 21.6923 4.8V8.91429C21.6923 9.90839 20.8887 10.7143 19.8974 10.7143H15.7949C14.8036 10.7143 14 9.90839 14 8.91429V4.8ZM15.7949 14.8286C15.6533 14.8286 15.5385 14.9437 15.5385 15.0857V19.2C15.5385 19.342 15.6533 19.4571 15.7949 19.4571H19.8974C20.039 19.4571 20.1538 19.342 20.1538 19.2V15.0857C20.1538 14.9437 20.039 14.8286 19.8974 14.8286H15.7949ZM14 15.0857C14 14.0916 14.8036 13.2857 15.7949 13.2857H19.8974C20.8887 13.2857 21.6923 14.0916 21.6923 15.0857V19.2C21.6923 20.1941 20.8887 21 19.8974 21H15.7949C14.8036 21 14 20.1941 14 19.2V15.0857Z" fill="#151515"/>
</svg>
