<svg width="342" height="229" viewBox="0 0 342 229" fill="none" xmlns="http://www.w3.org/2000/svg">
<path d="M273.053 35.4278H290.988V58.3213H273.053V35.4278Z" fill="#B0D8FF"/>
<path d="M274.138 36.4813H289.903V57.2677H274.138V36.4813Z" fill="white"/>
<path d="M292.196 15.6096H322.355V52.8542H292.196V15.6096Z" fill="#B0D8FF"/>
<path d="M293.943 17.2895H320.609V51.1741H293.943V17.2895Z" fill="white"/>
<path d="M116.705 123.083H10.5779C7.086 123.083 4.25526 120.261 4.25526 116.779V6.30387C4.25526 2.82231 7.086 0 10.5779 0H116.705C120.197 0 123.028 2.82231 123.028 6.30387V116.779C123.028 120.261 120.197 123.083 116.705 123.083Z" fill="#B0D8FF"/>
<path d="M114.996 123.083H10.1934C6.91385 123.083 4.25516 120.433 4.25516 117.163V8.02393C4.25516 4.75414 6.91375 2.10336 10.1934 2.10336H114.996C118.275 2.10336 120.934 4.75403 120.934 8.02393V117.163C120.934 120.433 118.275 123.083 114.996 123.083Z" fill="url(#paint0_linear_668_153585)"/>
<path d="M114.588 29.9213H11.358C10.2272 29.9213 9.31062 29.0074 9.31062 27.8801V9.30467C9.31062 8.17729 10.2272 7.26342 11.358 7.26342H114.588C115.719 7.26342 116.636 8.17729 116.636 9.30467V27.8801C116.636 29.0074 115.719 29.9213 114.588 29.9213Z" fill="#D5E1F7"/>
<path d="M113.995 29.3296H10.7645C9.63375 29.3296 8.71716 28.4157 8.71716 27.2884V8.71297C8.71716 7.58559 9.63375 6.67172 10.7645 6.67172H113.995C115.126 6.67172 116.042 7.58559 116.042 8.71297V27.2884C116.042 28.4156 115.125 29.3296 113.995 29.3296Z" fill="white"/>
<path d="M114.641 119.255H11.4112C10.2805 119.255 9.36386 118.341 9.36386 117.214V98.6385C9.36386 97.5112 10.2805 96.5973 11.4112 96.5973H114.641C115.772 96.5973 116.689 97.5112 116.689 98.6385V117.214C116.689 118.341 115.772 119.255 114.641 119.255Z" fill="#D5E1F7"/>
<path d="M113.995 118.437H10.7645C9.63375 118.437 8.71716 117.523 8.71716 116.396V97.8205C8.71716 96.6931 9.63375 95.7793 10.7645 95.7793H113.995C115.126 95.7793 116.042 96.6931 116.042 97.8205V116.396C116.042 117.523 115.125 118.437 113.995 118.437Z" fill="white"/>
<path d="M44.6113 102.078H13.9995C13.1289 102.078 12.4231 101.374 12.4231 100.506C12.4231 99.638 13.1289 98.9344 13.9995 98.9344H44.6113C45.4818 98.9344 46.1877 99.638 46.1877 100.506C46.1877 101.374 45.4819 102.078 44.6113 102.078ZM112.053 109.498H13.9995C13.1289 109.498 12.4231 108.794 12.4231 107.926C12.4231 107.058 13.1289 106.355 13.9995 106.355H112.053C112.924 106.355 113.63 107.058 113.63 107.926C113.63 108.794 112.924 109.498 112.053 109.498Z" fill="#D5E1F7"/>
<path d="M112.053 115.282H13.9995C13.1289 115.282 12.4231 114.578 12.4231 113.71C12.4231 112.842 13.1289 112.139 13.9995 112.139H112.053C112.924 112.139 113.63 112.842 113.63 113.71C113.63 114.578 112.924 115.282 112.053 115.282Z" fill="#EBF5FF"/>
<path d="M9.31062 91.5187V35.2262C9.31062 34.3868 9.99321 33.7062 10.8352 33.7062H30.5117C31.3537 33.7062 32.0363 34.3868 32.0363 35.2262V91.5187C32.0363 92.3582 31.3537 93.0387 30.5117 93.0387H10.8352C9.99321 93.0386 9.31062 92.3582 9.31062 91.5187Z" fill="#D5E1F7"/>
<path d="M8.8509 90.736V34.4436C8.8509 33.6041 9.5335 32.9235 10.3755 32.9235H30.052C30.894 32.9235 31.5765 33.6041 31.5765 34.4436V90.736C31.5765 91.5755 30.894 92.256 30.052 92.256H10.3755C9.5335 92.256 8.8509 91.5755 8.8509 90.736Z" fill="white"/>
<path d="M37.0085 90.1881V36.5567C37.0085 34.9824 38.2885 33.7062 39.8675 33.7062H114.07C115.649 33.7062 116.929 34.9824 116.929 36.5567V90.1882C116.929 91.7626 115.649 93.0387 114.07 93.0387H39.8675C38.2885 93.0386 37.0085 91.7624 37.0085 90.1881Z" fill="#D5E1F7"/>
<path d="M36.1216 89.4056V35.774C36.1216 34.1997 37.4016 32.9235 38.9806 32.9235H113.183C114.762 32.9235 116.042 34.1997 116.042 35.774V89.4056C116.042 90.9799 114.762 92.256 113.183 92.256H38.9806C37.4016 92.256 36.1216 90.9799 36.1216 89.4056Z" fill="white"/>
<path d="M62.1565 38.5372H40.7C39.8831 38.5372 39.2208 37.8769 39.2208 37.0624V36.8685C39.2208 36.0541 39.883 35.3938 40.7 35.3938H62.1565C62.9734 35.3938 63.6357 36.054 63.6357 36.8685V37.0624C63.6357 37.8768 62.9734 38.5372 62.1565 38.5372Z" fill="#00D967"/>
<path d="M110.88 45.9573H40.7435C39.9025 45.9573 39.2208 45.2776 39.2208 44.4392V44.3321C39.2208 43.4937 39.9025 42.8139 40.7435 42.8139H110.88C111.721 42.8139 112.402 43.4936 112.402 44.3321V44.4392C112.402 45.2776 111.721 45.9573 110.88 45.9573Z" fill="#D5E1F7"/>
<path d="M110.88 51.7414H40.7435C39.9025 51.7414 39.2208 51.0617 39.2208 50.2232V50.1161C39.2208 49.2776 39.9025 48.5979 40.7435 48.5979H110.88C111.721 48.5979 112.402 49.2776 112.402 50.1161V50.2232C112.402 51.0617 111.721 51.7414 110.88 51.7414Z" fill="#EBF5FF"/>
<path d="M62.1565 57.524H40.7C39.8831 57.524 39.2208 56.8638 39.2208 56.0492V55.8553C39.2208 55.0408 39.883 54.3805 40.7 54.3805H62.1565C62.9734 54.3805 63.6357 55.0407 63.6357 55.8553V56.0492C63.6357 56.8637 62.9734 57.524 62.1565 57.524Z" fill="#00D967"/>
<path d="M110.88 64.9442H40.7435C39.9025 64.9442 39.2208 64.2645 39.2208 63.426V63.3188C39.2208 62.4804 39.9025 61.8007 40.7435 61.8007H110.88C111.721 61.8007 112.402 62.4804 112.402 63.3188V63.426C112.402 64.2644 111.721 64.9442 110.88 64.9442Z" fill="#D5E1F7"/>
<path d="M110.88 70.7282H40.7435C39.9025 70.7282 39.2208 70.0485 39.2208 69.2101V69.1029C39.2208 68.2645 39.9025 67.5847 40.7435 67.5847H110.88C111.721 67.5847 112.402 68.2644 112.402 69.1029V69.2101C112.402 70.0485 111.721 70.7282 110.88 70.7282Z" fill="#EBF5FF"/>
<path d="M62.1565 76.5109H40.7C39.8831 76.5109 39.2208 75.8506 39.2208 75.0361V74.8423C39.2208 74.0278 39.883 73.3675 40.7 73.3675H62.1565C62.9734 73.3675 63.6357 74.0277 63.6357 74.8423V75.0361C63.6357 75.8506 62.9734 76.5109 62.1565 76.5109Z" fill="#00D967"/>
<path d="M110.88 83.9309H40.7435C39.9025 83.9309 39.2208 83.2512 39.2208 82.4128V82.3056C39.2208 81.4672 39.9025 80.7874 40.7435 80.7874H110.88C111.721 80.7874 112.402 81.4671 112.402 82.3056V82.4128C112.402 83.2512 111.721 83.9309 110.88 83.9309Z" fill="#D5E1F7"/>
<path d="M110.88 89.7151H40.7435C39.9025 89.7151 39.2208 89.0354 39.2208 88.197V88.0899C39.2208 87.2515 39.9025 86.5717 40.7435 86.5717H110.88C111.721 86.5717 112.402 87.2514 112.402 88.0899V88.197C112.402 89.0354 111.721 89.7151 110.88 89.7151Z" fill="#EBF5FF"/>
<path d="M27.7315 53.4734H12.4974C11.2981 53.4734 10.3258 52.504 10.3258 51.3083V37.5589C10.3258 36.3631 11.2981 35.3938 12.4974 35.3938H27.7315C28.9308 35.3938 29.9031 36.3631 29.9031 37.5589V51.3083C29.9031 52.504 28.9308 53.4734 27.7315 53.4734ZM27.7315 74.8625H12.4974C11.2981 74.8625 10.3258 73.8932 10.3258 72.6974V58.948C10.3258 57.7522 11.2981 56.7829 12.4974 56.7829H27.7315C28.9308 56.7829 29.9031 57.7522 29.9031 58.948V72.6974C29.9031 73.8931 28.9308 74.8625 27.7315 74.8625ZM58.6193 27.1247H39.4085C38.218 27.1247 37.2529 26.1624 37.2529 24.9754V22.5986C37.2529 21.4116 38.218 20.4494 39.4085 20.4494H58.6193C59.8098 20.4494 60.775 21.4116 60.775 22.5986V24.9754C60.775 26.1624 59.8098 27.1247 58.6193 27.1247ZM32.4264 27.1247H13.2156C12.0251 27.1247 11.0599 26.1624 11.0599 24.9754V22.5986C11.0599 21.4116 12.0251 20.4494 13.2156 20.4494H32.4264C33.6169 20.4494 34.5821 21.4116 34.5821 22.5986V24.9754C34.5821 26.1624 33.6169 27.1247 32.4264 27.1247ZM85.0466 27.1247H65.8358C64.6453 27.1247 63.6801 26.1624 63.6801 24.9754V22.5986C63.6801 21.4116 64.6453 20.4494 65.8358 20.4494H85.0466C86.2371 20.4494 87.2023 21.4116 87.2023 22.5986V24.9754C87.2023 26.1624 86.2371 27.1247 85.0466 27.1247ZM111.474 27.1247H92.2631C91.0725 27.1247 90.1074 26.1624 90.1074 24.9754V22.5986C90.1074 21.4116 91.0725 20.4494 92.2631 20.4494H111.474C112.664 20.4494 113.63 21.4116 113.63 22.5986V24.9754C113.63 26.1624 112.664 27.1247 111.474 27.1247ZM111.248 18.1836H12.7736C11.4583 18.1836 10.3922 17.1206 10.3922 15.8093V11.2611C10.3922 9.94977 11.4583 8.88678 12.7736 8.88678H111.248C112.563 8.88678 113.63 9.94977 113.63 11.2611V15.8093C113.63 17.1206 112.563 18.1836 111.248 18.1836Z" fill="#DAEBFF"/>
<path d="M124.948 229C142.421 229 156.585 225.201 156.585 220.514C156.585 215.827 142.421 212.028 124.948 212.028C107.475 212.028 93.3107 215.827 93.3107 220.514C93.3107 225.201 107.475 229 124.948 229Z" fill="#E2EEFA"/>
<path d="M46.8933 212.028C55.2706 212.028 62.0618 209.906 62.0618 207.288C62.0618 204.67 55.2706 202.548 46.8933 202.548C38.5159 202.548 31.7247 204.67 31.7247 207.288C31.7247 209.906 38.5159 212.028 46.8933 212.028Z" fill="#E2EEFA"/>
<path d="M154.045 216.878C168.421 216.878 180.075 214.019 180.075 210.492C180.075 206.965 168.421 204.106 154.045 204.106C139.668 204.106 128.014 206.965 128.014 210.492C128.014 214.019 139.668 216.878 154.045 216.878Z" fill="#E2EEFA"/>
<path d="M300.983 204.255C323.636 204.255 342 202.262 342 199.803C342 197.345 323.636 195.352 300.983 195.352C278.33 195.352 259.966 197.345 259.966 199.803C259.966 202.262 278.33 204.255 300.983 204.255Z" fill="#E2EEFA"/>
<path d="M220.439 225.949C226.979 225.949 232.281 224.304 232.281 222.275C232.281 220.246 226.979 218.601 220.439 218.601C213.899 218.601 208.597 220.246 208.597 222.275C208.597 224.304 213.899 225.949 220.439 225.949Z" fill="#E2EEFA"/>
<path d="M0 185.908H323.764V188.058H0V185.908Z" fill="#D3E2F9"/>
<path d="M337.327 199.944H265.783C263.539 199.944 261.72 198.13 261.72 195.892V73.1587C261.72 70.9213 263.539 69.1075 265.783 69.1075H337.327C339.571 69.1075 341.39 70.9212 341.39 73.1587V195.893C341.39 198.13 339.571 199.944 337.327 199.944Z" fill="#D1E3FF"/>
<path d="M268.998 165.065H301.555V192.433H268.998V165.065ZM301.555 165.065H333.857V192.433H301.555V165.065Z" fill="#E3EEFF"/>
<path d="M268.998 76.1004H333.857V99.7603H268.998V76.1004ZM268.998 105.755H333.857V129.415H268.998V105.755ZM268.998 135.41H333.857V159.07H268.998V135.41Z" fill="#F5FCFF"/>
<path d="M294.49 175.393C295.759 175.393 296.788 174.416 296.788 173.212C296.788 172.008 295.759 171.031 294.49 171.031C293.221 171.031 292.192 172.008 292.192 173.212C292.192 174.416 293.221 175.393 294.49 175.393Z" fill="#D1E3FF"/>
<path d="M309.03 175.393C310.299 175.393 311.328 174.416 311.328 173.212C311.328 172.008 310.299 171.031 309.03 171.031C307.761 171.031 306.732 172.008 306.732 173.212C306.732 174.416 307.761 175.393 309.03 175.393Z" fill="#D1E3FF"/>
<path d="M270.657 81.3775H276.084V99.4274H270.657V81.3775ZM276.084 81.3775H281.51V99.4274H276.084V81.3775ZM281.51 81.3775H286.936V99.4274H281.51V81.3775Z" fill="#D1E3FF"/>
<path d="M286.936 81.3775H292.362V99.4274H286.936V81.3775ZM292.362 81.3775H297.789V99.4274H292.362V81.3775ZM302.718 111.269H308.145V129.319H302.718V111.269ZM308.145 111.269H313.571V129.319H308.145V111.269Z" fill="#D1E3FF"/>
<path d="M294.597 119.022V124.17H275.573V119.022H294.597Z" fill="#D1E3FF"/>
<path d="M296.448 113.873V119.022H277.424V113.873H296.448Z" fill="#D1E3FF"/>
<path d="M296.735 124.17V129.319H277.711V124.17H296.735Z" fill="#D1E3FF"/>
<path d="M313.571 111.269L318.997 111.269V129.319H313.571V111.269Z" fill="#D1E3FF"/>
<path d="M318.997 111.269H324.423V129.319H318.997V111.269ZM324.423 111.269H329.849V129.319H324.423V111.269ZM274.52 141.02H279.946V159.07H274.52V141.02ZM279.946 141.02H285.372V159.07H279.946V141.02ZM285.372 141.02H290.798V159.07H285.372V141.02ZM290.798 141.02H296.225V159.07H290.798V141.02Z" fill="#D1E3FF"/>
<path d="M296.225 141.02L301.651 141.02V159.07H296.225V141.02ZM309.599 97.9756L304.51 99.7603L297.915 82.8293L303.005 81.0447L309.599 97.9756ZM315.442 97.9756L310.352 99.7603L303.757 82.8293L308.847 81.0447L315.442 97.9756Z" fill="#D1E3FF"/>
<path d="M326.182 96.3246L321.852 99.4274L310.386 85.0237L314.717 81.9209L326.182 96.3246Z" fill="#D1E3FF"/>
<path d="M318.362 153.973C322.857 153.973 326.5 150.515 326.5 146.251C326.5 141.986 322.857 138.529 318.362 138.529C313.867 138.529 310.224 141.986 310.224 146.251C310.224 150.515 313.867 153.973 318.362 153.973Z" fill="#D1E3FF"/>
<path d="M312.178 157.523H323.952V159.07H312.178V157.523Z" fill="#D1E3FF"/>
<path d="M317.595 153.439H318.362V157.852H317.595V153.439Z" fill="#D1E3FF"/>
<path d="M55.2382 187.761C55.2382 187.761 66.9935 187.126 67.0071 184.744C67.0178 182.892 59.8268 184.459 59.8268 184.459C59.8268 184.459 67.6926 182.184 71.3286 180.322C72.1264 179.913 72.9401 179.472 73.4988 178.773C74.0576 178.073 74.3003 177.046 73.8479 176.274C73.2356 175.229 71.7671 175.144 70.5617 175.289C65.7197 175.872 62.3162 178.454 57.9576 180.636C61.1482 179.038 63.9859 176.994 66.6453 174.625C69.0902 172.447 71.9355 170.404 73.5652 167.492C74.5862 165.668 74.9918 162.972 73.1836 161.472C71.4304 160.017 68.9178 160.696 66.9925 161.371C61.8209 163.182 57.2887 166.777 54.3096 171.361C55.0773 169.218 55.6752 167.018 56.0976 164.782C56.2676 163.881 56.3306 162.771 55.5835 162.237C54.6155 161.545 53.3226 162.471 52.5699 163.391C50.7417 165.629 49.3584 168.194 48.494 170.948C49.0879 164.795 49.6752 158.521 48.3326 152.487C48.0262 151.109 47.6027 149.718 46.74 148.599C45.8773 147.479 44.4949 146.671 43.0874 146.824C41.7545 146.969 40.6539 147.913 39.7603 148.91C36.8772 152.125 35.188 156.382 35.0832 160.694C34.9786 165.005 36.4593 169.338 39.183 172.689C37.7482 171.189 36.1332 169.871 34.3746 168.764C33.98 168.516 33.4007 168.303 33.1041 168.662C32.951 168.848 32.9536 169.113 32.9758 169.352C33.2464 172.278 35.2142 174.731 37.0984 176.99C33.2787 172.545 27.269 170.066 21.4158 170.522C20.7086 170.577 19.9058 170.734 19.5461 171.343C19.3381 171.696 19.3288 172.13 19.3722 172.537C19.6848 175.471 22.2809 177.6 24.834 179.092C26.9819 180.347 29.2431 181.396 31.5002 182.444C30.2087 182.26 28.9011 182.214 27.5998 182.307C27.3031 182.328 26.9715 182.375 26.7906 182.61C26.4487 183.055 26.9305 183.658 27.386 183.986C30.6479 186.334 34.7571 187.486 38.7687 187.176" fill="#00D967"/>
<path d="M68.5869 165.88C68.731 165.776 68.8736 166.006 68.7345 166.111C64.9959 168.927 61.539 172.094 58.4763 175.632C55.3885 179.2 52.9252 183.096 50.5171 187.131C50.4303 187.277 50.2111 187.161 50.2843 187.007C54.288 178.637 61.1025 171.278 68.5869 165.88ZM51.6698 168.904C49.5218 174.391 48.2319 181.302 48.6647 187.207C48.6757 187.357 48.8948 187.347 48.8972 187.198C48.9935 181.254 49.8826 174.608 51.9819 169.02C52.0479 168.844 51.739 168.727 51.6698 168.904ZM44.2265 156.782C43.2139 166.854 44.0303 177.593 46.7372 187.359C46.7823 187.522 47.0154 187.44 46.9836 187.281C45.9561 182.159 45.0268 177.044 44.5993 171.831C44.1882 166.82 44.2299 161.819 44.4052 156.799C44.4085 156.699 44.2366 156.681 44.2265 156.782ZM35.0947 171.831C38.1287 176.13 41.4914 184.08 45.4762 187.547C45.639 187.688 45.8423 187.46 45.7007 187.304C42.0991 183.355 38.5687 175.952 35.3387 171.675C35.2279 171.529 34.9862 171.677 35.0947 171.831ZM67.7967 178.492C61.7784 181.198 55.5728 184.382 50.4728 188.612C50.3144 188.744 50.468 189.012 50.651 188.89C56.266 185.173 61.7004 181.514 67.8753 178.737C68.0251 178.67 67.9487 178.424 67.7967 178.492ZM30.3714 177.75C34.7542 180.359 39.4404 185.932 44.2181 187.751C44.369 187.809 44.4931 187.599 44.3396 187.524C39.7098 185.268 34.9773 180.069 30.4979 177.513C30.3467 177.427 30.2236 177.662 30.3714 177.75Z" fill="url(#paint1_linear_668_153585)"/>
<path d="M35.9038 187.063H61.5509V208.448H35.9038V187.063Z" fill="#B0D8FF"/>
<path d="M56.5116 187.063H61.5509V208.448H56.5116V187.063Z" fill="#DAEBFF"/>
<path d="M247.498 109.625H137.612C134.509 109.625 131.994 107.118 131.994 104.025V19.9551C131.994 16.862 134.509 14.3544 137.612 14.3544H247.498C250.6 14.3544 253.115 16.862 253.115 19.9551V104.025C253.115 107.118 250.6 109.625 247.498 109.625Z" fill="#B0D8FF"/>
<path d="M245.447 109.625H137.494C134.457 109.625 131.994 107.171 131.994 104.142V22.1334C131.994 19.1052 134.457 16.6503 137.494 16.6503H245.447C248.484 16.6503 250.946 19.1052 250.946 22.1334V104.142C250.946 107.171 248.484 109.625 245.447 109.625Z" fill="url(#paint2_linear_668_153585)"/>
<path d="M166.096 26.2584H152.734C152.273 26.2584 151.9 25.8205 151.9 25.2803C151.9 24.74 152.273 24.3021 152.734 24.3021H166.096C166.557 24.3021 166.93 24.74 166.93 25.2803C166.93 25.8205 166.557 26.2584 166.096 26.2584Z" fill="#00D967"/>
<path d="M179.12 35.0239H156.468C156.008 35.0239 155.635 34.586 155.635 34.0458C155.635 33.5056 156.008 33.0675 156.468 33.0675H179.12C179.58 33.0675 179.953 33.5056 179.953 34.0458C179.953 34.5859 179.58 35.0239 179.12 35.0239Z" fill="#006DFE"/>
<path d="M188.256 35.0239H222.822C223.282 35.0239 223.656 34.586 223.656 34.0458C223.656 33.5056 223.282 33.0675 222.822 33.0675H188.256C187.796 33.0675 187.423 33.5056 187.423 34.0458C187.423 34.5859 187.796 35.0239 188.256 35.0239Z" fill="#00D967"/>
<path d="M179.12 43.7893H156.468C156.008 43.7893 155.635 43.3514 155.635 42.8112C155.635 42.2709 156.008 41.833 156.468 41.833H179.12C179.58 41.833 179.953 42.2709 179.953 42.8112C179.953 43.3514 179.58 43.7893 179.12 43.7893Z" fill="#006DFE"/>
<path d="M175.385 52.5548H152.734C152.273 52.5548 151.9 52.1168 151.9 51.5766C151.9 51.0363 152.273 50.5984 152.734 50.5984H175.385C175.845 50.5984 176.219 51.0363 176.219 51.5766C176.219 52.1168 175.845 52.5548 175.385 52.5548Z" fill="#00D967"/>
<path d="M223.419 52.5548H184.521C184.061 52.5548 183.688 52.1168 183.688 51.5766C183.688 51.0363 184.061 50.5984 184.521 50.5984H223.419C223.88 50.5984 224.253 51.0363 224.253 51.5766C224.253 52.1168 223.88 52.5548 223.419 52.5548ZM198.705 43.7893H187.258C186.797 43.7893 186.424 43.3514 186.424 42.8112C186.424 42.2709 186.797 41.833 187.258 41.833H198.705C199.165 41.833 199.539 42.2709 199.539 42.8112C199.539 43.3514 199.165 43.7893 198.705 43.7893ZM218.8 43.7893H207.353C206.892 43.7893 206.519 43.3514 206.519 42.8112C206.519 42.2709 206.892 41.833 207.353 41.833H218.8C219.261 41.833 219.634 42.2709 219.634 42.8112C219.634 43.3514 219.261 43.7893 218.8 43.7893ZM167.889 61.3202H153.008C152.548 61.3202 152.174 60.8823 152.174 60.3421C152.174 59.8018 152.548 59.3639 153.008 59.3639H167.889C168.349 59.3639 168.722 59.8018 168.722 60.3421C168.722 60.8822 168.349 61.3202 167.889 61.3202Z" fill="#006DFE"/>
<path d="M198.748 61.3202H176.097C175.636 61.3202 175.263 60.8823 175.263 60.3421C175.263 59.8018 175.636 59.3639 176.097 59.3639H198.748C199.209 59.3639 199.582 59.8018 199.582 60.3421C199.582 60.8822 199.209 61.3202 198.748 61.3202Z" fill="#00D967"/>
<path d="M215.266 61.3202H206.807C206.346 61.3202 205.973 60.8823 205.973 60.3421C205.973 59.8018 206.346 59.3639 206.807 59.3639H215.266C215.727 59.3639 216.1 59.8018 216.1 60.3421C216.1 60.8822 215.727 61.3202 215.266 61.3202ZM181.899 70.0856H168.628C168.167 70.0856 167.794 69.6477 167.794 69.1075C167.794 68.5672 168.167 68.1293 168.628 68.1293H181.899C182.359 68.1293 182.733 68.5672 182.733 69.1075C182.733 69.6477 182.359 70.0856 181.899 70.0856ZM213.644 70.0856H190.992C190.532 70.0856 190.159 69.6477 190.159 69.1075C190.159 68.5672 190.532 68.1293 190.992 68.1293H213.644C214.104 68.1293 214.477 68.5672 214.477 69.1075C214.477 69.6477 214.104 70.0856 213.644 70.0856ZM206.383 78.8511H163.938C163.477 78.8511 163.104 78.4132 163.104 77.873C163.104 77.3327 163.477 76.8947 163.938 76.8947H206.383C206.843 76.8947 207.216 77.3326 207.216 77.873C207.216 78.4131 206.843 78.8511 206.383 78.8511ZM238.127 78.8511H212.488C212.028 78.8511 211.655 78.4132 211.655 77.873C211.655 77.3327 212.028 76.8947 212.488 76.8947H238.127C238.588 76.8947 238.961 77.3326 238.961 77.873C238.961 78.4131 238.588 78.8511 238.127 78.8511ZM175.385 87.6165H152.734C152.273 87.6165 151.9 87.1786 151.9 86.6384C151.9 86.0981 152.273 85.6602 152.734 85.6602H175.385C175.845 85.6602 176.219 86.0981 176.219 86.6384C176.219 87.1786 175.845 87.6165 175.385 87.6165Z" fill="#006DFE"/>
<path d="M202.796 87.6165H180.145C179.684 87.6165 179.311 87.1786 179.311 86.6384C179.311 86.0981 179.684 85.6602 180.145 85.6602H202.796C203.256 85.6602 203.63 86.0981 203.63 86.6384C203.63 87.1786 203.256 87.6165 202.796 87.6165Z" fill="#00D967"/>
<path d="M204.977 96.3819H170.573C170.113 96.3819 169.739 95.944 169.739 95.4037C169.739 94.8634 170.113 94.4255 170.573 94.4255H204.977C205.437 94.4255 205.811 94.8634 205.811 95.4037C205.811 95.944 205.437 96.3819 204.977 96.3819ZM140.828 24.3021H142.495V26.2585H140.828V24.3021ZM140.828 33.0675H142.495V35.0239H140.828V33.0675ZM140.828 41.8329H142.495V43.7893H140.828V41.8329ZM140.828 50.5984H142.495V52.5548H140.828V50.5984ZM140.828 59.3638H142.495V61.3202H140.828V59.3638ZM140.828 68.1292H142.495V70.0856H140.828V68.1292ZM140.828 72.512H142.495V74.4684H140.828V72.512ZM140.828 76.8947H142.495V78.8511H140.828V76.8947ZM140.828 81.2774H142.495V83.2338H140.828V81.2774ZM140.828 85.6601H142.495V87.6165H140.828V85.6601ZM140.828 90.0428H142.495V91.9992H140.828V90.0428ZM140.828 94.4255H142.495V96.3819H140.828V94.4255ZM140.828 98.8083H142.495V100.765H140.828V98.8083ZM229.37 100.372L223.294 97.3433C223.106 97.2496 222.984 97.033 222.984 96.7932V96.1424C222.984 95.9026 223.106 95.686 223.294 95.5923L229.37 92.5639C229.705 92.3966 230.078 92.6859 230.078 93.1141V93.3468C230.078 93.589 229.953 93.8073 229.762 93.8995L225.59 95.915C225.17 96.1182 225.17 96.8173 225.59 97.0205L229.762 99.0362C229.953 99.1284 230.078 99.3467 230.078 99.589V99.8216C230.078 100.25 229.706 100.539 229.37 100.372ZM234.878 90.8546L232.071 102.242C232.008 102.497 231.809 102.673 231.582 102.673C231.243 102.673 230.999 102.292 231.093 101.91L233.899 90.5224C233.962 90.2667 234.162 90.0907 234.389 90.0907C234.728 90.0907 234.972 90.4722 234.878 90.8546ZM242.677 97.3434L236.601 100.372C236.265 100.539 235.893 100.25 235.893 99.8217V99.5891C235.893 99.3468 236.017 99.1285 236.208 99.0363L240.38 97.0206C240.801 96.8174 240.801 96.1183 240.38 95.9151L236.208 93.8996C236.017 93.8074 235.893 93.5891 235.893 93.3469V93.1142C235.893 92.6859 236.265 92.3966 236.601 92.5641L242.677 95.5924C242.865 95.6861 242.987 95.9027 242.987 96.1425V96.7933C242.987 97.033 242.865 97.2497 242.677 97.3434Z" fill="#006DFE"/>
<path d="M151.914 170.957V185.495H156.719V172.411C155.036 171.138 153.26 170.89 151.914 170.957Z" fill="#B0D8FF"/>
<path d="M150.798 173.703C150.798 173.703 154.939 174.428 157.315 178.827C159.69 183.225 161.652 178.312 161.194 176.3C160.736 174.288 160.976 172.229 159.756 170.685C158.535 169.14 156.203 166.941 153.021 167.783C149.839 168.626 149.425 168.158 149.599 170.053C149.774 171.948 150.079 173.984 150.079 173.984" fill="#151515"/>
<path d="M136.812 212.444C138.864 212.444 140.528 210.611 140.528 208.349C140.528 206.088 138.864 204.255 136.812 204.255C134.759 204.255 133.095 206.088 133.095 208.349C133.095 210.611 134.759 212.444 136.812 212.444Z" fill="#191E56"/>
<path d="M158.262 212.028C158.262 214.289 156.598 216.122 154.546 216.122C152.494 216.122 150.829 214.289 150.829 212.028C150.829 209.766 152.494 207.933 154.546 207.933C156.598 207.933 158.262 209.766 158.262 212.028ZM175.808 208.349C175.808 210.611 174.144 212.444 172.091 212.444C170.039 212.444 168.375 210.611 168.375 208.349C168.375 206.088 170.039 204.255 172.091 204.255C174.144 204.255 175.808 206.088 175.808 208.349Z" fill="#191E56"/>
<path d="M151.033 185.423C151.033 185.423 154.277 184.104 157.72 185.423L157.814 190.054L174.688 203.931V207.228H169.706L169.64 204.693L156.719 194.627L156.799 207.228L156.159 210.189H152.795L152.174 207.258L152.034 194.978L139.181 204.591L139.128 207.053L134.509 207.082V203.594L151.06 190.113V187.336L151.033 185.423Z" fill="#0662B7"/>
<path d="M163.065 99.5182C163.065 99.5182 168.554 97.5764 176.72 99.5182C184.886 101.46 189.766 109.568 190.037 116.122C190.308 122.676 187.36 162.963 176.551 173.149C165.742 183.334 138.466 178.317 132.891 176.189C127.317 174.061 123.2 165.699 123.2 165.699L151.141 145.885L152.628 103.369L163.065 99.5182Z" fill="#006DFE"/>
<path d="M164.115 97.5408C164.115 97.5408 169.299 98.4187 172.044 104.821C174.789 111.223 174.204 120.75 173.48 133.115C172.756 145.48 176.314 145.784 176.72 154.399C177.127 163.013 175.094 171.121 163.709 174.973C152.323 178.824 142.768 180.557 128.13 178.221L117.253 165.851L122.539 141.73C122.539 141.73 132.383 131.881 133.611 124.491C134.839 117.102 144.391 98.6742 148.257 95.9843C152.123 93.2943 164.115 97.5408 164.115 97.5408Z" fill="#0662B7"/>
<path d="M144.852 97.4396L144.191 97.3889C144.191 97.3889 137.38 97.5916 135.246 100.227C133.111 102.862 131.637 115.227 131.637 115.227L135.856 146.899C135.856 146.899 138.397 151.358 151.307 151.358C164.217 151.358 169.3 146.088 169.3 146.088L168.105 131.257C168.105 131.257 170.265 127.895 170.621 124.298C170.977 120.7 167.419 101.494 163.556 98.7065C159.693 95.9193 151.155 97.1284 151.155 97.1284L144.852 97.4396Z" fill="#FFAB00"/>
<path d="M159.744 103.419C159.744 103.419 157.965 105.497 158.626 109.298C159.287 113.098 162.082 118.419 161.015 120.446C159.947 122.473 157.897 125.852 158.338 126.645C158.778 127.439 159.676 127.879 159.676 127.879L165.504 131.56C165.504 131.56 167.045 131.983 168.105 131.257L168.825 131.46L151.698 140.665L149.731 137.828C149.731 137.828 155.957 131.113 156.516 128.833C157.076 126.552 156.669 126.386 157.94 124.113C159.21 121.84 160.481 120.37 159.668 117.862C158.854 115.353 157.355 111.274 157.66 108.867C157.965 106.46 158.143 104.965 159.744 103.419ZM137.177 103.711C137.177 103.711 136.106 108.188 137.239 113.658L141.292 133.234L141.989 132.878C141.989 132.878 137.177 108.8 137.177 103.711Z" fill="#FE8E00"/>
<path d="M121.715 206.908C121.715 206.908 121.308 210.168 121.317 212.794C121.326 215.421 123.114 217.505 122.201 219.966C121.288 222.427 113.775 222.502 108.424 223.134C103.072 223.767 98.3384 222.622 99.024 218.616C99.7095 214.609 108.396 216.186 111.802 211.204C115.207 206.222 114.184 205.409 114.184 205.409L121.715 206.908ZM150.382 209.431C150.382 209.431 149.976 212.692 149.985 215.318C149.994 217.945 151.781 220.029 150.869 222.49C149.956 224.951 142.443 225.026 137.092 225.658C131.74 226.291 127.006 225.146 127.692 221.14C128.377 217.133 137.064 218.709 140.47 213.728C143.875 208.746 142.852 207.933 142.852 207.933L150.382 209.431Z" fill="#FFAB00"/>
<path d="M136.635 146.324L135.856 146.899C135.856 146.899 112.645 154.365 110.476 161.392C108.308 168.419 111.764 208.723 111.764 208.723C111.764 208.723 118.066 213.689 123.657 208.216L124.115 170.564L147.575 161.899L154.357 162.101C154.357 162.101 162.489 156.324 162.997 155.919C163.505 155.514 169.91 150.953 169.91 150.953L165.945 144.466L136.635 146.324Z" fill="#1E2889"/>
<path d="M109.761 157.203C109.761 157.203 119.185 159.321 120.913 170.948C122.641 182.574 124.674 191.153 124.674 191.153L129.474 174.053L146.224 165.091L156.627 156.933L161.882 144.889L153.543 140.514L128.232 142.642L114.915 149.534L109.761 157.203Z" fill="#1A1A7C"/>
<path d="M153.137 150.041C153.137 150.041 140.867 160.48 139.835 168.182C138.804 175.885 139.835 209.837 139.835 209.837C139.835 209.837 147.749 215.108 153.137 209.837C153.137 209.837 150.9 178.824 155.678 173.554C160.456 168.284 168.893 163.52 169.909 155.716C170.926 147.912 169.3 146.088 169.3 146.088L161.149 144.77L153.137 150.041Z" fill="#1E2889"/>
<path d="M137.685 183.79C137.99 182.878 142.26 165.566 159.947 169.585L165.505 166.932C165.505 166.932 172.78 160.919 173.31 160.176C173.84 159.433 173.39 153.284 173.48 152.473C173.569 151.662 173.48 142.676 173.48 142.676L138.465 141.865L138.939 154.365L137.685 173.419L137.685 183.79Z" fill="#1A1A7C"/>
<path d="M56.871 227.503V146.463C56.871 146.31 56.9321 146.163 57.0408 146.054C57.1495 145.946 57.2969 145.885 57.4506 145.885H59.0362C59.1899 145.885 59.3373 145.946 59.446 146.054C59.5547 146.163 59.6158 146.31 59.6158 146.463V227.503C59.6158 227.656 59.5547 227.803 59.446 227.911C59.3373 228.02 59.1899 228.081 59.0362 228.081H57.4506C57.2969 228.081 57.1495 228.02 57.0408 227.911C56.9321 227.803 56.871 227.656 56.871 227.503ZM191.87 227.503V146.463C191.87 146.31 191.931 146.163 192.039 146.054C192.148 145.946 192.295 145.885 192.449 145.885H194.035C194.188 145.885 194.336 145.946 194.445 146.054C194.553 146.163 194.614 146.31 194.614 146.463V227.503C194.614 227.656 194.553 227.803 194.445 227.911C194.336 228.02 194.188 228.081 194.035 228.081H192.449C192.295 228.081 192.148 228.02 192.039 227.911C191.931 227.803 191.87 227.656 191.87 227.503ZM90.6113 217.534L85.6033 145.37C85.5933 145.226 85.6412 145.083 85.7366 144.974C85.832 144.865 85.967 144.798 86.112 144.788L87.7571 144.674C87.902 144.664 88.045 144.712 88.1546 144.807C88.2642 144.902 88.3314 145.037 88.3414 145.182L93.3494 217.345C93.3544 217.417 93.3452 217.489 93.3223 217.557C93.2994 217.625 93.2633 217.688 93.2161 217.742C93.1688 217.796 93.1114 217.84 93.047 217.872C92.9826 217.904 92.9125 217.923 92.8407 217.928L91.1956 218.041C91.1238 218.046 91.0518 218.037 90.9836 218.014C90.9154 217.992 90.8523 217.956 90.7981 217.908C90.7438 217.861 90.6994 217.804 90.6674 217.74C90.6353 217.676 90.6162 217.606 90.6113 217.534ZM221.25 217.534L216.242 145.37C216.232 145.226 216.28 145.083 216.375 144.974C216.47 144.865 216.605 144.798 216.75 144.788L218.395 144.674C218.54 144.664 218.683 144.712 218.793 144.807C218.902 144.902 218.97 145.037 218.98 145.182L223.988 217.345C223.993 217.417 223.983 217.489 223.961 217.557C223.938 217.625 223.902 217.688 223.854 217.742C223.807 217.796 223.75 217.84 223.685 217.872C223.621 217.904 223.551 217.923 223.479 217.928L221.834 218.041C221.762 218.046 221.69 218.037 221.622 218.014C221.554 217.992 221.491 217.956 221.436 217.908C221.382 217.861 221.338 217.804 221.306 217.74C221.274 217.676 221.255 217.606 221.25 217.534Z" fill="#191E56"/>
<path d="M222.803 148.622H52.5677C51.9127 148.622 51.3818 148.092 51.3818 147.439V144.331C51.3818 143.678 51.9127 143.149 52.5677 143.149H222.803C223.458 143.149 223.989 143.678 223.989 144.331V147.439C223.989 148.092 223.458 148.622 222.803 148.622Z" fill="#0662B7"/>
<path d="M175.777 130.227H211.406V134.534H175.777V130.227Z" fill="#FFAB00"/>
<path d="M176.72 134.534H212.35V138.841H176.72V134.534Z" fill="#00D967"/>
<path d="M174.992 138.841H210.622V143.149H174.992V138.841Z" fill="#DE4D30"/>
<path d="M90.9453 89.8861L92.8871 92.522C93.7713 90.6409 95.6328 89.7991 96.8064 89.4431L94.1273 87.4127C94.1273 87.4127 93.6677 87.3924 93.0853 87.5817C92.3636 87.818 91.4535 88.3788 91.0036 89.7034C90.9828 89.7638 90.9634 89.8248 90.9453 89.8861Z" fill="#9BB4C9"/>
<path d="M64.4016 112.268C64.4016 113.507 65.2689 114.544 66.4317 114.809C66.6193 114.853 66.8157 114.876 67.0173 114.876C67.191 114.876 67.3604 114.858 67.5242 114.826C68.7259 114.592 69.6328 113.536 69.6328 112.268C69.6334 111.814 69.5148 111.368 69.2887 110.974C69.1081 110.66 68.864 110.386 68.5717 110.171C68.1221 109.838 67.577 109.659 67.0173 109.66C65.572 109.66 64.4016 110.828 64.4016 112.268ZM87.892 87.143C87.892 87.6537 88.0398 88.1311 88.2964 88.5344C88.4894 88.8396 88.7436 89.1017 89.043 89.3043C89.4756 89.5955 89.9857 89.751 90.5076 89.7507C90.677 89.7507 90.843 89.7344 91.0036 89.7034C91.4535 88.3788 92.3636 87.818 93.0853 87.5817C93.1102 87.4399 93.1233 87.2922 93.1233 87.1429C93.1233 85.7018 91.9519 84.5351 90.5078 84.5351C89.0633 84.5351 87.892 85.7018 87.892 87.143Z" fill="#4143C5"/>
<path d="M68.5717 110.171C68.864 110.386 69.1081 110.66 69.2887 110.974L89.043 89.3043C88.7436 89.1017 88.4894 88.8396 88.2964 88.5344L68.5717 110.171Z" fill="#9BB4C9"/>
<path d="M63.0372 140.983V140.93C71.7221 137.735 79.0675 140.665 79.6612 140.914C77.9021 141.381 71.42 142.798 63.0372 140.983Z" fill="#4143C5"/>
<path d="M66.4317 114.809L70.8558 140.091L70.9108 140.404L71.9668 140.211L67.5242 114.826C67.3574 114.86 67.1873 114.877 67.0171 114.877C66.8198 114.878 66.6234 114.855 66.4317 114.809Z" fill="#9BB4C9"/>
<path d="M92.5095 93.8499L95.6179 100.808L99.6247 97.4225L105.406 92.0808L104.673 91.4455L104.669 91.4433L104.644 91.4327L104.622 91.423L97.9519 88.5958C97.9519 88.5958 97.527 88.6496 96.9143 88.8355C95.7409 89.1915 93.8793 90.0334 92.9947 91.9141C92.8926 92.1298 92.8068 92.3528 92.7382 92.5813C92.6196 92.9663 92.5395 93.3887 92.5095 93.8499Z" fill="#4143C5"/>
<path d="M102.61 98.6452C105.258 96.1632 106.421 93.1079 105.207 91.8207C103.993 90.5331 100.863 91.5013 98.2144 93.9827C95.5664 96.4645 94.4042 99.5199 95.6179 100.808C96.8316 102.095 99.9616 101.127 102.61 98.6452ZM63.0372 140.983H79.6612V143.149H63.0372V140.983Z" fill="#859AD0"/>
<path d="M233.249 195.478C233.249 195.668 233.212 195.855 233.139 196.039C232.303 198.163 226.791 199.803 220.115 199.803C213.359 199.803 207.794 198.124 207.063 195.964L206.98 195.478C206.98 193.09 212.86 191.153 220.114 191.153C227.369 191.153 233.249 193.09 233.249 195.478Z" fill="#191E56"/>
<path d="M233.14 196.039L228.61 222.631C220.356 227.316 211.619 222.631 211.619 222.631L207.063 195.964C207.794 198.124 213.359 199.803 220.115 199.803C226.791 199.803 232.303 198.163 233.139 196.039L233.14 196.039Z" fill="#0662B7"/>
<path d="M143.996 90.5984C143.996 90.5984 145.106 92.9295 144.191 97.3889C144.191 97.3889 144.903 99.568 147.393 99.5173C149.884 99.4666 151.155 97.1284 151.155 97.1284C151.155 97.1284 149.968 95.2267 150.46 91.1897L150.494 89.6863L147.343 87.5579L143.996 90.5984Z" fill="#FFACA6"/>
<path d="M143.852 93.538C143.852 93.538 148.223 92.6761 152.018 95.6491C152.018 95.6491 152.274 89.2264 152.445 89.0098C152.617 88.7933 145.411 85.5815 145.411 85.5815C145.411 85.5815 142.87 87.092 142.802 88.2962C142.734 89.5005 143.852 93.538 143.852 93.538Z" fill="#EA756C"/>
<path d="M136.838 78.3518C136.838 78.3518 130.369 78.1234 133.995 65.1167C133.995 65.1167 137.313 67.6087 143.209 67.9464C149.104 68.2842 155.678 68.1491 156.491 78.622C156.83 85.3786 150.46 91.1897 150.46 91.1897L144.698 87.5408L136.838 78.3518Z" fill="#1E2889"/>
<path d="M132.145 73.8704C132.145 73.8704 132.247 74.6255 135.093 73.8704C137.939 73.1154 141.548 71.9301 146.275 74.9805C151.002 78.0309 152.756 84.3653 156.504 83.6052L153.696 89.5849L147.575 93.538C147.575 93.538 137.821 90.7236 137.444 89.6663C137.068 88.6089 134.28 82.0699 133.873 81.0639C133.467 80.0579 132.891 77.5747 132.891 77.5747L132.145 73.8704Z" fill="#172272"/>
<path d="M136.567 76.6964C136.567 76.6964 134.805 91.426 140.227 92.2707C145.648 93.1153 149.24 86.9329 149.24 86.9329C149.24 86.9329 151.951 86.5951 151.68 83.7235C151.409 80.8519 149.274 81.933 149.274 81.933C149.274 81.933 146.868 80.8856 146.902 78.3519C146.902 78.3519 143.988 79.0276 142.666 76.3586C142.666 76.3586 140.464 77.8789 138.228 75.5479C138.228 75.5477 137.652 76.9329 136.567 76.6964Z" fill="#FFACA6"/>
<path d="M135.551 78.6124C135.551 78.6124 138.956 78.8924 142.234 79.6019C145.513 80.3114 147.241 85.0748 150.722 84.4921C154.204 83.9093 152.705 82.0222 152.705 82.0222L149.452 77.6255L141.853 75.1678L137.253 74.4076L135.373 75.9279L135.551 78.6124Z" fill="#EA756C"/>
<path d="M159.676 127.879C159.676 127.879 154.11 133.722 149.879 135.209C145.648 136.695 143.615 135.192 141.921 138.613L141.582 139.33C141.582 139.33 147.681 141.29 152.086 139.127L165.504 131.56L159.676 127.879Z" fill="#FFACA6"/>
<path d="M109.761 139.5H159.947V143.149H109.761V139.5Z" fill="#78C2FF"/>
<path d="M146.617 143.149H102.906L96.5836 112.608H140.295L146.617 143.149Z" fill="#B0D8FF"/>
<path d="M143.344 143.149H99.6331L93.3108 112.608H137.022L143.344 143.149Z" fill="#78C2FF"/>
<path d="M223.461 127.085H245.245V136.688H223.461V127.085Z" fill="#DAEBFF"/>
<path d="M232.27 136.688H254.054V146.291H232.27V136.688Z" fill="#EBF5FF"/>
<path d="M117.212 129.808C119.462 129.49 121.001 127.233 120.65 124.766C120.299 122.299 118.192 120.556 115.942 120.874C113.693 121.192 112.153 123.45 112.504 125.917C112.855 128.384 114.963 130.126 117.212 129.808Z" fill="white"/>
<defs>
<linearGradient id="paint0_linear_668_153585" x1="168.637" y1="-42.9565" x2="170.459" y2="249.939" gradientUnits="userSpaceOnUse">
<stop stop-color="#B0D8FF"/>
<stop offset="0.015" stop-color="#B3D9FF"/>
<stop offset="0.145" stop-color="#C4E1FF"/>
<stop offset="0.301" stop-color="#D1E7FF"/>
<stop offset="0.512" stop-color="#D8EAFF"/>
<stop offset="1" stop-color="#DAEBFF"/>
</linearGradient>
<linearGradient id="paint1_linear_668_153585" x1="165.659" y1="-1.29243" x2="173.08" y2="231.13" gradientUnits="userSpaceOnUse">
<stop offset="0.366" stop-color="#86CF94"/>
<stop offset="0.989" stop-color="#008166"/>
</linearGradient>
<linearGradient id="paint2_linear_668_153585" x1="171" y1="-45.8012" x2="171" y2="258.652" gradientUnits="userSpaceOnUse">
<stop stop-color="#B0D8FF"/>
<stop offset="0.015" stop-color="#B3D9FF"/>
<stop offset="0.145" stop-color="#C4E1FF"/>
<stop offset="0.301" stop-color="#D1E7FF"/>
<stop offset="0.512" stop-color="#D8EAFF"/>
<stop offset="1" stop-color="#DAEBFF"/>
</linearGradient>
</defs>
</svg>
