<svg width="24" height="24" viewBox="0 0 24 24" fill="none" xmlns="http://www.w3.org/2000/svg">
<circle cx="12" cy="12" r="12" fill="#F3F3F3"/>
<path fill-rule="evenodd" clip-rule="evenodd" d="M12.0002 5.33203C12.2834 5.33203 12.513 5.56163 12.513 5.84485V12.8119L15.0563 10.2686C15.2566 10.0683 15.5813 10.0683 15.7816 10.2686C15.9819 10.4688 15.9819 10.7935 15.7816 10.9938L12.3628 14.4126C12.1625 14.6129 11.8378 14.6129 11.6375 14.4126L8.21874 10.9938C8.01847 10.7935 8.01847 10.4688 8.21874 10.2686C8.41901 10.0683 8.74371 10.0683 8.94398 10.2686L11.4873 12.8119V5.84485C11.4873 5.56163 11.7169 5.33203 12.0002 5.33203ZM5.84632 13.5372C6.12954 13.5372 6.35914 13.7668 6.35914 14.05V16.785C6.35914 17.0117 6.44919 17.2291 6.60947 17.3894C6.76976 17.5497 6.98716 17.6397 7.21384 17.6397H16.7865C17.0132 17.6397 17.2306 17.5497 17.3909 17.3894C17.5511 17.2291 17.6412 17.0117 17.6412 16.785V14.05C17.6412 13.7668 17.8708 13.5372 18.154 13.5372C18.4372 13.5372 18.6668 13.7668 18.6668 14.05V16.785C18.6668 17.2837 18.4687 17.762 18.1161 18.1146C17.7635 18.4673 17.2852 18.6654 16.7865 18.6654H7.21384C6.71514 18.6654 6.23687 18.4673 5.88424 18.1146C5.5316 17.762 5.3335 17.2837 5.3335 16.785V14.05C5.3335 13.7668 5.56309 13.5372 5.84632 13.5372Z" fill="#0662B7"/>
</svg>
