<svg width="14" height="14" viewBox="0 0 14 14" fill="none" xmlns="http://www.w3.org/2000/svg">
<path fill-rule="evenodd" clip-rule="evenodd" d="M11.8941 1.26226C11.6707 1.26226 11.4564 1.35103 11.2984 1.50903L5.53351 7.27388L5.13635 8.86251L6.72498 8.46535L12.4898 2.7005C12.6478 2.5425 12.7366 2.32821 12.7366 2.10476C12.7366 1.88132 12.6478 1.66703 12.4898 1.50903C12.3318 1.35103 12.1175 1.26226 11.8941 1.26226ZM10.6406 0.851252C10.973 0.518801 11.4239 0.332031 11.8941 0.332031C12.3643 0.332031 12.8152 0.518801 13.1476 0.851252C13.4801 1.1837 13.6668 1.6346 13.6668 2.10476C13.6668 2.57492 13.4801 3.02582 13.1476 3.35827L7.29166 9.21422C7.23205 9.27383 7.15736 9.31612 7.07558 9.33656L4.60991 9.95298C4.45142 9.9926 4.28375 9.94616 4.16822 9.83063C4.0527 9.71511 4.00625 9.54744 4.04588 9.38894L4.66229 6.92328C4.68274 6.8415 4.72503 6.76681 4.78464 6.7072L10.6406 0.851252ZM0.830814 2.13697C1.14924 1.81855 1.58112 1.63966 2.03144 1.63966H6.34636C6.60323 1.63966 6.81147 1.8479 6.81147 2.10477C6.81147 2.36165 6.60323 2.56989 6.34636 2.56989H2.03144C1.82783 2.56989 1.63256 2.65077 1.48859 2.79475C1.34461 2.93872 1.26373 3.13399 1.26373 3.3376V11.9674C1.26373 12.171 1.34461 12.3663 1.48859 12.5103C1.63256 12.6542 1.82783 12.7351 2.03144 12.7351H10.6613C10.8649 12.7351 11.0601 12.6542 11.2041 12.5103C11.3481 12.3663 11.429 12.171 11.429 11.9674V7.65251C11.429 7.39563 11.6372 7.18739 11.8941 7.18739C12.151 7.18739 12.3592 7.39563 12.3592 7.65251V11.9674C12.3592 12.4177 12.1803 12.8496 11.8619 13.168C11.5435 13.4865 11.1116 13.6654 10.6613 13.6654H2.03144C1.58112 13.6654 1.14924 13.4865 0.830814 13.168C0.512387 12.8496 0.333496 12.4177 0.333496 11.9674V3.3376C0.333496 2.88728 0.512387 2.4554 0.830814 2.13697Z" fill="#ffffff"/>
</svg>
