<svg width="14" height="14" viewBox="0 0 14 14" fill="none" xmlns="http://www.w3.org/2000/svg">
<path fill-rule="evenodd" clip-rule="evenodd" d="M11.8946 1.26617C11.6711 1.26617 11.4568 1.35493 11.2989 1.51293L5.534 7.27778L5.13684 8.86641L6.72547 8.46925L12.4903 2.7044C12.6483 2.54641 12.7371 2.33211 12.7371 2.10867C12.7371 1.88522 12.6483 1.67093 12.4903 1.51293C12.3323 1.35493 12.118 1.26617 11.8946 1.26617ZM10.6411 0.855158C10.9735 0.522707 11.4244 0.335938 11.8946 0.335938C12.3647 0.335938 12.8156 0.522707 13.1481 0.855158C13.4805 1.18761 13.6673 1.63851 13.6673 2.10867C13.6673 2.57883 13.4805 3.02973 13.1481 3.36218L7.29215 9.21813C7.23254 9.27773 7.15785 9.32002 7.07607 9.34047L4.6104 9.95688C4.4519 9.99651 4.28424 9.95007 4.16871 9.83454C4.05318 9.71901 4.00674 9.55135 4.04637 9.39285L4.66278 6.92718C4.68323 6.8454 4.72552 6.77071 4.78513 6.7111L10.6411 0.855158ZM0.831302 2.14088C1.14973 1.82245 1.58161 1.64356 2.03193 1.64356H6.34684C6.60372 1.64356 6.81196 1.8518 6.81196 2.10868C6.81196 2.36556 6.60372 2.5738 6.34684 2.5738H2.03193C1.82832 2.5738 1.63305 2.65468 1.48908 2.79865C1.3451 2.94263 1.26422 3.1379 1.26422 3.34151V11.9713C1.26422 12.1749 1.3451 12.3702 1.48908 12.5142C1.63305 12.6582 1.82832 12.739 2.03193 12.739H10.6618C10.8654 12.739 11.0606 12.6582 11.2046 12.5142C11.3486 12.3702 11.4295 12.1749 11.4295 11.9713V7.65642C11.4295 7.39954 11.6377 7.1913 11.8946 7.1913C12.1515 7.1913 12.3597 7.39954 12.3597 7.65642V11.9713C12.3597 12.4216 12.1808 12.8535 11.8624 13.172C11.544 13.4904 11.1121 13.6693 10.6618 13.6693H2.03193C1.58161 13.6693 1.14973 13.4904 0.831302 13.172C0.512875 12.8535 0.333984 12.4216 0.333984 11.9713V3.34151C0.333984 2.89119 0.512875 2.45931 0.831302 2.14088Z" fill="#ffffff"/>
</svg>
