<svg width="24" height="24" viewBox="0 0 24 24" fill="none" xmlns="http://www.w3.org/2000/svg">
<circle cx="12" cy="12" r="12" fill="#F3F3F3"/>
<path fill-rule="evenodd" clip-rule="evenodd" d="M6.29583 8.2195L12.0002 12.3894L17.7045 8.2195C17.6088 7.88562 17.3105 7.6394 16.9614 7.6394H7.03892C6.68981 7.6394 6.39149 7.88562 6.29583 8.2195ZM17.7366 9.38181L12.2669 13.3802C12.1067 13.4972 11.8936 13.4972 11.7334 13.3802L6.26373 9.38181V16.2203C6.26373 16.6645 6.61363 17.0299 7.03892 17.0299H16.9614C17.3867 17.0299 17.7366 16.6645 17.7366 16.2203V9.38181ZM5.3335 8.44892C5.3335 7.46829 6.09988 6.66797 7.03892 6.66797H16.9614C17.9005 6.66797 18.6668 7.46829 18.6668 8.44892V16.2203C18.6668 17.201 17.9005 18.0013 16.9614 18.0013H7.03892C6.09988 18.0013 5.3335 17.201 5.3335 16.2203V8.44892Z" fill="#0662B7"/>
</svg>
