<svg width="256" height="170" viewBox="0 0 256 170" fill="none" xmlns="http://www.w3.org/2000/svg">
<path d="M255.252 137.522H0.804932C3.63765 127.497 5.22794 123.057 11.937 119.815C15.217 118.219 22.1745 115.176 28.3369 117.97C51.7938 128.594 57.5586 114.428 67.1501 111.785C89.9609 105.55 90.9052 135.178 114.611 111.036C116.747 108.892 119.332 107.196 122.214 106.348C132.8 103.205 139.856 114.079 147.46 109.69C170.768 96.2721 179.415 112.583 185.677 119.067C206.997 141.114 230.106 109.69 243.425 119.117C249.488 123.406 246.705 129.292 255.252 137.522Z" fill="#F5F5F5"/>
<path d="M131.557 117.471C131.557 118.768 132.601 119.766 133.843 119.766H165.798L168.879 115.127H133.843C132.601 115.177 131.557 116.224 131.557 117.471Z" fill="#F5F5F5"/>
<path d="M174.197 117.222C174.396 118.469 173.352 119.766 171.911 119.766H157.002C155.66 119.766 154.567 118.569 154.716 117.222C154.865 116.025 155.958 115.127 157.151 115.127H168.929L164.705 98.8163H169.476C169.923 100.512 167.786 92.332 174.197 117.222Z" fill="white"/>
<path d="M168.929 115.177H145.621L141.347 98.8164H164.655L168.929 115.177Z" fill="white"/>
<path d="M205.257 21.1045H200.834C203.518 21.1045 205.655 23.3989 205.456 26.0924L204.76 35.5196C204.959 35.5695 205.108 35.7191 205.158 35.9685C205.506 37.6145 205.108 39.3104 204.909 41.0063C204.711 42.8519 204.562 44.7473 204.363 46.5928C204.562 46.7923 204.711 47.0417 204.76 47.3909C204.81 50.3338 205.009 53.2767 205.108 56.2195C205.108 56.868 204.711 57.2171 204.214 57.267V61.1077C204.214 62.3547 204.562 64.8985 203.369 65.4472V66.2453H202.425L200.288 94.5767C200.089 96.971 198.101 98.8664 195.666 98.8664H200.089C202.524 98.8664 204.512 97.0208 204.711 94.5767L209.829 26.0924C210.078 23.3989 207.941 21.1045 205.257 21.1045Z" fill="#004788"/>
<path d="M203.617 21.1045H200.834C203.518 21.1045 205.655 23.3989 205.456 26.0924L204.76 35.5196C204.959 35.5695 205.108 35.7191 205.158 35.9685C205.506 37.6145 205.108 39.3104 204.909 41.0063C204.711 42.8519 204.562 44.7473 204.363 46.5928C204.562 46.7923 204.711 47.0417 204.76 47.3909C204.81 50.3338 205.009 53.2767 205.108 56.2195C205.108 56.868 204.711 57.2171 204.214 57.267V61.1077C204.214 62.3547 204.562 64.8985 203.369 65.4472V66.2453H202.425L200.288 94.5767C200.089 96.971 198.101 98.8664 195.666 98.8664H198.449C200.884 98.8664 202.872 97.0208 203.071 94.5767L208.189 26.0924C208.438 23.3989 206.301 21.1045 203.617 21.1045Z" fill="#82B1DB"/>
<path d="M200.834 21.1045H109.641C107.206 21.1045 105.218 22.95 105.019 25.3941L104.771 29.0353L100.596 84.3515H201.083L202.425 66.2453H201.53V64.8487H201.729C201.679 64.6491 201.679 64.4496 201.779 64.2501C202.226 63.1528 201.977 61.7063 201.977 60.559V55.9203C201.977 55.3217 202.375 54.9725 202.822 54.8728C202.723 52.3788 202.574 49.9347 202.524 47.4408C202.524 46.942 202.773 46.6427 203.12 46.4931C203.22 44.9967 203.319 43.5502 203.518 42.0538C203.767 40.2581 204.313 38.1133 203.916 36.3676C203.816 35.8189 204.313 35.5196 204.711 35.6194C204.76 34.6717 204.462 39.1109 205.407 26.1922C205.655 23.3989 203.518 21.1045 200.834 21.1045Z" fill="white"/>
<path d="M200.387 26.1416C195.815 87.2438 196.461 78.3154 196.411 79.2631H106.013L109.989 26.1416H200.387Z" fill="white"/>
<path d="M201.083 84.3017C200.984 85.3492 201.381 80.5109 200.288 94.527C200.089 96.9212 198.101 98.8166 195.666 98.8166H104.472C101.789 98.8166 99.6518 96.5222 99.8506 93.8287C100.795 80.7603 100.497 85.2494 100.546 84.3017H201.083Z" fill="#F5F5F5"/>
<path d="M185.13 119.815H214.65V125.801H185.13V119.815Z" fill="#E1E5E2"/>
<path d="M97.8627 119.815H185.13V125.801H97.8627V119.815Z" fill="white"/>
<path d="M183.639 125.801H211.619V164.956H183.639V125.801Z" fill="#E1E5E2"/>
<path d="M100.944 125.801H183.639V164.956H100.944V125.801ZM203.518 164.956H206.351V168.996H203.518V164.956Z" fill="white"/>
<path d="M206.301 164.956H209.183V168.996H206.301V164.956Z" fill="#E1E5E2"/>
<path d="M185.925 164.956H188.758V168.996H185.925V164.956Z" fill="white"/>
<path d="M188.708 164.956H191.591V168.996H188.708V164.956Z" fill="#E1E5E2"/>
<path d="M124.749 164.956H127.581V168.996H124.749V164.956Z" fill="white"/>
<path d="M127.581 164.956H130.464V168.996H127.581V164.956Z" fill="#E1E5E2"/>
<path d="M105.118 164.956H107.951V168.996H105.118V164.956Z" fill="white"/>
<path d="M107.951 164.956H110.834V168.996H107.951V164.956Z" fill="#E1E5E2"/>
<path d="M104.274 129.841H180.31V160.965H104.274V129.841ZM152.827 91.5834C152.778 92.9301 151.635 94.0274 150.293 94.0274C148.951 94.0274 147.907 92.9301 148.007 91.5834C148.106 90.2366 149.199 89.1393 150.541 89.1393C151.833 89.0894 152.877 90.2366 152.827 91.5834ZM197.505 2.29934L192.237 72.5793C192.187 73.4771 191.392 74.2253 190.497 74.2253C112.672 73.527 112.275 75.6718 112.324 72.6791V72.5793L117.592 2.29934C117.642 1.40151 118.437 0.65332 119.332 0.65332H195.964C196.859 0.65332 197.554 1.40151 197.505 2.29934Z" fill="white"/>
<path d="M197.107 7.58662L197.505 2.24953C197.554 1.3517 196.908 0.603516 196.014 0.603516H119.332C118.437 0.603516 117.642 1.3517 117.592 2.24953L117.195 7.58662H197.107Z" fill="#F5F5F5"/>
<path d="M154.418 4.14542C154.418 4.79385 153.871 5.34253 153.225 5.34253H122.711C122.065 5.34253 121.518 4.79385 121.518 4.14542C121.518 3.49699 122.065 2.94832 122.711 2.94832H153.225C153.871 2.89844 154.418 3.44711 154.418 4.14542ZM180.757 4.14542C180.757 4.84373 180.21 5.3924 179.514 5.3924C178.819 5.3924 178.272 4.84373 178.272 4.14542C178.272 3.44711 178.819 2.89844 179.514 2.89844C180.21 2.89844 180.757 3.44711 180.757 4.14542ZM186.323 4.14542C186.323 4.84373 185.776 5.3924 185.08 5.3924C184.385 5.3924 183.838 4.84373 183.838 4.14542C183.838 3.44711 184.385 2.89844 185.08 2.89844C185.776 2.89844 186.323 3.44711 186.323 4.14542ZM191.889 4.14542C191.889 4.84373 191.342 5.3924 190.647 5.3924C189.951 5.3924 189.404 4.84373 189.404 4.14542C189.404 3.44711 189.951 2.89844 190.647 2.89844C191.342 2.89844 191.889 3.44711 191.889 4.14542Z" fill="white"/>
<path d="M173.501 40.9065L162.518 58.0649H142.838L142.143 56.7182L134.092 40.9065L145.075 23.7979H164.755L173.501 40.9065Z" fill="#004788"/>
<path d="M170.867 39.6096L159.884 56.7182H142.143L134.092 40.9065L145.075 23.7979H162.816L170.867 39.6096Z" fill="#82B1DB"/>
<path d="M78.1331 63.4016C78.1331 63.4016 77.487 63.5512 76.2446 64.8979L78.1331 63.4016ZM77.6361 61.9551C77.6361 61.9551 76.99 62.1047 75.7476 63.4514L77.6361 61.9551ZM76.5925 60.6582C76.5925 60.6582 75.9464 60.8078 74.704 62.1546L76.5925 60.6582Z" fill="white"/>
<path d="M6.76855 161.165C6.76855 162.662 20.1867 163.909 36.7357 163.909C53.2847 163.909 66.7029 162.662 66.7029 161.165C66.7029 159.669 53.2847 158.422 36.7357 158.422C20.1867 158.422 6.76855 159.669 6.76855 161.165ZM37.2824 168.597C37.2824 169.096 41.8545 169.545 47.5199 169.545C53.1853 169.545 57.7574 169.146 57.7574 168.597C57.7574 168.098 53.1853 167.65 47.5199 167.65C41.8545 167.65 37.2824 168.049 37.2824 168.597ZM80.8167 165.505C80.8167 166.004 85.3888 166.452 91.0543 166.452C96.7197 166.452 101.292 166.053 101.292 165.505C101.292 165.006 96.7197 164.557 91.0543 164.557C85.4385 164.607 80.8167 165.006 80.8167 165.505Z" fill="#F5F5F5"/>
<path d="M60.7889 123.207V160.268C60.7889 161.465 59.8447 162.412 58.6519 162.412H15.9127C14.72 162.412 13.7758 161.465 13.7758 160.268V123.207C13.7758 122.01 14.72 121.062 15.9127 121.062H58.6519C59.8447 121.062 60.7889 122.01 60.7889 123.207Z" fill="#F5F5F5"/>
<path d="M13.7261 155.629V160.268C13.7261 161.465 14.6703 162.412 15.863 162.412H58.6022C59.795 162.412 60.7392 161.465 60.7392 160.268V155.629H13.7261Z" fill="#E1E5E2"/>
<path d="M60.7889 159.569V160.268C60.7889 161.465 59.8447 162.412 58.6519 162.412H15.9127C14.72 162.412 13.7758 161.465 13.7758 160.268V159.569H60.7889Z" fill="#C2C6C3"/>
<path d="M47.2217 155.878L44.886 161.165L50.1041 163.061L51.9926 157.723L47.2217 155.878Z" fill="white"/>
<path d="M54.6762 168.547C52.0919 167.599 43.5441 164.357 42.9477 162.961C42.5998 162.113 42.9477 161.215 43.4944 160.517C44.0411 159.768 44.8362 159.27 45.4326 159.27C46.2774 159.27 48.1659 161.165 48.2156 161.165C48.2156 161.165 50.1538 159.968 50.7998 160.167C51.6944 160.467 52.1416 162.761 52.738 163.509C53.0362 163.908 53.6822 164.357 54.3283 164.756C55.0737 165.255 55.8192 165.804 56.018 166.303C56.1174 166.602 56.0677 167.051 55.9186 167.45C55.8689 167.649 55.8192 167.799 55.7198 167.998C55.5707 168.447 55.1234 168.697 54.6762 168.547Z" fill="white"/>
<path d="M50.949 161.814C50.7999 161.964 50.6011 161.914 50.452 161.814C50.3029 161.714 50.3526 161.465 50.452 161.315C50.6011 161.166 50.7999 161.216 50.949 161.315C51.0981 161.465 51.0981 161.665 50.949 161.814ZM51.4459 162.912C51.2969 163.061 51.0981 163.011 50.949 162.912C50.7999 162.812 50.8496 162.562 50.949 162.413C51.0981 162.263 51.2969 162.313 51.4459 162.413C51.595 162.562 51.595 162.762 51.4459 162.912ZM51.9926 164.059C51.8435 164.208 51.6447 164.158 51.4956 164.059C51.3466 163.909 51.3962 163.71 51.4956 163.56C51.6447 163.41 51.8435 163.46 51.9926 163.56C52.1417 163.71 52.1417 163.909 51.9926 164.059ZM82.2082 157.076L84.4943 162.413L89.4143 159.869L86.83 154.831L82.2082 157.076Z" fill="white"/>
<path d="M96.5209 160.218C94.036 161.465 85.8858 165.555 84.4446 165.006C83.5997 164.707 83.1525 163.809 83.0034 162.911C82.8543 162.014 83.0034 161.066 83.4009 160.667C83.5997 160.467 83.9973 160.318 84.4446 160.218C85.4385 159.969 86.6809 159.919 86.6809 159.919C86.6809 159.919 87.1282 157.674 87.7246 157.325C88.5694 156.876 90.5076 158.073 91.5015 158.173C92.5451 158.273 94.8312 157.275 95.7754 157.674C96.2227 157.874 96.6203 158.622 96.8191 159.021C97.1172 159.52 96.9185 160.018 96.5209 160.218Z" fill="white"/>
<path d="M89.116 158.372C89.116 158.571 88.967 158.721 88.7682 158.721C88.5694 158.721 88.4203 158.571 88.4203 158.372C88.4203 158.172 88.5694 158.022 88.7682 158.022C88.9173 158.022 89.116 158.172 89.116 158.372ZM90.2094 158.721C90.2094 158.92 90.0603 159.07 89.8615 159.07C89.6627 159.07 89.5136 158.92 89.5136 158.721C89.5633 158.272 90.2094 158.272 90.2094 158.721ZM91.4021 159.12C91.4021 159.319 91.253 159.469 91.0542 159.469C90.8554 159.469 90.7063 159.319 90.7063 159.12C90.7063 158.92 90.8554 158.771 91.0542 158.771C91.253 158.821 91.4021 158.97 91.4021 159.12Z" fill="white"/>
<path d="M46.1781 157.175L52.1417 159.42C52.9369 159.719 53.7817 159.27 54.0302 158.472C67.2992 115.426 64.6156 124.155 65.0132 122.958L55.1235 117.421L52.3405 115.825L45.2339 155.579C45.1345 156.277 45.4823 156.926 46.1781 157.175Z" fill="#0662B7"/>
<path d="M46.178 157.175L52.1417 159.42C52.9368 159.719 53.7817 159.27 54.0301 158.472L55.1235 154.931C53.6823 152.736 51.3962 151.639 51.1477 149.444C50.8992 147.499 53.0859 143.907 52.9865 141.912C52.9368 141.114 52.6386 140.366 52.4895 139.568C51.9926 136.326 55.0738 133.483 55.1732 130.191C55.2726 127.896 53.881 125.652 54.2786 123.357C54.4774 122.36 54.9744 121.412 55.2229 120.414C55.4714 119.417 55.4217 118.319 55.0738 117.322L52.2908 115.726L45.1841 155.479C45.1344 156.277 45.4823 156.926 46.178 157.175Z" fill="#004788"/>
<path d="M12.4837 113.381C12.4837 117.471 15.7637 120.763 19.7891 120.813L53.4835 120.763L79.8228 157.474C80.2204 157.973 80.9161 158.172 81.5125 157.923L87.7246 155.329C88.47 155.03 88.8179 154.182 88.5197 153.434C88.5197 153.434 88.3209 152.985 87.9731 152.137C85.3391 145.852 70.5792 112.483 61.6835 107.146C53.0859 102.008 25.9018 103.904 16.0121 104.801C13.7261 105.001 12.3843 105.15 12.3843 105.15C12.4837 116.423 12.4837 112.582 12.4837 113.381Z" fill="#0662B7"/>
<path d="M12.4836 113.381C12.4836 117.471 15.7636 120.763 19.7891 120.813L53.4835 120.763L79.8228 157.475C80.2203 157.973 80.9161 158.173 81.5124 157.923L87.7245 155.33C88.47 155.03 88.8179 154.183 88.5197 153.434C88.5197 153.434 88.3209 152.985 87.973 152.137C83.7488 150.192 77.1888 141.264 73.6604 138.121C72.3185 136.924 70.927 135.677 69.9828 134.131C68.9889 132.435 68.5416 130.44 67.3489 128.894C65.9574 127.148 63.721 126.25 62.3295 124.504C61.0871 122.958 60.4907 120.713 58.6519 119.866C57.3101 119.217 55.6701 119.616 54.2786 119.167C53.2847 118.868 52.4895 118.22 51.5453 117.82C48.0665 116.324 43.6435 118.319 40.3635 116.424C39.7175 116.075 39.1211 115.576 38.4751 115.277C37.6302 114.927 36.6363 114.977 35.7417 114.977C31.5672 115.127 27.1939 115.127 23.566 113.132C23.0691 112.833 22.5721 112.533 22.0254 112.434C20.9818 112.234 19.9382 112.733 18.9442 112.633C17.3539 112.434 16.5091 110.887 16.1612 109.491C15.8133 108.044 16.1115 106.298 16.1115 104.652C13.8255 104.852 12.4836 105.002 12.4836 105.002V113.381Z" fill="#004788"/>
<path d="M48.2654 86.1471C47.3212 86.1471 46.029 85.6483 44.6872 84.8502C46.1781 93.4794 46.3769 102.557 46.3769 102.557L26.9952 104.054C26.9952 104.104 27.3431 105.75 27.3431 105.65C27.1443 105.65 4.58194 105.849 1.94801 102.907C-0.487131 100.163 1.10316 87.2444 5.1286 77.2686C5.92375 75.2734 6.91769 73.6274 8.01101 72.2806C12.7819 66.2951 19.2425 65.8961 19.6898 65.8462C21.28 65.4971 23.1188 65.3973 25.1564 65.4472C25.1564 65.4472 32.8594 64.9983 37.3818 68.9387C37.5309 69.0884 46.7745 77.3683 46.7745 77.3683L68.4423 64.2002C68.0447 66.8937 69.5356 68.839 72.2689 69.2879C72.2192 69.3378 54.9745 85.9476 48.2654 86.1471Z" fill="white"/>
<path d="M1.94801 102.906C4.58194 105.849 27.1443 105.65 27.3431 105.65L27.2934 105.4C25.9018 104.602 24.7091 104.203 19.6401 102.208C18.994 101.958 18.3479 101.709 17.6522 101.559C15.8134 101.16 12.6328 101.659 9.89949 100.013C8.85586 99.3647 7.96132 98.4669 7.11647 97.619C6.56981 97.0703 6.07284 96.5216 5.77466 95.8233C5.02921 93.9778 6.37102 91.9327 6.37102 89.8877C6.37102 88.491 5.72496 87.1443 5.87405 85.7976C6.07284 84.0019 7.56374 82.4557 7.41465 80.66C7.36496 79.8619 6.96738 79.1137 7.06678 78.3655C7.21587 77.2183 8.40859 76.4203 8.85586 75.3728C9.35283 74.2256 8.90556 72.8788 8.01101 72.2803C6.91769 73.627 5.97345 75.273 5.1286 77.2682C1.10316 87.2441 -0.487131 100.213 1.94801 102.906Z" fill="#F5F5F5"/>
<path d="M32.9091 101.26C32.9091 101.26 33.406 109.49 25.9515 103.903L27.2436 97.9179C27.2436 97.9179 32.8097 95.374 33.7539 96.5213C34.5491 97.3692 31.7163 98.8157 31.7163 98.8157C31.7163 98.8157 38.6739 100.212 39.3199 102.058C39.966 103.903 32.9091 101.26 32.9091 101.26ZM20.2364 58.5631C20.2861 58.9123 20.3855 59.2115 20.4849 59.5108L20.634 65.6958L26.1006 78.0659C26.1503 76.6693 25.9018 83.1536 26.6473 64.399C31.0703 64.0997 33.3066 59.2614 31.9648 55.0217C31.1697 54.8221 28.2376 53.8744 27.1939 50.333C27.1939 50.5325 27.1442 56.2686 22.6218 56.4183C22.5224 55.4706 21.777 54.7224 20.783 54.6725C19.6897 54.6226 19.2921 55.4207 19.1927 56.518C19.1927 57.5156 19.4412 58.3636 20.2364 58.5631Z" fill="white"/>
<path d="M31.0205 56.3193C30.5236 55.7707 29.9769 55.6709 29.5296 55.6709L31.0205 56.3193ZM26.6472 56.2694C26.5478 56.2196 25.703 56.5188 25.3054 57.1673L26.6472 56.2694Z" fill="white"/>
<path d="M67.3986 43.7492C67.5973 50.1836 62.4786 55.3711 56.0677 55.3711C53.1356 55.3711 50.4519 54.3236 48.315 52.5279L44.538 53.9246C44.2399 54.0243 43.9914 53.7251 44.0908 53.4757L45.5817 49.3357C44.6374 47.6897 44.0411 45.7942 43.9914 43.7492C43.7926 37.3148 48.8617 32.1273 55.3222 32.1273C61.7828 32.0774 67.1998 37.3148 67.3986 43.7492Z" fill="white"/>
<path d="M65.0132 43.7497C65.1623 48.8872 61.0871 53.0272 55.9684 53.0272C50.7999 53.0272 46.526 48.8872 46.3769 43.7497C46.2278 38.6121 50.3029 34.4721 55.4217 34.4721C60.5405 34.4222 64.8641 38.6121 65.0132 43.7497Z" fill="#0662B7"/>
<path d="M57.0616 39.5597L56.4652 45.7946C56.4155 46.2435 56.018 46.5428 55.5707 46.5428C55.1731 46.4929 54.8749 46.1936 54.8252 45.7946L54.2289 39.5597C54.1295 38.7616 54.7258 38.1132 55.4713 38.0134C56.4155 37.9136 57.161 38.6119 57.0616 39.5597ZM56.7137 48.4382C56.7137 48.9868 56.2664 49.4856 55.6701 49.4856C55.0737 49.4856 54.6264 49.0367 54.6264 48.4382C54.6264 47.8895 55.0737 47.3907 55.6701 47.3907C56.2664 47.3907 56.7137 47.8895 56.7137 48.4382Z" fill="white"/>
<path d="M247.997 166.004C247.997 166.652 243.275 167.201 237.461 167.201C231.646 167.201 226.925 166.652 226.925 166.004C226.925 165.355 231.646 164.807 237.461 164.807C243.275 164.807 247.997 165.355 247.997 166.004Z" fill="#F5F5F5"/>
<path d="M255.153 126.698C255.153 126.698 249.338 127.995 247.052 132.634C244.766 137.273 240.492 140.715 240.492 140.715C240.492 140.715 239.002 132.435 242.182 128.644C245.363 124.853 248.543 123.556 255.153 126.698ZM250.233 106.298C250.233 106.298 235.523 104.951 238.008 128.993C238.008 128.993 242.58 124.953 243.971 117.62C245.363 110.338 250.233 106.298 250.233 106.298ZM222.651 111.685C222.651 111.685 237.709 106.248 235.473 135.777C235.473 135.777 231.149 133.133 229.957 126.649C228.764 120.214 225.633 112.633 222.651 111.685ZM217.284 131.138C217.284 131.138 229.808 124.853 232.243 137.024C232.243 137.024 233.535 142.311 232.988 144.855C232.442 147.398 227.223 135.926 225.236 133.981C222.353 131.138 217.284 131.138 217.284 131.138Z" fill="#0662B7"/>
<path d="M226.875 150.242L230.056 164.657C230.255 165.455 230.951 166.004 231.746 166.004H242.48C243.275 166.004 244.021 165.455 244.17 164.657L247.351 150.242H226.875Z" fill="white"/>
<path d="M248.643 147.05V150.292C248.643 150.591 248.394 150.84 248.096 150.84H226.18C225.882 150.84 225.633 150.591 225.633 150.292V147.05C225.633 146.75 225.882 146.501 226.18 146.501H248.096C248.394 146.501 248.643 146.75 248.643 147.05Z" fill="white"/>
<path d="M75.0519 89.838C75.0022 89.838 75.0022 89.838 75.0519 89.838C74.3064 89.7881 73.561 89.6883 72.8155 89.5387C72.6167 89.4888 72.6664 89.1397 72.9149 89.1895C73.6107 89.3392 74.3561 89.4389 75.0519 89.4888C75.2507 89.5387 75.2507 89.838 75.0519 89.838ZM76.9901 89.4389C77.984 89.3392 78.9282 89.0898 79.8228 88.7406C80.0216 88.6409 80.1707 88.99 79.9719 89.0898C79.0276 89.4389 78.0337 89.6883 77.0398 89.7881C76.7913 89.838 76.7913 89.4888 76.9901 89.4389ZM81.5622 87.8927C82.407 87.3939 83.1525 86.7455 83.7985 85.9973C83.9476 85.8476 84.1961 86.0471 84.047 86.2467C83.3512 86.9949 82.6058 87.6932 81.7609 88.192C81.5622 88.2917 81.3634 87.9924 81.5622 87.8927ZM84.9912 84.4011C85.4882 83.6031 85.9355 82.7052 86.2834 81.7575C86.3828 81.558 86.6809 81.6578 86.6312 81.8573C86.2834 82.8549 85.8361 83.7527 85.3391 84.6006C85.1403 84.8002 84.8421 84.6006 84.9912 84.4011ZM86.83 79.8621C87.0288 78.9643 87.1779 77.9667 87.2773 76.9192C87.2773 76.6698 87.6252 76.7197 87.6252 76.9691C87.5258 78.0166 87.3767 79.0142 87.1779 79.9619C87.0785 80.1614 86.7306 80.1115 86.83 79.8621ZM87.5258 75.1236C87.4264 75.1236 87.327 75.0238 87.3767 74.9241V74.5749C87.3767 73.727 87.327 72.879 87.2773 71.9313C87.2773 71.8315 87.327 71.7318 87.4264 71.7318C87.5258 71.7318 87.6252 71.7817 87.6252 71.8814C87.6749 72.7792 87.7246 73.6771 87.7246 74.525V74.8742C87.7246 75.0737 87.6252 75.1236 87.5258 75.1236ZM87.2276 70.1356C87.1282 70.1356 87.0785 70.0858 87.0785 69.986C86.9791 68.9884 86.9294 67.9908 86.8797 66.9932C86.8797 66.8935 86.9294 66.7937 87.0288 66.7937C87.1282 66.7937 87.2276 66.8436 87.2276 66.9434C87.2773 67.9409 87.327 68.9385 87.4264 69.9361C87.4264 70.0858 87.3767 70.1356 87.2276 70.1356C87.2773 70.1356 87.2276 70.1356 87.2276 70.1356ZM86.9791 65.1976C86.8797 65.1976 86.83 65.0978 86.83 65.0479C86.7803 63.4518 86.83 62.1051 86.83 62.0552C86.83 61.9554 86.9294 61.9055 86.9791 61.9055C87.0785 61.9055 87.1282 62.0053 87.1282 62.1051V65.0978C87.1779 65.0978 87.0785 65.1976 86.9791 65.1976ZM96.0736 62.6537C95.9742 62.6537 95.9245 62.554 95.9245 62.4542C95.9245 62.3545 96.0239 62.3046 96.1233 62.3046C96.9682 62.4542 98.1609 62.5041 98.8069 61.8557C98.8566 61.8058 99.0057 61.8058 99.0554 61.8557C99.1051 61.9056 99.1051 62.0552 99.0554 62.1051C98.3597 62.8034 97.0676 62.8533 96.0736 62.6537ZM94.1851 61.9055C93.3403 61.4068 92.5451 60.7084 91.9488 59.8605C91.8991 59.7607 91.8991 59.661 91.9985 59.6111C92.0979 59.5612 92.1973 59.5612 92.247 59.661C92.8433 60.459 93.5888 61.1574 94.3839 61.6063C94.5827 61.706 94.3839 62.0053 94.1851 61.9055ZM99.95 60.2595C100.497 59.2619 100.745 58.3142 100.745 57.5162C100.745 57.4164 100.845 57.3665 100.894 57.3665C100.994 57.3665 101.043 57.4663 101.043 57.566C101.043 58.4639 100.745 59.4615 100.198 60.5089C100.149 60.6087 99.8009 60.459 99.95 60.2595ZM87.0288 60.2097C86.9294 60.2097 86.83 60.1099 86.8797 60.0101C86.9791 58.813 87.1779 57.8154 87.4761 57.0174C87.5258 56.9176 87.6252 56.8677 87.7246 56.9176C87.824 56.9675 87.8736 57.0673 87.824 57.1171C87.5258 57.8653 87.3767 58.813 87.2773 60.0101C87.2276 60.1099 87.1282 60.2097 87.0288 60.2097ZM90.9549 58.0648C90.607 57.2169 90.3088 56.2692 90.11 55.1718C90.11 55.0721 90.1597 54.9723 90.2591 54.9723C90.3585 54.9723 90.4579 55.0222 90.4579 55.122C90.6567 56.1694 90.9052 57.1171 91.253 57.9651C91.3524 58.1646 91.0542 58.2644 90.9549 58.0648ZM100.248 55.6706C99.9003 55.122 99.4033 54.673 98.7076 54.274C98.5088 54.1743 98.2603 54.0246 98.0118 53.9249C97.9124 53.875 97.8627 53.7752 97.9124 53.6755C97.9621 53.5757 98.0615 53.5258 98.1609 53.5757C98.4094 53.6755 98.6579 53.7752 98.9063 53.9249C99.6518 54.3738 100.198 54.8726 100.546 55.4711C100.646 55.7205 100.348 55.8701 100.248 55.6706ZM88.5197 55.521C88.47 55.4711 88.47 55.3215 88.5197 55.2716C89.1658 54.673 90.0603 54.1244 91.1536 53.7752C91.253 53.7253 91.3524 53.7752 91.3524 53.875C91.4021 53.9747 91.3524 54.0745 91.253 54.0745C90.2094 54.4237 89.3149 54.9224 88.7185 55.521C88.7185 55.6208 88.6191 55.6208 88.5197 55.521ZM93.1415 53.2764C94.0857 53.1268 95.1791 53.0769 96.173 53.1767C96.2724 53.1767 96.3221 53.2764 96.3221 53.3762C96.3221 53.4759 96.2227 53.5258 96.1233 53.5258C95.1791 53.4261 94.1354 53.4759 93.1912 53.6256C92.9924 53.6755 92.893 53.3263 93.1415 53.2764ZM90.0603 53.3263C89.9609 53.3263 89.9112 53.2764 89.9112 53.1767C89.8615 52.4285 89.8118 51.5307 89.8118 50.7326V50.1839C89.8118 50.0841 89.9112 50.0343 90.0106 50.0343C90.11 50.0343 90.1597 50.134 90.1597 50.2338V50.7825C90.1597 51.5306 90.2094 52.3287 90.2591 53.1767C90.2591 53.2265 90.1597 53.3263 90.0603 53.3263ZM89.9112 48.1389C90.0106 47.0914 90.2094 46.0938 90.4579 45.196C90.5076 45.0962 90.5573 45.0463 90.6567 45.0962C90.7561 45.1461 90.8058 45.196 90.7561 45.2957C90.5076 46.1936 90.3088 47.1911 90.2094 48.1887C90.2591 48.4381 89.9112 48.3883 89.9112 48.1389ZM91.1536 43.3006C91.5512 42.3529 92.0979 41.455 92.6942 40.7068C92.7439 40.6071 92.8433 40.6071 92.9427 40.657C93.0421 40.7068 93.0421 40.8066 92.9924 40.9064C92.3961 41.6545 91.8991 42.5025 91.5015 43.4502C91.3524 43.6497 91.0542 43.5001 91.1536 43.3006ZM125.594 41.0061C124.749 40.8565 123.804 40.5572 122.711 40.1083C122.612 40.0584 122.562 39.9586 122.612 39.8589C122.661 39.7591 122.761 39.7093 122.86 39.7591C125.544 40.8565 125.892 40.5073 125.792 40.8565C125.792 40.9562 125.693 41.0061 125.594 41.0061ZM94.036 39.1606C94.4336 38.8114 94.8312 38.5121 95.2288 38.2129C95.6264 37.9635 96.0736 37.7141 96.5706 37.4647C96.67 37.4148 96.7694 37.4647 96.8191 37.5644C96.8688 37.6642 96.8191 37.764 96.7197 37.8138C95.7754 38.2627 94.9803 38.7615 94.2845 39.41C94.0857 39.6095 93.887 39.3601 94.036 39.1606ZM120.972 39.3102C120.872 39.3102 120.226 38.9611 118.984 38.4623C118.686 38.3625 118.437 38.2628 118.139 38.163C118.04 38.1131 117.99 38.0134 118.04 37.9635C118.089 37.9136 118.189 37.8138 118.238 37.8637C118.537 37.9635 118.785 38.0632 119.083 38.163C119.729 38.4124 120.425 38.7117 121.021 38.9611C121.121 39.0109 121.17 39.1107 121.121 39.2105C121.071 39.2603 121.021 39.3102 120.972 39.3102ZM116.25 37.6642C115.356 37.4647 114.362 37.2652 113.318 37.1155C113.219 37.1155 113.169 37.0158 113.169 36.916C113.169 36.8163 113.269 36.7664 113.368 36.7664C114.412 36.916 115.406 37.1155 116.3 37.315C116.549 37.3649 116.449 37.7141 116.25 37.6642ZM98.4591 36.8661C99.3536 36.6167 100.348 36.4671 101.441 36.3673C101.54 36.3673 101.64 36.4172 101.64 36.517C101.64 36.6167 101.59 36.7165 101.491 36.7165C100.397 36.8162 99.453 36.9659 98.5585 37.2153C98.31 37.2652 98.2603 36.916 98.4591 36.8661ZM111.38 36.8661C110.635 36.8162 110.088 36.7664 108.398 36.6666C108.299 36.6666 108.249 36.5669 108.249 36.4671C108.249 36.3673 108.349 36.2676 108.448 36.3175C109.541 36.3673 110.535 36.4172 111.43 36.517C111.629 36.5669 111.579 36.8661 111.38 36.8661ZM106.411 36.6666C105.814 36.6666 104.671 36.6167 103.429 36.6167C103.329 36.6167 103.28 36.517 103.28 36.4671C103.28 36.3673 103.379 36.2676 103.429 36.2676C104.621 36.2676 105.764 36.2676 106.411 36.3175C106.51 36.3175 106.56 36.4172 106.56 36.517C106.609 36.5669 106.51 36.6666 106.411 36.6666Z" fill="#D2D8D3"/>
<path d="M244.17 66.2453H198.548C196.859 66.2453 195.616 64.8487 195.716 63.1528L197.654 39.8591C197.803 38.1632 199.294 36.7666 200.983 36.7666H246.655C248.344 36.7666 249.587 38.1632 249.487 39.8591L247.549 63.1528C247.35 64.8487 245.86 66.2453 244.17 66.2453Z" fill="white"/>
<path d="M249.388 41.0062L249.736 37.6144C249.835 36.517 248.991 35.5693 247.897 35.5693H200.139C199.045 35.5693 198.051 36.4672 197.952 37.6144L197.604 41.0062H249.388Z" fill="#E1E5E2"/>
<path d="M219.073 54.5728L219.371 50.732C219.371 50.5824 219.52 50.4328 219.669 50.4328H222.204C222.552 50.4328 222.502 50.9814 222.154 50.9814H219.918L219.819 52.3781H221.856C222.204 52.3781 222.154 52.9267 221.806 52.9267H219.769L219.669 54.3234H221.906C222.254 54.3234 222.254 54.872 221.856 54.872H219.322C219.173 54.872 219.073 54.7224 219.073 54.5728ZM223.099 54.6226L223.397 50.732C223.397 50.5824 223.546 50.4328 223.695 50.4328H225.186C226.13 50.4328 226.876 50.7819 226.826 51.7296C226.776 52.2284 226.478 52.6773 225.882 52.8769C226.18 52.9766 226.379 53.1262 226.478 53.4255C226.677 54.0241 226.577 54.4231 226.528 54.6226C226.478 55.0217 225.931 55.0217 225.931 54.6226C225.931 54.5229 225.981 54.1737 225.931 53.8246C225.931 53.625 225.832 53.4754 225.683 53.3258C225.534 53.1761 225.335 53.1263 225.037 53.1263H223.745L223.645 54.6226C223.645 54.9718 223.049 54.9718 223.099 54.6226ZM224.987 52.5776C225.583 52.5776 226.18 52.3781 226.229 51.7296C226.279 51.0812 225.732 50.9316 225.086 50.9316H223.993L223.844 52.5277H224.987V52.5776ZM227.621 54.6226L227.919 50.732C227.919 50.5824 228.068 50.4328 228.217 50.4328H229.708C230.305 50.4328 230.702 50.5325 230.951 50.7819C231.199 51.0313 231.348 51.3306 231.299 51.7296C231.249 52.2284 230.951 52.6773 230.354 52.8769C230.652 52.9766 230.851 53.1262 230.951 53.4255C231.149 54.0241 231.05 54.4231 231 54.6226C230.951 54.9718 230.404 55.0217 230.404 54.6226C230.404 54.5229 230.454 54.1737 230.404 53.8246C230.354 53.4255 230.106 53.1263 229.559 53.1263H228.267L228.168 54.6226C228.168 54.9718 227.571 54.9718 227.621 54.6226ZM229.509 52.5776C230.106 52.5776 230.702 52.3781 230.752 51.7296C230.802 51.0812 230.255 50.9316 229.609 50.9316H228.516L228.366 52.5776H229.509ZM232.044 52.6275C232.193 51.2308 233.187 50.333 234.479 50.333C235.821 50.333 236.616 51.2807 236.517 52.6275C236.368 53.9243 235.473 54.9219 234.082 54.9219C232.74 54.9219 231.945 54.0241 232.044 52.6275ZM235.871 52.6275C235.97 51.6299 235.374 50.8817 234.38 50.8817C233.336 50.8817 232.69 51.6299 232.591 52.6275C232.491 53.625 233.038 54.3732 234.082 54.3732C235.125 54.3732 235.821 53.6749 235.871 52.6275ZM237.262 54.6226L237.56 50.732C237.56 50.5824 237.709 50.4328 237.858 50.4328H239.349C240.294 50.4328 241.039 50.7819 240.989 51.7296C240.94 52.2284 240.642 52.6773 240.045 52.8769C240.343 52.9766 240.542 53.1262 240.642 53.4255C240.84 54.0241 240.741 54.4231 240.691 54.6226C240.642 55.0217 240.095 55.0217 240.095 54.6226C240.095 54.5229 240.145 54.1737 240.095 53.8246C240.045 53.4255 239.797 53.1263 239.25 53.1263H237.958L237.858 54.6226C237.809 54.9718 237.262 54.9718 237.262 54.6226ZM239.151 52.5776C239.747 52.5776 240.343 52.3781 240.393 51.7296C240.443 51.0812 239.896 50.9316 239.25 50.9316H238.157L238.008 52.5277H239.151V52.5776ZM243.325 54.5229C243.325 54.3234 243.524 54.1238 243.723 54.1238C243.922 54.1238 244.071 54.2735 244.071 54.5229C244.071 54.7224 243.872 54.9219 243.673 54.9219C243.474 54.872 243.325 54.7224 243.325 54.5229ZM243.574 53.4754L243.623 51.3805L243.673 50.732C243.673 50.5325 243.822 50.3829 244.021 50.3829C244.22 50.3829 244.319 50.5325 244.319 50.732L244.269 51.3805L243.971 53.4754C243.971 53.5752 243.872 53.6749 243.723 53.6749C243.673 53.625 243.574 53.5752 243.574 53.4754Z" fill="#82B1DB"/>
<path d="M203.17 38.4118C203.12 38.9605 202.673 39.4094 202.077 39.4094C201.53 39.4094 201.133 38.9605 201.182 38.4118C201.232 37.8631 201.679 37.4142 202.226 37.4142C202.822 37.4142 203.22 37.8631 203.17 38.4118ZM207.295 38.4118C207.245 38.9605 206.798 39.4094 206.202 39.4094C205.655 39.4094 205.257 38.9605 205.307 38.4118C205.357 37.8631 205.804 37.4142 206.351 37.4142C206.947 37.4142 207.345 37.8631 207.295 38.4118ZM211.42 38.4118C211.37 38.9605 210.923 39.4094 210.327 39.4094C209.78 39.4094 209.382 38.9605 209.432 38.4118C209.482 37.8631 209.929 37.4142 210.476 37.4142C211.072 37.4142 211.47 37.8631 211.42 38.4118ZM246.953 38.4118C246.903 39.0104 246.357 39.5091 245.76 39.5091H223.993C223.397 39.5091 222.949 39.0104 222.999 38.4118C223.049 37.8133 223.596 37.3145 224.192 37.3145H245.959C246.555 37.3145 247.003 37.8133 246.953 38.4118Z" fill="white"/>
<path d="M214.203 58.1643H200.039C199.443 58.1643 199.095 57.466 199.493 56.9672L207.345 46.3927C207.394 46.293 207.494 46.2431 207.544 46.1932C207.891 45.9438 208.388 46.0436 208.587 46.3927C217.234 60.8578 214.253 55.8698 214.899 56.9672C215.197 57.466 214.799 58.1643 214.203 58.1643Z" fill="#004788"/>
<path d="M212.762 57.3165H199.294C199.294 57.2168 199.344 57.0671 199.443 56.9175L207.295 46.3431C207.345 46.2433 207.444 46.1934 207.494 46.1436C215.644 59.7606 212.811 55.072 213.408 56.0695C213.805 56.6681 213.358 57.3165 212.762 57.3165Z" fill="#0662B7"/>
<path d="M214.203 58.2645H200.039C199.691 58.2645 199.443 58.1148 199.294 57.8155C199.145 57.5163 199.194 57.1671 199.393 56.8678L207.295 46.2934C207.692 45.7946 208.438 45.7447 208.786 46.2934L215.097 56.8678C215.246 57.1172 215.246 57.4664 215.097 57.7657C214.849 58.0649 214.551 58.2645 214.203 58.2645ZM207.444 46.4431L199.542 57.0175C199.393 57.217 199.343 57.4664 199.443 57.7158C199.542 57.9153 199.741 58.0151 199.989 58.0151H214.153C214.402 58.0151 214.65 57.8654 214.749 57.6659C214.849 57.4664 214.849 57.217 214.749 57.0175L208.438 46.4431C208.289 46.044 207.742 46.0939 207.444 46.4431Z" fill="#231F20"/>
<path d="M208.239 49.4858C208.04 51.0321 207.643 54.1744 207.643 54.0747C207.593 54.2742 207.444 54.4238 207.245 54.4238C207.047 54.4238 206.947 54.2742 206.947 54.0747L207.047 49.5856C207.047 49.2364 207.345 48.9371 207.693 48.9371C207.991 48.8872 208.239 49.1865 208.239 49.4858ZM207.693 55.8205C207.693 56.1197 207.394 56.3691 207.096 56.3691C206.798 56.3691 206.55 56.1197 206.599 55.8205C206.649 55.5212 206.897 55.2718 207.196 55.2718C207.494 55.2718 207.693 55.5212 207.693 55.8205Z" fill="white"/>
<path d="M121.369 29.0352C121.27 30.0827 120.326 30.9306 119.282 30.9306H73.8095C72.8155 30.9306 72.0701 30.1326 72.1198 29.135V29.0352L72.9646 21.1044C73.064 20.0569 74.0083 19.209 75.0519 19.209H120.524C121.568 19.209 122.313 20.0569 122.214 21.1044L121.369 29.0352Z" fill="#82B1DB"/>
<path d="M119.183 27.2396C119.083 28.287 118.139 29.135 117.095 29.135H72.1694V29.0352L73.0143 21.1044C73.1137 20.0569 74.0579 19.209 75.1015 19.209H120.027V19.3087L119.183 27.2396Z" fill="#0662B7"/>
<path d="M83.5763 25.6655L83.8745 21.8248C83.8745 21.6752 84.0236 21.5255 84.1727 21.5255H86.7072C87.0551 21.5255 87.0054 22.0742 86.6575 22.0742H84.4211L84.3217 23.4708H86.3593C86.7072 23.4708 86.6575 24.0195 86.3096 24.0195H84.2721L84.1727 25.4161H86.409C86.7569 25.4161 86.7569 25.9648 86.3593 25.9648H83.8248C83.6757 25.9648 83.5763 25.8152 83.5763 25.6655ZM87.6017 25.7154L87.8999 21.8248C87.8999 21.6752 88.049 21.5255 88.1981 21.5255H89.689C90.6332 21.5255 91.3787 21.8747 91.329 22.8224C91.2793 23.3212 90.9811 23.7701 90.3848 23.9696C90.6829 24.0694 90.8817 24.219 90.9811 24.5183C91.1799 25.1168 91.0805 25.5159 91.0308 25.7154C90.9811 26.1144 90.4345 26.1144 90.4345 25.7154C90.4345 25.6156 90.4842 25.2665 90.4345 24.9173C90.4345 24.7178 90.3351 24.5682 90.186 24.4185C90.0369 24.2689 89.8381 24.219 89.5399 24.219H88.2478L88.1484 25.7154C88.1484 26.0646 87.552 26.0646 87.6017 25.7154ZM89.4902 23.6704C90.0866 23.6704 90.6829 23.4708 90.7326 22.8224C90.7823 22.174 90.2357 22.0243 89.5896 22.0243H88.4963L88.3472 23.6205H89.4902V23.6704ZM92.1241 25.7154L92.4223 21.8248C92.4223 21.6752 92.5714 21.5255 92.7205 21.5255H94.2114C94.8078 21.5255 95.2053 21.6253 95.4538 21.8747C95.7023 22.1241 95.8514 22.4234 95.8017 22.8224C95.752 23.3212 95.4538 23.7701 94.8575 23.9696C95.1556 24.0694 95.3544 24.219 95.4538 24.5183C95.6526 25.1168 95.5532 25.5159 95.5035 25.7154C95.4538 26.0646 94.9072 26.1144 94.9072 25.7154C94.9072 25.6156 94.9569 25.2665 94.9072 24.9173C94.8575 24.5183 94.609 24.219 94.0623 24.219H92.7702L92.6708 25.7154C92.6708 26.0646 92.0744 26.0646 92.1241 25.7154ZM94.0126 23.6704C94.609 23.6704 95.2053 23.4708 95.255 22.8224C95.3047 22.174 94.7581 22.0243 94.112 22.0243H93.0187L92.8696 23.6704H94.0126ZM96.5472 23.7202C96.6962 22.3236 97.6902 21.4258 98.9823 21.4258C100.324 21.4258 101.119 22.3735 101.02 23.7202C100.871 25.0171 99.9762 26.0147 98.5847 26.0147C97.2429 26.0147 96.4478 25.1169 96.5472 23.7202ZM100.374 23.7202C100.473 22.7226 99.8768 21.9745 98.8829 21.9745C97.8393 21.9745 97.1932 22.7226 97.0938 23.7202C96.9944 24.7178 97.5411 25.466 98.5847 25.466C99.6284 25.466 100.324 24.7677 100.374 23.7202ZM101.765 25.7154L102.063 21.8248C102.063 21.6752 102.213 21.5255 102.362 21.5255H103.853C104.797 21.5255 105.542 21.8747 105.493 22.8224C105.443 23.3212 105.145 23.7701 104.548 23.9696C104.847 24.0694 105.045 24.219 105.145 24.5183C105.343 25.1168 105.244 25.5159 105.194 25.7154C105.145 26.1144 104.598 26.1144 104.598 25.7154C104.598 25.6156 104.648 25.2665 104.598 24.9173C104.548 24.5183 104.3 24.219 103.753 24.219H102.461L102.362 25.7154C102.312 26.0646 101.765 26.0646 101.765 25.7154ZM103.654 23.6704C104.25 23.6704 104.847 23.4708 104.896 22.8224C104.946 22.174 104.399 22.0243 103.753 22.0243H102.66L102.511 23.6205H103.654V23.6704ZM107.828 25.6156C107.828 25.4161 108.027 25.2166 108.226 25.2166C108.425 25.2166 108.574 25.3662 108.574 25.6156C108.574 25.8152 108.375 26.0147 108.176 26.0147C107.977 25.9648 107.828 25.8152 107.828 25.6156ZM108.077 24.5682L108.127 22.4733L108.176 21.8248C108.176 21.6253 108.325 21.4757 108.524 21.4757C108.723 21.4757 108.822 21.6253 108.822 21.8248L108.773 22.4733L108.474 24.5682C108.474 24.6679 108.375 24.7677 108.226 24.7677C108.176 24.7178 108.077 24.6679 108.077 24.5682Z" fill="white"/>
<path d="M214.65 119.616H173.153C173.948 119.117 174.445 118.219 174.346 117.271C174.346 117.172 174.545 118.02 169.675 98.9658H200.089C202.574 98.9658 204.661 97.0205 204.86 94.5265L206.947 66.3946H244.12C245.909 66.3946 247.45 64.9481 247.599 63.1524C247.748 61.4565 246.953 70.6842 249.835 37.5643C249.935 36.3672 249.04 35.3696 247.798 35.3696H209.233L209.929 26.0921C210.128 23.2489 207.891 20.9046 205.158 20.9046H196.163C196.312 19.0092 195.666 27.788 197.554 2.29964C197.604 1.30205 196.859 0.454102 195.865 0.454102H119.332C118.387 0.454102 117.493 1.20229 117.394 2.24976C116.549 13.5225 116.499 14.1709 116.151 19.0092H75.1016C73.9586 19.0092 72.9646 19.907 72.8155 21.0543L71.9707 28.9851C71.8216 30.1323 72.6664 31.08 73.8095 31.08H104.423C104.423 31.1299 100.646 81.7075 99.7015 93.8282C99.5027 96.5716 101.64 98.9658 104.472 98.9658H141.198L145.373 114.977H133.893C132.501 114.977 131.408 116.074 131.408 117.471C131.408 118.369 131.905 119.167 132.65 119.616H97.9124C97.813 119.616 97.7633 119.666 97.7633 119.765V125.751C97.7633 125.851 97.813 125.901 97.9124 125.901H100.845V164.906C100.845 165.006 100.894 165.056 100.994 165.056H105.019V168.946C105.019 169.046 105.118 169.096 105.168 169.096H110.883C110.983 169.096 111.032 168.996 111.032 168.946V165.056H124.55V168.946C124.55 169.046 124.649 169.096 124.749 169.096H130.464C130.563 169.096 130.613 168.996 130.613 168.946V165.056H185.727V168.897C185.727 168.996 185.826 169.046 185.925 169.046H191.641C191.74 169.046 191.79 168.946 191.79 168.897V165.056H203.319V168.897C203.319 168.996 203.419 169.046 203.468 169.046H209.183C209.283 169.046 209.333 168.946 209.333 168.897V165.056H211.519C211.619 165.056 211.668 164.956 211.668 164.856V125.851H214.551C214.65 125.851 214.75 125.751 214.75 125.701V119.716C214.849 119.716 214.75 119.616 214.65 119.616ZM174.048 117.271C174.197 118.369 173.302 119.566 172.01 119.616H156.902C155.71 119.566 154.766 118.518 154.865 117.271C154.964 116.174 156.008 115.326 157.101 115.326C169.575 115.276 168.929 115.376 168.979 115.276V115.177C168.979 115.127 169.078 115.625 164.854 99.0655H169.277C169.575 99.8137 172.855 112.683 174.048 117.271ZM204.562 94.5265C204.413 96.821 202.425 98.6665 200.139 98.6665H197.505C197.554 98.6665 197.554 98.6665 197.604 98.6166C199.095 98.0181 200.387 96.372 200.487 94.5764C201.033 87.0945 202.027 73.8765 202.574 66.4445H206.649L204.562 94.5265ZM247.351 63.1524C247.202 64.7486 245.81 66.0454 244.22 66.0454H198.548C196.908 66.0454 195.765 64.7486 195.914 63.1524L197.753 41.1556H249.189L247.351 63.1524ZM115.257 31.08L112.175 72.5796V72.6295C112.126 75.9714 113.219 73.6271 190.547 74.3753C191.541 74.3753 192.386 73.5772 192.436 72.5796L195.914 26.3415H200.238L199.542 35.4694C198.598 35.7188 197.902 36.5667 197.803 37.5643C197.604 38.7614 195.815 60.5587 195.567 63.1524C195.467 64.3994 196.113 65.5965 197.207 66.1452L196.213 79.1138H106.212L109.79 31.1299H115.257V31.08ZM249.537 37.5643C249.537 37.6142 249.189 41.0559 249.189 40.8065H197.753C198.399 34.821 197.654 41.5547 198.101 37.5643C198.2 36.5168 199.095 35.7188 200.139 35.7188H247.897C248.891 35.7188 249.637 36.5667 249.537 37.5643ZM205.257 21.2538C207.842 21.2538 209.879 23.4485 209.68 26.0422L208.985 35.3696H204.91C204.91 35.3197 205.605 26.0921 205.605 26.0422C205.705 23.8475 204.462 21.9521 202.624 21.2538H205.257ZM200.834 21.2538C203.369 21.2538 205.456 23.4485 205.257 26.0422C204.313 38.8113 204.611 34.4219 204.562 35.3696C199.542 35.3696 200.288 35.3198 199.84 35.4195C199.89 34.4718 199.592 38.8612 200.536 26.1918C200.536 26.142 200.536 26.0921 200.487 26.0422C200.437 25.9923 200.387 25.9923 200.337 25.9923H195.865L196.213 21.2538H200.834ZM119.332 0.853138H195.964C196.71 0.853138 197.356 1.45169 197.306 2.29964L196.908 7.43721H117.344L117.741 2.29964C117.791 1.50157 118.537 0.853138 119.332 0.853138ZM117.344 7.78636H196.908C195.417 27.6882 198.2 -9.6714 192.088 72.5796C192.038 73.3777 191.342 74.076 190.497 74.076C112.126 73.5273 112.474 75.3728 112.474 72.6794V72.6295L115.555 31.1798H119.232C120.375 31.1798 121.369 30.2819 121.518 29.1347L122.363 21.2039C122.512 20.0567 121.667 19.109 120.524 19.109H116.449L117.344 7.78636ZM72.3186 29.035L73.1634 21.1041C73.2628 20.1564 74.1077 19.3584 75.1016 19.3584H120.524C121.469 19.3584 122.115 20.1066 122.015 21.0543L121.17 28.9851C121.071 29.9328 120.226 30.7309 119.232 30.7309H73.8095C72.8652 30.7309 72.2192 29.9827 72.3186 29.035ZM104.771 31.08H109.492L105.864 79.2136C105.864 79.2634 105.864 79.3133 105.914 79.3632C105.963 79.4131 106.013 79.4131 106.063 79.4131C200.188 79.3632 196.56 79.5627 196.61 79.2634L197.604 66.2449C197.902 66.3447 198.25 66.3946 198.598 66.3946H202.325L200.984 84.1516H100.795L104.771 31.08ZM100.049 93.8781L100.745 84.5008H200.884C199.84 98.2675 200.188 93.5289 200.139 94.5265C199.94 96.7711 198.101 98.6665 195.716 98.6665H104.522C101.888 98.6665 99.8506 96.4718 100.049 93.8781ZM141.596 99.0156H164.556C165.003 100.662 163.015 93.08 168.681 115.027H145.721L141.596 99.0156ZM131.756 117.471C131.756 116.274 132.7 115.326 133.893 115.326H155.809C154.07 116.324 154.119 118.668 155.759 119.616H133.893C132.7 119.616 131.756 118.668 131.756 117.471ZM98.0118 119.965H184.931V125.601H98.0118V119.965ZM101.093 125.95H183.441V164.806H101.093V125.95ZM105.317 165.156H107.802V168.847H105.317V165.156ZM110.684 168.847H108.15V165.156H110.684V168.847ZM124.898 165.156H127.383V168.847H124.898V165.156ZM130.315 168.847H127.78V165.156H130.315V168.847ZM186.074 165.156H188.559V168.847H186.074V165.156ZM191.442 168.847H188.907V165.156H191.442V168.847ZM203.667 165.156H206.152V168.847H203.667V165.156ZM209.034 168.847H206.5V165.156H209.034V168.847ZM211.42 164.806H183.788V126H211.42V164.806ZM214.501 125.601H185.329V119.965H214.501V125.601Z" fill="#3C4150"/>
<path d="M180.31 129.641H104.274C104.174 129.641 104.124 129.741 104.124 129.841V160.965C104.124 161.065 104.224 161.165 104.274 161.165H180.31C180.409 161.165 180.459 161.065 180.459 160.965V129.841C180.459 129.741 180.409 129.641 180.31 129.641ZM180.111 160.766H104.423V129.99H129.669C132.998 134.23 132.849 134.13 132.998 134.13H151.535C151.585 134.13 151.635 134.08 151.684 134.08L154.865 130.04H180.111V160.766ZM150.243 94.2268C151.684 94.2268 152.877 93.0297 152.976 91.5832C153.026 90.0868 151.883 88.9396 150.492 88.9396C149.05 88.9396 147.858 90.1367 147.758 91.5832C147.709 93.0297 148.852 94.2268 150.243 94.2268ZM150.492 89.2888C151.684 89.2888 152.629 90.2863 152.629 91.4336V91.5333C152.579 92.7803 151.485 93.8278 150.243 93.8278C149.05 93.8278 148.056 92.8302 148.106 91.5333C148.206 90.3362 149.249 89.2888 150.492 89.2888ZM122.711 5.49148H153.225C153.97 5.49148 154.616 4.89293 154.616 4.09486C154.616 3.34667 153.97 2.69824 153.225 2.69824H122.711C121.966 2.69824 121.32 3.34667 121.32 4.09486C121.32 4.89293 121.966 5.49148 122.711 5.49148ZM122.711 3.09728H153.225C153.772 3.09728 154.269 3.54619 154.269 4.14474C154.269 4.69342 153.821 5.19221 153.225 5.19221H122.711C122.164 5.19221 121.667 4.7433 121.667 4.14474C121.667 3.54619 122.115 3.09728 122.711 3.09728ZM179.514 5.54136C180.31 5.54136 180.906 4.89293 180.906 4.14474C180.906 3.34667 180.26 2.74812 179.514 2.74812C178.719 2.74812 178.123 3.39655 178.123 4.14474C178.073 4.89293 178.719 5.54136 179.514 5.54136ZM179.514 3.0474C180.111 3.0474 180.558 3.54619 180.558 4.09486C180.558 4.69342 180.061 5.14233 179.514 5.14233C178.918 5.14233 178.471 4.64354 178.471 4.09486C178.421 3.54619 178.918 3.0474 179.514 3.0474ZM185.081 5.54136C185.876 5.54136 186.472 4.89293 186.472 4.14474C186.472 3.34667 185.826 2.74812 185.081 2.74812C184.285 2.74812 183.689 3.39655 183.689 4.14474C183.639 4.89293 184.285 5.54136 185.081 5.54136ZM185.081 3.0474C185.677 3.0474 186.124 3.54619 186.124 4.09486C186.124 4.69342 185.627 5.14233 185.081 5.14233C184.484 5.14233 184.037 4.64354 184.037 4.09486C183.987 3.54619 184.484 3.0474 185.081 3.0474ZM190.647 5.54136C191.442 5.54136 192.038 4.89293 192.038 4.14474C192.038 3.34667 191.392 2.74812 190.647 2.74812C189.851 2.74812 189.255 3.39655 189.255 4.14474C189.205 4.89293 189.851 5.54136 190.647 5.54136ZM190.647 3.0474C191.243 3.0474 191.69 3.54619 191.69 4.09486C191.69 4.69342 191.193 5.14233 190.647 5.14233C190.05 5.14233 189.553 4.64354 189.553 4.09486C189.553 3.54619 190.05 3.0474 190.647 3.0474ZM127.333 13.9211H135.433C135.533 13.9211 135.632 13.8213 135.632 13.7216C135.632 13.6218 135.533 13.5719 135.433 13.5719H127.333C127.233 13.5719 127.134 13.6717 127.134 13.7216C127.134 13.7715 127.233 13.9211 127.333 13.9211ZM123.307 19.3579H134.887C134.986 19.3579 135.086 19.2582 135.086 19.2083C135.086 19.1085 134.986 19.0587 134.887 19.0587H123.307C123.208 19.0587 123.158 19.1085 123.158 19.2083C123.109 19.3081 123.208 19.3579 123.307 19.3579ZM134.34 24.7948C134.439 24.7948 134.489 24.695 134.489 24.6451C134.489 24.5953 134.39 24.4955 134.34 24.4955H126.24C126.14 24.4955 126.041 24.5953 126.041 24.6451C126.041 24.695 126.14 24.7948 126.24 24.7948H134.34ZM133.992 30.082C133.992 29.9822 133.893 29.8825 133.843 29.8825H122.264C122.015 29.8825 122.015 30.2316 122.264 30.2316H133.843C133.943 30.2316 133.992 30.1319 133.992 30.082ZM133.296 35.3193H125.196C125.097 35.3193 125.047 35.4191 125.047 35.5188C125.047 35.6186 125.146 35.6685 125.196 35.6685H133.296C133.396 35.6685 133.495 35.5687 133.495 35.5188C133.446 35.3692 133.396 35.3193 133.296 35.3193ZM121.17 41.1053H130.762C130.861 41.1053 130.911 41.0056 130.911 40.9058C130.911 40.8061 130.812 40.7562 130.762 40.7562H121.17C121.071 40.7562 121.021 40.8559 121.021 40.9058C121.021 40.9557 121.071 41.1053 121.17 41.1053ZM132.253 46.193H124.152C124.053 46.193 124.003 46.2429 124.003 46.3427C124.003 46.4424 124.103 46.5422 124.152 46.5422H132.253C132.352 46.5422 132.402 46.4424 132.402 46.3427C132.402 46.2429 132.352 46.193 132.253 46.193ZM131.706 51.58H120.127C120.027 51.58 119.928 51.6797 119.928 51.7296C119.928 51.8294 120.027 51.8793 120.127 51.8793H131.706C131.806 51.8793 131.855 51.8294 131.855 51.7296C131.905 51.6797 131.806 51.58 131.706 51.58ZM131.16 57.0168H123.059C122.96 57.0168 122.91 57.1166 122.91 57.2163C122.91 57.3161 123.009 57.366 123.059 57.366H131.16C131.259 57.366 131.358 57.2662 131.358 57.2163C131.358 57.1166 131.259 57.0168 131.16 57.0168ZM130.663 62.4537H119.034C118.934 62.4537 118.835 62.5534 118.835 62.6532C118.835 62.753 118.934 62.8028 119.034 62.8028H130.613C130.712 62.8028 130.762 62.753 130.762 62.6532C130.812 62.5534 130.762 62.4537 130.663 62.4537ZM130.017 67.8905H121.17C121.071 67.8905 121.021 67.9903 121.021 68.09C121.021 68.1898 121.121 68.2397 121.17 68.2397H130.017C130.116 68.2397 130.166 68.1399 130.166 68.09C130.166 67.9903 130.116 67.8905 130.017 67.8905ZM145.174 13.9211H153.275C153.374 13.9211 153.424 13.8213 153.424 13.7216C153.424 13.6218 153.324 13.5719 153.275 13.5719H145.174C145.075 13.5719 145.025 13.6717 145.025 13.7216C145.025 13.7715 145.075 13.9211 145.174 13.9211ZM141.149 19.3579H152.728C152.827 19.3579 152.877 19.2582 152.877 19.2083C152.877 19.1085 152.778 19.0587 152.728 19.0587H141.149C141.049 19.0587 140.95 19.1085 140.95 19.2083C140.95 19.3081 141.049 19.3579 141.149 19.3579ZM148.504 62.4537H136.924C136.825 62.4537 136.775 62.5534 136.775 62.6532C136.775 62.753 136.875 62.8028 136.924 62.8028H148.504C148.603 62.8028 148.653 62.753 148.653 62.6532C148.653 62.5534 148.603 62.4537 148.504 62.4537ZM147.858 67.8905H139.012C138.912 67.8905 138.863 67.9903 138.863 68.09C138.863 68.1898 138.962 68.2397 139.012 68.2397H147.858C147.957 68.2397 148.007 68.1399 148.007 68.09C148.056 67.9903 147.957 67.8905 147.858 67.8905ZM163.015 13.9211H171.116C171.215 13.9211 171.265 13.8213 171.265 13.7216C171.265 13.6218 171.165 13.5719 171.116 13.5719H163.015C162.916 13.5719 162.816 13.6717 162.816 13.7216C162.816 13.7715 162.916 13.9211 163.015 13.9211ZM158.99 19.3579H170.569C170.668 19.3579 170.718 19.2582 170.718 19.2083C170.718 19.1085 170.619 19.0587 170.569 19.0587H158.99C158.89 19.0587 158.841 19.1085 158.841 19.2083C158.841 19.3081 158.89 19.3579 158.99 19.3579ZM166.345 62.4537H154.765C154.666 62.4537 154.616 62.5534 154.616 62.6532C154.616 62.753 154.716 62.8028 154.765 62.8028H166.345C166.444 62.8028 166.544 62.753 166.544 62.6532C166.544 62.5534 166.444 62.4537 166.345 62.4537ZM165.699 67.8905H156.853C156.753 67.8905 156.704 67.9903 156.704 68.09C156.704 68.1898 156.803 68.2397 156.853 68.2397H165.699C165.798 68.2397 165.848 68.1399 165.848 68.09C165.898 67.9903 165.798 67.8905 165.699 67.8905ZM180.856 13.9211H188.957C189.056 13.9211 189.156 13.8213 189.156 13.7216C189.156 13.6218 189.056 13.5719 188.957 13.5719H180.856C180.757 13.5719 180.707 13.6717 180.707 13.7216C180.707 13.7715 180.757 13.9211 180.856 13.9211ZM176.831 19.3579H188.41C188.51 19.3579 188.609 19.2582 188.609 19.2083C188.609 19.1085 188.51 19.0587 188.41 19.0587H176.831C176.731 19.0587 176.632 19.1085 176.632 19.2083C176.682 19.3081 176.731 19.3579 176.831 19.3579ZM187.913 24.4456H179.813C179.713 24.4456 179.614 24.5454 179.614 24.5953C179.614 24.6451 179.713 24.7449 179.813 24.7449H187.913C188.013 24.7449 188.062 24.6451 188.062 24.5953C188.062 24.5454 188.013 24.4456 187.913 24.4456ZM175.787 30.2316H187.367C187.466 30.2316 187.516 30.1319 187.516 30.082C187.516 29.9822 187.416 29.8825 187.367 29.8825H175.787C175.688 29.8825 175.638 29.9822 175.638 30.082C175.588 30.1319 175.688 30.2316 175.787 30.2316ZM186.82 35.3193H178.719C178.62 35.3193 178.57 35.4191 178.57 35.5188C178.57 35.6186 178.67 35.6685 178.719 35.6685H186.82C186.919 35.6685 187.019 35.5687 187.019 35.5188C187.019 35.3692 186.919 35.3193 186.82 35.3193ZM175.787 41.1053H186.323C186.422 41.1053 186.472 41.0056 186.472 40.9058C186.472 40.8061 186.373 40.7562 186.323 40.7562H175.787C175.688 40.7562 175.638 40.8559 175.638 40.9058C175.638 40.9557 175.688 41.1053 175.787 41.1053ZM185.776 46.193H177.676C177.576 46.193 177.477 46.2429 177.477 46.3427C177.477 46.4424 177.576 46.5422 177.676 46.5422H185.776C185.876 46.5422 185.925 46.4424 185.925 46.3427C185.975 46.2429 185.876 46.193 185.776 46.193ZM185.23 51.58H173.65C173.551 51.58 173.501 51.6797 173.501 51.7296C173.501 51.8294 173.601 51.8793 173.65 51.8793H185.23C185.329 51.8793 185.379 51.8294 185.379 51.7296C185.428 51.6797 185.329 51.58 185.23 51.58ZM184.733 57.0168H176.632C176.533 57.0168 176.483 57.1166 176.483 57.2163C176.483 57.3161 176.533 57.366 176.632 57.366H184.733C184.832 57.366 184.931 57.2662 184.931 57.2163C184.882 57.1166 184.832 57.0168 184.733 57.0168ZM184.186 62.4537H172.607C172.507 62.4537 172.408 62.5534 172.408 62.6532C172.408 62.753 172.507 62.8028 172.607 62.8028H184.186C184.285 62.8028 184.335 62.753 184.335 62.6532C184.385 62.5534 184.285 62.4537 184.186 62.4537ZM183.54 67.8905H174.694C174.594 67.8905 174.495 67.9903 174.495 68.09C174.495 68.1898 174.594 68.2397 174.694 68.2397H183.54C183.639 68.2397 183.689 68.1399 183.689 68.09C183.739 67.9903 183.639 67.8905 183.54 67.8905ZM164.904 23.6974C164.854 23.6476 164.804 23.5977 164.755 23.5977H145.025C144.975 23.5977 144.926 23.6476 144.876 23.6974C129.917 47.041 134.986 39.16 133.893 40.806C133.843 40.8559 133.843 40.9058 133.893 41.0056L142.639 58.1142C142.689 58.1641 142.739 58.2139 142.789 58.2139H162.518C162.568 58.2139 162.618 58.1641 162.667 58.1142L173.65 41.0056C173.7 40.9557 173.7 40.9058 173.65 40.8559C173.352 40.2075 175.588 44.6468 164.904 23.6974ZM162.419 57.8648H142.888L134.241 40.9058C135.185 39.4094 130.464 46.7417 145.124 23.9468H164.655C166.792 28.1866 172.905 40.1576 173.302 40.9058L162.419 57.8648ZM95.9245 157.574C94.9306 157.175 92.6942 158.072 91.6506 158.022V157.973C91.7003 157.923 91.6506 157.823 91.6009 157.823C91.5512 157.823 91.4518 157.823 91.4518 157.873L91.4021 157.973C91.1536 157.923 90.8057 157.823 90.4579 157.673L90.5076 157.574C90.5076 157.524 90.5076 157.424 90.4579 157.424C90.4082 157.374 90.3088 157.424 90.3088 157.474L90.2591 157.623C89.9609 157.524 89.6627 157.374 89.3645 157.324L89.4142 157.224C89.4639 157.175 89.4142 157.075 89.3645 157.075C89.3148 157.025 89.2155 157.075 89.2155 157.125L89.1658 157.224C88.8676 157.125 88.5694 157.075 88.3209 157.075L87.5755 155.678L87.973 155.529C88.8179 155.179 89.2155 154.232 88.8676 153.384C88.1718 151.738 71.9707 112.981 61.9816 106.996C61.2859 106.597 60.4907 106.248 59.5962 105.899C59.5962 105.899 59.5962 105.849 59.6459 105.849L67.5477 85.2984C67.7465 84.6999 67.3489 84.1013 66.7028 84.1013H54.0798C61.6835 79.7119 71.7222 70.0852 72.4179 69.4368C72.4179 69.4368 72.4676 69.4368 72.4676 69.3869C72.7161 69.1874 72.7658 68.8382 72.6664 68.4392C75.3004 67.8905 78.2822 65.9951 78.7294 64.4489C78.8785 63.9999 78.7791 63.6508 78.4809 63.3515C78.8785 62.7031 78.5803 62.1544 77.984 61.8551C78.1331 61.1568 77.7355 60.7079 77.0397 60.5583L77.3379 60.2091C77.3876 60.1592 80.2203 57.765 80.0713 57.9147C80.5185 57.4657 80.7173 56.7176 80.5185 56.3185C80.4191 56.119 80.2203 55.9694 79.9719 56.0192H79.9222C78.5307 56.5679 76.6422 57.8149 74.3064 59.7103C74.4058 59.2115 74.3064 58.7127 74.1573 58.4134C74.1076 58.2638 73.9585 58.0144 73.7598 57.9645C72.7161 57.5655 70.3804 61.7554 69.1877 64.0997C68.8895 63.9501 68.641 63.9501 68.4422 64.0498C68.3925 64.0498 46.9732 77.0683 46.8738 77.1182C45.8799 76.2204 37.7296 68.8881 37.5805 68.7884C35.9405 67.3419 33.8533 66.4939 31.9151 65.9951C35.9405 64.3491 37.4314 59.2614 34.9466 55.6202C38.9223 52.5277 37.6302 46.1431 32.6605 44.946C31.3187 40.5566 25.8024 39.2598 22.6218 42.4521C17.1552 41.9533 12.5334 46.3427 12.5334 51.7795C12.5334 52.1287 12.5334 52.5277 12.5831 52.8769C12.5831 53.0764 12.6327 53.3258 12.6824 53.5253C11.7879 55.2212 11.3406 57.2163 11.5891 59.2614C11.937 62.3539 13.7261 64.8978 16.2109 66.3941C13.4279 67.292 11.0425 68.8382 9.00489 70.983C5.82429 74.4247 4.48248 78.2654 3.04127 83.1536C1.94795 86.9444 1.1031 91.2839 0.80492 95.374C0.65583 97.3692 0.556437 102.058 2.14673 103.255C3.88612 104.602 10.2473 105.2 12.434 105.35L12.3346 113.43C12.3346 117.171 15.0182 120.264 18.5467 120.912H15.9127C14.6206 120.912 13.577 121.96 13.577 123.257V160.317C13.577 161.614 14.6703 162.661 15.9127 162.661H42.6993C42.6993 162.811 42.749 162.911 42.7987 163.06C43.0969 163.759 44.9853 164.806 47.3708 165.854C49.7562 166.901 52.5392 167.998 54.6265 168.747C55.1732 168.946 55.7198 168.647 55.9186 168.148C55.9683 167.998 56.0677 167.799 56.1174 167.599C56.2665 167.051 56.3162 166.602 56.2168 166.302C56.018 165.754 55.2726 165.205 54.4774 164.656C53.9308 164.307 53.2847 163.858 52.9368 163.459H52.9865C53.0362 163.459 53.0859 163.36 53.0362 163.31C53.0362 163.26 52.9368 163.21 52.8871 163.21L52.738 163.26C52.6386 163.11 52.5392 162.861 52.4399 162.611H58.6519C59.9441 162.611 60.9877 161.564 60.9877 160.267V136.674C60.9877 136.624 62.1804 132.784 62.1307 133.033L79.7731 157.623C80.2203 158.222 81.0155 158.422 81.7112 158.122L82.4567 157.823L83.55 160.417C82.904 160.816 82.8046 162.162 82.9537 162.961C83.1524 164.058 83.6991 164.856 84.4943 165.155C85.4385 165.554 89.2155 163.908 90.1597 163.459C92.396 162.462 94.8809 161.265 96.7197 160.317C97.2166 160.068 97.4154 159.469 97.1669 158.97C96.8191 158.571 96.3718 157.773 95.9245 157.574ZM90.0603 158.571C90.11 158.621 90.11 158.671 90.11 158.721C90.11 158.821 90.0106 158.92 89.9112 158.92C89.8118 158.92 89.7124 158.821 89.7124 158.721C89.6627 158.521 89.9112 158.471 90.0603 158.571ZM26.1503 103.804L27.3927 98.0176C28.8836 97.3692 30.8715 96.621 32.3127 96.4215C32.0145 97.2196 33.406 93.5784 29.3806 104.103H26.4981C26.4485 104.053 26.2 103.854 26.1503 103.804ZM73.4616 58.3137C73.5113 58.3137 73.561 58.4135 73.6604 58.613C73.8592 59.0619 73.8592 59.6106 73.6107 60.2091C73.1634 60.9573 72.6167 61.8551 72.6664 61.8052C72.6167 61.905 72.6167 62.0048 72.7161 62.0546C72.8155 62.1045 72.9149 62.0546 72.9646 62.0048L73.9089 60.4086C75.4991 59.0619 77.9343 57.1665 79.8725 56.3684C79.9719 56.3684 80.0216 56.4183 80.0713 56.4682C80.2203 56.7176 80.0712 57.3161 79.7234 57.7151L77.0397 60.0096L76.5428 60.5084C76.344 60.6081 75.6482 60.9074 74.6543 62.0546C74.6046 62.1045 74.6046 62.2542 74.6543 62.304C74.704 62.3539 74.8531 62.3539 74.9028 62.304C75.7476 61.3563 76.344 61.0571 76.5925 60.9074H76.6422C76.6422 60.9074 77.2882 60.9573 77.5367 61.2566C77.6361 61.4062 77.6858 61.6057 77.6361 61.8052C77.3876 61.905 76.7416 62.2542 75.7973 63.3016C75.7476 63.4014 75.7476 63.5011 75.7973 63.551C75.8967 63.6009 75.9961 63.6009 76.0458 63.551C76.9404 62.5534 77.5367 62.2542 77.7355 62.1544C78.2822 62.4038 78.4809 62.7529 78.1331 63.2517C77.9343 63.3515 77.2385 63.6508 76.2446 64.798C76.1949 64.8479 76.1949 64.9975 76.2446 65.0474C76.2943 65.0973 76.4434 65.0973 76.4931 65.0474C77.4373 64.0498 78.0337 63.7007 78.2325 63.6508C78.4809 63.8503 78.5307 64.0997 78.4313 64.4489C78.0834 65.6958 74.9525 67.9404 71.8713 68.2896C71.7719 68.2896 71.8216 68.2896 71.1258 68.8382C70.927 68.7884 70.6289 68.5888 70.3307 68.3893C69.2871 67.691 68.7404 66.5438 68.6907 65.2968C68.7901 65.2469 69.2374 64.9476 69.2374 64.8479C69.3865 64.5486 69.4858 64.3491 69.4858 64.2992C71.2252 60.658 72.9646 58.1142 73.4616 58.3137ZM20.8327 65.6958C20.6339 59.012 20.6339 59.5607 20.6339 59.5108C20.3357 58.613 20.4848 58.5132 20.2861 58.4134C19.4909 58.2139 19.3915 57.3161 19.4412 56.5679C19.5406 55.3708 19.9879 54.8221 20.8327 54.872C21.7273 54.9219 22.423 55.6202 22.4727 56.4682C22.4727 56.5679 22.5721 56.6178 22.6715 56.6178C22.7212 56.6178 23.0194 56.6178 23.2679 56.5679C25.8521 56.1689 27.0945 53.8246 27.3927 51.2308C28.2375 53.2759 29.9272 54.6725 31.9151 55.2212C33.0084 58.5132 31.5175 62.5534 28.7842 63.7505C28.7345 63.8004 28.5357 63.9002 28.486 63.9002C26.4981 64.6982 24.2618 64.2992 22.5224 62.5534C22.3733 62.4038 22.1248 62.6532 22.2739 62.8028C22.6715 63.2019 23.1188 63.551 23.6157 63.8503C25.1563 64.7481 26.5478 64.6484 26.5975 64.6484C26.5975 66.3443 26.3988 70.2349 26.3988 70.185L22.9697 70.3346C22.8206 70.2349 20.783 65.646 20.8327 65.6958ZM2.09704 102.806C1.2025 101.808 0.854618 99.514 1.00371 96.4215C1.1528 92.082 2.39522 85.6476 4.1346 80.5599C5.27763 77.1681 6.47035 74.1753 8.90549 71.4818C10.8437 69.337 13.3782 67.691 15.8133 66.8431C16.0618 66.7433 16.36 66.6435 17.0558 66.444C18.1491 66.1447 18.7951 66.045 19.7394 65.9951C19.9879 65.9452 20.2861 65.8954 20.5345 65.8455C26.0012 78.1657 25.9515 78.1158 26.0012 78.1657C26.1503 78.3153 26.2994 78.1657 26.2994 78.0659C26.2994 77.7666 26.846 64.8479 26.846 65.5961C29.9769 65.5961 34.5987 66.6934 37.2326 69.0378C37.3817 69.1874 46.6253 77.4674 46.6253 77.4674C46.675 77.5172 46.7744 77.5172 46.8241 77.4674C48.4641 76.4698 39.966 81.6073 68.1937 64.4987C67.9452 67.292 69.8337 68.9879 71.8713 69.3869C69.5852 71.432 60.6398 80.0112 53.2847 84.1013H40.9102L40.8108 83.004C40.8108 82.9042 40.7114 82.8543 40.612 82.8543C40.5126 82.8543 40.4629 82.9541 40.4629 83.0538L40.5623 84.1013H38.1272C37.4811 84.1013 36.8848 84.5003 36.686 85.0989L32.5115 95.9726C30.9212 96.1222 28.5854 97.0699 27.5915 97.469C1.94795 92.3314 14.6206 94.8752 10.9431 94.127L11.2412 91.3338C11.2412 91.2341 11.1915 91.1343 11.0922 91.1343C10.9928 91.1343 10.8934 91.1842 10.8934 91.2839L10.5952 94.0772L8.16004 93.5784C8.06065 93.5784 7.96125 93.6283 7.96125 93.728C7.96125 93.8278 8.01095 93.9275 8.11034 93.9275L27.0945 97.7184V97.7682C25.7527 104.003 25.703 103.754 25.8024 103.903C25.8024 103.953 25.9018 104.003 25.9515 104.003H15.9624C15.4158 104.003 14.9188 104.302 14.6703 104.751C14.2727 104.801 13.2788 104.901 12.5334 104.951C10.5952 104.851 3.43885 104.302 2.09704 102.806ZM53.8811 158.471C53.6823 159.17 52.9368 159.569 52.1914 159.319C51.8435 159.17 53.8811 159.968 46.2278 157.075C45.6314 156.825 45.2835 156.177 45.4326 155.628C45.3332 156.177 46.7744 148.047 51.6447 121.012H53.1853C64.5162 143.557 59.1489 132.883 60.6398 135.876V136.674C60.5901 136.674 53.8811 158.521 53.8811 158.471ZM50.9986 160.068C50.4023 159.668 48.8617 160.566 48.2653 160.915C47.7187 160.367 46.675 159.519 45.9793 159.17L46.675 157.524L51.2471 159.269L50.9986 160.068ZM15.9127 121.212H51.1974L45.0847 155.479H13.9249V123.207C13.9249 122.109 14.8194 121.212 15.9127 121.212ZM13.9249 160.267V155.828H45.035C45.035 156.526 45.4326 157.125 46.0787 157.374L46.3271 157.474L45.6314 159.12C44.8859 158.92 43.8423 159.768 43.395 160.417C42.8981 161.015 42.6496 161.664 42.6993 162.312H15.9127C14.7697 162.262 13.9249 161.364 13.9249 160.267ZM52.4399 163.36L52.092 163.459C51.8932 163.26 51.6447 163.26 51.4459 163.459C51.2471 163.609 51.2471 163.908 51.4459 164.108C51.595 164.307 51.8932 164.307 52.092 164.108C52.1914 164.008 52.2411 163.858 52.2411 163.709L52.5889 163.559C52.5889 163.559 52.5889 163.609 52.6386 163.609C52.9865 164.008 53.6823 164.507 54.1792 164.856C53.8811 165.604 54.0302 166.452 54.5768 167.051C54.875 167.4 55.3223 167.599 55.7695 167.699C55.7198 167.799 55.7198 167.899 55.6701 168.048C55.521 168.397 55.1732 168.547 54.8253 168.447C48.0168 165.953 43.5938 163.858 43.1963 162.961C43.1466 162.861 43.1466 162.761 43.0969 162.711H43.3453C45.1344 164.158 50.2532 166.153 53.4835 167.35C53.5829 167.4 53.6823 167.3 53.732 167.25C53.7817 167.15 53.732 167.051 53.6326 167.001C48.8617 165.255 45.4326 163.759 43.9417 162.711C43.6932 162.561 43.2459 162.212 43.0969 161.913C43.1963 161.364 43.4944 160.915 43.6932 160.716C44.1902 160.018 44.9356 159.519 45.4326 159.519H45.4823C46.1284 159.569 47.6193 160.915 48.0665 161.364C48.1162 161.414 48.2156 161.414 48.2653 161.364C49.0108 160.915 50.3029 160.267 50.7005 160.417C50.9986 160.516 51.2471 160.915 51.3962 161.215L51.0483 161.364C50.8496 161.165 50.5514 161.165 50.4023 161.364C50.2035 161.564 50.2035 161.813 50.3526 161.963V162.013C50.5514 162.212 50.7999 162.212 50.9986 162.013C51.1477 161.913 51.1477 161.714 51.1477 161.614L51.4956 161.464C51.6447 161.714 51.7441 162.063 51.8932 162.312C51.8435 162.312 51.4956 162.462 51.5453 162.412L51.4459 162.312C51.2968 162.212 51.098 162.212 50.8993 162.362C50.7502 162.512 50.7005 162.811 50.8993 163.01C51.0483 163.21 51.3465 163.21 51.5453 163.01C51.6447 162.911 51.6944 162.711 51.6944 162.611L52.0423 162.512C52.0423 162.561 52.092 162.611 52.092 162.661C52.1914 162.911 52.2908 163.16 52.4399 163.36ZM51.8932 163.958C51.7938 164.058 51.6944 164.058 51.595 163.958C51.4956 163.858 51.4956 163.759 51.595 163.659C51.6944 163.559 51.8435 163.609 51.8932 163.659C51.9926 163.709 51.9926 163.858 51.8932 163.958ZM50.6011 161.414C50.7005 161.364 50.7999 161.315 50.8993 161.414C50.9986 161.514 50.9489 161.664 50.8993 161.714C50.7999 161.763 50.7005 161.813 50.6011 161.714C50.5017 161.614 50.5017 161.514 50.6011 161.414ZM51.3962 162.811C51.2968 162.911 51.1477 162.861 51.098 162.811C50.9986 162.711 51.0483 162.561 51.098 162.512C51.2471 162.412 51.4459 162.462 51.4459 162.611C51.4459 162.611 51.4459 162.761 51.3962 162.811ZM58.6519 162.262H52.5392C52.5392 162.212 52.5889 162.162 52.5392 162.162C52.5392 162.113 52.4398 162.063 52.3902 162.113L52.2411 162.162C52.1417 161.863 51.9926 161.564 51.8435 161.314L51.9429 161.265C51.9926 161.265 52.0423 161.165 51.9926 161.115C51.9429 161.065 51.8932 161.015 51.8435 161.015L51.7441 161.065C51.595 160.766 51.4459 160.516 51.2471 160.367L51.5453 159.519L52.0423 159.718C52.8871 160.068 53.8811 159.569 54.1792 158.671L55.0241 155.928H60.5901V160.367C60.6398 161.364 59.7453 162.262 58.6519 162.262ZM60.6398 155.479H55.1732C61.9816 133.382 60.3416 138.669 60.6398 137.821V155.479ZM81.5125 157.823C80.9658 158.072 80.3694 157.873 80.0216 157.424C79.9222 157.324 51.9429 118.319 53.6823 120.713C53.6326 120.663 53.5829 120.663 53.5332 120.663H19.8388C15.863 120.613 12.6824 117.371 12.6824 113.43L12.7321 105.4C13.1794 105.45 14.3224 105.5 14.4715 105.5V105.849C14.4715 105.948 14.5709 105.998 14.6206 105.998H58.6519C59.8447 106.397 60.8883 106.796 61.7331 107.345C71.6228 113.281 88.3209 153.134 88.47 153.533C88.7185 154.182 88.4203 154.93 87.7743 155.229C87.6749 155.279 82.3076 157.474 81.5125 157.823ZM82.7052 157.723L87.1779 155.878L87.8736 157.175C87.8239 157.175 87.7742 157.224 87.7245 157.224C87.1282 157.524 86.7306 159.269 86.6312 159.768C86.2833 159.768 85.2894 159.868 84.4943 160.068C84.2458 160.117 83.9973 160.217 83.8482 160.267L82.7052 157.723ZM96.4712 160.068C91.4021 162.661 85.6373 165.255 84.544 164.856C84.3452 164.806 84.1961 164.706 84.047 164.557C86.0349 164.507 91.5015 161.863 94.7318 160.217C94.8312 160.167 94.8312 160.068 94.8312 159.968C94.7815 159.868 94.6821 159.868 94.5827 159.868C88.7185 162.861 84.6433 164.457 83.6991 164.108C83.4009 163.659 83.2518 163.11 83.2021 162.861C83.0531 162.013 83.2021 161.115 83.55 160.766C83.7488 160.566 84.2458 160.417 84.4943 160.367C85.4385 160.117 86.6809 160.068 86.7306 160.068C86.83 160.068 86.8797 160.018 86.8797 159.918C87.0288 159.07 87.4264 157.673 87.8239 157.474C88.1221 157.324 88.5197 157.424 88.8676 157.524L88.7185 157.873C88.47 157.873 88.2712 158.122 88.2712 158.322C88.2712 158.571 88.47 158.771 88.6688 158.771C88.8676 158.821 89.1658 158.621 89.1658 158.322C89.1658 158.122 89.0664 158.022 88.967 157.923L89.1161 157.574L90.0106 157.873L89.8615 158.222C89.8118 158.222 89.6627 158.222 89.5136 158.372C89.4142 158.471 89.3645 158.571 89.3645 158.721C89.3645 158.97 89.5633 159.17 89.8118 159.17C90.0603 159.17 90.2591 158.97 90.2591 158.721C90.2591 158.571 90.2094 158.471 90.11 158.372L90.0603 158.322L90.2094 158.022C90.5573 158.172 90.8554 158.272 91.1536 158.322L91.0045 158.621C90.7561 158.621 90.5573 158.821 90.5573 159.07C90.5573 159.319 90.7561 159.519 91.0045 159.519C91.253 159.519 91.4518 159.319 91.4518 159.07C91.4518 158.92 91.4021 158.821 91.3027 158.721L91.253 158.671L91.4021 158.322H91.4518C91.9985 158.372 92.7936 158.172 93.39 158.022C93.9366 159.22 95.4772 159.619 96.5209 158.771C96.7694 159.22 97.0675 159.768 96.4712 160.068ZM88.7682 158.571C88.6688 158.571 88.5694 158.471 88.5694 158.372C88.5694 158.272 88.6688 158.172 88.7682 158.172C89.0167 158.172 89.0664 158.571 88.7682 158.571ZM91.2033 158.97C91.253 159.02 91.253 159.07 91.253 159.12C91.253 159.419 90.8057 159.419 90.8057 159.12C90.8554 158.97 91.1039 158.87 91.2033 158.97Z" fill="#3C4150"/>
<path d="M30.5236 57.1667C30.4739 57.1169 30.4242 57.0171 30.3248 57.0171C29.9272 56.8176 29.5297 57.3663 29.8278 57.6655C30.1757 58.0147 30.7224 57.6157 30.5236 57.1667ZM29.48 55.8699C29.8775 55.82 30.2254 55.9696 30.5236 56.1692C30.8218 56.3687 30.9212 56.6181 31.1199 56.4684C31.1696 56.4186 31.1696 56.2689 31.1199 56.219C30.623 55.7203 30.0266 55.5207 29.48 55.5207C29.3806 55.5207 29.3309 55.6205 29.3309 55.7203C29.3309 55.82 29.3806 55.9198 29.48 55.8699ZM26.3988 57.7653C26.4485 58.0147 26.6472 58.1643 26.846 58.1145C27.0945 58.0646 27.2436 57.8651 27.2436 57.6655C27.1939 57.4161 26.9951 57.2665 26.7466 57.3164C26.4982 57.3164 26.3491 57.5658 26.3988 57.7653ZM25.4545 57.2665C25.8024 56.7178 26.4981 56.4684 26.6472 56.4684C26.846 56.5183 26.9454 56.1692 26.6969 56.1193C26.4981 56.0694 25.6036 56.3687 25.1563 57.067C25.1066 57.1667 25.1563 57.2665 25.206 57.3164C25.2557 57.3663 25.4048 57.3663 25.4545 57.2665ZM28.8836 58.8626C28.9333 58.9125 29.1321 58.9624 29.1321 59.0622C29.1321 59.112 29.0824 59.1619 29.0327 59.1619C28.983 59.2118 28.8836 59.2118 28.7842 59.2118C28.6848 59.2118 28.6351 59.2617 28.5854 59.3614C28.5854 59.4612 28.6848 59.561 28.7345 59.561H28.7842C29.48 59.561 29.629 58.9624 29.1818 58.6631C28.983 58.5634 28.5854 58.4636 28.486 57.9648C28.4363 57.8152 28.4363 57.7154 28.4363 57.5658C28.4363 57.3663 28.0884 57.3164 28.0884 57.5658C28.0884 58.2641 28.486 58.7629 28.8836 58.8626ZM28.0884 61.4564C28.2872 61.2569 29.0327 60.8079 29.8278 61.3067C29.9769 61.3566 30.0266 61.4065 30.126 61.2569C30.2254 61.1072 30.0763 61.0075 29.9769 60.9576C29.0824 60.5087 28.2375 60.8578 27.84 61.2569C27.7903 61.3067 27.7903 61.4564 27.84 61.5062C27.9394 61.5062 28.0387 61.5063 28.0884 61.4564ZM20.5345 55.421C20.5345 55.421 19.5406 56.0694 20.137 57.3164C20.1867 57.3663 20.2364 57.4161 20.2861 57.4161C20.4351 57.4161 20.4848 57.2665 20.4351 57.1667C19.9879 56.219 20.6836 55.7203 20.7333 55.7203C20.8327 55.6704 20.8327 55.5706 20.783 55.4709C20.7333 55.3711 20.6339 55.3711 20.5345 55.421ZM45.3829 49.3357L43.892 53.3759C43.7429 53.8248 44.1405 54.2239 44.5878 54.0742L48.2653 52.7275C50.452 54.5231 53.1853 55.5207 56.018 55.5207C62.7768 55.5207 67.7962 49.9841 67.5477 43.6993C67.3489 37.1651 61.8822 31.8779 55.372 31.8779C48.812 31.8779 43.6435 37.1651 43.8423 43.6993C43.892 45.6945 44.4387 47.5899 45.3829 49.3357ZM55.372 32.277C61.7332 32.277 67.0507 37.4145 67.1998 43.7492C67.3986 49.9841 62.4786 55.2215 56.018 55.2215C53.235 55.2215 50.5514 54.2239 48.4144 52.4282C48.3647 52.3783 48.2653 52.3783 48.2156 52.3783L44.4387 53.775C44.389 53.775 44.2896 53.775 44.2399 53.7251C44.1902 53.6752 44.1902 53.5754 44.1902 53.5256L45.6811 49.3856V49.2359C44.6872 47.54 44.1902 45.6446 44.1405 43.7492C43.9914 37.4145 48.9114 32.277 55.372 32.277Z" fill="#3C4150"/>
<path d="M55.5707 46.6421C56.018 46.7419 56.5646 46.3428 56.6143 45.7443L57.2107 39.5094C57.3101 38.5617 56.515 37.6638 55.4713 37.7636C54.5768 37.8633 53.9804 38.6115 54.0301 39.5094L54.6265 45.7443C54.7756 46.2431 55.1234 46.5922 55.5707 46.6421ZM55.5707 38.1626C56.4653 38.1626 56.9622 38.7612 56.9125 39.5094L56.3162 45.7443C56.2665 46.0934 55.9683 46.3428 55.6204 46.2929C55.3222 46.2431 55.0737 46.0436 55.0737 45.7443L54.4774 39.5094C54.378 38.8609 54.875 38.2125 55.5707 38.1626ZM55.6701 47.2407C55.024 47.2407 54.4774 47.7893 54.4774 48.4378C54.4774 49.0862 55.024 49.6349 55.6701 49.6349C56.3162 49.6349 56.8628 49.0862 56.8628 48.4378C56.8628 47.7893 56.3162 47.2407 55.6701 47.2407ZM55.6701 49.2857C55.2228 49.2857 54.8253 48.8867 54.8253 48.4378C54.8253 47.9888 55.2228 47.5898 55.6701 47.5898C56.1174 47.5898 56.5149 47.9888 56.5149 48.4378C56.5149 48.8867 56.1671 49.2857 55.6701 49.2857ZM255.203 126.499C248.344 123.257 245.164 124.803 242.033 128.494C238.852 132.235 240.194 140.116 240.294 140.665C240.144 142.66 240.045 144.555 239.995 146.301H237.809C237.66 141.064 237.61 134.23 238.206 129.043C238.703 128.594 242.878 124.554 244.17 117.62C245.561 110.438 250.332 106.447 250.382 106.398C250.432 106.348 250.481 106.298 250.432 106.198C250.432 106.148 250.332 106.098 250.283 106.098C250.233 106.098 245.661 105.699 242.083 109.39C238.355 113.181 236.914 119.765 237.858 128.943C237.262 134.13 237.312 140.964 237.461 146.251H235.224C235.175 137.722 235.821 136.924 235.622 135.727C236.517 123.805 234.777 116.124 230.404 112.782C226.776 109.989 222.602 111.485 222.552 111.485C222.403 111.535 222.403 111.784 222.552 111.834C225.484 112.732 228.565 120.214 229.758 126.698C230.851 132.734 234.678 135.477 235.274 135.876C235.423 137.023 234.777 137.971 234.877 146.351H233.038L232.988 145.254C233.038 145.154 233.088 145.054 233.137 144.904C233.684 142.361 232.441 137.223 232.392 137.023C231.696 133.632 230.205 131.337 227.869 130.19C223.347 127.945 217.433 130.888 217.185 130.988C217.135 131.038 217.085 131.088 217.085 131.188C217.085 131.287 217.185 131.337 217.234 131.337C217.284 131.337 222.254 131.387 225.037 134.13C226.826 135.876 231.199 145.353 232.591 145.453L232.64 146.401H226.13C225.732 146.401 225.434 146.7 225.434 147.099V150.341C225.434 150.591 225.583 150.84 225.782 150.94C226.08 151.089 226.229 151.04 226.826 151.04L229.857 164.756C230.056 165.554 230.702 166.203 231.746 166.253C243.077 166.253 242.53 166.253 242.828 166.203C243.325 166.103 243.723 165.854 244.021 165.455C244.468 164.856 244.021 165.854 247.4 151.04C248.046 151.04 248.146 151.089 248.394 150.99C248.593 150.89 248.792 150.69 248.792 150.491C248.841 150.341 248.792 150.491 248.792 147.099C248.792 146.7 248.494 146.401 248.096 146.401H240.393C240.443 144.705 240.492 142.809 240.641 140.864C241.188 140.415 245.064 137.123 247.152 132.784C249.338 128.245 255.053 126.948 255.103 126.948C255.153 126.948 255.252 126.848 255.252 126.798C255.302 126.599 255.252 126.549 255.203 126.499ZM242.281 109.69C245.164 106.797 248.593 106.497 249.786 106.497C248.643 107.545 244.965 111.435 243.772 117.62C242.629 123.606 239.3 127.447 238.206 128.544C239.399 118.967 244.766 109.939 244.816 109.839C244.915 109.64 244.617 109.44 244.518 109.64C244.468 109.739 239.449 118.169 238.008 127.397C237.411 119.167 238.852 113.181 242.281 109.69ZM230.155 126.649C229.012 120.464 226.08 113.281 223.198 111.735C224.341 111.435 227.472 110.986 230.255 113.131C234.33 116.274 236.119 123.756 235.374 134.829C233.038 129.542 231.448 118.668 231.448 118.568C231.398 118.319 231.05 118.369 231.1 118.618C231.1 118.718 232.69 129.691 235.125 135.028C235.175 135.128 235.225 135.278 235.274 135.377C234.131 134.579 231.1 131.836 230.155 126.649ZM225.335 133.831C223.098 131.636 219.57 131.088 218.029 130.988C219.719 130.29 224.242 128.743 227.72 130.439C229.957 131.537 231.398 133.731 232.044 137.073C232.044 137.123 233.088 141.363 232.889 144.007C232.094 136.525 226.378 132.684 226.329 132.634C226.13 132.484 225.931 132.784 226.13 132.933C226.18 132.983 232.243 137.073 232.64 145.004C231.547 144.854 227.074 135.527 225.335 133.831ZM248.096 150.64C224.788 150.64 226.18 150.69 225.981 150.591C225.882 150.541 225.782 150.391 225.782 150.291V147.049C225.782 146.85 225.981 146.7 226.13 146.7H248.046C248.245 146.7 248.394 146.9 248.394 147.049V150.391C248.394 150.541 248.295 150.64 248.096 150.64ZM244.418 163.011H229.907L227.223 150.99H247.052L244.418 163.011ZM246.903 132.534C245.015 136.375 241.784 139.368 240.741 140.266C241.635 133.083 249.637 126.848 249.686 126.798C249.786 126.748 249.786 126.649 249.736 126.549C249.686 126.449 249.587 126.449 249.487 126.499C249.388 126.549 241.884 132.435 240.492 139.418C240.244 136.974 239.946 131.537 242.281 128.743C245.363 125.052 248.444 123.855 254.606 126.649C253.165 127.048 248.792 128.644 246.903 132.534ZM72.3185 88.0918C72.5173 87.7926 72.2191 87.4434 71.9209 87.5432L68.79 88.5407C68.4919 88.6405 68.4422 88.9896 68.6907 89.1892L71.3246 91.1345C71.6228 91.334 71.9706 91.0846 71.9209 90.7354L71.5234 89.2889L72.3185 88.0918ZM202.077 39.5094C202.673 39.5094 203.22 39.0106 203.269 38.412C203.319 37.8135 202.872 37.3147 202.226 37.3147C201.629 37.3147 201.083 37.8135 201.033 38.412C201.033 39.0106 201.48 39.5094 202.077 39.5094ZM202.226 37.5142C202.723 37.5142 203.071 37.9132 203.021 38.3621C202.971 38.8609 202.574 39.26 202.077 39.26C201.629 39.26 201.282 38.8609 201.282 38.412C201.331 37.9132 201.779 37.5142 202.226 37.5142ZM206.202 39.5094C206.798 39.5094 207.345 39.0106 207.394 38.412C207.444 37.8135 206.997 37.3147 206.351 37.3147C205.754 37.3147 205.208 37.8135 205.158 38.412C205.158 39.0106 205.605 39.5094 206.202 39.5094ZM206.4 37.5142C206.897 37.5142 207.245 37.9132 207.196 38.3621C207.146 38.8609 206.748 39.26 206.251 39.26C205.804 39.26 205.456 38.8609 205.456 38.412C205.506 37.9132 205.903 37.5142 206.4 37.5142ZM210.326 39.5094C210.923 39.5094 211.469 39.0106 211.519 38.412C211.569 37.8135 211.122 37.3147 210.476 37.3147C209.879 37.3147 209.332 37.8135 209.283 38.412C209.283 39.0106 209.73 39.5094 210.326 39.5094ZM210.525 37.5142C211.022 37.5142 211.37 37.9132 211.32 38.3621C211.271 38.8609 210.873 39.26 210.376 39.26C209.929 39.26 209.581 38.8609 209.581 38.412C209.631 37.9132 210.028 37.5142 210.525 37.5142ZM223.993 39.6091H245.76C247.4 39.6091 247.549 37.165 245.959 37.165H224.192C223.546 37.165 222.949 37.7137 222.85 38.3621C222.8 39.0605 223.347 39.6091 223.993 39.6091ZM224.192 37.4144H245.959C246.506 37.4144 246.903 37.8633 246.854 38.3621C246.804 38.9108 246.307 39.3597 245.76 39.3597H223.993C223.446 39.3597 223.049 38.9108 223.098 38.412C223.148 37.8633 223.645 37.4144 224.192 37.4144Z" fill="#3C4150"/>
<path d="M80.0507 25.6524C80.2489 25.4617 80.2709 25.162 80.0999 24.983C79.9288 24.804 79.6296 24.8135 79.4314 25.0043C79.2333 25.195 79.2113 25.4947 79.3823 25.6737C79.5533 25.8527 79.8526 25.8432 80.0507 25.6524Z" fill="#0662B7"/>
<path d="M79.6241 26.5913C79.5246 26.5913 79.4749 26.5414 79.5246 26.4416L79.5744 25.7433C79.5744 25.6934 79.6241 25.6436 79.7235 25.6436C79.7732 25.6436 79.823 25.6934 79.823 25.7932L79.7733 26.4915C79.7235 26.5414 79.6738 26.5913 79.6241 26.5913Z" fill="#0662B7"/>
<path d="M49.5078 96.6218C50.3526 96.6218 51.1975 95.9235 51.3963 95.0756C51.595 94.2276 51.0484 93.5293 50.2035 93.5293C49.3587 93.5293 48.5138 94.2276 48.3151 95.0756C48.1163 95.9235 48.6629 96.6218 49.5078 96.6218Z" fill="white"/>
<path d="M141.139 43.103L141.437 39.2623C141.437 39.1127 141.586 38.963 141.736 38.963H144.27C144.618 38.963 144.568 39.5117 144.22 39.5117H141.984L141.885 40.9083H143.922C144.27 40.9083 144.22 41.457 143.872 41.457H141.835L141.736 42.8536H143.972C144.32 42.8536 144.32 43.4023 143.922 43.4023H141.388C141.239 43.4023 141.139 43.2527 141.139 43.103ZM145.165 43.1529L145.463 39.2623C145.463 39.1127 145.612 38.963 145.761 38.963H147.252C148.196 38.963 148.942 39.3122 148.892 40.2599C148.842 40.7587 148.544 41.2076 147.948 41.4071C148.246 41.5069 148.445 41.6565 148.544 41.9558C148.743 42.5543 148.643 42.9534 148.594 43.1529C148.544 43.5519 147.997 43.5519 147.997 43.1529C147.997 43.0531 148.047 42.704 147.997 42.3548C147.997 42.1553 147.898 42.0057 147.749 41.856C147.6 41.7064 147.401 41.6565 147.103 41.6565H145.811L145.711 43.1529C145.711 43.5021 145.115 43.5021 145.165 43.1529ZM147.053 41.1079C147.649 41.1079 148.246 40.9083 148.296 40.2599C148.345 39.6115 147.799 39.4618 147.152 39.4618H146.059L145.91 41.058H147.053V41.1079ZM149.687 43.1529L149.985 39.2623C149.985 39.1127 150.134 38.963 150.283 38.963H151.774C152.371 38.963 152.768 39.0628 153.017 39.3122C153.265 39.5616 153.414 39.8609 153.365 40.2599C153.315 40.7587 153.017 41.2076 152.42 41.4071C152.719 41.5069 152.917 41.6565 153.017 41.9558C153.215 42.5543 153.116 42.9534 153.066 43.1529C153.017 43.5021 152.47 43.5519 152.47 43.1529C152.47 43.0531 152.52 42.704 152.47 42.3548C152.42 41.9558 152.172 41.6565 151.625 41.6565H150.333L150.234 43.1529C150.234 43.5021 149.637 43.5021 149.687 43.1529ZM151.575 41.1079C152.172 41.1079 152.768 40.9083 152.818 40.2599C152.868 39.6115 152.321 39.4618 151.675 39.4618H150.582L150.432 41.1079H151.575ZM154.11 41.1577C154.259 39.7611 155.253 38.8633 156.545 38.8633C157.887 38.8633 158.682 39.811 158.583 41.1577C158.434 42.4546 157.539 43.4522 156.148 43.4522C154.806 43.4522 154.011 42.5544 154.11 41.1577ZM157.937 41.1577C158.036 40.1601 157.44 39.412 156.446 39.412C155.402 39.412 154.756 40.1601 154.657 41.1577C154.557 42.1553 155.104 42.9035 156.148 42.9035C157.191 42.9035 157.887 42.2052 157.937 41.1577ZM159.328 43.1529L159.626 39.2623C159.626 39.1127 159.775 38.963 159.925 38.963H161.415C162.36 38.963 163.105 39.3122 163.055 40.2599C163.006 40.7587 162.708 41.2076 162.111 41.4071C162.409 41.5069 162.608 41.6565 162.708 41.9558C162.906 42.5543 162.807 42.9534 162.757 43.1529C162.708 43.5519 162.161 43.5519 162.161 43.1529C162.161 43.0531 162.211 42.704 162.161 42.3548C162.111 41.9558 161.863 41.6565 161.316 41.6565H160.024L159.925 43.1529C159.875 43.5021 159.328 43.5021 159.328 43.1529ZM161.217 41.1079C161.813 41.1079 162.409 40.9083 162.459 40.2599C162.509 39.6115 161.962 39.4618 161.316 39.4618H160.223L160.074 41.058H161.217V41.1079ZM165.391 43.0531C165.391 42.8536 165.59 42.6541 165.789 42.6541C165.988 42.6541 166.137 42.8037 166.137 43.0531C166.137 43.2527 165.938 43.4522 165.739 43.4522C165.54 43.4023 165.391 43.2527 165.391 43.0531ZM165.64 42.0057L165.689 39.9108L165.739 39.2623C165.739 39.0628 165.888 38.9132 166.087 38.9132C166.286 38.9132 166.385 39.0628 166.385 39.2623L166.335 39.9108L166.037 42.0057C166.037 42.1054 165.938 42.2052 165.789 42.2052C165.739 42.1553 165.64 42.1054 165.64 42.0057Z" fill="white"/>
</svg>
