<svg width="252" height="168" viewBox="0 0 252 168" fill="none" xmlns="http://www.w3.org/2000/svg">
<path d="M160.607 0H134.61V25.0527H160.607V0Z" fill="#F6F2F1"/>
<path d="M191.745 78.4306V67.2692H159.363V50.8757H146.495V31.6922H89.3052V50.8757H61.4512V34.831H81.1616V13.5547H41.6731V25.7625H13.1297V54.7124H43.0932V59.9446H29.6437V83.3139H0V95.1727H43.0932V104.422H29.6437V113.31H43.0932V125.867H33.3081V145.051H84.6176V137.028H159.363V123.425H109.052V104.422H159.363V83.3139H175.726V113.31H238.935V78.4306H191.745Z" fill="#F6F2F1"/>
<path d="M252.001 57.7305H221.826V62.4498H252.001V57.7305Z" fill="#F6F2F1"/>
<path d="M221.417 121.615H191.242V126.335H221.417V121.615Z" fill="#F6F2F1"/>
<path d="M235.484 34.4414H213.996V38.1588H235.484V34.4414Z" fill="#F6F2F1"/>
<path d="M45.0676 146.934H3.95703V152.269H45.0676V146.934Z" fill="#F6F2F1"/>
<path d="M145.553 161.787H42.2812V162.916H145.553V161.787Z" fill="#090909"/>
<path d="M66.7142 161.787C66.7142 161.787 64.9837 156.184 66.7083 153.822C68.4328 151.459 69.7455 149.878 69.2456 146.326C68.7457 142.775 69.1207 141.073 71.4959 139.313C73.871 137.553 75.6209 134.09 74.4336 130.922C73.2462 127.753 77.9338 124.35 77.9338 124.35C77.9338 124.35 76.3088 129.513 77.5588 131.567C78.8088 133.621 79.8091 137.553 77.9338 139.43C76.0586 141.308 73.5586 145.744 74.6211 149.189C75.6836 152.633 74.4962 158.618 69.1207 161.787H66.7142V161.787Z" fill="#090909"/>
<path d="M71.373 161.783C71.373 161.783 75.1613 159.717 75.1613 157.18C75.1613 154.644 75.328 152.088 78.3279 151.214C81.3277 150.341 82.328 148.335 82.328 144.839C82.328 141.344 86.1616 142.291 87.4116 139.153C88.4347 136.584 92.0783 135.789 92.0783 135.789C92.0783 135.789 88.9948 137.618 89.4117 141.892C89.6952 144.801 88.3283 147.368 85.9114 148.464C83.4945 149.559 84.5778 154.533 83.3278 156.467C82.0778 158.4 78.5209 159.923 78.5209 161.784H71.373V161.783Z" fill="#090909"/>
<path d="M68.2462 161.837C68.2382 161.837 68.2298 161.835 68.2218 161.831C68.1954 161.818 68.185 161.787 68.1979 161.761C68.2288 161.703 71.256 155.838 71.3212 150.187C71.3848 144.64 72.7303 142.317 74.9592 138.467L75.1995 138.053C76.6843 135.485 76.3987 133.485 76.1227 131.551C75.955 130.374 75.7959 129.263 76.0058 128.036C76.0108 128.007 76.0381 127.988 76.068 127.993C76.0973 127.997 76.1167 128.024 76.1122 128.052C75.9048 129.264 76.062 130.369 76.2291 131.537C76.5077 133.488 76.7957 135.505 75.293 138.103L75.0532 138.518C72.8323 142.353 71.4913 144.667 71.4286 150.188C71.3629 155.863 68.3248 161.749 68.2944 161.808C68.285 161.826 68.2656 161.837 68.2462 161.837Z" fill="white"/>
<path d="M74.874 161.836C74.8606 161.836 74.8472 161.832 74.8367 161.822C74.8153 161.802 74.8148 161.769 74.8352 161.749C74.8845 161.7 79.7596 156.839 81.4448 152.794C83.1355 148.734 85.0322 145.658 86.0792 144.519C86.8114 143.721 87.3466 142.231 87.7759 141.035C87.953 140.541 88.1206 140.075 88.2788 139.721C88.2902 139.695 88.3216 139.682 88.3494 139.694C88.3768 139.705 88.3892 139.735 88.3773 139.762C88.2211 140.112 88.0539 140.577 87.8779 141.068C87.4451 142.274 86.9059 143.775 86.1598 144.587C85.1192 145.721 83.2306 148.785 81.5443 152.833C79.8516 156.897 74.9621 161.772 74.9128 161.821C74.9019 161.831 74.888 161.836 74.874 161.836Z" fill="white"/>
<path fill-rule="evenodd" clip-rule="evenodd" d="M132.27 59.7854H127.965C127.88 59.7854 127.812 59.7192 127.812 59.6377V50.9211C127.812 50.8396 127.88 50.7734 127.965 50.7734H132.27C132.354 50.7734 132.423 50.8396 132.423 50.9211V59.6377C132.423 59.7192 132.354 59.7854 132.27 59.7854Z" fill="#090909"/>
<path fill-rule="evenodd" clip-rule="evenodd" d="M132.756 59.7854H128.604C128.477 59.7854 128.374 59.6862 128.374 59.5639V50.9949C128.374 50.8727 128.477 50.7734 128.604 50.7734H132.756C132.883 50.7734 132.986 50.8727 132.986 50.9949V59.5639C132.986 59.6862 132.883 59.7854 132.756 59.7854Z" fill="#464C7D"/>
<path d="M129.063 51.8801C129.228 51.8801 129.361 51.736 129.361 51.5582C129.361 51.3804 129.228 51.2363 129.063 51.2363C128.899 51.2363 128.766 51.3804 128.766 51.5582C128.766 51.736 128.899 51.8801 129.063 51.8801Z" fill="white"/>
<path d="M129.762 51.671C129.819 51.671 129.865 51.6209 129.865 51.5591C129.865 51.4973 129.819 51.4473 129.762 51.4473C129.705 51.4473 129.659 51.4973 129.659 51.5591C129.659 51.6209 129.705 51.671 129.762 51.671Z" fill="white"/>
<path fill-rule="evenodd" clip-rule="evenodd" d="M128.597 68.8159C129.943 69.1912 131.535 60.674 131.365 59.4785C131.194 58.2834 130.732 58.6784 129.823 58.9962C128.914 59.314 128.26 58.5902 128.089 57.8462C127.917 57.1028 127.104 53.7736 127.644 53.8508C128.184 53.9289 130.547 54.114 131.631 53.7942C132.715 53.475 133.044 53.0464 134.211 55.355C135.377 57.6646 136.527 60.3825 136.645 65.5241C136.763 70.6657 132.973 78.3738 129.352 79.4438C125.731 80.5132 123.009 77.4132 121.667 75.6031C121.666 75.6031 125.32 67.9027 128.597 68.8159Z" fill="#FB7E60"/>
<path fill-rule="evenodd" clip-rule="evenodd" d="M121.332 86.7086C121.332 86.7086 127.615 102.69 124.697 119.895C121.779 137.1 113.213 151.656 113.213 151.656L106.327 150.002C106.327 150.002 112.655 129.711 111.302 114.627C111.302 114.627 109.543 121.835 103.86 130.525C98.178 139.215 90.7357 144.037 90.7357 144.037L86.0869 137.741C86.0869 137.741 91.3291 133.109 93.9863 124.964C96.6435 116.819 96.6136 101.04 100.014 93.9949C100.014 93.9949 110.333 85.2921 121.332 86.7086Z" fill="#6696F8"/>
<path fill-rule="evenodd" clip-rule="evenodd" d="M102.173 57.6685C100.98 56.9495 96.2975 54.033 96.9247 52.466C97.5515 50.8995 98.6124 51.1195 98.6124 51.1195C98.6124 51.1195 97.5714 49.8991 99.2571 48.9768C100.942 48.0545 103.312 49.0252 106.733 47.5555C110.153 46.0858 110.109 44.9588 111.116 45.1726C112.123 45.3869 110.672 48.3546 110.672 48.3546C110.672 48.3546 112.738 46.0752 113.15 47.4562C113.561 48.8368 111.117 51.5754 108.506 52.1151C105.895 52.6539 103.368 58.3875 102.173 57.6685Z" fill="#090909"/>
<path fill-rule="evenodd" clip-rule="evenodd" d="M101.291 62.2539C99.5303 63.2902 93.7773 65.4454 90.2153 70.4173C86.6533 75.3892 85.6933 86.1691 85.4287 88.5045C85.4287 88.5045 88.2729 86.1422 91.0475 85.51C93.8215 84.8782 96.1221 85.4337 96.1221 85.4337L95.7311 87.6661L99.6631 94.0632C99.6631 94.0632 101.896 92.9808 109.838 89.5879C117.779 86.194 122.858 86.7616 122.858 86.7616C122.858 86.7616 121.316 81.5945 119.044 77.1221C119.044 77.1221 122.497 77.9677 124.559 78.8521C124.559 78.8521 124.514 75.1558 128.66 68.7391C128.66 68.7391 124.622 66.4382 116.666 64.3266C108.71 62.2146 106.414 62.6359 106.414 62.6359C106.414 62.6359 103.051 61.2175 101.291 62.2539Z" fill="#FEB825"/>
<path fill-rule="evenodd" clip-rule="evenodd" d="M107.954 50.8168C107.954 50.8168 109.734 54.3875 108.868 55.3069C108.003 56.2264 105.595 55.9929 105.576 57.2287C105.556 58.4645 106.269 61.3847 106.269 61.3847C106.269 61.3847 106.947 65.1453 104.941 65.5403C102.936 65.9348 101.326 62.2322 101.326 62.2322C101.326 62.2322 102.086 61.1034 102.173 59.5105C102.261 57.918 101.981 56.4895 101.981 56.4895C101.981 56.4895 100.927 56.5844 100.521 55.781C99.9663 54.6828 100.495 53.8406 101.297 53.4811C102.098 53.122 102.956 54.0309 103.052 54.6756L103.896 54.494C103.896 54.494 104.057 53.3449 103.723 52.5669C103.723 52.5669 105.075 51.799 105.505 50.7852C105.505 50.7847 106.891 51.6341 107.954 50.8168Z" fill="#FB7E60"/>
<path fill-rule="evenodd" clip-rule="evenodd" d="M96.1809 85.4119C96.1809 85.4119 91.3113 83.6963 85.8398 88.1711C85.8398 88.1711 85.0951 94.1382 89.0098 96.1918C92.9249 98.2458 97.3399 95.8974 100.741 93.457C104.143 91.0156 106.591 89.0364 109.106 87.9401C111.619 86.8438 113.033 87.4698 113.162 86.3884C113.291 85.307 112.987 84.7413 113.698 84.2404C114.409 83.7395 116.523 83.2582 115.814 83.0056C115.105 82.752 110.791 84.3171 110.42 83.8804C110.05 83.4437 111.229 81.8345 110.3 81.6777C110.3 81.6777 109.325 83.3095 108.01 84.1996C106.695 85.0888 98.9276 86.967 95.9069 87.3452L96.1809 85.4119Z" fill="#FB7E60"/>
<path fill-rule="evenodd" clip-rule="evenodd" d="M106.722 150.094L112.864 151.576L110.635 156.492L105.342 156.131L106.722 150.094Z" fill="#FB7E60"/>
<path fill-rule="evenodd" clip-rule="evenodd" d="M86.2544 137.955L90.4247 143.618C90.4247 143.618 85.0273 147.27 83.2411 148.186L80.7451 143.617C80.7451 143.617 84.3732 139.861 86.2544 137.955Z" fill="#FB7E60"/>
<path fill-rule="evenodd" clip-rule="evenodd" d="M103.043 54.73L103.895 54.582L103.898 54.7353L103.079 54.9078L103.043 54.73Z" fill="#090909"/>
<path fill-rule="evenodd" clip-rule="evenodd" d="M106.028 56.5C105.392 56.8602 104.665 57.5582 104.665 57.5582L105.576 57.4738C105.576 57.4738 105.561 57.22 105.609 57.0051C105.661 56.7667 106.028 56.5 106.028 56.5Z" fill="#090909"/>
<path fill-rule="evenodd" clip-rule="evenodd" d="M101.303 62.2432L101.517 61.9043C101.517 61.9043 102.276 63.2944 103.023 64.2172C103.769 65.1395 105.007 65.4424 105.617 64.5197C106.227 63.5964 106.345 62.0687 106.345 62.0687L106.413 62.6372C106.413 62.6372 106.469 64.4526 105.625 65.2004C104.78 65.9482 103.383 65.4645 102.569 64.3649C101.755 63.2638 101.303 62.2432 101.303 62.2432Z" fill="white"/>
<path fill-rule="evenodd" clip-rule="evenodd" d="M96.181 85.433C96.3755 84.3228 97.0037 81.3359 97.0037 81.3359L97.3434 87.1194C97.3434 87.1194 96.3625 87.302 95.8984 87.3505C95.8984 87.3505 95.986 86.5437 96.181 85.433Z" fill="#090909"/>
<path fill-rule="evenodd" clip-rule="evenodd" d="M119.045 77.1247C117.976 76.8309 116.687 76.5332 116.687 76.5332C116.687 76.5332 118.535 77.2009 119.566 78.1798L119.045 77.1247Z" fill="#090909"/>
<path fill-rule="evenodd" clip-rule="evenodd" d="M91.6089 85.3242C89.4845 86.1305 86.5642 88.0197 85.7803 89.1049C85.7803 89.1049 85.8012 88.5259 85.833 88.1994C85.833 88.1994 86.8417 87.1674 88.7717 86.2542C90.7022 85.342 91.6089 85.3242 91.6089 85.3242Z" fill="#090909"/>
<path fill-rule="evenodd" clip-rule="evenodd" d="M111.3 114.599C112.272 111.142 111.95 107.557 111.95 107.557C111.95 107.557 116.946 111.93 111.491 118.301L111.3 114.599Z" fill="#090909"/>
<path fill-rule="evenodd" clip-rule="evenodd" d="M107.048 90.8124C107.048 90.8124 117.66 87.5968 121.789 87.9789L121.359 86.7402C121.359 86.7402 113.497 86.826 107.048 90.8124Z" fill="#090909"/>
<path fill-rule="evenodd" clip-rule="evenodd" d="M112.863 151.574L106.646 150.427L106.72 150.094L112.863 151.574Z" fill="#090909"/>
<path fill-rule="evenodd" clip-rule="evenodd" d="M86.2571 137.959L85.7383 138.471L90.4299 143.618L86.2571 137.959Z" fill="#090909"/>
<path fill-rule="evenodd" clip-rule="evenodd" d="M80.8937 143.426L74.2881 147.729L77.9077 156.336L83.2509 156.149C83.2509 156.149 83.2544 154.644 80.8549 153.625C79.1398 152.896 81.5647 149.2 83.7319 147.936L80.8937 143.426Z" fill="#FEB825"/>
<path fill-rule="evenodd" clip-rule="evenodd" d="M105.832 153.504L111.426 154.808C111.426 154.808 109.691 157.964 111.991 159.006C114.292 160.047 115.49 160.841 116.015 162.919L103.64 161.505L105.832 153.504Z" fill="#FEB825"/>
<path fill-rule="evenodd" clip-rule="evenodd" d="M103.789 160.951L103.644 161.498L116.015 162.917C116.015 162.917 115.989 162.788 115.96 162.716L103.789 160.951Z" fill="white"/>
<path fill-rule="evenodd" clip-rule="evenodd" d="M112.545 159.277C111.498 159.893 109.565 158.969 109.338 156.622C109.112 154.274 110.969 153.448 111.929 153.689C111.929 153.689 110.988 155.548 110.895 157.013C110.801 158.477 112.545 159.277 112.545 159.277Z" fill="white"/>
<path fill-rule="evenodd" clip-rule="evenodd" d="M83.2554 156.151L77.9137 156.35L74.2871 147.722L74.9412 147.307L78.1057 155.932L83.235 156.002L83.2554 156.151Z" fill="white"/>
<path fill-rule="evenodd" clip-rule="evenodd" d="M80.437 153.314C78.8741 152.891 79.0761 150.048 80.9593 148.137C82.842 146.226 84.468 146.143 85.3922 146.934C85.3922 146.934 83.0907 148.222 81.4462 150.159C79.8013 152.095 80.437 153.314 80.437 153.314Z" fill="white"/>
<path d="M102.424 55.6347C102.355 55.6347 102.293 55.5906 102.276 55.524C101.966 54.3659 101.092 54.4545 101.055 54.4584C100.972 54.4675 100.895 54.4114 100.884 54.3304C100.874 54.2499 100.932 54.1765 101.016 54.166C101.026 54.1645 102.194 54.0322 102.572 55.4502C102.594 55.5293 102.544 55.6093 102.462 55.6299C102.449 55.6333 102.436 55.6347 102.424 55.6347Z" fill="#090909"/>
<path d="M101.259 55.6931C101.187 55.6931 101.124 55.6446 101.11 55.5741C101.105 55.5477 100.992 54.9256 101.873 54.5236C101.951 54.4896 102.041 54.5203 102.077 54.5941C102.113 54.6675 102.081 54.7558 102.004 54.7903C101.346 55.0901 101.407 55.5031 101.41 55.5204C101.424 55.6 101.368 55.6763 101.286 55.6902C101.277 55.6926 101.268 55.6931 101.259 55.6931Z" fill="#090909"/>
<path d="M112.099 156.817C112.066 156.817 112.036 156.813 112.009 156.807C111.574 156.709 111.212 155.866 111.099 155.576L108.378 154.893C108.297 154.872 108.247 154.791 108.269 154.713C108.29 154.634 108.373 154.585 108.455 154.607L111.182 155.292C111.428 155.085 112.25 154.444 112.77 154.534C112.931 154.562 113.058 154.655 113.135 154.802C113.23 154.982 113.185 155.119 113.13 155.202C112.94 155.491 112.283 155.584 111.787 155.612C112.105 155.816 112.463 156.102 112.505 156.373C112.523 156.495 112.483 156.606 112.388 156.695C112.287 156.79 112.184 156.817 112.099 156.817ZM111.532 155.804C111.698 156.146 111.916 156.483 112.078 156.52C112.094 156.523 112.125 156.531 112.175 156.483C112.203 156.458 112.206 156.439 112.203 156.416C112.178 156.254 111.86 156.006 111.532 155.804ZM112.656 154.819C112.392 154.819 111.965 155.07 111.626 155.323C112.156 155.301 112.76 155.216 112.872 155.044C112.881 155.031 112.899 155.003 112.863 154.935C112.829 154.87 112.784 154.836 112.717 154.824C112.697 154.82 112.677 154.819 112.656 154.819Z" fill="#090909"/>
<path d="M109.439 158.737C109.389 158.737 109.339 158.713 109.31 158.668C109.265 158.6 109.286 158.509 109.357 158.465C109.487 158.385 110.636 157.681 110.924 157.576C111.002 157.547 111.091 157.586 111.121 157.662C111.15 157.739 111.111 157.824 111.031 157.852C110.813 157.932 109.867 158.501 109.521 158.713C109.496 158.729 109.468 158.737 109.439 158.737Z" fill="#090909"/>
<path d="M110.187 159.57C110.147 159.57 110.109 159.556 110.079 159.527C110.018 159.47 110.018 159.377 110.078 159.319C110.178 159.222 111.061 158.368 111.304 158.214C111.375 158.169 111.469 158.187 111.516 158.255C111.562 158.323 111.543 158.414 111.472 158.46C111.288 158.576 110.56 159.269 110.295 159.526C110.265 159.555 110.226 159.57 110.187 159.57Z" fill="#090909"/>
<path d="M111.328 160.017C111.31 160.017 111.292 160.014 111.274 160.008C111.194 159.979 111.155 159.894 111.185 159.817C111.246 159.663 111.562 158.879 111.776 158.694C111.838 158.64 111.935 158.644 111.992 158.705C112.049 158.765 112.044 158.859 111.98 158.913C111.863 159.014 111.612 159.564 111.471 159.922C111.448 159.981 111.39 160.017 111.328 160.017Z" fill="#090909"/>
<path d="M83.4335 150.639C83.1311 150.639 82.9679 150.51 82.8818 150.396C82.5177 149.909 82.9271 148.849 83.0535 148.552L81.1091 146.112C81.0573 146.048 81.0698 145.955 81.1369 145.906C81.2036 145.856 81.3001 145.868 81.3513 145.933L83.2852 148.358C83.716 148.225 85.162 147.829 85.7639 148.3C85.9757 148.466 86.0613 148.712 86.0185 149.03C85.9837 149.285 85.8335 149.404 85.7136 149.459C85.2137 149.688 84.1965 149.239 83.6026 148.93C83.8225 149.395 84.0791 150.076 83.8906 150.417C83.8414 150.506 83.7399 150.616 83.534 150.634C83.4996 150.638 83.4658 150.639 83.4335 150.639ZM83.246 148.894C83.0773 149.364 82.945 149.977 83.1296 150.224C83.1559 150.259 83.242 150.365 83.5066 150.341C83.5807 150.335 83.6056 150.307 83.6215 150.279C83.7429 150.06 83.5046 149.409 83.246 148.894ZM83.5787 148.581C84.2552 148.949 85.2217 149.357 85.5828 149.193C85.635 149.169 85.6972 149.125 85.7151 148.992C85.744 148.779 85.6967 148.628 85.5718 148.529C85.1893 148.229 84.1806 148.417 83.5787 148.581Z" fill="#090909"/>
<path d="M81.2584 150.526C81.2235 150.526 81.1887 150.515 81.1599 150.491C80.7371 150.15 79.3836 149.373 79.3702 149.366C79.2971 149.324 79.2732 149.233 79.3165 149.163C79.3603 149.093 79.4548 149.072 79.5259 149.112C79.5826 149.144 80.9147 149.909 81.3564 150.265C81.421 150.318 81.4295 150.411 81.3753 150.473C81.3454 150.507 81.3021 150.526 81.2584 150.526Z" fill="#090909"/>
<path d="M80.7253 151.407C80.7049 151.407 80.684 151.403 80.6646 151.395C80.1836 151.194 78.7153 150.985 78.7003 150.983C78.6168 150.971 78.5586 150.896 78.571 150.815C78.5834 150.735 78.663 150.681 78.7446 150.691C78.8063 150.699 80.2677 150.908 80.7855 151.124C80.8636 151.156 80.8989 151.244 80.8656 151.318C80.8407 151.373 80.7845 151.407 80.7253 151.407Z" fill="#090909"/>
<path d="M78.8475 152.42C78.7843 152.42 78.7251 152.382 78.7032 152.321C78.6749 152.244 78.7167 152.16 78.7962 152.132C78.8321 152.12 79.6806 151.834 80.4153 151.936C80.4989 151.947 80.5571 152.022 80.5451 152.103C80.5332 152.184 80.4571 152.239 80.372 152.228C79.713 152.137 78.9067 152.408 78.8987 152.411C78.8818 152.417 78.8644 152.42 78.8475 152.42Z" fill="#090909"/>
<path d="M92.3372 142.968C92.2919 142.968 92.2472 142.949 92.2168 142.912L87.1353 136.682C87.0831 136.618 87.0945 136.525 87.1611 136.475C87.2268 136.425 87.3228 136.435 87.3755 136.5L92.4571 142.729C92.5093 142.794 92.4979 142.886 92.4312 142.936C92.4034 142.958 92.3705 142.968 92.3372 142.968Z" fill="#090909"/>
<path d="M111.793 149.662C111.781 149.662 111.768 149.661 111.755 149.658L106.833 148.437C106.751 148.417 106.701 148.336 106.723 148.257C106.743 148.179 106.824 148.13 106.909 148.151L111.831 149.372C111.913 149.392 111.963 149.473 111.941 149.552C111.924 149.618 111.862 149.662 111.793 149.662Z" fill="#090909"/>
<path d="M114.096 150.15C114.084 150.15 114.072 150.149 114.059 150.146L112.449 149.759C112.366 149.74 112.316 149.66 112.337 149.58C112.357 149.502 112.438 149.454 112.522 149.473L114.132 149.86C114.215 149.879 114.265 149.959 114.244 150.039C114.227 150.106 114.165 150.15 114.096 150.15Z" fill="#090909"/>
<path d="M89.7866 139.504C89.7672 139.504 89.7473 139.497 89.7323 139.483C89.7025 139.454 89.7025 139.407 89.7323 139.378C96.613 132.763 104.671 120.512 104.736 107.759C104.806 94.059 104.932 91.7552 104.933 91.7336C104.936 91.6929 104.964 91.6627 105.014 91.6641C105.057 91.6665 105.089 91.701 105.086 91.7418C105.085 91.7633 104.959 94.07 104.889 107.76C104.858 113.93 103.046 120.318 99.505 126.745C95.8605 133.359 91.5325 137.857 89.8408 139.483C89.8254 139.497 89.8055 139.504 89.7866 139.504Z" fill="#090909"/>
<path d="M111.004 149.388C110.991 149.388 110.979 149.385 110.967 149.379C110.93 149.359 110.917 149.314 110.938 149.279C118.376 136.578 118.81 123.495 117.864 114.757C116.839 105.285 114.017 98.7335 113.989 98.6683C113.972 98.631 113.991 98.5878 114.03 98.572C114.069 98.5567 114.113 98.5739 114.13 98.6113C114.158 98.6765 116.988 105.244 118.016 114.736C118.965 123.497 118.53 136.614 111.071 149.35C111.057 149.375 111.031 149.388 111.004 149.388Z" fill="#090909"/>
<path d="M112.322 110.028C112.242 110.028 112.175 109.969 112.169 109.892C111.941 106.951 110.911 96.2198 110.901 96.1119C110.894 96.0309 110.955 95.959 111.04 95.9514C111.123 95.9475 111.198 96.0036 111.206 96.0846C111.216 96.193 112.246 106.926 112.474 109.87C112.481 109.951 112.418 110.022 112.333 110.028C112.329 110.028 112.325 110.028 112.322 110.028Z" fill="#090909"/>
<path d="M111.533 100.544C111.498 100.544 111.477 100.543 111.471 100.542C111.387 100.538 111.323 100.469 111.327 100.388C111.332 100.306 111.419 100.241 111.488 100.248C111.497 100.249 112.536 100.29 113.341 99.5228C114.043 98.8532 114.368 97.7823 114.307 96.3389C114.304 96.2575 114.37 96.1889 114.454 96.1855C114.554 96.186 114.609 96.2455 114.613 96.327C114.677 97.859 114.321 99.0061 113.553 99.7362C112.758 100.492 111.787 100.544 111.533 100.544Z" fill="#090909"/>
<path d="M88.6527 77.6809C87.9012 77.6809 87.3421 77.6142 87.2784 77.6061C87.2535 77.6032 87.2356 77.5811 87.2386 77.5567C87.2416 77.5327 87.2665 77.5169 87.2903 77.5188C87.3341 77.5241 91.7198 78.0456 92.8395 76.0899C92.9842 75.8363 93.0862 75.6004 93.1528 75.3828C92.6236 75.2385 92.1749 74.9044 91.9854 74.5789C91.8476 74.344 91.8377 74.1106 91.9561 73.9217C92.1615 73.5948 92.5151 73.4956 92.8365 73.6748C93.1911 73.8723 93.511 74.4418 93.2682 75.3205C93.4045 75.3507 93.5448 75.3679 93.687 75.3679C93.6875 75.3679 93.6885 75.3679 93.689 75.3679C94.087 75.3679 94.6391 75.2328 95.0161 74.5909C95.419 73.9049 95.6712 72.9678 95.7662 72.1303C95.2658 71.9736 94.8963 71.4171 94.8187 70.9344C94.7585 70.56 94.8714 70.2656 95.1285 70.1266C95.3569 70.0039 95.5096 70.0811 95.5986 70.1674C95.8672 70.4277 95.9562 71.1879 95.8677 72.0656C95.8727 72.0671 95.8781 72.068 95.8831 72.069C96.3169 72.1567 96.7421 71.895 97.1207 71.3164C98.4706 69.2528 97.8688 68.3554 97.8628 68.3463C97.8484 68.3262 97.8539 68.2984 97.8747 68.2849C97.8956 68.2715 97.9245 68.2763 97.9384 68.296C97.9658 68.3334 98.5855 69.2432 97.1983 71.3634C96.6929 72.1366 96.193 72.2209 95.8652 72.1553C95.8627 72.1548 95.8607 72.1543 95.8587 72.1538C95.7627 72.9956 95.5076 73.9323 95.0957 74.6336C94.6968 75.3128 94.1108 75.4557 93.689 75.4557C93.6885 75.4557 93.6875 75.4557 93.687 75.4557C93.5368 75.4552 93.3876 75.437 93.2439 75.4044C93.1747 75.6282 93.0693 75.8708 92.92 76.1311C92.1684 77.444 90.0694 77.6809 88.6527 77.6809ZM92.5107 73.6748C92.3266 73.6748 92.154 73.776 92.0341 73.9677C91.9048 74.1729 91.9794 74.39 92.065 74.5358C92.2446 74.844 92.6723 75.1609 93.1767 75.298C93.4005 74.4687 93.1056 73.927 92.7902 73.7515C92.6972 73.6998 92.6027 73.6748 92.5107 73.6748ZM95.3524 70.152C95.2972 70.152 95.238 70.1693 95.1733 70.2043C94.952 70.3241 94.8555 70.5854 94.9097 70.9214C94.9818 71.3711 95.319 71.8873 95.7757 72.0407C95.8607 71.1975 95.7826 70.4713 95.5339 70.2307C95.4797 70.1779 95.4195 70.152 95.3524 70.152Z" fill="white"/>
<path d="M123.442 74.1688C123.435 74.1688 123.428 74.1674 123.421 74.164C122.96 73.9311 122.795 73.5739 122.752 73.2542C122.74 73.2547 122.728 73.2547 122.716 73.2547C122.07 73.2547 121.233 72.9982 120.255 72.2964C119.196 71.5367 119.079 70.75 119.183 70.2026C119.021 70.1067 118.849 69.984 118.667 69.8282C116.694 68.1457 117.327 64.62 117.333 64.585C117.338 64.5615 117.362 64.5452 117.386 64.5495C117.412 64.5538 117.428 64.5768 117.424 64.6008C117.417 64.6358 116.793 68.1126 118.727 69.7625C118.895 69.9054 119.054 70.0205 119.203 70.1106C119.399 69.3144 120.14 68.661 120.718 68.5469C120.956 68.4994 121.145 68.5526 121.253 68.6955C121.553 69.0986 121.414 69.8009 120.956 70.1997C120.728 70.3987 120.158 70.7381 119.268 70.251C119.179 70.7721 119.309 71.5079 120.31 72.226C121.272 72.9158 122.09 73.1679 122.716 73.1679C122.726 73.1679 122.734 73.1679 122.743 73.1674C122.734 73.0289 122.745 72.9004 122.762 72.7974C122.86 72.202 123.274 71.6253 123.649 71.563C123.77 71.5439 123.941 71.5673 124.069 71.7941C124.278 72.167 124.179 72.6047 123.815 72.9081C123.592 73.0946 123.263 73.2278 122.845 73.2508C122.888 73.5457 123.042 73.8721 123.464 74.0849C123.487 74.0964 123.496 74.1228 123.484 74.1449C123.475 74.1602 123.459 74.1688 123.442 74.1688ZM123.715 71.646C123.698 71.646 123.681 71.6474 123.664 71.6503C123.329 71.7054 122.943 72.2586 122.852 72.8108C122.836 72.9095 122.825 73.0318 122.835 73.1641C123.232 73.143 123.543 73.0174 123.754 72.841C124.084 72.5658 124.176 72.1709 123.987 71.8358C123.916 71.7097 123.824 71.646 123.715 71.646ZM119.285 70.158C120.139 70.6355 120.679 70.3196 120.894 70.1331C121.312 69.7693 121.447 69.1087 121.178 68.7463C121.069 68.6015 120.877 68.6044 120.736 68.6322C120.181 68.742 119.465 69.3795 119.287 70.1528C119.286 70.1552 119.286 70.1566 119.285 70.158Z" fill="white"/>
<path d="M107.533 81.2749C107.509 81.2749 107.489 81.2567 107.487 81.2332C107.486 81.2097 107.367 78.8565 109.285 77.9237C110.1 77.5272 110.955 77.6528 111.625 77.9759C111.811 77.7161 112.128 77.5282 112.556 77.429C112.584 77.4232 112.606 77.4381 112.612 77.4616C112.618 77.4851 112.603 77.509 112.578 77.5148C112.122 77.6202 111.857 77.8086 111.706 78.0157C112.08 78.2084 112.391 78.461 112.598 78.7132C112.947 79.1384 113.017 79.5516 112.785 79.8176C112.647 79.9763 112.455 80.0185 112.243 79.9351C111.821 79.7692 111.387 79.1211 111.436 78.5027C111.449 78.3364 111.497 78.1849 111.576 78.0502C110.93 77.741 110.109 77.6217 109.327 78.0028C107.462 78.9102 107.577 81.2054 107.579 81.2284C107.58 81.2528 107.561 81.2739 107.536 81.2754C107.535 81.2749 107.534 81.2749 107.533 81.2749ZM111.657 78.09C111.573 78.2314 111.538 78.3781 111.527 78.5094C111.481 79.0818 111.893 79.7021 112.278 79.8536C112.399 79.9005 112.573 79.9231 112.714 79.761C112.916 79.5295 112.846 79.1585 112.525 78.7688C112.324 78.5229 112.021 78.277 111.657 78.09Z" fill="white"/>
<path d="M105.628 52.8505C105.783 52.8505 105.908 52.7292 105.908 52.5795C105.908 52.4299 105.783 52.3086 105.628 52.3086C105.472 52.3086 105.347 52.4299 105.347 52.5795C105.347 52.7292 105.472 52.8505 105.628 52.8505Z" fill="#090909"/>
<path d="M108.013 52.3668C108.173 52.3668 108.302 52.2419 108.302 52.0877C108.302 51.9336 108.173 51.8086 108.013 51.8086C107.853 51.8086 107.724 51.9336 107.724 52.0877C107.724 52.2419 107.853 52.3668 108.013 52.3668Z" fill="#090909"/>
<path d="M107.42 54.8108C106.82 54.8108 106.157 54.4554 106.122 54.4362C106.048 54.3964 106.022 54.3062 106.064 54.2352C106.105 54.1642 106.199 54.1393 106.272 54.1791C106.54 54.3244 107.328 54.6569 107.752 54.4511C107.827 54.4156 107.919 54.4439 107.957 54.5168C107.995 54.5897 107.964 54.6785 107.889 54.7149C107.748 54.784 107.586 54.8108 107.42 54.8108Z" fill="#090909"/>
<path d="M208.532 55.5138H172.07C170.782 55.5138 169.738 54.5076 169.738 53.2665V18.1281C169.738 16.887 170.782 15.8809 172.07 15.8809H208.532C209.82 15.8809 210.864 16.887 210.864 18.1281V53.2665C210.864 54.5076 209.82 55.5138 208.532 55.5138Z" fill="#6696F8"/>
<path fill-rule="evenodd" clip-rule="evenodd" d="M175.477 23.8067L175.45 36.3059L194.061 32.1135C194.061 32.1135 193.787 30.2631 188.769 29.4746C183.75 28.6861 182.426 25.401 182.864 22.3125L175.477 23.8067Z" fill="#FEB825"/>
<path fill-rule="evenodd" clip-rule="evenodd" d="M188.722 29.4644C186.849 30.8416 183.798 29.8167 181.969 27.3379C180.141 24.8606 179.807 19.8873 183.196 19.7598C183.196 19.7598 182.615 23.5544 184.132 26.4113C185.65 29.2674 188.722 29.4644 188.722 29.4644Z" fill="white"/>
<path fill-rule="evenodd" clip-rule="evenodd" d="M175.462 36.2874L175.466 35.3263L193.965 31.8691C193.965 31.8691 194.043 31.9986 194.059 32.1213L175.462 36.2874Z" fill="white"/>
<path d="M185.331 25.9422C184.531 25.9422 183.481 24.7534 183.188 24.4015L179.161 25.7356C179.065 25.7667 178.961 25.7183 178.928 25.6253C178.895 25.5328 178.946 25.4322 179.042 25.4005L183.149 24.0401C183.351 23.5919 184.254 21.7176 185.268 21.5278C185.57 21.4703 185.86 21.568 186.108 21.8087C186.411 22.104 186.416 22.3882 186.367 22.5742C186.184 23.2621 184.929 23.8282 184.076 24.1398C184.795 24.252 185.755 24.4869 186.007 24.9547C186.079 25.0909 186.13 25.3104 185.957 25.5846C185.818 25.8051 185.616 25.9283 185.373 25.9412C185.359 25.9417 185.345 25.9422 185.331 25.9422ZM183.707 24.4456C184.209 24.9931 184.927 25.6076 185.352 25.5875C185.429 25.5836 185.542 25.5597 185.642 25.4005C185.734 25.2558 185.708 25.1695 185.679 25.1172C185.494 24.7716 184.508 24.5449 183.707 24.4456ZM185.434 21.8662C185.402 21.8662 185.37 21.8691 185.337 21.8753C184.689 21.9966 183.969 23.1974 183.607 23.9265C184.468 23.6384 185.856 23.0617 186.01 22.4865C186.034 22.3945 186.044 22.2507 185.846 22.0584C185.714 21.9295 185.578 21.8662 185.434 21.8662Z" fill="#090909"/>
<path d="M182.12 29.2687C182.065 29.2687 182.011 29.2452 181.976 29.2007C181.913 29.1235 181.927 29.0128 182.007 28.9524L184.532 27.0512C184.613 26.9913 184.728 27.0042 184.79 27.0819C184.853 27.1591 184.839 27.2698 184.759 27.3302L182.233 29.2313C182.2 29.2567 182.16 29.2687 182.12 29.2687Z" fill="#090909"/>
<path d="M184.201 30.4217C184.167 30.4217 184.133 30.4131 184.104 30.3949C184.017 30.3431 183.991 30.2343 184.044 30.1509L185.39 28.0662C185.443 27.9827 185.558 27.9573 185.643 28.0096C185.729 28.0614 185.756 28.1702 185.702 28.2536L184.356 30.3383C184.321 30.392 184.262 30.4217 184.201 30.4217Z" fill="#090909"/>
<path d="M186.039 30.9123C186.019 30.9123 185.999 30.909 185.978 30.9023C185.882 30.8697 185.832 30.7685 185.866 30.6765L186.553 28.7993C186.587 28.7073 186.692 28.6603 186.787 28.691C186.883 28.7236 186.933 28.8247 186.899 28.9168L186.213 30.7939C186.186 30.8668 186.115 30.9123 186.039 30.9123Z" fill="#090909"/>
<path fill-rule="evenodd" clip-rule="evenodd" d="M200.577 35.7227L208.098 45.9062L190.397 52.8549C190.397 52.8549 189.511 51.1925 193.133 47.7531C196.755 44.3132 195.864 40.8954 193.654 38.6194L200.577 35.7227Z" fill="#FEB825"/>
<path fill-rule="evenodd" clip-rule="evenodd" d="M193.165 47.7191C195.519 47.7992 197.394 45.2629 197.4 42.2218C197.406 39.1817 194.694 34.938 191.853 36.7222C191.853 36.7222 194.603 39.4948 195.079 42.671C195.554 45.8463 193.165 47.7191 193.165 47.7191Z" fill="white"/>
<path fill-rule="evenodd" clip-rule="evenodd" d="M208.078 45.8995L207.498 45.1172L190.33 52.6038C190.33 52.6038 190.344 52.7529 190.404 52.8617L208.078 45.8995Z" fill="white"/>
<path d="M193.418 43.0786C193.312 43.0786 193.204 43.0556 193.093 43.0096C192.787 42.8821 192.697 42.675 192.674 42.5235C192.598 42.002 193.242 41.2753 193.761 40.783C192.878 41.0044 191.515 41.2408 190.952 40.7815C190.8 40.6574 190.634 40.423 190.704 40.0126C190.762 39.679 190.94 39.4379 191.221 39.3157C192.16 38.9077 194.022 39.9321 194.457 40.1852L198.624 39.0069C198.723 38.9801 198.823 39.0333 198.852 39.1273C198.88 39.2212 198.824 39.3195 198.727 39.3468L194.641 40.5021C194.612 40.9608 194.464 42.5628 193.782 42.976C193.669 43.0441 193.546 43.0786 193.418 43.0786ZM194.245 40.8276C193.65 41.3558 192.982 42.0897 193.039 42.4742C193.047 42.5322 193.077 42.6175 193.239 42.6846C193.415 42.7584 193.523 42.7153 193.587 42.676C193.952 42.455 194.163 41.5543 194.245 40.8276ZM191.744 39.5726C191.603 39.5726 191.477 39.5927 191.372 39.6383C191.204 39.7116 191.104 39.853 191.066 40.0706C191.02 40.3381 191.115 40.4503 191.19 40.5112C191.621 40.864 193.012 40.6296 194.015 40.3482C193.411 40.0237 192.413 39.5726 191.744 39.5726Z" fill="#090909"/>
<path d="M198.327 43.9139C198.324 43.9139 198.322 43.9139 198.319 43.9134L195.117 43.7693C195.016 43.765 194.938 43.6819 194.943 43.5839C194.947 43.4858 195.025 43.4032 195.134 43.4152L198.335 43.5594C198.437 43.5637 198.515 43.6468 198.51 43.7448C198.506 43.8399 198.425 43.9139 198.327 43.9139Z" fill="#090909"/>
<path d="M197.319 46.0143C197.295 46.0143 197.271 46.01 197.248 46.0004L194.899 45.0493C194.805 45.0115 194.761 44.9079 194.801 44.8173C194.84 44.7272 194.947 44.685 195.041 44.7229L197.39 45.6739C197.484 45.7118 197.527 45.8153 197.488 45.9059C197.459 45.9735 197.391 46.0143 197.319 46.0143Z" fill="#090909"/>
<path d="M196.118 47.4391C196.081 47.4391 196.044 47.4285 196.012 47.4065L194.325 46.2575C194.242 46.2009 194.222 46.0907 194.281 46.0106C194.339 45.9305 194.455 45.9114 194.536 45.9684L196.223 47.1174C196.306 47.174 196.326 47.2843 196.267 47.3643C196.232 47.4132 196.175 47.4391 196.118 47.4391Z" fill="#090909"/>
<path d="M186.373 168H149.911C148.623 168 147.579 166.994 147.579 165.753V130.614C147.579 129.373 148.623 128.367 149.911 128.367H186.373C187.66 128.367 188.705 129.373 188.705 130.614V165.753C188.705 166.994 187.66 168 186.373 168Z" fill="#6696F8"/>
<path d="M170.61 150.89C179.166 142.835 185.291 135.507 184.293 134.521C183.294 133.536 175.549 139.267 166.993 147.322C158.438 155.377 152.312 162.705 153.31 163.69C154.309 164.676 162.055 158.945 170.61 150.89Z" fill="#1636BD"/>
<path d="M175.802 141.978L161.259 155.671L159.554 153.99C155.723 150.21 155.796 144.154 159.717 140.462L160.059 140.14C163.981 136.448 170.266 136.518 174.097 140.297L175.802 141.978Z" fill="#474C7C"/>
<path d="M169.662 149.955C173.678 146.173 176.426 142.608 175.8 141.99C175.174 141.373 171.411 143.937 167.395 147.718C163.379 151.499 160.631 155.065 161.257 155.683C161.883 156.3 165.646 153.736 169.662 149.955Z" fill="#474C7C"/>
<path d="M158.832 153.152C158.832 153.152 163.161 150.621 166.798 147.113C170.435 143.605 172.962 139.371 172.962 139.371L173.77 140.002L174.478 140.67C174.478 140.67 172.753 144.054 168.32 148.144C163.887 152.234 159.935 154.363 159.935 154.363L159.288 153.725L158.832 153.152Z" fill="#1636BD"/>
<path d="M167.97 144.778C167.929 144.778 167.888 144.757 167.866 144.72C167.81 144.623 166.499 142.328 167.965 140.869C168.534 140.304 169.021 140.281 169.33 140.362C169.399 140.38 169.466 140.405 169.53 140.437C169.736 140.216 170.008 140.067 170.326 140.011C170.749 139.937 171.037 139.978 171.234 140.06C171.345 139.741 171.478 139.448 171.525 139.347C171.552 139.289 171.622 139.263 171.682 139.29C171.742 139.316 171.769 139.383 171.742 139.441C171.616 139.71 171.515 139.965 171.441 140.187C171.503 140.24 171.546 140.295 171.576 140.343C171.727 140.591 171.682 140.898 171.551 141.053C171.467 141.151 171.35 141.187 171.241 141.151C171.195 141.136 171.131 141.1 171.094 141.014C171.025 140.861 171.075 140.575 171.163 140.28C170.978 140.193 170.707 140.177 170.369 140.236C170.086 140.286 169.881 140.413 169.732 140.565C169.945 140.733 170.107 140.979 170.179 141.261C170.278 141.65 170.182 142.02 169.923 142.252C169.688 142.462 169.502 142.416 169.412 142.369C169.161 142.24 169.04 141.808 169.119 141.317C169.162 141.052 169.253 140.817 169.383 140.622C169.346 140.606 169.307 140.593 169.268 140.583C168.913 140.489 168.522 140.645 168.136 141.028C166.792 142.366 168.06 144.586 168.074 144.608C168.106 144.663 168.085 144.733 168.028 144.763C168.01 144.773 167.99 144.778 167.97 144.778ZM169.587 140.745C169.43 140.984 169.373 141.236 169.354 141.352C169.288 141.767 169.39 142.098 169.524 142.167C169.599 142.205 169.693 142.143 169.761 142.083C169.956 141.909 170.026 141.622 169.948 141.315C169.889 141.084 169.758 140.882 169.587 140.745ZM171.362 140.445C171.289 140.714 171.272 140.896 171.319 140.935C171.329 140.939 171.348 140.93 171.367 140.908C171.435 140.828 171.474 140.628 171.371 140.46C171.368 140.454 171.365 140.45 171.362 140.445Z" fill="white"/>
<path d="M158.006 150.91C157.963 150.91 157.923 150.889 157.901 150.851C157.87 150.795 157.891 150.725 157.949 150.695C158.477 150.419 158.784 150.148 158.958 149.909C158.466 149.767 158.185 149.418 158.236 149.005C158.272 148.719 158.433 148.537 158.667 148.518C158.955 148.488 159.269 148.736 159.373 149.07C159.416 149.207 159.452 149.447 159.329 149.742C160.041 149.796 161.142 149.412 161.678 148.081C161.79 147.804 161.856 147.559 161.889 147.346C161.536 147.429 161.148 147.341 160.841 147.102C160.533 146.862 160.379 146.518 160.438 146.203C160.489 145.935 160.659 145.742 160.907 145.673C161.2 145.592 161.539 145.702 161.785 145.963C161.92 146.104 162.144 146.423 162.153 146.976C162.511 146.719 162.749 146.186 162.833 145.443C163.138 142.744 160.782 141.067 160.758 141.051C160.705 141.014 160.693 140.942 160.731 140.891C160.77 140.84 160.845 140.829 160.897 140.866C160.922 140.883 163.389 142.639 163.069 145.468C162.94 146.601 162.512 147.067 162.14 147.254C162.112 147.515 162.039 147.817 161.899 148.165C161.35 149.527 160.149 150.086 159.211 149.962C159.024 150.25 158.678 150.574 158.061 150.897C158.044 150.906 158.025 150.91 158.006 150.91ZM158.708 148.746C158.701 148.746 158.695 148.746 158.688 148.746C158.53 148.759 158.485 148.931 158.473 149.032C158.425 149.408 158.756 149.625 159.082 149.705C159.21 149.435 159.175 149.228 159.146 149.136C159.069 148.89 158.864 148.746 158.708 148.746ZM161.102 145.877C161.057 145.877 161.013 145.882 160.972 145.894C160.813 145.938 160.707 146.062 160.672 146.244C160.628 146.476 160.75 146.736 160.99 146.923C161.206 147.091 161.558 147.222 161.915 147.1C161.94 146.548 161.733 146.246 161.61 146.117C161.465 145.964 161.276 145.877 161.102 145.877Z" fill="white"/>
<path d="M77.4411 59.1388H40.9793C39.6915 59.1388 38.6475 58.1326 38.6475 56.8915V21.7531C38.6475 20.512 39.6915 19.5059 40.9793 19.5059H77.4411C78.7289 19.5059 79.7729 20.512 79.7729 21.7531V56.8915C79.7729 58.1326 78.7289 59.1388 77.4411 59.1388Z" fill="#6696F8"/>
<path fill-rule="evenodd" clip-rule="evenodd" d="M53.1881 21.8027C52.6087 24.7858 52.0496 32.0577 51.9138 40.3381C51.7874 48.0486 52.0655 56.9043 52.0655 56.9043L56.4865 56.8338C56.4865 56.8338 56.9287 51.9022 57.3783 44.2875C57.7494 38.0166 58.7348 32.3108 58.7348 32.3108C58.7348 32.3108 58.9253 37.286 59.2372 43.8384C59.6431 52.3547 59.9171 56.8022 59.9171 56.8022L64.5779 56.6425C64.5779 56.6425 65.1817 50.8011 65.5443 42.7359C65.9323 34.0964 66.8411 24.501 66.4407 22.0999L53.1881 21.8027Z" fill="#4E5072"/>
<path fill-rule="evenodd" clip-rule="evenodd" d="M58.7369 32.2806C58.7528 30.3852 58.5708 27.4434 58.5708 27.4434C58.5708 27.4434 56.0181 30.2385 58.5618 33.4128L58.7369 32.2806Z" fill="#090909"/>
<path d="M59.8593 56.1763C59.819 56.1763 59.7852 56.1475 59.7807 56.1081C59.7762 56.0663 59.8081 56.0288 59.8513 56.0245L63.1342 55.6992C63.1775 55.6987 63.2163 55.7256 63.2208 55.7674C63.2253 55.8092 63.1934 55.8467 63.1502 55.851L59.8672 56.1763C59.8648 56.1763 59.8618 56.1763 59.8593 56.1763Z" fill="#090909"/>
<path d="M63.4881 55.8294C63.4478 55.8294 63.4135 55.8 63.4095 55.76C63.4055 55.718 63.4374 55.6809 63.4806 55.677L64.6849 55.5686C64.7291 55.5657 64.767 55.5956 64.7709 55.6375C64.7749 55.6794 64.7431 55.7166 64.6998 55.7204L63.4956 55.8289C63.4931 55.8294 63.4906 55.8294 63.4881 55.8294Z" fill="#090909"/>
<path d="M52.0381 56.2625C51.9948 56.2625 51.9595 56.2292 51.959 56.1873C51.9585 56.1454 51.9933 56.1106 52.0371 56.1102L56.5222 56.0566C56.5227 56.0566 56.5227 56.0566 56.5232 56.0566C56.5665 56.0566 56.6018 56.0899 56.6023 56.1319C56.6028 56.1738 56.568 56.2085 56.5242 56.209L52.0391 56.2625C52.0386 56.2625 52.0386 56.2625 52.0381 56.2625Z" fill="#090909"/>
<path d="M62.4981 55.8527C62.4976 55.8527 62.4971 55.8527 62.4966 55.8527C62.4528 55.8523 62.4185 55.8173 62.419 55.7756L63.0637 22.6212C63.0647 22.5795 63.1016 22.5498 63.1444 22.5469C63.1882 22.5474 63.2225 22.5823 63.2221 22.6241L62.5773 55.7784C62.5763 55.8201 62.5409 55.8527 62.4981 55.8527Z" fill="#090909"/>
<path d="M54.0703 56.1764C54.0693 56.1764 54.0684 56.1764 54.0674 56.1764C54.0241 56.175 53.9898 56.14 53.9913 56.0978L55.2547 22.1735C55.2567 22.1314 55.287 22.0945 55.3367 22.1002C55.38 22.1016 55.4143 22.1366 55.4129 22.1788L54.1494 56.1031C54.1474 56.1443 54.1126 56.1764 54.0703 56.1764Z" fill="#090909"/>
<path d="M56.9044 135.852H20.4422C19.1544 135.852 18.1104 134.845 18.1104 133.604V98.466C18.1104 97.2249 19.1544 96.2188 20.4422 96.2188H56.904C58.1917 96.2188 59.2358 97.2249 59.2358 98.466V133.604C59.2363 134.845 58.1922 135.852 56.9044 135.852Z" fill="#6696F8"/>
<path d="M46.2563 124.711H27.3174C26.6006 124.711 25.9933 124.194 25.9047 123.508L24.0936 109.356C24.0439 108.966 24.1702 108.574 24.4398 108.279C24.7099 107.985 25.0989 107.816 25.5063 107.816H47.941C48.3464 107.816 48.7329 107.984 49.003 108.275C49.2726 108.567 49.4009 108.956 49.3547 109.345L47.6694 123.496C47.5869 124.188 46.9795 124.711 46.2563 124.711ZM25.5068 108.127C25.1914 108.127 24.8905 108.257 24.6816 108.485C24.4732 108.713 24.3752 109.016 24.414 109.317L26.225 123.469C26.2937 124 26.7632 124.4 27.3179 124.4H46.2568C46.8164 124.4 47.2864 123.996 47.3506 123.46L49.0358 109.309C49.0716 109.009 48.9722 108.707 48.7632 108.482C48.5548 108.256 48.2554 108.127 47.942 108.127H25.5068V108.127Z" fill="#090909"/>
<path d="M30.1921 124.711C30.1029 124.711 30.0312 124.641 30.0312 124.556V107.972C30.0312 107.886 30.1034 107.816 30.1921 107.816C30.2812 107.816 30.3529 107.886 30.3529 107.972V124.556C30.3534 124.641 30.2812 124.711 30.1921 124.711Z" fill="#090909"/>
<path d="M34.6491 124.711C34.56 124.711 34.4883 124.641 34.4883 124.556V107.972C34.4883 107.886 34.5605 107.816 34.6491 107.816C34.7377 107.816 34.8099 107.886 34.8099 107.972V124.556C34.8099 124.641 34.7377 124.711 34.6491 124.711Z" fill="#090909"/>
<path d="M39.1042 124.711C39.0151 124.711 38.9434 124.641 38.9434 124.556V107.972C38.9434 107.886 39.0156 107.816 39.1042 107.816C39.1928 107.816 39.265 107.886 39.265 107.972V124.556C39.2655 124.641 39.1933 124.711 39.1042 124.711Z" fill="#090909"/>
<path d="M43.5593 124.711C43.4701 124.711 43.3984 124.641 43.3984 124.556V107.972C43.3984 107.886 43.4706 107.816 43.5593 107.816C43.6484 107.816 43.7201 107.886 43.7201 107.972V124.556C43.7201 124.641 43.6479 124.711 43.5593 124.711Z" fill="#090909"/>
<path d="M48.9657 111.415H24.4995C24.4105 111.415 24.3389 111.345 24.3389 111.259C24.3389 111.173 24.411 111.104 24.4995 111.104H48.9652C49.0542 111.104 49.1259 111.173 49.1259 111.259C49.1259 111.345 49.0542 111.415 48.9657 111.415Z" fill="#090909"/>
<path d="M48.531 115.1H24.9751C24.8861 115.1 24.8145 115.031 24.8145 114.945C24.8145 114.859 24.8866 114.789 24.9751 114.789H48.531C48.6201 114.789 48.6917 114.859 48.6917 114.945C48.6917 115.031 48.6201 115.1 48.531 115.1Z" fill="#090909"/>
<path d="M48.0712 118.95H25.4673C25.3783 118.95 25.3066 118.88 25.3066 118.794C25.3066 118.708 25.3788 118.639 25.4673 118.639H48.0712C48.1602 118.639 48.2318 118.708 48.2318 118.794C48.2318 118.88 48.1597 118.95 48.0712 118.95Z" fill="#090909"/>
<path d="M47.6163 122.765C47.6158 122.765 47.6153 122.765 47.6148 122.765L25.9287 122.579C25.8397 122.578 25.7685 122.508 25.7695 122.422C25.77 122.336 25.8422 122.268 25.9302 122.268C25.9307 122.268 25.9312 122.268 25.9317 122.268L47.6178 122.454C47.7069 122.454 47.778 122.525 47.777 122.611C47.777 122.697 47.7049 122.765 47.6163 122.765Z" fill="#090909"/>
<path d="M51.5952 111.017H49.0142C48.9251 111.017 48.8535 110.948 48.8535 110.862C48.8535 110.776 48.9256 110.707 49.0142 110.707H51.5072L54.044 106.92C54.0932 106.848 54.1932 106.828 54.2668 106.874C54.3419 106.921 54.3633 107.017 54.3151 107.089L51.7305 110.947C51.7012 110.991 51.65 111.017 51.5952 111.017Z" fill="#090909"/>
<path d="M54.3047 107.247C54.6877 107.247 54.9981 106.947 54.9981 106.578C54.9981 106.209 54.6877 105.91 54.3047 105.91C53.9218 105.91 53.6113 106.209 53.6113 106.578C53.6113 106.947 53.9218 107.247 54.3047 107.247Z" fill="#090909"/>
<path d="M45.074 127.143H24.9751C24.8861 127.143 24.8145 127.073 24.8145 126.988C24.8145 126.902 24.8866 126.832 24.9751 126.832H44.9133V124.558C44.9133 124.472 44.9855 124.402 45.074 124.402C45.163 124.402 45.2347 124.472 45.2347 124.558V126.988C45.2352 127.073 45.163 127.143 45.074 127.143Z" fill="#090909"/>
<path d="M28.9244 129.236C29.478 128.574 29.5752 127.765 29.1416 127.428C28.7079 127.091 27.9076 127.354 27.354 128.015C26.8004 128.677 26.7031 129.486 27.1368 129.823C27.5704 130.16 28.3708 129.897 28.9244 129.236Z" fill="#090909"/>
<path d="M43.0728 129.236C43.6264 128.574 43.7237 127.765 43.29 127.428C42.8564 127.091 42.056 127.354 41.5024 128.015C40.9488 128.677 40.8515 129.486 41.2852 129.823C41.7189 130.16 42.5192 129.897 43.0728 129.236Z" fill="#090909"/>
<path d="M218.135 108.05H162.469C160.431 108.05 158.778 106.458 158.778 104.493V74.1584C158.778 72.194 160.431 70.6016 162.469 70.6016H218.135C220.174 70.6016 221.826 72.194 221.826 74.1584V104.493C221.826 106.458 220.174 108.05 218.135 108.05Z" fill="#4E5072"/>
<path d="M175.051 84.2531H166.444C165.193 84.2531 164.18 83.2762 164.18 82.071V77.996C164.18 76.7909 165.193 75.8145 166.444 75.8145H175.051C176.302 75.8145 177.315 76.7914 177.315 77.996V82.071C177.315 83.2766 176.302 84.2531 175.051 84.2531Z" fill="#FEB825"/>
<path d="M167.014 79.3958H164.179C164.122 79.3958 164.077 79.3522 164.077 79.298C164.077 79.2438 164.122 79.2002 164.179 79.2002H166.971L169.026 77.1797C169.066 77.1413 169.13 77.1404 169.17 77.1783C169.209 77.2157 169.21 77.278 169.171 77.3163L167.086 79.3661C167.067 79.3852 167.041 79.3958 167.014 79.3958Z" fill="#090909"/>
<path d="M169.099 82.9148C169.073 82.9148 169.046 82.9052 169.026 82.8855L166.971 80.8655H164.179C164.122 80.8655 164.077 80.8219 164.077 80.7677C164.077 80.7135 164.122 80.6699 164.179 80.6699H167.014C167.041 80.6699 167.067 80.6805 167.086 80.6992L169.172 82.7484C169.211 82.7868 169.21 82.8491 169.17 82.8865C169.15 82.9056 169.125 82.9148 169.099 82.9148Z" fill="#090909"/>
<path d="M177.314 79.3971H174.479C174.451 79.3971 174.425 79.3865 174.406 79.3678L172.321 77.3181C172.282 77.2797 172.283 77.2174 172.322 77.18C172.363 77.1426 172.427 77.1431 172.466 77.1815L174.521 79.202H177.314C177.37 79.202 177.415 79.2456 177.415 79.2998C177.415 79.3539 177.371 79.3971 177.314 79.3971Z" fill="#090909"/>
<path d="M172.394 82.9143C172.368 82.9143 172.342 82.9052 172.322 82.8865C172.283 82.8491 172.282 82.7868 172.321 82.7484L174.406 80.6992C174.425 80.6805 174.451 80.6699 174.479 80.6699H177.314C177.371 80.6699 177.416 80.7135 177.416 80.7677C177.416 80.8219 177.371 80.8655 177.314 80.8655H174.521L172.466 82.8855C172.446 82.9047 172.42 82.9143 172.394 82.9143Z" fill="#090909"/>
<path d="M215.281 96.4375H170.413V97.8037H215.281V96.4375Z" fill="white"/>
<path d="M215.279 100.354H191.72V101.72H215.279V100.354Z" fill="white"/>
<path d="M217.03 76.5664H193.471V77.9326H217.03V76.5664Z" fill="white"/>
<path d="M190.325 107.436C190.274 107.436 190.23 107.398 190.225 107.347C190.217 107.253 189.493 97.8638 197.246 92.7337C200.427 90.6288 202.459 90.7367 203.637 91.2458C204.354 90.7444 205.295 90.2593 206.525 89.8398C211.111 88.2761 215.017 89.9788 216.549 92.447C217.643 92.2443 219.2 92.3449 221.399 93.1493C221.45 93.168 221.477 93.2236 221.457 93.2735C221.437 93.3233 221.379 93.3487 221.328 93.3291C219.214 92.5563 217.712 92.4576 216.663 92.6402C216.688 92.6862 216.713 92.7323 216.737 92.7783C217.48 94.2044 217.255 95.5332 216.151 96.2469C215.459 96.6942 214.805 96.7095 214.358 96.2877C213.773 95.7364 213.754 94.6416 214.314 93.7955C214.582 93.3919 215.17 92.7639 216.338 92.4911C215.048 90.5219 211.525 88.3409 206.592 90.0215C205.428 90.4179 204.531 90.8724 203.839 91.3421C204.931 91.9035 205.631 93.0458 205.672 94.3405C205.708 95.4737 205.21 96.4717 204.373 96.9444C203.679 97.3365 202.936 97.3423 202.335 96.9621C201.605 96.5 201.214 95.5475 201.341 94.5347C201.421 93.899 201.797 92.6052 203.451 91.379C201.908 90.7755 199.758 91.3057 197.36 92.8924C189.701 97.9602 190.416 107.238 190.425 107.331C190.429 107.384 190.388 107.431 190.333 107.435C190.331 107.436 190.328 107.436 190.325 107.436ZM203.659 91.4687C201.992 92.669 201.618 93.9388 201.54 94.5577C201.422 95.4982 201.777 96.3787 202.445 96.8006C202.989 97.1448 203.638 97.1361 204.272 96.7781C205.046 96.3409 205.507 95.409 205.473 94.3463C205.434 93.099 204.751 92.0022 203.691 91.484C203.68 91.4787 203.669 91.4739 203.659 91.4687ZM216.457 92.6805C215.248 92.9461 214.689 93.5894 214.484 93.899C213.913 94.7609 214.043 95.7206 214.498 96.1501C214.872 96.5024 215.434 96.4785 216.04 96.0873C217.054 95.4315 217.254 94.1972 216.559 92.8646C216.527 92.8037 216.494 92.7423 216.457 92.6805Z" fill="white"/>
<path d="M161.032 93.6705C161.03 93.6705 161.028 93.6705 161.026 93.6705C160.971 93.6671 160.929 93.6216 160.932 93.5684C160.955 93.2045 160.911 92.893 160.825 92.6327C160.323 92.9543 159.836 93.0756 159.512 92.95C159.358 92.891 159.164 92.7472 159.116 92.3987C159.04 91.8609 159.259 91.6313 159.397 91.5421C159.62 91.3974 159.935 91.4098 160.238 91.5771C160.49 91.7157 160.744 91.9664 160.917 92.3307C160.931 92.3206 160.944 92.3105 160.957 92.3005C161.632 91.7789 162.356 90.8049 162.181 89.7757C162.093 89.2594 161.871 88.9037 161.627 88.6607C161.177 89.1333 160.627 89.4027 160.196 89.3433C159.936 89.3069 159.744 89.1535 159.641 88.8999C159.522 88.608 159.551 88.3477 159.724 88.167C159.951 87.9278 160.406 87.8616 160.878 87.9977C161.118 88.0673 161.375 88.1948 161.609 88.386C161.615 88.3784 161.622 88.3707 161.628 88.363C161.908 88.0193 162.507 87.0999 162.04 85.9916C161.166 83.9232 158.896 83.0623 158.873 83.0536C158.821 83.0345 158.795 82.9789 158.815 82.929C158.836 82.8796 158.893 82.8547 158.945 82.8734C158.969 82.882 161.319 83.7741 162.225 85.9183C162.577 86.7519 162.413 87.7101 161.786 88.4809C161.776 88.4929 161.766 88.5054 161.756 88.5174C162.05 88.8074 162.288 89.2124 162.379 89.745C162.568 90.8557 161.799 91.8969 161.083 92.451C161.055 92.4735 161.025 92.4951 160.996 92.5167C161.103 92.81 161.159 93.1643 161.133 93.5799C161.129 93.6312 161.085 93.6705 161.032 93.6705ZM159.755 91.6346C159.662 91.6346 159.579 91.6572 159.509 91.7022C159.338 91.813 159.269 92.0512 159.314 92.3733C159.343 92.579 159.435 92.7132 159.586 92.7717C159.856 92.8747 160.299 92.7492 160.753 92.4472C160.6 92.1039 160.368 91.871 160.139 91.7449C160.007 91.672 159.874 91.6346 159.755 91.6346ZM160.403 88.1205C160.175 88.1205 159.981 88.1813 159.871 88.2973C159.751 88.4229 159.736 88.607 159.827 88.8299C159.904 89.0183 160.037 89.1271 160.224 89.1535C160.586 89.2053 161.078 88.9521 161.481 88.5303C161.214 88.3151 160.948 88.2192 160.82 88.1823C160.676 88.1406 160.534 88.1205 160.403 88.1205Z" fill="white"/>
<path d="M194.802 83.2092C194.633 83.2092 194.457 83.189 194.282 83.1378C193.796 82.9968 193.413 82.6507 193.143 82.1086C193.104 82.0304 193.07 81.9528 193.043 81.8761C192.141 81.9859 191.051 81.8195 190.011 81.1062C189.681 80.88 189.428 80.6096 189.256 80.3086C188.314 80.4586 187.285 80.2621 186.531 79.5545C184.529 77.6774 184.507 75.8879 184.507 75.8131C184.507 75.7599 184.552 75.7168 184.607 75.7168C184.662 75.7168 184.707 75.7599 184.707 75.8131C184.707 75.8304 184.733 77.6002 186.671 79.417C187.361 80.0646 188.302 80.2544 189.165 80.1293C188.979 79.7156 188.938 79.253 189.055 78.7732C189.244 78 189.831 77.3495 190.421 77.2603C190.807 77.2028 191.141 77.3792 191.378 77.756C191.771 78.3825 191.566 79.092 190.832 79.6538C190.454 79.9433 189.977 80.1581 189.465 80.2697C189.621 80.5248 189.844 80.7549 190.128 80.9495C191.11 81.6235 192.136 81.785 192.989 81.6896C192.891 81.2663 192.986 80.8852 193.27 80.59C193.695 80.1499 194.411 80.0186 194.814 80.1715C195.018 80.2487 195.131 80.3929 195.131 80.578C195.131 80.8958 194.796 81.2591 194.259 81.5266C193.976 81.6671 193.63 81.7826 193.245 81.8483C193.267 81.9053 193.294 81.9648 193.324 82.0261C193.569 82.5165 193.91 82.829 194.34 82.9537C195.118 83.1814 195.942 82.7169 195.95 82.7126C195.998 82.6862 196.059 82.7006 196.088 82.7461C196.116 82.7917 196.1 82.8511 196.053 82.8784C196.022 82.8942 195.464 83.2092 194.802 83.2092ZM194.444 80.3038C194.107 80.3038 193.681 80.4461 193.416 80.7208C193.237 80.9068 193.074 81.2103 193.186 81.6623C193.559 81.6009 193.893 81.4907 194.167 81.355C194.623 81.1278 194.93 80.8157 194.93 80.5775C194.93 80.4744 194.866 80.3982 194.741 80.3503C194.657 80.3191 194.556 80.3038 194.444 80.3038ZM190.56 77.4425C190.525 77.4425 190.489 77.4449 190.452 77.4506C189.938 77.5288 189.421 78.1165 189.249 78.8178C189.138 79.2703 189.183 79.7065 189.369 80.0943C189.87 79.9922 190.339 79.7856 190.708 79.5033C191.355 79.0071 191.542 78.3916 191.206 77.8557C191.035 77.5834 190.814 77.4425 190.56 77.4425Z" fill="white"/>
<path d="M172.248 36.4886C172.187 36.4886 172.125 36.4622 172.085 36.4119C168.41 31.9107 165.168 29.7459 162.548 28.8011C162.541 28.9588 162.531 29.116 162.519 29.2728C162.193 33.3871 159.859 36.0442 156.43 36.2067C154.292 36.3054 152.831 35.5102 152.426 34.016C151.961 32.2937 153.085 29.7435 155.774 28.4574C156.934 27.9023 159.135 27.2604 162.142 28.1909C162.108 20.9123 155.892 12.3423 143.788 9.95605C140.596 9.32713 137.929 9.18428 135.71 9.34726C137.398 12.0048 137.383 15.4749 135.666 18.4254C134.189 20.9616 131.737 22.5282 129.252 22.5282C129.231 22.5282 129.209 22.5282 129.187 22.5277C127.115 22.5052 125.466 21.569 124.662 19.9598C123.683 18.0011 124.138 15.392 125.819 13.312C126.883 11.9957 129.538 9.5879 134.976 9.01123C133.072 6.49987 128.791 3.86004 119.18 4.41898C95.0142 5.81918 83.6703 27.4689 83.5589 27.6875C83.5076 27.7872 83.3818 27.8265 83.2803 27.7791C83.1768 27.7302 83.1351 27.6099 83.1853 27.5107C83.2982 27.2901 94.7436 5.4333 119.155 4.01871C129.182 3.43869 133.556 6.31436 135.453 8.96665C137.754 8.77299 140.532 8.9053 143.871 9.56346C156.269 12.0077 162.598 20.8567 162.558 28.3284C165.275 29.279 168.613 31.5109 172.411 36.164C172.482 36.2513 172.467 36.3769 172.376 36.4454C172.338 36.4742 172.294 36.4886 172.248 36.4886ZM159.089 28.1597C157.596 28.1597 156.525 28.5465 155.96 28.8169C153.461 30.0124 152.406 32.3479 152.829 33.9149C153.179 35.2082 154.48 35.8975 156.409 35.8064C159.613 35.6545 161.795 33.1393 162.104 29.2421C162.119 29.0494 162.13 28.8557 162.136 28.6611C160.987 28.2925 159.966 28.1597 159.089 28.1597ZM135.244 9.38705C129.81 9.90332 127.19 12.2709 126.148 13.5594C124.563 15.52 124.127 17.9642 125.037 19.7867C125.781 21.2752 127.256 22.1064 129.192 22.1275C129.212 22.1275 129.233 22.1275 129.253 22.1275C131.587 22.1275 133.901 20.639 135.303 18.2293C136.961 15.38 136.965 12.0307 135.312 9.48819C135.29 9.45512 135.267 9.42109 135.244 9.38705Z" fill="#090909"/>
<path d="M85.8943 29.5993C85.8898 29.5993 85.8849 29.5993 85.8799 29.5988L82.0996 29.3429C82.005 29.3366 81.9275 29.27 81.91 29.1808L81.247 25.8574C81.2251 25.7486 81.2992 25.6436 81.4116 25.6226C81.527 25.6024 81.6335 25.6734 81.6549 25.7817L82.2881 28.9536L85.9082 29.1986C86.0231 29.2062 86.1092 29.3021 86.1012 29.4128C86.0938 29.5183 86.0027 29.5993 85.8943 29.5993Z" fill="#090909"/>
<path d="M31.0581 98.1839C31.0218 98.1839 30.9854 98.1748 30.9526 98.1552C30.8298 98.0818 18.6526 90.6441 19.1724 77.2767C19.3848 71.8096 21.2974 69.572 22.9607 68.664C22.9801 67.4067 23.2119 65.9135 23.776 64.1528C25.891 57.5496 31.4077 54.581 35.7964 54.9875C36.5177 53.5633 38.0149 51.8822 40.9207 50.0908C41.0138 50.0338 41.1361 50.0596 41.1958 50.1493C41.2555 50.2384 41.2281 50.3573 41.1351 50.4144C38.3819 52.1118 36.9509 53.7037 36.2426 55.0411C36.2983 55.0493 36.3535 55.0579 36.4082 55.067C38.8366 55.4783 40.286 56.9212 40.1905 58.8333C40.1299 60.0404 39.5578 60.815 38.6217 60.9583C37.3981 61.1463 36.0232 60.1895 35.4696 58.7864C35.211 58.1297 34.9573 56.9183 35.6203 55.3628C32.0867 55.1418 26.4043 57.2428 24.1555 64.2654C23.6332 65.8972 23.4024 67.2873 23.3626 68.4661C25.012 67.7485 27.0116 67.9666 28.6252 69.0504C30.0623 70.0158 30.8566 71.4769 30.6994 72.8642C30.5681 74.0175 29.912 74.8847 28.8973 75.2428C27.6712 75.6761 26.1387 75.2792 24.9936 74.2323C24.2858 73.5847 23.0373 72.0325 22.9627 69.1103C20.9273 70.3567 19.728 73.2347 19.5704 77.2901C19.0595 90.4303 31.0417 97.7554 31.1625 97.8278C31.256 97.8838 31.2849 98.0022 31.2267 98.0924C31.1899 98.1518 31.1247 98.1839 31.0581 98.1839ZM23.3572 68.8956C23.3731 71.8096 24.5858 73.3296 25.2687 73.9547C26.3038 74.9024 27.6737 75.2672 28.761 74.8837C29.6404 74.5731 30.1886 73.8416 30.304 72.8239C30.4458 71.5766 29.7156 70.2517 28.3984 69.3673C26.85 68.3271 24.9255 68.142 23.376 68.8869C23.3691 68.8898 23.3636 68.8927 23.3572 68.8956ZM36.0655 55.4055C35.3567 56.9816 35.6477 58.1551 35.8437 58.6507C36.3824 60.0164 37.6692 60.7153 38.56 60.5797C39.3037 60.4656 39.7419 59.839 39.7931 58.8151C39.8787 57.112 38.5555 55.8206 36.3401 55.4457C36.25 55.4309 36.1585 55.4174 36.0655 55.4055Z" fill="#090909"/>
<path d="M32.3096 98.9626H28.6785C28.568 98.9626 28.4795 98.8763 28.4795 98.7704C28.4795 98.6644 28.5685 98.5781 28.6785 98.5781H32.0788L31.6152 95.5385C31.5993 95.4335 31.6744 95.3358 31.7833 95.3204C31.8833 95.3051 31.9932 95.377 32.0091 95.4824L32.5065 98.7421C32.515 98.7972 32.4981 98.8533 32.4603 98.8955C32.4225 98.9381 32.3678 98.9626 32.3096 98.9626Z" fill="#090909"/>
<path d="M174.123 127.62C174.087 127.62 174.05 127.609 174.02 127.585C173.951 127.533 172.338 126.285 172.205 124.504C172.13 123.505 172.539 122.544 173.42 121.648C173.555 121.51 173.694 121.385 173.835 121.274C172.946 119.677 172.465 117.518 173.131 115.048C173.343 114.262 173.703 113.587 174.185 113.044C173.183 111.408 172.811 109.342 173.674 107.413C175.961 102.305 179.523 100.948 179.674 100.893C179.758 100.862 179.855 100.903 179.887 100.985C179.92 101.068 179.877 101.16 179.791 101.191C179.756 101.204 176.206 102.564 173.978 107.54C173.174 109.337 173.502 111.26 174.418 112.801C175.111 112.133 176.016 111.706 177.077 111.57C178.75 111.352 180.476 111.96 181.084 112.981C181.472 113.633 181.37 114.38 180.797 115.087C179.843 116.265 178.288 116.405 176.636 115.462C175.765 114.964 174.974 114.221 174.371 113.332C173.952 113.825 173.64 114.429 173.451 115.128C172.814 117.489 173.263 119.551 174.103 121.081C174.88 120.572 175.716 120.46 176.519 120.773C177.682 121.226 178.484 122.472 178.475 123.307C178.471 123.727 178.273 124.03 177.919 124.16C177.295 124.39 176.334 124.038 175.412 123.241C174.913 122.811 174.419 122.241 174 121.556C173.888 121.647 173.775 121.751 173.66 121.868C172.847 122.695 172.468 123.574 172.535 124.479C172.657 126.119 174.21 127.323 174.225 127.335C174.297 127.39 174.309 127.49 174.252 127.56C174.22 127.599 174.172 127.62 174.123 127.62ZM174.264 121.359C174.67 122.029 175.148 122.585 175.634 123.004C176.45 123.709 177.302 124.047 177.801 123.863C178.026 123.78 178.142 123.592 178.145 123.304C178.151 122.573 177.405 121.462 176.396 121.069C175.873 120.866 175.117 120.784 174.264 121.359ZM174.597 113.085C175.178 113.964 175.951 114.699 176.805 115.187C178.299 116.04 179.694 115.929 180.537 114.89C181.028 114.284 181.118 113.679 180.797 113.139C180.253 112.224 178.671 111.687 177.121 111.885C176.109 112.016 175.248 112.433 174.597 113.085Z" fill="#090909"/>
<path d="M175.033 129.386C175.008 129.386 174.982 129.381 174.959 129.37L172.29 128.091C172.208 128.052 172.174 127.957 172.215 127.877C172.256 127.798 172.356 127.766 172.436 127.806L174.866 128.969V126.542C174.866 126.454 174.941 126.383 175.032 126.383C175.123 126.383 175.198 126.454 175.198 126.542V129.227C175.198 129.282 175.168 129.333 175.119 129.363C175.094 129.378 175.063 129.386 175.033 129.386Z" fill="#090909"/>
<path d="M195.983 72.6404C195.953 72.6404 195.922 72.6323 195.896 72.6145C195.825 72.5685 195.807 72.476 195.855 72.4079C196.281 71.8035 196.531 71.2239 196.652 70.6937C195.484 70.7585 194.54 70.5039 194.13 69.9881C193.942 69.7513 193.774 69.3415 194.042 68.7336C194.352 68.0338 194.817 67.6321 195.353 67.6033C195.861 67.5765 196.352 67.89 196.677 68.4427C196.955 68.9153 197.118 69.5821 197.021 70.3639C197.07 70.3587 197.12 70.3524 197.169 70.3457C198.831 70.1199 201.045 69.1862 201.814 67.298C202.209 66.3301 202.196 65.5076 202.029 64.8599C200.794 65.2247 199.594 65.1509 198.952 64.649C198.57 64.3504 198.414 63.9257 198.5 63.4199C198.599 62.8375 198.904 62.444 199.361 62.3121C199.969 62.1353 200.774 62.4526 201.409 63.118C201.742 63.4664 202.041 63.9305 202.229 64.4812C202.26 64.4702 202.292 64.4587 202.323 64.4472C203.145 64.1404 205.096 63.1783 205.458 60.8745C206.129 56.5967 203.235 52.9953 203.206 52.9594C203.153 52.8951 203.165 52.8017 203.232 52.7509C203.299 52.6996 203.396 52.7111 203.448 52.7758C203.479 52.8127 206.454 56.5153 205.763 60.9191C205.495 62.6237 204.251 64.0465 202.435 64.7243C202.395 64.7387 202.355 64.753 202.316 64.7669C202.513 65.5286 202.499 66.4308 202.102 67.4058C201.285 69.4138 198.957 70.4028 197.213 70.6396C197.132 70.6506 197.052 70.6602 196.972 70.6683C196.851 71.2584 196.583 71.9046 196.11 72.5752C196.08 72.6174 196.031 72.6399 195.983 72.6404ZM195.414 67.8986C195.4 67.8986 195.385 67.8991 195.371 67.9C194.958 67.9221 194.588 68.26 194.327 68.8506C194.158 69.2327 194.174 69.5543 194.376 69.8079C194.727 70.2498 195.62 70.466 196.708 70.3927C196.814 69.654 196.667 69.028 196.409 68.5894C196.153 68.1536 195.784 67.8986 195.414 67.8986ZM199.713 62.5614C199.621 62.5614 199.533 62.5729 199.45 62.5969C199.108 62.6956 198.885 62.9967 198.805 63.4674C198.737 63.8672 198.852 64.1869 199.147 64.4175C199.703 64.8523 200.814 64.906 201.943 64.5738C201.719 63.9362 201.361 63.5062 201.183 63.3193C200.727 62.8423 200.169 62.5614 199.713 62.5614Z" fill="#090909"/>
<path d="M202.472 53.7872C202.47 53.7872 202.468 53.7872 202.465 53.7872C202.38 53.7834 202.315 53.7139 202.318 53.6319L202.418 51.5227C202.42 51.4734 202.448 51.4283 202.491 51.4024C202.536 51.3765 202.59 51.3741 202.636 51.3943L205.023 52.4489C205.101 52.4829 205.135 52.5716 205.099 52.6459C205.064 52.7207 204.97 52.7528 204.895 52.7192L202.716 51.7567L202.627 53.6453C202.623 53.7254 202.555 53.7872 202.472 53.7872Z" fill="#090909"/>
<path d="M124.843 154.543C117.719 154.543 109.434 153.99 100.266 152.42C69.3941 147.133 56.5345 132.533 56.4087 132.386C56.354 132.323 56.3634 132.23 56.4291 132.177C56.4947 132.124 56.5922 132.133 56.6459 132.196C56.7718 132.342 69.5687 146.861 100.32 152.127C131.1 157.399 151.9 151.184 152.108 151.12C152.189 151.096 152.275 151.138 152.301 151.217C152.327 151.295 152.282 151.379 152.201 151.404C152.055 151.448 141.698 154.543 124.843 154.543Z" fill="#090909"/>
<path d="M54.996 133.596C54.9104 133.596 54.8418 133.529 54.8418 133.447V130.635C54.8418 130.59 54.8632 130.547 54.9 130.519C54.9368 130.491 54.9855 130.48 55.0303 130.49L57.6775 131.065C57.7611 131.083 57.8133 131.163 57.7944 131.243C57.776 131.323 57.6959 131.374 57.6104 131.355L55.1517 130.821V133.447C55.1507 133.53 55.0815 133.596 54.996 133.596Z" fill="#090909"/>
</svg>
