<svg width="24" height="24" viewBox="0 0 24 24" fill="none" xmlns="http://www.w3.org/2000/svg">
<path fill-rule="evenodd" clip-rule="evenodd" d="M11.575 2.14696C11.825 1.95101 12.175 1.95101 12.425 2.14696L20.7327 8.65859C20.9014 8.79077 21 8.99401 21 9.2093V19.4419C21 20.1203 20.7326 20.771 20.2565 21.2507C19.7804 21.7305 19.1348 22 18.4615 22H5.53846C4.86522 22 4.21955 21.7305 3.7435 21.2507C3.26744 20.771 3 20.1203 3 19.4419V9.2093C3 8.99401 3.09864 8.79077 3.26727 8.65859L11.575 2.14696ZM9.92308 20.6047H14.0769V12.6977H9.92308V20.6047ZM15.4615 20.6047V12C15.4615 11.6147 15.1516 11.3023 14.7692 11.3023H9.23077C8.84842 11.3023 8.53846 11.6147 8.53846 12V20.6047H5.53846C5.23244 20.6047 4.93896 20.4821 4.72257 20.2641C4.50618 20.046 4.38462 19.7503 4.38462 19.4419V9.55052L12 3.58153L19.6154 9.55052V19.4419C19.6154 19.7503 19.4938 20.046 19.2774 20.2641C19.061 20.4821 18.7676 20.6047 18.4615 20.6047H15.4615Z" fill="#151515"/>
</svg>
