<svg width="14" height="12" viewBox="0 0 14 12" fill="none" xmlns="http://www.w3.org/2000/svg">
<path fill-rule="evenodd" clip-rule="evenodd" d="M5.44978 0.923077C4.33664 0.923077 3.43427 1.81851 3.43427 2.92308C3.43427 4.02765 4.33664 4.92308 5.44978 4.92308C6.56291 4.92308 7.46528 4.02765 7.46528 2.92308C7.46528 1.81851 6.56291 0.923077 5.44978 0.923077ZM2.50404 2.92308C2.50404 1.30871 3.82289 0 5.44978 0C7.07666 0 8.39551 1.30871 8.39551 2.92308C8.39551 4.53745 7.07666 5.84615 5.44978 5.84615C3.82289 5.84615 2.50404 4.53745 2.50404 2.92308ZM9.63582 5.38462C9.63582 5.12971 9.84406 4.92308 10.1009 4.92308H13.2017C13.4586 4.92308 13.6668 5.12971 13.6668 5.38462C13.6668 5.63952 13.4586 5.84615 13.2017 5.84615H10.1009C9.84406 5.84615 9.63582 5.63952 9.63582 5.38462ZM1.19628 8.24077C1.74872 7.69258 2.49797 7.38462 3.27923 7.38462H7.62032C8.40158 7.38462 9.15084 7.69258 9.70327 8.24077C10.2557 8.78895 10.5661 9.53244 10.5661 10.3077V11.5385C10.5661 11.7934 10.3578 12 10.1009 12C9.84406 12 9.63582 11.7934 9.63582 11.5385V10.3077C9.63582 9.77726 9.42348 9.26855 9.0455 8.89348C8.66751 8.51841 8.15486 8.30769 7.62032 8.30769H3.27923C2.74469 8.30769 2.23204 8.51841 1.85406 8.89348C1.47608 9.26855 1.26373 9.77726 1.26373 10.3077V11.5385C1.26373 11.7934 1.05549 12 0.798612 12C0.541736 12 0.333496 11.7934 0.333496 11.5385V10.3077C0.333496 9.53244 0.64385 8.78895 1.19628 8.24077Z" fill="#AFAEAF"/>
</svg>
