<svg width="20" height="20" viewBox="0 0 20 20" fill="none" xmlns="http://www.w3.org/2000/svg">
    <path fill-rule="evenodd" clip-rule="evenodd"
        d="M10 1.39535C5.24778 1.39535 1.39535 5.24778 1.39535 10C1.39535 14.7522 5.24778 18.6047 10 18.6047C14.7522 18.6047 18.6047 14.7522 18.6047 10C18.6047 5.24778 14.7522 1.39535 10 1.39535ZM0 10C0 4.47715 4.47715 0 10 0C15.5228 0 20 4.47715 20 10C20 15.5228 15.5228 20 10 20C4.47715 20 0 15.5228 0 10ZM9.30233 6.27907C9.30233 5.89375 9.61469 5.5814 10 5.5814H10.0093C10.3946 5.5814 10.707 5.89375 10.707 6.27907C10.707 6.66438 10.3946 6.97674 10.0093 6.97674H10C9.61469 6.97674 9.30233 6.66438 9.30233 6.27907ZM10 9.30233C10.3853 9.30233 10.6977 9.61469 10.6977 10V13.7209C10.6977 14.1062 10.3853 14.4186 10 14.4186C9.61469 14.4186 9.30233 14.1062 9.30233 13.7209V10C9.30233 9.61469 9.61469 9.30233 10 9.30233Z"
        fill="#AFAEAF" />
</svg>