<svg width="20" height="18" viewBox="0 0 20 18" fill="none" xmlns="http://www.w3.org/2000/svg">
<path fill-rule="evenodd" clip-rule="evenodd" d="M1.79487 1.54286C1.65327 1.54286 1.53847 1.65798 1.53847 1.8V5.91429C1.53847 6.05631 1.65327 6.17143 1.79487 6.17143H5.89741C6.039 6.17143 6.15381 6.05631 6.15381 5.91429V1.8C6.15381 1.65798 6.039 1.54286 5.89741 1.54286H1.79487ZM0 1.8C0 0.805895 0.803582 0 1.79487 0H5.89741C6.88869 0 7.69228 0.805895 7.69228 1.8V5.91429C7.69228 6.90839 6.88869 7.71429 5.89741 7.71429H1.79487C0.803582 7.71429 0 6.90839 0 5.91429V1.8ZM10.2565 1.8C10.2565 1.37395 10.6009 1.02857 11.0257 1.02857H19.2308C19.6556 1.02857 20 1.37395 20 1.8C20 2.22605 19.6556 2.57143 19.2308 2.57143H11.0257C10.6009 2.57143 10.2565 2.22605 10.2565 1.8ZM10.2565 5.91429C10.2565 5.48824 10.6009 5.14286 11.0257 5.14286H16.1539C16.5787 5.14286 16.9231 5.48824 16.9231 5.91429C16.9231 6.34033 16.5787 6.68571 16.1539 6.68571H11.0257C10.6009 6.68571 10.2565 6.34033 10.2565 5.91429ZM1.79487 11.8286C1.65327 11.8286 1.53847 11.9437 1.53847 12.0857V16.2C1.53847 16.342 1.65327 16.4571 1.79487 16.4571H5.89741C6.039 16.4571 6.15381 16.342 6.15381 16.2V12.0857C6.15381 11.9437 6.039 11.8286 5.89741 11.8286H1.79487ZM0 12.0857C0 11.0916 0.803582 10.2857 1.79487 10.2857H5.89741C6.88869 10.2857 7.69228 11.0916 7.69228 12.0857V16.2C7.69228 17.1941 6.88869 18 5.89741 18H1.79487C0.803582 18 0 17.1941 0 16.2V12.0857ZM10.2565 12.0857C10.2565 11.6597 10.6009 11.3143 11.0257 11.3143H19.2308C19.6556 11.3143 20 11.6597 20 12.0857C20 12.5118 19.6556 12.8571 19.2308 12.8571H11.0257C10.6009 12.8571 10.2565 12.5118 10.2565 12.0857ZM10.2565 16.2C10.2565 15.774 10.6009 15.4286 11.0257 15.4286H16.1539C16.5787 15.4286 16.9231 15.774 16.9231 16.2C16.9231 16.626 16.5787 16.9714 16.1539 16.9714H11.0257C10.6009 16.9714 10.2565 16.626 10.2565 16.2Z" fill="#151515"/>
</svg>
