<svg width="20" height="20" viewBox="0 0 20 20" fill="none" xmlns="http://www.w3.org/2000/svg">
<path fill-rule="evenodd" clip-rule="evenodd" d="M2.82051 1.53846C2.48049 1.53846 2.1544 1.67353 1.91397 1.91397C1.67353 2.1544 1.53846 2.48049 1.53846 2.82051V17.1795C1.53846 17.5195 1.67353 17.8456 1.91397 18.086C2.1544 18.3265 2.48049 18.4615 2.82051 18.4615H6.92308C7.34791 18.4615 7.69231 18.8059 7.69231 19.2308C7.69231 19.6556 7.34791 20 6.92308 20H2.82051C2.07247 20 1.35506 19.7028 0.826109 19.1739C0.29716 18.6449 0 17.9275 0 17.1795V2.82051C0 2.07247 0.29716 1.35506 0.826109 0.826109C1.35506 0.29716 2.07247 0 2.82051 0H6.92308C7.34791 0 7.69231 0.344396 7.69231 0.769231C7.69231 1.19407 7.34791 1.53846 6.92308 1.53846H2.82051ZM13.5586 4.32787C13.859 4.02746 14.3461 4.02746 14.6465 4.32787L19.7747 9.45607C20.0751 9.75648 20.0751 10.2435 19.7747 10.5439L14.6465 15.6721C14.3461 15.9725 13.859 15.9725 13.5586 15.6721C13.2582 15.3717 13.2582 14.8847 13.5586 14.5843L17.3737 10.7692H6.92308C6.49824 10.7692 6.15385 10.4248 6.15385 10C6.15385 9.57517 6.49824 9.23077 6.92308 9.23077H17.3737L13.5586 5.41572C13.2582 5.11532 13.2582 4.62827 13.5586 4.32787Z" fill="#151515"/>
</svg>
