<svg width="14" height="12" viewBox="0 0 14 12" fill="none" xmlns="http://www.w3.org/2000/svg">
<path fill-rule="evenodd" clip-rule="evenodd" d="M1.09429 0.124476C1.27833 -0.0446724 1.5728 -0.0409664 1.752 0.132754L13.2248 11.2547C13.404 11.4284 13.4001 11.7064 13.216 11.8755C13.032 12.0447 12.7375 12.041 12.5583 11.8672L11.7213 11.0558C11.5291 11.0999 11.332 11.1221 11.134 11.122H2.86578C2.18988 11.122 1.5444 10.8612 1.07058 10.4011C0.597197 9.94152 0.333496 9.32073 0.333496 8.67594V3.32398C0.333496 2.45377 0.813925 1.63176 1.56387 1.20902L1.9623 1.59526L2.24517 1.86948C1.69482 2.0697 1.26372 2.64731 1.26372 3.32398V4.89202V5.77007V8.67594C1.26372 9.09572 1.4356 9.4959 1.73755 9.78906C2.03907 10.0818 2.44518 10.2439 2.86578 10.2439H10.8837L6.26239 5.76386C6.23692 5.76794 6.21074 5.77007 6.18403 5.77007H1.26372V4.89202H5.36305L2.24517 1.86948L1.56387 1.20902L1.08552 0.745295C0.906319 0.571575 0.910245 0.293625 1.09429 0.124476ZM4.46783 1.31707C4.46783 1.07461 4.67607 0.878049 4.93294 0.878049H11.1344C11.8103 0.878049 12.4558 1.13885 12.9296 1.59887C13.403 2.05848 13.6667 2.67927 13.6667 3.32406V5.32177C13.6668 5.32485 13.6668 5.32794 13.6668 5.33104C13.6668 5.33414 13.6668 5.33723 13.6667 5.34032V8.17737C13.6667 8.53994 13.6259 8.90149 13.5451 9.25594L13.5323 9.31196C13.4782 9.54899 13.2308 9.69975 12.9796 9.64869C12.7285 9.59763 12.5688 9.36409 12.6229 9.12706L12.6357 9.07104C12.7027 8.77736 12.7365 8.47779 12.7365 8.17737V5.77007H9.06738C8.81051 5.77007 8.60227 5.57351 8.60227 5.33104C8.60227 5.08858 8.81051 4.89202 9.06738 4.89202H12.7365V3.32406C12.7365 2.90428 12.5646 2.5041 12.2627 2.21094C11.9612 1.9182 11.555 1.7561 11.1344 1.7561H4.93294C4.67607 1.7561 4.46783 1.55954 4.46783 1.31707ZM2.8141 8.34146C2.8141 8.099 3.02234 7.90244 3.27921 7.90244H3.28541C3.54229 7.90244 3.75052 8.099 3.75052 8.34146C3.75052 8.58393 3.54229 8.78049 3.28541 8.78049H3.27921C3.02234 8.78049 2.8141 8.58393 2.8141 8.34146ZM5.2947 8.34146C5.2947 8.099 5.50294 7.90244 5.75981 7.90244H7.00011C7.25699 7.90244 7.46523 8.099 7.46523 8.34146C7.46523 8.58393 7.25699 8.78049 7.00011 8.78049H5.75981C5.50294 8.78049 5.2947 8.58393 5.2947 8.34146Z" fill="#AFAEAF"/>
</svg>
