<svg width="109" height="16" viewBox="0 0 109 16" fill="none" xmlns="http://www.w3.org/2000/svg">
<path d="M25.1 13H26.1V10.55H27.6C29.02 10.55 30.03 9.66 30.03 8.29C30.03 6.91 29.02 6 27.6 6H25.1V13ZM27.5 6.91C28.38 6.91 28.99 7.45 28.99 8.29C28.99 9.14 28.38 9.68 27.5 9.68H26.1V6.91H27.5ZM31.0051 10.41C31.0051 12 32.0851 13.11 33.4951 13.11C34.9151 13.11 35.9951 12 35.9951 10.41C35.9951 8.81 34.9151 7.7 33.4951 7.7C32.0851 7.7 31.0051 8.81 31.0051 10.41ZM31.9951 10.41C31.9951 9.25 32.6651 8.58 33.4951 8.58C34.3251 8.58 35.0051 9.25 35.0051 10.41C35.0051 11.57 34.3251 12.23 33.4951 12.23C32.6651 12.23 31.9951 11.57 31.9951 10.41ZM41.5909 13.05H42.1409L43.9209 7.82H42.9309L41.8509 11.28L40.6209 7.82H40.0909L38.8209 11.28L37.7909 7.82H36.7509L38.5309 13.05H39.0809L40.3409 9.63L41.5909 13.05ZM44.6788 10.43C44.6788 12.03 45.7188 13.11 47.1888 13.11C48.0488 13.11 48.7988 12.73 49.2588 12.17L48.5788 11.6C48.2688 11.99 47.7188 12.23 47.2388 12.23C46.3788 12.23 45.7588 11.69 45.6588 10.7H49.4288C49.4488 10.56 49.4588 10.43 49.4588 10.26C49.4588 8.74 48.5688 7.7 47.1288 7.7C45.7288 7.7 44.6788 8.84 44.6788 10.43ZM47.1388 8.53C47.9088 8.53 48.4388 9.01 48.5088 9.96H45.6888C45.8388 9.04 46.4488 8.53 47.1388 8.53ZM50.9696 13H51.9296V10.57C51.9296 9.36 52.5096 8.74 53.6396 8.68V7.7C52.8596 7.7 52.1996 8.23 51.9296 8.86V7.82H50.9696V13ZM54.4268 10.43C54.4268 12.03 55.4668 13.11 56.9368 13.11C57.7968 13.11 58.5468 12.73 59.0068 12.17L58.3268 11.6C58.0168 11.99 57.4668 12.23 56.9868 12.23C56.1268 12.23 55.5068 11.69 55.4068 10.7H59.1768C59.1968 10.56 59.2068 10.43 59.2068 10.26C59.2068 8.74 58.3168 7.7 56.8768 7.7C55.4768 7.7 54.4268 8.84 54.4268 10.43ZM56.8868 8.53C57.6568 8.53 58.1868 9.01 58.2568 9.96H55.4368C55.5868 9.04 56.1968 8.53 56.8868 8.53ZM60.2676 10.41C60.2676 12 61.2376 13.11 62.5076 13.11C63.1876 13.11 63.7576 12.79 64.1376 12.25V13H65.0976V5.7H64.1376V8.57C63.7576 8.02 63.1876 7.7 62.5076 7.7C61.2376 7.7 60.2676 8.81 60.2676 10.41ZM61.2576 10.41C61.2576 9.27 61.8876 8.57 62.6876 8.57C63.5476 8.57 64.1976 9.24 64.1976 10.41C64.1976 11.58 63.5476 12.25 62.6876 12.25C61.8876 12.25 61.2576 11.54 61.2576 10.41ZM69.6941 13H70.6541V12.25C71.0341 12.79 71.6041 13.11 72.2741 13.11C73.5541 13.11 74.5241 12 74.5241 10.41C74.5241 8.81 73.5541 7.7 72.2741 7.7C71.6041 7.7 71.0341 8.02 70.6541 8.56V5.7H69.6941V13ZM70.5841 10.41C70.5841 9.24 71.2441 8.57 72.0941 8.57C72.9041 8.57 73.5341 9.27 73.5341 10.41C73.5341 11.54 72.9041 12.25 72.0941 12.25C71.2441 12.25 70.5841 11.58 70.5841 10.41ZM75.4329 14.48C75.6329 14.56 75.9229 14.61 76.1829 14.61C76.9029 14.61 77.4729 14.25 77.9729 13.05L80.1429 7.82H79.1329L77.7029 11.41L76.3129 7.82H75.2629L77.2329 12.57C76.7929 13.59 76.5529 13.74 76.0629 13.74C75.9029 13.74 75.7329 13.7 75.6029 13.65L75.4329 14.48Z" fill="#4D4E50"/>
<g clip-path="url(#clip0_668_4993)">
<path fill-rule="evenodd" clip-rule="evenodd" d="M104 8C103.947 10.8719 103.701 13.1633 102.408 14.4079C101.115 15.6526 98.8895 15.9472 96 16C93.1281 15.9472 90.8367 15.7009 89.5921 14.4079C88.3474 13.1149 88.0528 10.8895 88 8C88.0528 5.12809 88.2991 2.83672 89.5921 1.59208C90.8851 0.347444 93.1105 0.0527763 96 0C98.8719 0.0527763 101.163 0.299065 102.408 1.59208C103.653 2.8851 103.947 5.12809 104 8Z" fill="#CF2228"/>
<path d="M94.0081 7.55668V9.42532C94.0076 9.4882 94.0205 9.55047 94.0461 9.60791C94.0717 9.66536 94.1093 9.71665 94.1564 9.75832C94.2035 9.8 94.2589 9.83108 94.3191 9.84949C94.3792 9.86789 94.4426 9.87318 94.5049 9.86501C94.613 9.85305 94.7127 9.8015 94.785 9.7203C94.8573 9.63911 94.8969 9.53402 94.8962 9.42532V6.78723C94.8962 6.60765 94.8249 6.43543 94.6979 6.30844C94.5709 6.18146 94.3987 6.11012 94.2191 6.11012C94.0828 6.11149 93.95 6.15427 93.8385 6.23279C93.727 6.31131 93.642 6.42187 93.5948 6.54981L92.8122 8.51958C92.808 8.52154 92.8035 8.52255 92.799 8.52255C92.7944 8.52255 92.7899 8.52154 92.7858 8.51958C92.7811 8.52228 92.7758 8.5237 92.7704 8.5237C92.765 8.5237 92.7597 8.52228 92.755 8.51958L91.9724 6.54981C91.9251 6.42187 91.8401 6.31131 91.7286 6.23279C91.6171 6.15427 91.4844 6.11149 91.348 6.11012C91.1714 6.10888 91.0013 6.17669 90.874 6.29907C90.7467 6.42146 90.6722 6.58874 90.6665 6.76525V9.40334C90.6659 9.51204 90.7055 9.61712 90.7777 9.69832C90.85 9.77952 90.9498 9.83107 91.0578 9.84302C91.1202 9.8512 91.1836 9.84591 91.2437 9.8275C91.3038 9.8091 91.3593 9.77801 91.4064 9.73634C91.4535 9.69466 91.4911 9.64337 91.5167 9.58593C91.5422 9.52848 91.5552 9.46622 91.5547 9.40334V7.51271L92.3769 9.5924C92.4152 9.66982 92.474 9.73529 92.5468 9.78178C92.6197 9.82827 92.7038 9.854 92.7902 9.85621C92.8855 9.86151 92.98 9.83563 93.0593 9.78248C93.1386 9.72934 93.1985 9.65181 93.2299 9.56163L94.0081 7.55668Z" fill="white"/>
<path d="M101.58 6.71285C101.466 6.52423 101.301 6.37175 101.105 6.27317C100.877 6.15787 100.625 6.10048 100.37 6.10609H99.3768C99.2252 6.10609 99.0798 6.16631 98.9726 6.2735C98.8654 6.3807 98.8052 6.52608 98.8052 6.67767V9.43008C98.8052 9.54669 98.8515 9.65853 98.934 9.74098C99.0164 9.82344 99.1282 9.86976 99.2449 9.86976C99.3615 9.86976 99.4733 9.82344 99.5558 9.74098C99.6382 9.65853 99.6845 9.54669 99.6845 9.43008V8.69581H100.34C100.599 8.7025 100.857 8.64829 101.092 8.53753C101.293 8.4406 101.462 8.28802 101.58 8.09785C101.694 7.88915 101.751 7.6542 101.747 7.41634C101.756 7.17099 101.698 6.92771 101.58 6.71285ZM100.731 7.70213C100.682 7.79056 100.607 7.86134 100.516 7.90439C100.409 7.95514 100.291 7.97928 100.173 7.97473H99.7241V6.82717H100.164C100.282 6.82262 100.4 6.84676 100.507 6.89751C100.599 6.93694 100.675 7.00676 100.722 7.09537C100.772 7.18843 100.797 7.29317 100.793 7.39875C100.798 7.50346 100.777 7.60784 100.731 7.70213Z" fill="white"/>
<path d="M97.8514 9.02566H96.8137L97.1611 8.72229C97.392 8.52926 97.6094 8.32066 97.8118 8.09794C97.9434 7.95707 98.0505 7.79506 98.1284 7.61869C98.1853 7.47904 98.2152 7.32982 98.2163 7.179C98.222 6.95928 98.1607 6.74303 98.0404 6.55905C97.9125 6.37552 97.7337 6.23339 97.526 6.15015C97.2851 6.04457 97.0239 5.99352 96.7609 6.00066C96.5029 5.9945 96.2469 6.0487 96.0135 6.15894C95.8102 6.25475 95.6392 6.40749 95.521 6.59862C95.5013 6.62738 95.4851 6.65837 95.4727 6.69096C95.4703 6.6981 95.4703 6.7058 95.4727 6.71294C95.4727 6.71294 95.4727 6.73932 95.4727 6.75251C95.4727 6.75251 95.4727 6.77889 95.4727 6.79208V6.84485C95.4727 6.96962 95.5222 7.08928 95.6105 7.17751C95.6987 7.26574 95.8184 7.3153 95.9431 7.3153C96.0388 7.31655 96.1325 7.28802 96.2113 7.23367C96.2901 7.17931 96.35 7.10183 96.3828 7.01192V6.98554C96.421 6.91622 96.4772 6.8585 96.5455 6.81847C96.6213 6.7785 96.7061 6.75881 96.7917 6.76131C96.876 6.75877 96.9594 6.77848 97.0335 6.81847C97.104 6.85306 97.1623 6.90826 97.2006 6.97675C97.243 7.05493 97.2643 7.14285 97.2622 7.23176C97.2631 7.31532 97.245 7.39799 97.2094 7.47359C97.1698 7.55197 97.1195 7.62448 97.0599 7.68903C96.994 7.75499 96.9148 7.82973 96.8225 7.90887L95.5914 8.9817C95.5396 9.02653 95.4979 9.08186 95.4691 9.14402C95.4403 9.20617 95.425 9.27374 95.4243 9.34224V9.395C95.4243 9.52094 95.4743 9.64172 95.5634 9.73077C95.6525 9.81982 95.7732 9.86985 95.8992 9.86985H97.8514C97.9169 9.88897 97.986 9.89256 98.0531 9.88035C98.1203 9.86814 98.1837 9.84046 98.2383 9.7995C98.2929 9.75855 98.3372 9.70544 98.3677 9.64439C98.3983 9.58334 98.4141 9.51602 98.4141 9.44776C98.4141 9.3795 98.3983 9.31218 98.3677 9.25113C98.3372 9.19008 98.2929 9.13697 98.2383 9.09601C98.1837 9.05506 98.1203 9.02738 98.0531 9.01517C97.986 9.00296 97.9169 9.00655 97.8514 9.02566Z" fill="white"/>
</g>
<defs>
<clipPath id="clip0_668_4993">
<rect width="16" height="16" fill="white" transform="translate(88)"/>
</clipPath>
</defs>
</svg>
