<svg width="16" height="18" viewBox="0 0 16 18" fill="none" xmlns="http://www.w3.org/2000/svg">
<path fill-rule="evenodd" clip-rule="evenodd" d="M8 1.38462C6.35893 1.38462 5.02857 2.72776 5.02857 4.38462C5.02857 6.04147 6.35893 7.38462 8 7.38462C9.64108 7.38462 10.9714 6.04147 10.9714 4.38462C10.9714 2.72776 9.64108 1.38462 8 1.38462ZM3.65714 4.38462C3.65714 1.96306 5.60151 0 8 0C10.3985 0 12.3429 1.96306 12.3429 4.38462C12.3429 6.80617 10.3985 8.76923 8 8.76923C5.60151 8.76923 3.65714 6.80617 3.65714 4.38462ZM1.27199 12.3611C2.08644 11.5389 3.19106 11.0769 4.34286 11.0769H11.6571C12.8089 11.0769 13.9136 11.5389 14.728 12.3611C15.5424 13.1834 16 14.2987 16 15.4615V17.3077C16 17.69 15.693 18 15.3143 18C14.9356 18 14.6286 17.69 14.6286 17.3077V15.4615C14.6286 14.6659 14.3155 13.9028 13.7583 13.3402C13.201 12.7776 12.4452 12.4615 11.6571 12.4615H4.34286C3.55479 12.4615 2.79899 12.7776 2.24174 13.3402C1.68449 13.9028 1.37143 14.6659 1.37143 15.4615V17.3077C1.37143 17.69 1.06442 18 0.685714 18C0.307005 18 0 17.69 0 17.3077V15.4615C0 14.2987 0.45755 13.1834 1.27199 12.3611Z" fill="#151515"/>
</svg>
