<svg width="14" height="14" viewBox="0 0 14 14" fill="none" xmlns="http://www.w3.org/2000/svg">
<path fill-rule="evenodd" clip-rule="evenodd" d="M7.00065 1.26617C3.83251 1.26617 1.26422 3.83446 1.26422 7.0026C1.26422 10.1708 3.83251 12.739 7.00065 12.739C10.1688 12.739 12.7371 10.1708 12.7371 7.0026C12.7371 3.83446 10.1688 1.26617 7.00065 1.26617ZM0.333984 7.0026C0.333984 3.32071 3.31875 0.335938 7.00065 0.335938C10.6826 0.335938 13.6673 3.32071 13.6673 7.0026C13.6673 10.6845 10.6826 13.6693 7.00065 13.6693C3.31875 13.6693 0.333984 10.6845 0.333984 7.0026ZM5.54087 4.1119C5.69211 4.03096 5.87562 4.03983 6.01834 4.13498L9.73927 6.6156C9.86867 6.70187 9.94639 6.84709 9.94639 7.0026C9.94639 7.15812 9.86867 7.30334 9.73927 7.38961L6.01834 9.87022C5.87562 9.96537 5.69211 9.97425 5.54087 9.89331C5.38964 9.81237 5.29523 9.65476 5.29523 9.48322V4.52198C5.29523 4.35045 5.38964 4.19284 5.54087 4.1119ZM6.22546 5.39106V8.61415L8.64277 7.0026L6.22546 5.39106Z" fill="#AFB0AF"/>
</svg>
