<svg width="14" height="12" viewBox="0 0 14 12" fill="none" xmlns="http://www.w3.org/2000/svg">
<path fill-rule="evenodd" clip-rule="evenodd" d="M1.92617 1.58225C1.60104 1.58225 1.26373 1.88139 1.26373 2.34416V4.32511H12.7366V2.34416C12.7366 1.88139 12.3993 1.58225 12.0742 1.58225H1.92617ZM13.6668 2.34416C13.6668 1.4604 12.9945 0.667969 12.0742 0.667969H1.92617C1.00584 0.667969 0.333496 1.4604 0.333496 2.34416V9.65844C0.333496 10.5422 1.00584 11.3346 1.92617 11.3346H12.0742C12.9945 11.3346 13.6668 10.5422 13.6668 9.65844V2.34416ZM12.7366 5.2394H1.26373V9.65844C1.26373 10.1212 1.60104 10.4203 1.92617 10.4203H12.0742C12.3993 10.4203 12.7366 10.1212 12.7366 9.65844V5.2394Z" fill="#ffffff"/>
</svg>
