<svg width="14" height="14" viewBox="0 0 14 14" fill="none" xmlns="http://www.w3.org/2000/svg">
<path fill-rule="evenodd" clip-rule="evenodd" d="M1.0845 1.08304C1.56537 0.602177 2.21756 0.332031 2.8976 0.332031C3.57764 0.332031 4.22983 0.602177 4.71069 1.08304C5.19156 1.5639 5.4617 2.21609 5.4617 2.89613V4.4346H8.53862V2.89613C8.53862 2.21609 8.80877 1.5639 9.28963 1.08304C9.7705 0.602177 10.4227 0.332031 11.1027 0.332031C11.7828 0.332031 12.435 0.602177 12.9158 1.08304C13.3967 1.5639 13.6668 2.21609 13.6668 2.89613C13.6668 3.57618 13.3967 4.22837 12.9158 4.70923C12.435 5.19009 11.7828 5.46024 11.1027 5.46024H9.56427V8.53716H11.1027C11.7828 8.53716 12.435 8.8073 12.9158 9.28817C13.3967 9.76903 13.6668 10.4212 13.6668 11.1013C13.6668 11.7813 13.3967 12.4335 12.9158 12.9144C12.435 13.3952 11.7828 13.6654 11.1027 13.6654C10.4227 13.6654 9.7705 13.3952 9.28963 12.9144C8.80877 12.4335 8.53862 11.7813 8.53862 11.1013V9.5628H5.4617V11.1013C5.4617 11.7813 5.19156 12.4335 4.71069 12.9144C4.22983 13.3952 3.57764 13.6654 2.8976 13.6654C2.21756 13.6654 1.56537 13.3952 1.0845 12.9144C0.603642 12.4335 0.333496 11.7813 0.333496 11.1013C0.333496 10.4212 0.603642 9.76903 1.0845 9.28817C1.56537 8.8073 2.21756 8.53716 2.8976 8.53716H4.43606V5.46024H2.8976C2.21756 5.46024 1.56537 5.19009 1.0845 4.70923C0.603642 4.22837 0.333496 3.57618 0.333496 2.89613C0.333496 2.21609 0.603642 1.5639 1.0845 1.08304ZM4.43606 4.4346V2.89613C4.43606 2.48811 4.27397 2.09679 3.98546 1.80828C3.69694 1.51976 3.30562 1.35767 2.8976 1.35767C2.48957 1.35767 2.09826 1.51976 1.80974 1.80828C1.52122 2.09679 1.35914 2.48811 1.35914 2.89613C1.35914 3.30416 1.52122 3.69547 1.80974 3.98399C2.09826 4.27251 2.48957 4.4346 2.8976 4.4346H4.43606ZM5.4617 5.46024V8.53716H8.53862V5.46024H5.4617ZM4.43606 9.5628H2.8976C2.48957 9.5628 2.09826 9.72489 1.80974 10.0134C1.52122 10.3019 1.35914 10.6932 1.35914 11.1013C1.35914 11.5093 1.52122 11.9006 1.80974 12.1891C2.09826 12.4776 2.48957 12.6397 2.8976 12.6397C3.30562 12.6397 3.69694 12.4776 3.98546 12.1891C4.27397 11.9006 4.43606 11.5093 4.43606 11.1013V9.5628ZM9.56427 9.5628V11.1013C9.56427 11.5093 9.72635 11.9006 10.0149 12.1891C10.3034 12.4776 10.6947 12.6397 11.1027 12.6397C11.5108 12.6397 11.9021 12.4776 12.1906 12.1891C12.4791 11.9006 12.6412 11.5093 12.6412 11.1013C12.6412 10.6932 12.4791 10.3019 12.1906 10.0134C11.9021 9.72489 11.5108 9.5628 11.1027 9.5628H9.56427ZM9.56427 4.4346H11.1027C11.5108 4.4346 11.9021 4.27251 12.1906 3.98399C12.4791 3.69547 12.6412 3.30416 12.6412 2.89613C12.6412 2.48811 12.4791 2.09679 12.1906 1.80828C11.9021 1.51976 11.5108 1.35767 11.1027 1.35767C10.6947 1.35767 10.3034 1.51976 10.0149 1.80828C9.72635 2.09679 9.56427 2.48811 9.56427 2.89613V4.4346Z" fill="#AFAEAF"/>
</svg>
