<svg width="20" height="20" viewBox="0 0 20 20" fill="none" xmlns="http://www.w3.org/2000/svg">
<path fill-rule="evenodd" clip-rule="evenodd" d="M9.45607 0.225303C9.75648 -0.0751008 10.2435 -0.0751008 10.5439 0.225303L15.6721 5.35351C15.9725 5.65391 15.9725 6.14096 15.6721 6.44136C15.3717 6.74177 14.8847 6.74177 14.5843 6.44136L10.7692 2.62632V13.0769C10.7692 13.5018 10.4248 13.8462 10 13.8462C9.57517 13.8462 9.23077 13.5018 9.23077 13.0769V2.62632L5.41572 6.44136C5.11532 6.74177 4.62827 6.74177 4.32787 6.44136C4.02746 6.14096 4.02746 5.65391 4.32787 5.35351L9.45607 0.225303ZM0.769231 12.3077C1.19407 12.3077 1.53846 12.6521 1.53846 13.0769V17.1795C1.53846 17.5195 1.67353 17.8456 1.91397 18.086C2.1544 18.3265 2.48049 18.4615 2.82051 18.4615H17.1795C17.5195 18.4615 17.8456 18.3265 18.086 18.086C18.3265 17.8456 18.4615 17.5195 18.4615 17.1795V13.0769C18.4615 12.6521 18.8059 12.3077 19.2308 12.3077C19.6556 12.3077 20 12.6521 20 13.0769V17.1795C20 17.9275 19.7028 18.6449 19.1739 19.1739C18.6449 19.7028 17.9275 20 17.1795 20H2.82051C2.07247 20 1.35506 19.7028 0.826109 19.1739C0.29716 18.6449 0 17.9275 0 17.1795V13.0769C0 12.6521 0.344396 12.3077 0.769231 12.3077Z" fill="#0662B7"/>
</svg>
