<svg width="124" height="47" viewBox="0 0 124 47" fill="none" xmlns="http://www.w3.org/2000/svg">
<path d="M90.5112 17.7212C90.7777 17.8095 90.966 18.0213 91.1525 18.219C93.7853 20.9728 96.4358 23.7071 99.0633 26.4645C99.0686 23.7054 99.0562 20.9463 99.0686 18.1872C99.781 18.1855 100.492 18.1978 101.204 18.1749C101.271 18.4238 101.3 18.678 101.293 18.9357C101.279 23.1317 101.298 27.3277 101.284 31.5237C101.231 31.5484 101.126 31.596 101.074 31.6208C98.2443 28.7611 95.5049 25.8113 92.6803 22.9481C92.6536 25.6983 92.7123 28.4521 92.6519 31.2042C91.9342 31.1724 91.2164 31.1883 90.5005 31.1918C90.5023 26.701 90.4828 22.2102 90.5112 17.7212Z" fill="white"/>
<path d="M34.091 18.0585C35.7485 17.4583 37.5321 17.889 39.1469 18.4062C39.1664 19.4283 39.1558 20.4486 39.1558 21.4707C38.1645 20.8705 37.0915 20.2703 35.903 20.2368C35.3026 20.1979 34.5653 20.5634 34.5546 21.2324C34.5138 21.7214 34.9064 22.0956 35.2795 22.3463C36.7184 23.2412 38.3919 23.8714 39.4987 25.206C40.8452 27.0383 40.1311 29.9668 38.0952 30.9977C36.2175 31.988 33.9808 31.5838 32.0444 30.9854C31.9325 29.8344 31.8597 28.6817 31.8135 27.5273C32.9345 28.2228 34.1762 28.8724 35.5335 28.8494C36.1109 28.8106 36.7913 28.6358 37.0755 28.0798C37.3722 27.5802 37.1466 26.92 36.7042 26.5846C35.4358 25.5767 33.7943 25.0859 32.6787 23.882C31.9556 23.1318 31.5897 22.0673 31.6909 21.0347C31.7655 19.6666 32.803 18.4786 34.091 18.0585Z" fill="white"/>
<path d="M81.2764 19.22C81.5376 18.7063 81.7223 18.152 82.0723 17.6877C84.1775 22.1679 86.2062 26.6834 88.2688 31.1848C87.4818 31.1901 86.693 31.1778 85.906 31.1972C85.5365 30.4328 85.1954 29.6561 84.8561 28.8794C82.8877 28.8688 80.9194 28.8759 78.951 28.8759C78.6028 29.6508 78.2617 30.4293 77.8833 31.1919C77.1176 31.1813 76.3537 31.1884 75.5898 31.1848C77.5049 27.2077 79.3738 23.2059 81.2764 19.22ZM81.8041 22.4769C81.1325 23.9791 80.4948 25.4972 79.7984 26.9871C81.2072 27.0506 82.6212 27.0012 84.0318 27.01C83.3549 25.4213 82.6515 23.8432 81.9764 22.2527C81.9337 22.3092 81.8467 22.4204 81.8041 22.4769Z" fill="white"/>
<path d="M6.88184 18.1891C8.10585 18.182 9.32808 18.2014 10.5503 18.1785C11.5043 19.5342 12.3659 20.9499 13.3075 22.3144C14.2916 20.9287 15.2847 19.5465 16.3026 18.1855C17.3792 18.1961 18.4558 18.1802 19.5323 18.1944C17.9015 20.468 16.1445 22.6587 14.5546 24.9553C14.5261 27.0294 14.5475 29.1071 14.5457 31.183C13.5242 31.1901 12.5027 31.1866 11.4812 31.1848C11.4652 29.1248 11.515 27.0594 11.4581 25.0012C9.96229 22.7134 8.37232 20.4839 6.88184 18.1891Z" fill="white"/>
<path d="M20.8721 31.1884C20.8792 26.8547 20.8632 22.5192 20.881 18.1855C23.5333 18.1926 26.1856 18.1873 28.8379 18.1891C28.845 19.0735 28.829 19.9596 28.8504 20.844C27.1929 20.9093 25.5247 20.7858 23.8637 20.9005C23.8673 21.6807 23.8619 22.461 23.8708 23.2395C25.292 23.2342 26.715 23.2218 28.1362 23.2483C28.1184 24.1256 28.1309 25.0047 28.1291 25.8856C26.7061 25.8838 25.2849 25.8856 23.8637 25.882C23.869 26.7364 23.8655 27.5926 23.8655 28.4469C25.5425 28.4487 27.2195 28.4328 28.8965 28.4522C28.9001 29.3649 28.9072 30.2775 28.893 31.1919C26.2193 31.1831 23.5457 31.1866 20.8721 31.1884Z" fill="white"/>
<path d="M65.6474 18.1874C67.3013 18.2245 68.9606 18.1044 70.6074 18.2792C71.6733 18.4027 72.8334 18.8246 73.3912 19.8008C73.9863 20.8794 73.9952 22.3604 73.1762 23.3313C72.8192 23.7709 72.2898 24.0056 71.7941 24.2545C72.7463 24.514 73.5937 25.2007 73.8993 26.1522C74.2599 27.3225 74.1604 28.71 73.4001 29.7074C72.5545 30.7807 71.1137 31.0843 69.8169 31.1672C68.4241 31.2061 67.0331 31.1778 65.6421 31.1884C65.6527 26.8547 65.6385 22.5211 65.6474 18.1874ZM67.8219 19.9262C67.829 21.1477 67.8254 22.371 67.8254 23.5943C68.7989 23.5679 69.8755 23.7426 70.7495 23.2077C71.7888 22.6287 71.9114 20.8247 70.8117 20.2474C69.8897 19.7867 68.8167 19.9544 67.8219 19.9262ZM67.8236 25.3296C67.829 26.6782 67.8254 28.0286 67.8272 29.3773C68.8203 29.342 69.8826 29.522 70.817 29.0966C72.0642 28.53 72.2311 26.5529 71.1315 25.7674C70.1633 25.1019 68.9233 25.3896 67.8236 25.3296Z" fill="white"/>
<path d="M105.409 31.19C105.414 26.8545 105.377 22.5173 105.427 18.1819C106.159 18.1925 106.89 18.1889 107.622 18.1854C107.653 20.1272 107.622 22.069 107.633 24.0107C109.475 22.069 111.312 20.1237 113.163 18.1907C114.032 18.1854 114.902 18.1889 115.773 18.1872C113.819 20.2808 111.838 22.3514 109.868 24.4326C112.049 26.6745 114.206 28.9411 116.391 31.1776C115.419 31.1971 114.449 31.1794 113.478 31.1918C111.536 29.16 109.587 27.1352 107.637 25.114C107.626 27.137 107.64 29.16 107.631 31.1847C106.89 31.19 106.15 31.1829 105.409 31.19Z" fill="white"/>
<path d="M66.1234 4.49075C66.7593 3.66108 67.3438 2.78905 68.026 1.99292C61.3677 13.6859 54.7573 25.4089 48.1132 37.1108C46.4575 40.0623 44.7609 42.9926 43.123 45.9529C42.9791 45.877 42.8494 45.7817 42.7357 45.6669C40.3978 43.2997 38.0475 40.9466 35.7061 38.583C37.3689 38.5653 39.0299 38.5812 40.6927 38.5742C49.1702 27.2148 57.6477 15.8536 66.1234 4.49075Z" fill="#C4261B"/>
<path d="M0.4119 11.6716C20.2821 11.6433 40.1505 11.6734 60.0207 11.6575C53.4121 20.3301 46.8497 29.0381 40.2109 37.6878C26.9493 37.6772 13.6877 37.6808 0.426112 37.6931C0.395912 29.0187 0.424336 20.346 0.4119 11.6716ZM34.0909 18.0583C32.8029 18.4784 31.7654 19.6664 31.6908 21.0345C31.5896 22.0671 31.9555 23.1316 32.6785 23.8818C33.7942 25.0857 35.4357 25.5764 36.7041 26.5844C37.1465 26.9198 37.3721 27.58 37.0754 28.0796C36.7912 28.6356 36.1108 28.8104 35.5334 28.8492C34.1761 28.8722 32.9344 28.2226 31.8134 27.527C31.8596 28.6815 31.9324 29.8342 32.0443 30.9852C33.9807 31.5836 36.2173 31.9878 38.0951 30.9975C40.131 29.9666 40.8451 27.0381 39.4985 25.2057C38.3918 23.8712 36.7183 23.241 35.2793 22.346C34.9063 22.0954 34.5137 21.7211 34.5545 21.2322C34.5652 20.5631 35.3024 20.1977 35.9029 20.2366C37.0914 20.2701 38.1644 20.8703 39.1557 21.4705C39.1557 20.4484 39.1663 19.4281 39.1468 18.406C37.532 17.8888 35.7483 17.4581 34.0909 18.0583M6.88193 18.1889C8.37242 20.4837 9.96239 22.7132 11.4582 25.001C11.5151 27.0593 11.4653 29.1246 11.4813 31.1846C12.5028 31.1864 13.5243 31.1899 14.5458 31.1829C14.5475 29.1069 14.5262 27.0292 14.5547 24.9551C16.1446 22.6585 17.9016 20.4678 19.5324 18.1942C18.4559 18.1801 17.3793 18.1959 16.3027 18.1854C15.2848 19.5464 14.2917 20.9286 13.3075 22.3143C12.366 20.9497 11.5044 19.534 10.5504 18.1783C9.32817 18.2012 8.10594 18.1818 6.88193 18.1889M20.8719 31.1882C23.5455 31.1864 26.2192 31.1829 28.8928 31.1917C28.907 30.2773 28.8999 29.3647 28.8964 28.452C27.2194 28.4326 25.5423 28.4485 23.8653 28.4467C23.8653 27.5924 23.8689 26.7362 23.8635 25.8818C25.2847 25.8854 26.7059 25.8836 28.1289 25.8854C28.1307 25.0045 28.1183 24.1254 28.136 23.2481C26.7148 23.2216 25.2918 23.234 23.8706 23.2393C23.8618 22.4608 23.8671 21.6805 23.8635 20.9003C25.5246 20.7856 27.1927 20.9091 28.8502 20.8438C28.8289 19.9594 28.8449 19.0733 28.8377 18.1889C26.1854 18.1871 23.5331 18.1924 20.8808 18.1854C20.863 22.519 20.879 26.8545 20.8719 31.1882V31.1882Z" fill="#005192"/>
<path d="M58.9373 19.2269C60.3709 16.7115 61.7086 14.1395 63.1849 11.6523C83.2487 11.6646 103.314 11.6735 123.378 11.647C123.442 20.3267 123.396 29.01 123.401 37.6914C98.5018 37.6756 73.6041 37.6879 48.7046 37.6861C52.0924 31.5201 55.5335 25.3841 58.9373 19.2269ZM90.5111 17.7212C90.4826 22.2102 90.5022 26.701 90.5004 31.1918C91.2163 31.1883 91.934 31.1724 92.6517 31.2042C92.7121 28.4521 92.6535 25.6983 92.6802 22.9481C95.5048 25.8113 98.2442 28.7611 101.074 31.6208C101.126 31.596 101.23 31.5484 101.284 31.5237C101.298 27.3277 101.278 23.1317 101.293 18.9357C101.3 18.678 101.271 18.4238 101.204 18.1749C100.491 18.1978 99.7809 18.1855 99.0685 18.1872C99.056 20.9463 99.0685 23.7054 99.0632 26.4645C96.4357 23.7071 93.7852 20.9728 91.1524 18.219C90.9658 18.0213 90.7775 17.8095 90.5111 17.7212ZM81.2768 19.2199C79.3742 23.2058 77.5053 27.2076 75.5902 31.1847C76.3541 31.1883 77.118 31.1812 77.8837 31.1918C78.2621 30.4292 78.6032 29.6507 78.9514 28.8758C80.9197 28.8758 82.8881 28.8687 84.8564 28.8793C85.1958 29.656 85.5369 30.4327 85.9064 31.1971C86.6934 31.1777 87.4821 31.19 88.2691 31.1847C86.2066 26.6834 84.1778 22.1678 82.0727 17.6876C81.7227 18.1519 81.5379 18.7062 81.2768 19.2199ZM65.6471 18.1872C65.6382 22.5209 65.6524 26.8546 65.6418 31.1883C67.0328 31.1777 68.4238 31.2059 69.8166 31.1671C71.1134 31.0841 72.5542 30.7805 73.3998 29.7072C74.1601 28.7099 74.2596 27.3224 73.899 26.152C73.5934 25.2005 72.746 24.5139 71.7938 24.2544C72.2895 24.0055 72.8189 23.7707 73.1759 23.3311C73.9949 22.3603 73.986 20.8792 73.3909 19.8007C72.8331 18.8245 71.673 18.4026 70.6071 18.279C68.9603 18.1042 67.301 18.2243 65.6471 18.1872ZM105.409 31.19C106.15 31.183 106.89 31.19 107.631 31.1847C107.64 29.16 107.626 27.137 107.637 25.114C109.587 27.1353 111.536 29.16 113.478 31.1918C114.449 31.1794 115.419 31.1971 116.391 31.1777C114.206 28.9411 112.049 26.6745 109.868 24.4327C111.838 22.3514 113.819 20.2808 115.773 18.1872C114.902 18.189 114.032 18.1855 113.163 18.1907C111.312 20.1237 109.475 22.069 107.633 24.0108C107.622 22.069 107.653 20.1272 107.622 18.1854C106.89 18.189 106.159 18.1925 105.427 18.1819C105.377 22.5174 105.414 26.8546 105.409 31.19Z" fill="#005192"/>
<path d="M67.8218 19.9259C68.8166 19.9542 69.8896 19.7865 70.8116 20.2472C71.9113 20.8244 71.7887 22.6285 70.7495 23.2075C69.8754 23.7424 68.7989 23.5676 67.8253 23.5941C67.8253 22.3708 67.8289 21.1475 67.8218 19.9259Z" fill="#005192"/>
<path d="M81.8045 22.4769C81.8471 22.4204 81.9342 22.3092 81.9768 22.2527C82.6519 23.8432 83.3554 25.4213 84.0322 27.01C82.6217 27.0012 81.2076 27.0506 79.7988 26.9871C80.4952 25.4972 81.133 23.9791 81.8045 22.4769Z" fill="#005192"/>
<path d="M67.8232 25.3294C68.9229 25.3894 70.1629 25.1017 71.1311 25.7672C72.2307 26.5527 72.0638 28.5298 70.8167 29.0965C69.8822 29.5219 68.8199 29.3418 67.8268 29.3771C67.825 28.0285 67.8286 26.6781 67.8232 25.3294Z" fill="#005192"/>
</svg>
