<svg width="20" height="20" viewBox="0 0 20 20" fill="none" xmlns="http://www.w3.org/2000/svg">
<path fill-rule="evenodd" clip-rule="evenodd" d="M7.94872 1.53846C4.40843 1.53846 1.53846 4.40843 1.53846 7.94872C1.53846 11.489 4.40843 14.359 7.94872 14.359C11.489 14.359 14.359 11.489 14.359 7.94872C14.359 4.40843 11.489 1.53846 7.94872 1.53846ZM0 7.94872C0 3.55876 3.55876 0 7.94872 0C12.3387 0 15.8974 3.55876 15.8974 7.94872C15.8974 9.86668 15.2181 11.626 14.087 12.9992L19.7747 18.6868C20.0751 18.9872 20.0751 19.4743 19.7747 19.7747C19.4743 20.0751 18.9872 20.0751 18.6868 19.7747L12.9992 14.087C11.626 15.2181 9.86668 15.8974 7.94872 15.8974C3.55876 15.8974 0 12.3387 0 7.94872ZM7.94872 4.10256C8.37355 4.10256 8.71795 4.44696 8.71795 4.8718V7.17949H11.0256C11.4505 7.17949 11.7949 7.52388 11.7949 7.94872C11.7949 8.37355 11.4505 8.71795 11.0256 8.71795H8.71795V11.0256C8.71795 11.4505 8.37355 11.7949 7.94872 11.7949C7.52388 11.7949 7.17949 11.4505 7.17949 11.0256V8.71795H4.8718C4.44696 8.71795 4.10256 8.37355 4.10256 7.94872C4.10256 7.52388 4.44696 7.17949 4.8718 7.17949H7.17949V4.8718C7.17949 4.44696 7.52388 4.10256 7.94872 4.10256Z" fill="#0662B7"/>
</svg>
