<svg width="16" height="20" viewBox="0 0 16 20" fill="none" xmlns="http://www.w3.org/2000/svg">
<path fill-rule="evenodd" clip-rule="evenodd" d="M2.97143 1.39535C2.54708 1.39535 2.14012 1.56686 1.84006 1.87215C1.54 2.17744 1.37143 2.59151 1.37143 3.02326V14.4292C1.84553 14.121 2.4 13.9535 2.97143 13.9535H14.6286V1.39535H2.97143ZM16 0.697674C16 0.312359 15.693 0 15.3143 0H2.97143C2.18336 0 1.42756 0.318521 0.870311 0.885491C0.31306 1.45246 0 2.22144 0 3.02326V16.9767C0 17.7786 0.31306 18.5475 0.870311 19.1145C1.42756 19.6815 2.18336 20 2.97143 20H15.3143C15.693 20 16 19.6876 16 19.3023V0.697674ZM14.6286 15.3488H2.97143C2.54708 15.3488 2.14012 15.5203 1.84006 15.8256C1.54 16.1309 1.37143 16.545 1.37143 16.9767C1.37143 17.4085 1.54 17.8226 1.84006 18.1278C2.14012 18.4331 2.54708 18.6047 2.97143 18.6047H14.6286V15.3488Z" fill="#999B9C"/>
</svg>
