<svg width="14" height="14" viewBox="0 0 14 14" fill="none" xmlns="http://www.w3.org/2000/svg">
<path d="M6.65798 3.75474H3.58105V2.7291H6.65798V3.75474Z" fill="white"/>
<path d="M6.65798 5.80602H3.58105V4.78038H6.65798V5.80602Z" fill="white"/>
<path d="M9.7347 6.1479H11.1022V5.12226H9.7347V6.1479Z" fill="white"/>
<path d="M9.7347 8.88295H11.1022V7.85731H9.7347V8.88295Z" fill="white"/>
<path d="M11.1022 11.618H9.7347V10.5923H11.1022V11.618Z" fill="white"/>
<path fill-rule="evenodd" clip-rule="evenodd" d="M1.01693 12.6436V2.21628C1.01693 1.1778 1.85879 0.335938 2.89727 0.335938H7.19519C8.23368 0.335938 9.07554 1.17779 9.07554 2.21628V3.10517H11.1024C12.1409 3.10517 12.9827 3.94703 12.9827 4.98551V12.6436H13.1535C13.4367 12.6436 13.6663 12.8732 13.6663 13.1564C13.6663 13.4397 13.4367 13.6693 13.1535 13.6693L0.845828 13.6693C0.562605 13.6693 0.333008 13.4397 0.333008 13.1564C0.333008 12.8732 0.562605 12.6436 0.845828 12.6436H1.01693ZM2.04257 2.21628C2.04257 1.74424 2.42523 1.36158 2.89727 1.36158H7.19519C7.66723 1.36158 8.04989 1.74424 8.04989 2.21628V12.6436L6.82863 12.6436V8.88295C6.82863 7.93887 6.06331 7.17354 5.11923 7.17354C4.17516 7.17354 3.40983 7.93887 3.40983 8.88295V12.6436H2.04257V2.21628ZM11.9571 12.6436V4.98551C11.9571 4.51347 11.5744 4.13081 11.1024 4.13081H9.07554V12.6436H11.9571ZM4.43547 12.6436H5.80299V8.88295C5.80299 8.50531 5.49686 8.19918 5.11923 8.19918C4.7416 8.19918 4.43547 8.50531 4.43547 8.88295V12.6436Z" fill="white"/>
</svg>
