<svg width="14" height="14" viewBox="0 0 14 14" fill="none" xmlns="http://www.w3.org/2000/svg">
<path fill-rule="evenodd" clip-rule="evenodd" d="M7.00065 1.26226C3.83251 1.26226 1.26422 3.83055 1.26422 6.9987C1.26422 10.1668 3.83251 12.7351 7.00065 12.7351C10.1688 12.7351 12.7371 10.1668 12.7371 6.9987C12.7371 3.83055 10.1688 1.26226 7.00065 1.26226ZM0.333984 6.9987C0.333984 3.3168 3.31875 0.332031 7.00065 0.332031C10.6826 0.332031 13.6673 3.3168 13.6673 6.9987C13.6673 10.6806 10.6826 13.6654 7.00065 13.6654C3.31875 13.6654 0.333984 10.6806 0.333984 6.9987ZM10.4303 4.80935C10.612 4.99099 10.612 5.28548 10.4303 5.46712L6.16675 9.73069C5.98511 9.91233 5.69061 9.91233 5.50897 9.73069L3.57099 7.7927C3.38935 7.61106 3.38935 7.31657 3.57099 7.13493C3.75263 6.95329 4.04712 6.95329 4.22876 7.13493L5.83786 8.74403L9.77254 4.80935C9.95418 4.62771 10.2487 4.62771 10.4303 4.80935Z" fill="#1C592A"/>
</svg>
