<svg width="20" height="16" viewBox="0 0 20 16" fill="none" xmlns="http://www.w3.org/2000/svg">
<path fill-rule="evenodd" clip-rule="evenodd" d="M2.38901 1.37143C1.90131 1.37143 1.39535 1.82014 1.39535 2.51429V5.48571H18.6047V2.51429C18.6047 1.82014 18.0987 1.37143 17.611 1.37143H2.38901ZM20 2.51429C20 1.18865 18.9915 0 17.611 0H2.38901C1.00851 0 0 1.18865 0 2.51429V13.4857C0 14.8114 1.00851 16 2.38901 16H17.611C18.9915 16 20 14.8114 20 13.4857V2.51429ZM18.6047 6.85714H1.39535V13.4857C1.39535 14.1799 1.90131 14.6286 2.38901 14.6286H17.611C18.0987 14.6286 18.6047 14.1799 18.6047 13.4857V6.85714Z" fill="#FFFFFF"/>
</svg>
