<svg width="20" height="14" viewBox="0 0 20 14" fill="none" xmlns="http://www.w3.org/2000/svg">
<path fill-rule="evenodd" clip-rule="evenodd" d="M4.4186 0C4.80392 0 5.11628 0.303291 5.11628 0.677419V1.44083C5.52779 2.33532 6.19196 3.09946 7.033 3.64387C7.91164 4.21263 8.94401 4.51613 10 4.51613C11.056 4.51613 12.0884 4.21263 12.967 3.64387C13.808 3.09946 14.4722 2.33532 14.8837 1.44083V0.677419C14.8837 0.303291 15.1961 0 15.5814 0C15.9667 0 16.2791 0.303291 16.2791 0.677419V1.30986C16.935 1.95088 17.7304 2.4431 18.6082 2.74965C18.9708 2.87627 19.159 3.26431 19.0286 3.61636C18.8982 3.96841 18.4986 4.15116 18.136 4.02454C17.4731 3.79304 16.8486 3.4749 16.2791 3.08075V9.03226H19.3023C19.6876 9.03226 20 9.33555 20 9.70968C20 10.0838 19.6876 10.3871 19.3023 10.3871H16.2791V13.3226C16.2791 13.6967 15.9667 14 15.5814 14C15.1961 14 14.8837 13.6967 14.8837 13.3226V10.3871H5.11628V13.3226C5.11628 13.6967 4.80392 14 4.4186 14C4.03329 14 3.72093 13.6967 3.72093 13.3226V10.3871H0.697674C0.312359 10.3871 0 10.0838 0 9.70968C0 9.33555 0.312359 9.03226 0.697674 9.03226H3.72093V3.08075C3.15138 3.4749 2.52694 3.79304 1.86403 4.02454C1.50145 4.15116 1.10181 3.96841 0.971403 3.61636C0.840998 3.26431 1.02921 2.87627 1.39179 2.74965C2.2696 2.4431 3.06497 1.95088 3.72093 1.30986V0.677419C3.72093 0.303291 4.03329 0 4.4186 0ZM5.11628 3.83871V9.03226H9.30233V5.83584C8.21742 5.72628 7.17234 5.36238 6.259 4.77117C5.8416 4.50098 5.45875 4.18787 5.11628 3.83871ZM10.6977 5.83584V9.03226H14.8837V3.83871C14.5413 4.18787 14.1584 4.50098 13.741 4.77117C12.8277 5.36238 11.7826 5.72628 10.6977 5.83584Z" fill="white"/>
</svg>
