<svg width="14" height="14" viewBox="0 0 14 14" fill="none" xmlns="http://www.w3.org/2000/svg">
<path fill-rule="evenodd" clip-rule="evenodd" d="M6.99992 1.26422C3.83177 1.26422 1.26348 3.83251 1.26348 7.00065C1.26348 10.1688 3.83177 12.7371 6.99992 12.7371C10.1681 12.7371 12.7364 10.1688 12.7364 7.00065C12.7364 3.83251 10.1681 1.26422 6.99992 1.26422ZM0.333252 7.00065C0.333252 3.31875 3.31802 0.333984 6.99992 0.333984C10.6818 0.333984 13.6666 3.31875 13.6666 7.00065C13.6666 10.6826 10.6818 13.6673 6.99992 13.6673C3.31802 13.6673 0.333252 10.6826 0.333252 7.00065ZM10.4296 4.8113C10.6112 4.99294 10.6112 5.28743 10.4296 5.46907L6.16602 9.73264C5.98438 9.91428 5.68988 9.91428 5.50824 9.73264L3.57026 7.79465C3.38862 7.61302 3.38862 7.31852 3.57026 7.13688C3.7519 6.95524 4.04639 6.95524 4.22803 7.13688L5.83713 8.74598L9.77181 4.8113C9.95345 4.62966 10.2479 4.62966 10.4296 4.8113Z" fill="#1C592A"/>
</svg>
