<svg width="20" height="18" viewBox="0 0 20 18" fill="none" xmlns="http://www.w3.org/2000/svg">
<path fill-rule="evenodd" clip-rule="evenodd" d="M7.67442 1.38462C6.00472 1.38462 4.65116 2.72776 4.65116 4.38462C4.65116 6.04147 6.00472 7.38462 7.67442 7.38462C9.34412 7.38462 10.6977 6.04147 10.6977 4.38462C10.6977 2.72776 9.34412 1.38462 7.67442 1.38462ZM3.25581 4.38462C3.25581 1.96306 5.23409 0 7.67442 0C10.1147 0 12.093 1.96306 12.093 4.38462C12.093 6.80617 10.1147 8.76923 7.67442 8.76923C5.23409 8.76923 3.25581 6.80617 3.25581 4.38462ZM19.7957 5.74123C20.0681 6.0116 20.0681 6.44994 19.7957 6.7203L16.6949 9.79723C16.564 9.92706 16.3866 10 16.2015 10C16.0165 10 15.8391 9.92706 15.7082 9.79723L14.1578 8.25877C13.8854 7.9884 13.8854 7.55006 14.1578 7.2797C14.4303 7.00933 14.872 7.00933 15.1445 7.2797L16.2015 8.32862L18.809 5.74123C19.0815 5.47087 19.5232 5.47087 19.7957 5.74123ZM1.29418 12.3611C2.12283 11.5389 3.24672 11.0769 4.4186 11.0769H10.9302C12.1021 11.0769 13.226 11.5389 14.0547 12.3611C14.8833 13.1834 15.3488 14.2987 15.3488 15.4615V17.3077C15.3488 17.69 15.0365 18 14.6512 18C14.2658 18 13.9535 17.69 13.9535 17.3077V15.4615C13.9535 14.6659 13.635 13.9028 13.068 13.3402C12.501 12.7776 11.732 12.4615 10.9302 12.4615H4.4186C3.61679 12.4615 2.84781 12.7776 2.28084 13.3402C1.71387 13.9028 1.39535 14.6659 1.39535 15.4615V17.3077C1.39535 17.69 1.08299 18 0.697674 18C0.312359 18 0 17.69 0 17.3077V15.4615C0 14.2987 0.46553 13.1834 1.29418 12.3611Z" fill="white"/>
</svg>
