<svg width="20" height="20" viewBox="0 0 20 20" fill="none" xmlns="http://www.w3.org/2000/svg">
    <path d="M9.48745 5.12821H4.87207V3.58974H9.48745V5.12821Z" fill="white" />
    <path d="M9.48745 8.20513H4.87207V6.66667H9.48745V8.20513Z" fill="white" />
    <path d="M14.1025 8.71795H16.1538V7.17949H14.1025V8.71795Z" fill="white" />
    <path d="M14.1025 12.8205H16.1538V11.2821H14.1025V12.8205Z" fill="white" />
    <path d="M16.1538 16.9231H14.1025V15.3846H16.1538V16.9231Z" fill="white" />
    <path fill-rule="evenodd" clip-rule="evenodd"
        d="M1.02588 18.4615V2.82051C1.02588 1.26279 2.28867 0 3.84639 0H10.2933C11.851 0 13.1138 1.26279 13.1138 2.82051V4.15385H16.1541C17.7118 4.15385 18.9746 5.41663 18.9746 6.97436V18.4615H19.2308C19.6556 18.4615 20 18.8059 20 19.2308C20 19.6556 19.6556 20 19.2308 20L0.769231 20C0.344396 20 0 19.6556 0 19.2308C0 18.8059 0.344396 18.4615 0.769231 18.4615H1.02588ZM2.56434 2.82051C2.56434 2.11246 3.13833 1.53846 3.84639 1.53846H10.2933C11.0013 1.53846 11.5753 2.11246 11.5753 2.82051V18.4615L9.74344 18.4615V12.8205C9.74344 11.4044 8.59545 10.2564 7.17934 10.2564C5.76322 10.2564 4.61523 11.4044 4.61523 12.8205V18.4615H2.56434V2.82051ZM17.4361 18.4615V6.97436C17.4361 6.2663 16.8621 5.69231 16.1541 5.69231H13.1138V18.4615H17.4361ZM6.1537 18.4615H8.20498V12.8205C8.20498 12.2541 7.74578 11.7949 7.17934 11.7949C6.61289 11.7949 6.1537 12.2541 6.1537 12.8205V18.4615Z"
        fill="white" />
</svg>