<svg width="18" height="20" viewBox="0 0 18 20" fill="none" xmlns="http://www.w3.org/2000/svg">
<path fill-rule="evenodd" clip-rule="evenodd" d="M14.5385 1.39535C13.3914 1.39535 12.4615 2.33243 12.4615 3.48837C12.4615 3.85605 12.5556 4.20158 12.7208 4.50186C12.7294 4.51467 12.7376 4.52784 12.7455 4.54138C12.7533 4.55482 12.7605 4.56841 12.7673 4.58213C13.1326 5.18159 13.7892 5.5814 14.5385 5.5814C15.6855 5.5814 16.6154 4.64432 16.6154 3.48837C16.6154 2.33243 15.6855 1.39535 14.5385 1.39535ZM11.9573 5.81273C12.5911 6.5271 13.5127 6.97674 14.5385 6.97674C16.4502 6.97674 18 5.41495 18 3.48837C18 1.5618 16.4502 0 14.5385 0C12.6267 0 11.0769 1.5618 11.0769 3.48837C11.0769 3.87993 11.1409 4.25643 11.259 4.6078L6.04266 7.67554C5.4088 6.96123 4.48727 6.51163 3.46154 6.51163C1.54978 6.51163 0 8.07343 0 10C0 11.9266 1.54978 13.4884 3.46154 13.4884C4.48741 13.4884 5.40905 13.0386 6.04292 12.3242L11.2604 15.3881C11.1414 15.7406 11.0769 16.1185 11.0769 16.5116C11.0769 18.4382 12.6267 20 14.5385 20C16.4502 20 18 18.4382 18 16.5116C18 14.5851 16.4502 13.0233 14.5385 13.0233C13.5142 13.0233 12.5939 13.4715 11.9601 14.184L6.74108 11.1192C6.85909 10.7679 6.92308 10.3915 6.92308 10C6.92308 9.60839 6.85904 9.23186 6.74095 8.88044L11.9573 5.81273ZM5.23111 8.90372C5.23826 8.9183 5.24597 8.93274 5.25423 8.94701C5.26256 8.9614 5.27133 8.97538 5.2805 8.98893C5.44489 9.28865 5.53846 9.63331 5.53846 10C5.53846 10.3667 5.44487 10.7114 5.28044 11.0112C5.27121 11.0248 5.26238 11.0389 5.254 11.0534C5.24584 11.0675 5.23823 11.0818 5.23116 11.0962C4.86556 11.6943 4.20975 12.093 3.46154 12.093C2.31449 12.093 1.38462 11.1559 1.38462 10C1.38462 8.84406 2.31449 7.90698 3.46154 7.90698C4.20972 7.90698 4.86551 8.30566 5.23111 8.90372ZM12.6959 15.5448C12.7174 15.5179 12.7372 15.489 12.7549 15.4583C12.7721 15.4286 12.7868 15.3981 12.7992 15.3672C13.1701 14.796 13.8105 14.4186 14.5385 14.4186C15.6855 14.4186 16.6154 15.3557 16.6154 16.5116C16.6154 17.6676 15.6855 18.6047 14.5385 18.6047C13.3914 18.6047 12.4615 17.6676 12.4615 16.5116C12.4615 16.1628 12.5462 15.834 12.6959 15.5448Z" fill="#999B9C"/>
</svg>
