<svg width="50" height="50" viewBox="0 0 50 50" fill="none" xmlns="http://www.w3.org/2000/svg">
<path fill-rule="evenodd" clip-rule="evenodd" d="M25 3.48837C13.1195 3.48837 3.48837 13.1195 3.48837 25C3.48837 36.8805 13.1195 46.5116 25 46.5116C36.8805 46.5116 46.5116 36.8805 46.5116 25C46.5116 13.1195 36.8805 3.48837 25 3.48837ZM0 25C0 11.1929 11.1929 0 25 0C38.8071 0 50 11.1929 50 25C50 38.8071 38.8071 50 25 50C11.1929 50 0 38.8071 0 25ZM37.8612 16.7899C38.5424 17.4711 38.5424 18.5754 37.8612 19.2566L21.8729 35.245C21.1917 35.9261 20.0874 35.9261 19.4062 35.245L12.1388 27.9775C11.4576 27.2964 11.4576 26.192 12.1388 25.5109C12.8199 24.8297 13.9243 24.8297 14.6054 25.5109L20.6395 31.545L35.3946 16.7899C36.0757 16.1088 37.1801 16.1088 37.8612 16.7899Z" fill="#32A64D"/>
</svg>
