<svg width="40" height="40" viewBox="0 0 40 40" fill="none" xmlns="http://www.w3.org/2000/svg">
<rect x="0.5" y="0.5" width="39" height="39" rx="19.5" fill="#404040" stroke="#404040"/>
<path fill-rule="evenodd" clip-rule="evenodd" d="M12.389 13.3714C11.9013 13.3714 11.3953 13.8201 11.3953 14.5143V17.4857H28.6047V14.5143C28.6047 13.8201 28.0987 13.3714 27.611 13.3714H12.389ZM30 14.5143C30 13.1886 28.9915 12 27.611 12H12.389C11.0085 12 10 13.1886 10 14.5143V25.4857C10 26.8114 11.0085 28 12.389 28H27.611C28.9915 28 30 26.8114 30 25.4857V14.5143ZM28.6047 18.8571H11.3953V25.4857C11.3953 26.1799 11.9013 26.6286 12.389 26.6286H27.611C28.0987 26.6286 28.6047 26.1799 28.6047 25.4857V18.8571Z" fill="white"/>
</svg>
