<svg width="20" height="16" viewBox="0 0 20 16" fill="none" xmlns="http://www.w3.org/2000/svg">
<path fill-rule="evenodd" clip-rule="evenodd" d="M3.79845 1.37143C2.48965 1.37143 1.39535 2.44954 1.39535 3.82041V5.22449H18.6047V3.82041C18.6047 2.44954 17.5103 1.37143 16.2016 1.37143H3.79845ZM20 3.82041C20 1.72879 18.3178 0 16.2016 0H3.79845C1.68223 0 0 1.72879 0 3.82041V12.1796C0 14.2712 1.68223 16 3.79845 16H16.2016C18.3178 16 20 14.2712 20 12.1796V3.82041ZM18.6047 6.59592H1.39535V12.1796C1.39535 13.5505 2.48965 14.6286 3.79845 14.6286H16.2016C17.5103 14.6286 18.6047 13.5505 18.6047 12.1796V6.59592ZM4.13427 11.6571C4.13427 11.2784 4.44663 10.9714 4.83194 10.9714H4.84228C5.22759 10.9714 5.53995 11.2784 5.53995 11.6571C5.53995 12.0359 5.22759 12.3429 4.84228 12.3429H4.83194C4.44663 12.3429 4.13427 12.0359 4.13427 11.6571ZM8.26853 11.6571C8.26853 11.2784 8.58089 10.9714 8.96621 10.9714H11.0334C11.4187 10.9714 11.7311 11.2784 11.7311 11.6571C11.7311 12.0359 11.4187 12.3429 11.0334 12.3429H8.96621C8.58089 12.3429 8.26853 12.0359 8.26853 11.6571Z" fill="#999B9C"/>
</svg>
