<svg width="14" height="14" viewBox="0 0 14 14" fill="none" xmlns="http://www.w3.org/2000/svg">
<path fill-rule="evenodd" clip-rule="evenodd" d="M6.9987 1.26226C3.83055 1.26226 1.26226 3.83055 1.26226 6.9987C1.26226 10.1668 3.83055 12.7351 6.9987 12.7351C10.1668 12.7351 12.7351 10.1668 12.7351 6.9987C12.7351 3.83055 10.1668 1.26226 6.9987 1.26226ZM0.332031 6.9987C0.332031 3.3168 3.3168 0.332031 6.9987 0.332031C10.6806 0.332031 13.6654 3.3168 13.6654 6.9987C13.6654 10.6806 10.6806 13.6654 6.9987 13.6654C3.3168 13.6654 0.332031 10.6806 0.332031 6.9987ZM4.80935 4.80935C4.99099 4.62771 5.28548 4.62771 5.46712 4.80935L6.9987 6.34092L8.53028 4.80935C8.71192 4.62771 9.00641 4.62771 9.18805 4.80935C9.36969 4.99099 9.36969 5.28548 9.18805 5.46712L7.65647 6.9987L9.18805 8.53028C9.36969 8.71192 9.36969 9.00641 9.18805 9.18805C9.00641 9.36969 8.71192 9.36969 8.53028 9.18805L6.9987 7.65647L5.46712 9.18805C5.28548 9.36969 4.99099 9.36969 4.80935 9.18805C4.62771 9.00641 4.62771 8.71192 4.80935 8.53028L6.34092 6.9987L4.80935 5.46712C4.62771 5.28548 4.62771 4.99099 4.80935 4.80935Z" fill="#992D26"/>
</svg>
