<svg width="40" height="40" viewBox="0 0 40 40" fill="none" xmlns="http://www.w3.org/2000/svg">
<g clip-path="url(#clip0_9_29995)">
<path fill-rule="evenodd" clip-rule="evenodd" d="M40 20C39.8681 27.1798 39.2523 32.9082 36.0198 36.0198C32.7872 39.1314 27.2238 39.8681 20 40C12.8202 39.8681 7.09181 39.2523 3.98021 36.0198C0.868609 32.7872 0.131941 27.2238 0 20C0.131941 12.8202 0.747663 7.09181 3.98021 3.98021C7.21275 0.868609 12.7763 0.131941 20 0C27.1798 0.131941 32.9082 0.747663 36.0198 3.98021C39.1314 7.21275 39.8681 12.8202 40 20Z" fill="white"/>
</g>
<g clip-path="url(#clip1_9_29995)">
<path d="M28.5856 8.18699C28.9856 7.68033 29.3323 7.14699 29.7323 6.66699C25.7056 13.7603 21.7323 20.8803 17.7323 27.9737C16.7456 29.7603 15.7056 31.547 14.719 33.3337C14.639 33.2803 14.559 33.227 14.479 33.147C13.0923 31.7337 11.679 30.2937 10.2656 28.8537C11.279 28.8537 12.2656 28.8537 13.279 28.8537C18.3723 21.9737 23.4923 15.067 28.5856 8.18699Z" fill="#C4261B"/>
<path d="M28.1856 14.8271C29.4656 14.3471 30.8523 14.6938 32.1056 15.0938C32.1323 15.8938 32.1056 16.6938 32.1056 17.4938C31.3323 17.0138 30.5056 16.5605 29.5723 16.5338C29.119 16.5071 28.5323 16.8005 28.5323 17.3071C28.5056 17.6805 28.799 17.9738 29.0923 18.1871C30.2123 18.8805 31.519 19.3871 32.3723 20.4271C33.4123 21.8671 32.8523 24.1605 31.279 24.9605C29.8123 25.7338 28.079 25.4138 26.5856 24.9605C26.5056 24.0538 26.4523 23.1471 26.399 22.2671C27.279 22.8005 28.239 23.3071 29.279 23.3071C29.7323 23.2805 30.2656 23.1471 30.479 22.6938C30.719 22.2938 30.5323 21.7871 30.1856 21.5205C29.199 20.7205 27.919 20.3471 27.0656 19.4138C26.5056 18.8271 26.2123 18.0005 26.2923 17.2005C26.399 16.0805 27.199 15.1471 28.1856 14.8271Z" fill="#005192"/>
<path d="M7.06641 14.9338C8.02641 14.9338 8.95974 14.9338 9.91974 14.9338C10.6664 16.0005 11.3331 17.0938 12.0531 18.1605C12.8264 17.0672 13.5997 15.9738 14.3731 14.9338C15.1997 14.9338 16.0531 14.9338 16.8797 14.9338C15.6264 16.7205 14.2397 18.4272 13.0131 20.2138C12.9864 21.8405 13.0131 23.4672 13.0131 25.0938C12.2131 25.0938 11.4131 25.0938 10.6397 25.0938C10.6397 23.4938 10.6664 21.8672 10.6131 20.2672C9.46641 18.4538 8.21307 16.7205 7.06641 14.9338Z" fill="#005192"/>
<path d="M17.9197 25.0938C17.9197 21.7072 17.9197 18.3205 17.9197 14.9338C19.9731 14.9338 22.0264 14.9338 24.1064 14.9338C24.1064 15.6272 24.1064 16.3205 24.1064 17.0138C22.8264 17.0672 21.5197 16.9605 20.2397 17.0672C20.2397 17.6805 20.2397 18.2938 20.2397 18.9072C21.3331 18.9072 22.4531 18.8805 23.5464 18.9072C23.5197 19.6005 23.5464 20.2672 23.5464 20.9605C22.4531 20.9605 21.3331 20.9605 20.2397 20.9605C20.2397 21.6272 20.2397 22.2938 20.2397 22.9605C21.5464 22.9605 22.8531 22.9605 24.1597 22.9605C24.1597 23.6805 24.1597 24.3738 24.1597 25.0938C22.0797 25.0938 19.9997 25.0938 17.9197 25.0938Z" fill="#005192"/>
</g>
<defs>
<clipPath id="clip0_9_29995">
<rect width="40" height="40" fill="white"/>
</clipPath>
<clipPath id="clip1_9_29995">
<rect width="26.6667" height="26.6667" fill="white" transform="translate(6.66602 6.66699)"/>
</clipPath>
</defs>
</svg>
