<svg width="24" height="24" viewBox="0 0 24 24" fill="none" xmlns="http://www.w3.org/2000/svg">
<path fill-rule="evenodd" clip-rule="evenodd" d="M4.6839 3.5C4.03401 3.5 3.5 4.03095 3.5 4.69478V18.3083C3.5 18.9721 4.03401 19.503 4.6839 19.503H11.4195C11.8337 19.503 12.1695 19.8388 12.1695 20.253C12.1695 20.6672 11.8337 21.003 11.4195 21.003H4.6839C3.19766 21.003 2 19.7926 2 18.3083V4.69478C2 3.21047 3.19766 2 4.6839 2H12.1019C12.8151 2 13.4982 2.28494 14.0012 2.79077L17.2196 6.02731C17.7225 6.53299 18.0042 7.21797 18.0042 7.93131V11.4463C18.0042 11.8605 17.6685 12.1963 17.2542 12.1963C16.84 12.1963 16.5042 11.8605 16.5042 11.4463V8.36195H14.8369C13.3506 8.36195 12.153 7.15148 12.153 5.66717V3.50111C12.136 3.50037 12.119 3.5 12.1019 3.5H4.6839ZM13.653 4.56787V5.66717C13.653 6.331 14.187 6.86195 14.8369 6.86195H15.9342L13.653 4.56787ZM6.3761 8.58444C6.3761 8.18166 6.70079 7.85514 7.10131 7.85514H8.55174C8.95226 7.85514 9.27695 8.18166 9.27695 8.58444C9.27695 8.98722 8.95226 9.31373 8.55174 9.31373H7.10131C6.70079 9.31373 6.3761 8.98722 6.3761 8.58444ZM6.3761 12.4741C6.3761 12.0714 6.70079 11.7448 7.10131 11.7448H13.3865C13.787 11.7448 14.1117 12.0714 14.1117 12.4741C14.1117 12.8769 13.787 13.2034 13.3865 13.2034H7.10131C6.70079 13.2034 6.3761 12.8769 6.3761 12.4741ZM7.10131 15.6344C6.70079 15.6344 6.3761 15.9609 6.3761 16.3637C6.3761 16.7665 6.70079 17.093 7.10131 17.093H11.4526C11.8531 17.093 12.1778 16.7665 12.1778 16.3637C12.1778 15.9609 11.8531 15.6344 11.4526 15.6344H7.10131ZM17.058 19.6719C18.4611 19.6719 19.616 18.5239 19.616 17.086C19.616 15.6481 18.4611 14.5 17.058 14.5C15.655 14.5 14.5 15.6481 14.5 17.086C14.5 18.5239 15.655 19.6719 17.058 19.6719ZM17.058 21.1719C17.9486 21.1719 18.7721 20.8831 19.4413 20.3934C19.4775 20.5026 19.5387 20.6052 19.6251 20.6922L20.7011 21.7756C20.9983 22.0748 21.48 22.0748 21.7772 21.7756C22.0743 21.4764 22.0743 20.9913 21.7772 20.6922L20.7011 19.6087C20.611 19.5179 20.5038 19.4547 20.3899 19.419C20.8476 18.7575 21.116 17.9533 21.116 17.086C21.116 14.8293 19.2992 13 17.058 13C14.8168 13 13 14.8293 13 17.086C13 19.3426 14.8168 21.1719 17.058 21.1719Z" fill="white"/>
</svg>
