<svg width="24" height="25" viewBox="0 0 24 25" fill="none" xmlns="http://www.w3.org/2000/svg">
<path d="M0 12.5117C0 8.78419 0 6.92042 0.608964 5.45025C1.42092 3.49003 2.97831 1.93263 4.93853 1.12068C6.4087 0.511719 8.27247 0.511719 12 0.511719C15.7275 0.511719 17.5913 0.511719 19.0615 1.12068C21.0217 1.93263 22.5791 3.49003 23.391 5.45025C24 6.92042 24 8.78419 24 12.5117C24 16.2393 24 18.103 23.391 19.5732C22.5791 21.5334 21.0217 23.0908 19.0615 23.9028C17.5913 24.5117 15.7275 24.5117 12 24.5117C8.27247 24.5117 6.4087 24.5117 4.93853 23.9028C2.97831 23.0908 1.42092 21.5334 0.608964 19.5732C0 18.103 0 16.2393 0 12.5117Z" fill="#0662B7"/>
<path d="M18 8.51172L9.75 16.5117L6 12.8754" stroke="white" stroke-width="1.5" stroke-linecap="round" stroke-linejoin="round"/>
</svg>
