<svg width="24" height="24" viewBox="0 0 24 24" fill="none" xmlns="http://www.w3.org/2000/svg">
<path fill-rule="evenodd" clip-rule="evenodd" d="M4.55814 3.39535C4.24975 3.39535 3.95399 3.51786 3.73592 3.73592C3.51786 3.95399 3.39535 4.24975 3.39535 4.55814V12.9302C3.39535 13.2386 3.51786 13.5344 3.73592 13.7524C3.95399 13.9705 4.24975 14.093 4.55814 14.093H5.48837C5.87369 14.093 6.18605 14.4054 6.18605 14.7907C6.18605 15.176 5.87369 15.4884 5.48837 15.4884H4.55814C3.87968 15.4884 3.22901 15.2189 2.74926 14.7391C2.26952 14.2594 2 13.6087 2 12.9302V4.55814C2 3.87968 2.26952 3.22901 2.74926 2.74926C3.22901 2.26952 3.87968 2 4.55814 2H12.9302C13.6087 2 14.2594 2.26952 14.7391 2.74926C15.2189 3.22901 15.4884 3.87968 15.4884 4.55814V5.48837C15.4884 5.87369 15.176 6.18605 14.7907 6.18605C14.4054 6.18605 14.093 5.87369 14.093 5.48837V4.55814C14.093 4.24975 13.9705 3.95399 13.7524 3.73592C13.5344 3.51786 13.2386 3.39535 12.9302 3.39535H4.55814ZM11.0698 9.90698C10.4276 9.90698 9.90698 10.4276 9.90698 11.0698V19.4419C9.90698 20.0841 10.4276 20.6047 11.0698 20.6047H19.4419C20.0841 20.6047 20.6047 20.0841 20.6047 19.4419V11.0698C20.6047 10.4276 20.0841 9.90698 19.4419 9.90698H11.0698ZM8.51163 11.0698C8.51163 9.65695 9.65695 8.51163 11.0698 8.51163H19.4419C20.8547 8.51163 22 9.65695 22 11.0698V19.4419C22 20.8547 20.8547 22 19.4419 22H11.0698C9.65695 22 8.51163 20.8547 8.51163 19.4419V11.0698Z" fill="#0662B7"/>
</svg>
