<svg width="16" height="20" viewBox="0 0 16 20" fill="none" xmlns="http://www.w3.org/2000/svg">
<path fill-rule="evenodd" clip-rule="evenodd" d="M2.77551 1.39535C2.39699 1.39535 2.03773 1.54427 1.7758 1.80337C1.51453 2.06181 1.37143 2.40808 1.37143 2.76486V18.0187L3.44745 16.6497C3.71591 16.4726 4.06902 16.508 4.29841 16.7349L5.9102 18.3293L7.522 16.7349C7.78814 16.4717 8.21186 16.4717 8.478 16.7349L10.0898 18.3293L11.7016 16.7349C11.931 16.508 12.2841 16.4726 12.5525 16.6497L14.6286 18.0187V2.76486C14.6286 2.40808 14.4855 2.06181 14.2242 1.80337C13.9623 1.54427 13.603 1.39535 13.2245 1.39535H2.77551ZM0.819805 0.802909C1.3417 0.286659 2.04553 0 2.77551 0H13.2245C13.9545 0 14.6583 0.286659 15.1802 0.802909C15.7027 1.31981 16 2.02513 16 2.76486V19.3023C16 19.558 15.8625 19.7932 15.6417 19.9153C15.421 20.0374 15.1522 20.0268 14.9413 19.8878L12.2655 18.1232L10.5678 19.8026C10.3017 20.0658 9.87794 20.0658 9.6118 19.8026L8 18.2082L6.3882 19.8026C6.12206 20.0658 5.69835 20.0658 5.43221 19.8026L3.73449 18.1232L1.05867 19.8878C0.847794 20.0268 0.579045 20.0374 0.358253 19.9153C0.137461 19.7932 0 19.558 0 19.3023V2.76486C0 2.02513 0.297251 1.31981 0.819805 0.802909ZM4.17959 4.83204C4.17959 4.44673 4.4866 4.13437 4.86531 4.13437H11.1347C11.5134 4.13437 11.8204 4.44673 11.8204 4.83204C11.8204 5.21736 11.5134 5.52972 11.1347 5.52972H4.86531C4.4866 5.52972 4.17959 5.21736 4.17959 4.83204ZM4.17959 8.96641C4.17959 8.58109 4.4866 8.26873 4.86531 8.26873H11.1347C11.5134 8.26873 11.8204 8.58109 11.8204 8.96641C11.8204 9.35172 11.5134 9.66408 11.1347 9.66408H4.86531C4.4866 9.66408 4.17959 9.35172 4.17959 8.96641ZM8.35918 13.1008C8.35918 12.7155 8.66619 12.4031 9.0449 12.4031H11.1347C11.5134 12.4031 11.8204 12.7155 11.8204 13.1008C11.8204 13.4861 11.5134 13.7984 11.1347 13.7984H9.0449C8.66619 13.7984 8.35918 13.4861 8.35918 13.1008Z" fill="#ffffff"/>
</svg>
