<svg width="40" height="40" viewBox="0 0 40 40" fill="none" xmlns="http://www.w3.org/2000/svg">
<rect x="0.5" y="0.5" width="39" height="39" rx="19.5" fill="#404040" stroke="#404040"/>
<path fill-rule="evenodd" clip-rule="evenodd" d="M14.7755 11.3953C14.397 11.3953 14.0377 11.5443 13.7758 11.8034C13.5145 12.0618 13.3714 12.4081 13.3714 12.7649V28.0187L15.4475 26.6497C15.7159 26.4726 16.069 26.508 16.2984 26.7349L17.9102 28.3293L19.522 26.7349C19.7881 26.4717 20.2119 26.4717 20.478 26.7349L22.0898 28.3293L23.7016 26.7349C23.931 26.508 24.2841 26.4726 24.5525 26.6497L26.6286 28.0187V12.7649C26.6286 12.4081 26.4855 12.0618 26.2242 11.8034C25.9623 11.5443 25.603 11.3953 25.2245 11.3953H14.7755ZM12.8198 10.8029C13.3417 10.2867 14.0455 10 14.7755 10H25.2245C25.9545 10 26.6583 10.2867 27.1802 10.8029C27.7027 11.3198 28 12.0251 28 12.7649V29.3023C28 29.558 27.8625 29.7932 27.6417 29.9153C27.421 30.0374 27.1522 30.0268 26.9413 29.8878L24.2655 28.1232L22.5678 29.8026C22.3017 30.0658 21.8779 30.0658 21.6118 29.8026L20 28.2082L18.3882 29.8026C18.1221 30.0658 17.6983 30.0658 17.4322 29.8026L15.7345 28.1232L13.0587 29.8878C12.8478 30.0268 12.579 30.0374 12.3583 29.9153C12.1375 29.7932 12 29.558 12 29.3023V12.7649C12 12.0251 12.2973 11.3198 12.8198 10.8029ZM16.1796 14.832C16.1796 14.4467 16.4866 14.1344 16.8653 14.1344H23.1347C23.5134 14.1344 23.8204 14.4467 23.8204 14.832C23.8204 15.2174 23.5134 15.5297 23.1347 15.5297H16.8653C16.4866 15.5297 16.1796 15.2174 16.1796 14.832ZM16.1796 18.9664C16.1796 18.5811 16.4866 18.2687 16.8653 18.2687H23.1347C23.5134 18.2687 23.8204 18.5811 23.8204 18.9664C23.8204 19.3517 23.5134 19.6641 23.1347 19.6641H16.8653C16.4866 19.6641 16.1796 19.3517 16.1796 18.9664ZM20.3592 23.1008C20.3592 22.7155 20.6662 22.4031 21.0449 22.4031H23.1347C23.5134 22.4031 23.8204 22.7155 23.8204 23.1008C23.8204 23.4861 23.5134 23.7984 23.1347 23.7984H21.0449C20.6662 23.7984 20.3592 23.4861 20.3592 23.1008Z" fill="white"/>
</svg>
