<svg width="40" height="40" viewBox="0 0 40 40" fill="none" xmlns="http://www.w3.org/2000/svg">
<rect x="0.5" y="0.5" width="39" height="39" rx="19.5" fill="white" stroke="#404040"/>
<path fill-rule="evenodd" clip-rule="evenodd" d="M19.0968 11.3953C18.5386 11.3953 17.9677 11.9375 17.9677 12.7649C17.9677 13.5922 18.5386 14.1344 19.0968 14.1344H20.9032C21.4614 14.1344 22.0323 13.5922 22.0323 12.7649C22.0323 11.9375 21.4614 11.3953 20.9032 11.3953H19.0968ZM16.6941 12.0672C16.9658 10.9156 17.8947 10 19.0968 10H20.9032C22.1053 10 23.0342 10.9156 23.3059 12.0672H24.5161C25.1993 12.0672 25.838 12.3784 26.297 12.9036C26.7538 13.4264 27 14.1211 27 14.832V27.2351C27 27.9461 26.7538 28.6408 26.297 29.1636C25.838 29.6888 25.1993 30 24.5161 30H15.4839C14.8007 30 14.162 29.6888 13.703 29.1636C13.2461 28.6408 13 27.9461 13 27.2351V14.832C13 14.1211 13.2461 13.4264 13.703 12.9036C14.162 12.3784 14.8007 12.0672 15.4839 12.0672H16.6941ZM16.6941 13.4625H15.4839C15.2088 13.4625 14.9286 13.5869 14.71 13.837C14.4893 14.0896 14.3548 14.4465 14.3548 14.832V27.2351C14.3548 27.6207 14.4893 27.9776 14.71 28.2301C14.9286 28.4803 15.2088 28.6047 15.4839 28.6047H24.5161C24.7912 28.6047 25.0714 28.4803 25.29 28.2301C25.5107 27.9776 25.6452 27.6207 25.6452 27.2351V14.832C25.6452 14.4465 25.5107 14.0896 25.29 13.837C25.0714 13.5869 24.7912 13.4625 24.5161 13.4625H23.3059C23.0342 14.6141 22.1053 15.5297 20.9032 15.5297H19.0968C17.8947 15.5297 16.9658 14.6141 16.6941 13.4625ZM17.2903 19.3023C17.6645 19.3023 17.9677 19.6147 17.9677 20V25.168C17.9677 25.5533 17.6645 25.8656 17.2903 25.8656C16.9162 25.8656 16.6129 25.5533 16.6129 25.168V20C16.6129 19.6147 16.9162 19.3023 17.2903 19.3023ZM22.7097 21.3695C23.0838 21.3695 23.3871 21.6819 23.3871 22.0672V25.168C23.3871 25.5533 23.0838 25.8656 22.7097 25.8656C22.3355 25.8656 22.0323 25.5533 22.0323 25.168V22.0672C22.0323 21.6819 22.3355 21.3695 22.7097 21.3695ZM20 23.4367C20.3741 23.4367 20.6774 23.7491 20.6774 24.1344V25.168C20.6774 25.5533 20.3741 25.8656 20 25.8656C19.6259 25.8656 19.3226 25.5533 19.3226 25.168V24.1344C19.3226 23.7491 19.6259 23.4367 20 23.4367Z" fill="#404040"/>
</svg>
