<svg width="20" height="20" viewBox="0 0 20 20" fill="none" xmlns="http://www.w3.org/2000/svg">
<path fill-rule="evenodd" clip-rule="evenodd" d="M4.23077 1.53846C3.80593 1.53846 3.46154 1.19407 3.46154 0.769231C3.46154 0.344396 3.80593 0 4.23077 0H8.84615C9.27099 0 9.61539 0.344396 9.61539 0.769231V5.38462C9.61539 5.80945 9.27099 6.15385 8.84615 6.15385C8.42132 6.15385 8.07692 5.80945 8.07692 5.38462V2.62632L1.31316 9.39008C1.01276 9.69049 0.525706 9.69049 0.225303 9.39008C-0.0751008 9.08968 -0.0751008 8.60263 0.225303 8.30223L6.98907 1.53846H4.23077ZM13.8462 5.38462C13.8462 4.95978 14.1906 4.61539 14.6154 4.61539H19.2308C19.6556 4.61539 20 4.95978 20 5.38462C20 5.80945 19.6556 6.15385 19.2308 6.15385H15.3846V10C15.3846 10.4248 15.0402 10.7692 14.6154 10.7692H10.7692V14.6154C10.7692 15.0402 10.4248 15.3846 10 15.3846H6.15385V19.2308C6.15385 19.6556 5.80945 20 5.38462 20H0.769231C0.344396 20 0 19.6556 0 19.2308C0 18.8059 0.344396 18.4615 0.769231 18.4615H4.61539V14.6154C4.61539 14.1906 4.95978 13.8462 5.38462 13.8462H9.23077V10C9.23077 9.57517 9.57517 9.23077 10 9.23077H13.8462V5.38462Z" fill="white"/>
</svg>
