<svg width="14" height="18" viewBox="0 0 14 18" fill="none" xmlns="http://www.w3.org/2000/svg">
<path fill-rule="evenodd" clip-rule="evenodd" d="M13.2222 0C13.6518 0 14 0.34538 14 0.771429V17.2286C14 17.6546 13.6518 18 13.2222 18C12.7927 18 12.4444 17.6546 12.4444 17.2286V0.771429C12.4444 0.34538 12.7927 0 13.2222 0ZM7 6.17143C7.42955 6.17143 7.77778 6.51681 7.77778 6.94286V17.2286C7.77778 17.6546 7.42955 18 7 18C6.57045 18 6.22222 17.6546 6.22222 17.2286V6.94286C6.22222 6.51681 6.57045 6.17143 7 6.17143ZM0.777778 12.3429C1.20733 12.3429 1.55556 12.6882 1.55556 13.1143V17.2286C1.55556 17.6546 1.20733 18 0.777778 18C0.348223 18 0 17.6546 0 17.2286V13.1143C0 12.6882 0.348223 12.3429 0.777778 12.3429Z" fill="#E6E7E7"/>
</svg>
