<svg width="15" height="14" viewBox="0 0 15 14" fill="none" xmlns="http://www.w3.org/2000/svg">
<path d="M2.01684 8.90688L3.04248 8.30082V2.21628C3.04248 1.74424 3.42514 1.36158 3.89718 1.36158H8.1951C8.66714 1.36158 9.0498 1.74424 9.0498 2.21628V4.75103L10.0754 4.14497V4.13081H10.0994L11.8351 3.10517H10.0754V2.21628C10.0754 1.17779 9.23359 0.335938 8.1951 0.335938H3.89718C2.85869 0.335938 2.01684 1.1778 2.01684 2.21628V8.90688Z" fill="#AFAEAF"/>
<path d="M2.01684 11.23V12.6436H1.84574C1.56252 12.6436 1.33292 12.8732 1.33292 13.1564C1.33292 13.4397 1.56252 13.6693 1.84574 13.6693L14.1534 13.6693C14.4367 13.6693 14.6663 13.4397 14.6663 13.1564C14.6663 12.8732 14.4367 12.6436 14.1534 12.6436H13.9826V4.98551C13.9826 4.72373 13.9292 4.47444 13.8325 4.24798L12.9321 4.78001C12.9484 4.84583 12.957 4.91466 12.957 4.98551V12.6436H10.0754V6.46805L9.0498 7.07411V12.6436L7.82854 12.6436V8.88295C7.82854 8.5416 7.72849 8.22363 7.55612 7.95674L6.67131 8.47958C6.75406 8.59266 6.8029 8.7321 6.8029 8.88295V12.6436H5.43538V9.20991L4.40974 9.81597V12.6436H3.04248V10.6239L2.01684 11.23Z" fill="#AFAEAF"/>
<path d="M7.65789 4.78038V5.57353L7.26444 5.80602H4.58096V4.78038H7.65789Z" fill="#AFAEAF"/>
<path d="M10.7346 6.07855V6.1479H12.1021V5.27046L10.7346 6.07855Z" fill="#AFAEAF"/>
<path d="M7.65789 3.75474H4.58096V2.7291H7.65789V3.75474Z" fill="#AFAEAF"/>
<path d="M12.1021 8.88295H10.7346V7.85731H12.1021V8.88295Z" fill="#AFAEAF"/>
<path d="M10.7346 11.618H12.1021V10.5923H10.7346V11.618Z" fill="#AFAEAF"/>
<path d="M13.7215 3.72445C13.9397 3.59462 14.0067 3.3205 13.8712 3.11219C13.7356 2.90387 13.4489 2.84025 13.2307 2.97009L0.944348 10.2808C0.726152 10.4106 0.659152 10.6847 0.7947 10.893C0.930248 11.1013 1.21701 11.165 1.43521 11.0351L13.7215 3.72445Z" fill="#AFAEAF"/>
</svg>
