<svg width="14" height="12" viewBox="0 0 14 12" fill="none" xmlns="http://www.w3.org/2000/svg">
<path fill-rule="evenodd" clip-rule="evenodd" d="M1.09282 0.124476C1.27687 -0.0446724 1.57133 -0.0409664 1.75053 0.132754L13.2233 11.2547C13.4025 11.4284 13.3986 11.7064 13.2145 11.8755C13.0305 12.0447 12.736 12.041 12.5568 11.8672L11.7198 11.0558C11.5276 11.0999 11.3305 11.1221 11.1325 11.122H2.86431C2.18841 11.122 1.54294 10.8612 1.06912 10.4011C0.595732 9.94152 0.332031 9.32073 0.332031 8.67594V3.32398C0.332031 2.45377 0.81246 1.63176 1.56241 1.20902L1.96083 1.59526L2.2437 1.86948C1.69335 2.0697 1.26226 2.64731 1.26226 3.32398V4.89202V5.77007V8.67594C1.26226 9.09572 1.43414 9.4959 1.73609 9.78906C2.03761 10.0818 2.44372 10.2439 2.86431 10.2439H10.8823L6.26093 5.76386C6.23545 5.76794 6.20927 5.77007 6.18257 5.77007H1.26226V4.89202H5.36158L2.2437 1.86948L1.56241 1.20902L1.08405 0.745295C0.904854 0.571575 0.908781 0.293625 1.09282 0.124476ZM4.46637 1.31707C4.46637 1.07461 4.6746 0.878049 4.93148 0.878049H11.133C11.8089 0.878049 12.4544 1.13885 12.9282 1.59887C13.4016 2.05848 13.6653 2.67927 13.6653 3.32406V5.32177C13.6653 5.32485 13.6654 5.32794 13.6654 5.33104C13.6654 5.33414 13.6653 5.33723 13.6653 5.34032V8.17737C13.6653 8.53994 13.6245 8.90149 13.5436 9.25594L13.5308 9.31196C13.4767 9.54899 13.2293 9.69975 12.9782 9.64869C12.7271 9.59763 12.5673 9.36409 12.6214 9.12706L12.6342 9.07104C12.7012 8.77736 12.735 8.47779 12.735 8.17737V5.77007H9.06592C8.80904 5.77007 8.6008 5.57351 8.6008 5.33104C8.6008 5.08858 8.80904 4.89202 9.06592 4.89202H12.735V3.32406C12.735 2.90428 12.5632 2.5041 12.2612 2.21094C11.9597 1.9182 11.5536 1.7561 11.133 1.7561H4.93148C4.6746 1.7561 4.46637 1.55954 4.46637 1.31707ZM2.81263 8.34146C2.81263 8.099 3.02087 7.90244 3.27775 7.90244H3.28395C3.54082 7.90244 3.74906 8.099 3.74906 8.34146C3.74906 8.58393 3.54082 8.78049 3.28395 8.78049H3.27775C3.02087 8.78049 2.81263 8.58393 2.81263 8.34146ZM5.29323 8.34146C5.29323 8.099 5.50147 7.90244 5.75835 7.90244H6.99865C7.25552 7.90244 7.46376 8.099 7.46376 8.34146C7.46376 8.58393 7.25552 8.78049 6.99865 8.78049H5.75835C5.50147 8.78049 5.29323 8.58393 5.29323 8.34146Z" fill="#AFAEAF"/>
</svg>
