<svg width="24" height="24" viewBox="0 0 24 24" fill="none" xmlns="http://www.w3.org/2000/svg">
<circle cx="12" cy="12" r="12" fill="#F3F3F3"/>
<path fill-rule="evenodd" clip-rule="evenodd" d="M12.0002 5.33594C12.2834 5.33594 12.513 5.56554 12.513 5.84876V12.8158L15.0563 10.2725C15.2566 10.0722 15.5813 10.0722 15.7816 10.2725C15.9819 10.4727 15.9819 10.7974 15.7816 10.9977L12.3628 14.4165C12.1625 14.6168 11.8378 14.6168 11.6375 14.4165L8.21874 10.9977C8.01847 10.7974 8.01847 10.4727 8.21874 10.2725C8.41901 10.0722 8.74371 10.0722 8.94398 10.2725L11.4873 12.8158V5.84876C11.4873 5.56554 11.7169 5.33594 12.0002 5.33594ZM5.84632 13.5411C6.12954 13.5411 6.35914 13.7707 6.35914 14.0539V16.7889C6.35914 17.0156 6.44919 17.233 6.60947 17.3933C6.76976 17.5536 6.98716 17.6436 7.21384 17.6436H16.7865C17.0132 17.6436 17.2306 17.5536 17.3909 17.3933C17.5511 17.233 17.6412 17.0156 17.6412 16.7889V14.0539C17.6412 13.7707 17.8708 13.5411 18.154 13.5411C18.4372 13.5411 18.6668 13.7707 18.6668 14.0539V16.7889C18.6668 17.2876 18.4687 17.7659 18.1161 18.1185C17.7635 18.4712 17.2852 18.6693 16.7865 18.6693H7.21384C6.71514 18.6693 6.23687 18.4712 5.88424 18.1185C5.5316 17.7659 5.3335 17.2876 5.3335 16.7889V14.0539C5.3335 13.7707 5.56309 13.5411 5.84632 13.5411Z" fill="#0662B7"/>
</svg>
