<svg width="14" height="14" viewBox="0 0 14 14" fill="none" xmlns="http://www.w3.org/2000/svg">
<path fill-rule="evenodd" clip-rule="evenodd" d="M7.00016 0.332031C7.28339 0.332031 7.51298 0.561629 7.51298 0.844852V7.81192L10.0563 5.26856C10.2566 5.06829 10.5813 5.06829 10.7816 5.26856C10.9819 5.46883 10.9819 5.79353 10.7816 5.9938L7.36278 9.4126C7.16251 9.61287 6.83781 9.61287 6.63754 9.4126L3.21874 5.9938C3.01847 5.79353 3.01847 5.46883 3.21874 5.26856C3.41901 5.06829 3.74371 5.06829 3.94398 5.26856L6.48734 7.81192V0.844852C6.48734 0.561629 6.71694 0.332031 7.00016 0.332031ZM0.846317 8.53716C1.12954 8.53716 1.35914 8.76676 1.35914 9.04998V11.785C1.35914 12.0117 1.44919 12.2291 1.60947 12.3894C1.76976 12.5497 1.98716 12.6397 2.21384 12.6397H11.7865C12.0132 12.6397 12.2306 12.5497 12.3909 12.3894C12.5511 12.2291 12.6412 12.0117 12.6412 11.785V9.04998C12.6412 8.76676 12.8708 8.53716 13.154 8.53716C13.4372 8.53716 13.6668 8.76676 13.6668 9.04998V11.785C13.6668 12.2837 13.4687 12.762 13.1161 13.1146C12.7635 13.4673 12.2852 13.6654 11.7865 13.6654H2.21384C1.71514 13.6654 1.23687 13.4673 0.884235 13.1146C0.531603 12.762 0.333496 12.2837 0.333496 11.785V9.04998C0.333496 8.76676 0.563094 8.53716 0.846317 8.53716Z" fill="#0662B7"/>
</svg>
