<svg width="16" height="20" viewBox="0 0 16 20" fill="none" xmlns="http://www.w3.org/2000/svg">
<path fill-rule="evenodd" clip-rule="evenodd" d="M0.736417 0.749262C1.20794 0.269517 1.84746 0 2.51429 0H9.82857C10.0104 0 10.1848 0.0735048 10.3134 0.204344L15.7992 5.78574C15.9278 5.91658 16 6.09404 16 6.27907V17.4419C16 18.1203 15.7351 18.771 15.2636 19.2507C14.7921 19.7305 14.1525 20 13.4857 20H2.51429C1.84746 20 1.20794 19.7305 0.736417 19.2507C0.264897 18.771 0 18.1203 0 17.4419V2.55814C0 1.87968 0.264897 1.22901 0.736417 0.749262ZM2.51429 1.39535C2.21118 1.39535 1.92049 1.51786 1.70616 1.73592C1.49184 1.95399 1.37143 2.24975 1.37143 2.55814V17.4419C1.37143 17.7503 1.49184 18.046 1.70616 18.2641C1.92049 18.4821 2.21118 18.6047 2.51429 18.6047H13.4857C13.7888 18.6047 14.0795 18.4821 14.2938 18.2641C14.5082 18.046 14.6286 17.7503 14.6286 17.4419V6.97674H9.82857C9.44986 6.97674 9.14286 6.66438 9.14286 6.27907V1.39535H2.51429ZM10.5143 2.38201L13.6588 5.5814H10.5143V2.38201ZM4.57143 12.7907C4.57143 12.4054 4.87843 12.093 5.25714 12.093H10.7429C11.1216 12.093 11.4286 12.4054 11.4286 12.7907C11.4286 13.176 11.1216 13.4884 10.7429 13.4884H5.25714C4.87843 13.4884 4.57143 13.176 4.57143 12.7907Z" fill="white"/>
</svg>
