<svg width="16" height="16" viewBox="0 0 16 16" fill="none" xmlns="http://www.w3.org/2000/svg">
<rect width="16" height="16" fill="#E3E3E3"/>
<path d="M-3169 -2832C-3169 -2833.1 -3168.1 -2834 -3167 -2834H15802C15803.1 -2834 15804 -2833.1 15804 -2832V1886C15804 1887.1 15803.1 1888 15802 1888H-3167C-3168.1 1888 -3169 1887.1 -3169 1886V-2832Z" fill="#E5E5E5"/>
<g clip-path="url(#clip0_829_339332)">
<rect width="1366" height="1665" transform="translate(-920 -1492)" fill="#F0F2F5"/>
<rect x="-664" y="-633" width="1110" height="768" rx="8" fill="white"/>
<g clip-path="url(#clip1_829_339332)">
<rect width="154" height="48" transform="translate(-150 -11)" fill="white"/>
<rect width="154" height="48" transform="translate(4 -11)" fill="white"/>
<path d="M12.882 14.1C12.882 13.3627 12.994 12.686 13.218 12.07C13.4513 11.454 13.7733 10.922 14.184 10.474C14.5947 10.0167 15.08 9.66667 15.64 9.424C16.2 9.172 16.8113 9.046 17.474 9.046C18.2487 9.046 18.9347 9.214 19.532 9.55C20.1387 9.87667 20.6193 10.3293 20.974 10.908L19.812 11.678C19.56 11.2393 19.2287 10.908 18.818 10.684C18.4167 10.46 17.9687 10.348 17.474 10.348C16.8673 10.348 16.326 10.5067 15.85 10.824C15.3833 11.1413 15.0147 11.5847 14.744 12.154C14.4733 12.714 14.338 13.3627 14.338 14.1C14.338 14.8373 14.4687 15.4907 14.73 16.06C15.0007 16.62 15.3693 17.0587 15.836 17.376C16.312 17.6933 16.8533 17.852 17.46 17.852C17.964 17.852 18.4307 17.7353 18.86 17.502C19.2893 17.2687 19.63 16.9373 19.882 16.508L21.044 17.292C20.6987 17.852 20.2133 18.3047 19.588 18.65C18.9627 18.986 18.2533 19.154 17.46 19.154C16.5827 19.154 15.7987 18.9393 15.108 18.51C14.4173 18.0713 13.8713 17.474 13.47 16.718C13.078 15.9527 12.882 15.08 12.882 14.1ZM23.241 19V9.2H24.641V19H23.241ZM27.7467 19V9.2H31.1627C31.7601 9.2 32.2874 9.312 32.7447 9.536C33.2114 9.75067 33.5754 10.054 33.8367 10.446C34.0981 10.838 34.2287 11.2907 34.2287 11.804C34.2287 12.2427 34.1121 12.6393 33.8787 12.994C33.6454 13.3487 33.3327 13.6333 32.9407 13.848C33.4541 14.0533 33.8647 14.3613 34.1727 14.772C34.4807 15.1827 34.6347 15.6633 34.6347 16.214C34.6347 16.746 34.4947 17.222 34.2147 17.642C33.9441 18.062 33.5661 18.3933 33.0807 18.636C32.6047 18.8787 32.0494 19 31.4147 19H27.7467ZM31.0227 10.46H29.1467V13.372H31.0647C31.5781 13.372 31.9934 13.232 32.3107 12.952C32.6281 12.672 32.7867 12.3173 32.7867 11.888C32.7867 11.4587 32.6281 11.1133 32.3107 10.852C32.0027 10.5907 31.5734 10.46 31.0227 10.46ZM31.2747 14.478H29.1467V17.74H31.2327C31.8301 17.74 32.3014 17.5907 32.6467 17.292C32.9921 16.984 33.1647 16.5873 33.1647 16.102C33.1647 15.6353 32.9874 15.248 32.6327 14.94C32.2874 14.632 31.8347 14.478 31.2747 14.478ZM37.0923 19V9.2H38.4923V19H37.0923ZM41.598 19V9.2H42.998V17.726H47.366V19H41.598Z" fill="#151515"/>
</g>
<g clip-path="url(#clip2_829_339332)" filter="url(#filter0_d_829_339332)">
<rect width="160" height="48" transform="translate(-12 -11)" fill="white"/>
<rect width="16" height="16" rx="8" fill="#FAD3D6"/>
<rect x="4" y="4" width="8" height="8" rx="4" fill="#992D26"/>
</g>
</g>
<path d="M-3167 -2833H15802V-2835H-3167V-2833ZM15803 -2832V1886H15805V-2832H15803ZM15802 1887H-3167V1889H15802V1887ZM-3168 1886V-2832H-3170V1886H-3168ZM-3167 1887C-3167.55 1887 -3168 1886.55 -3168 1886H-3170C-3170 1887.66 -3168.66 1889 -3167 1889V1887ZM15803 1886C15803 1886.55 15802.6 1887 15802 1887V1889C15803.7 1889 15805 1887.66 15805 1886H15803ZM15802 -2833C15802.6 -2833 15803 -2832.55 15803 -2832H15805C15805 -2833.66 15803.7 -2835 15802 -2835V-2833ZM-3167 -2835C-3168.66 -2835 -3170 -2833.66 -3170 -2832H-3168C-3168 -2832.55 -3167.55 -2833 -3167 -2833V-2835Z" fill="#BAAAAA"/>
<defs>
<filter id="filter0_d_829_339332" x="-26" y="-499" width="442" height="544" filterUnits="userSpaceOnUse" color-interpolation-filters="sRGB">
<feFlood flood-opacity="0" result="BackgroundImageFix"/>
<feColorMatrix in="SourceAlpha" type="matrix" values="0 0 0 0 0 0 0 0 0 0 0 0 0 0 0 0 0 0 127 0" result="hardAlpha"/>
<feMorphology radius="4" operator="dilate" in="SourceAlpha" result="effect1_dropShadow_829_339332"/>
<feOffset dx="-6"/>
<feGaussianBlur stdDeviation="2"/>
<feColorMatrix type="matrix" values="0 0 0 0 0 0 0 0 0 0 0 0 0 0 0 0 0 0 0.07 0"/>
<feBlend mode="normal" in2="BackgroundImageFix" result="effect1_dropShadow_829_339332"/>
<feBlend mode="normal" in="SourceGraphic" in2="effect1_dropShadow_829_339332" result="shape"/>
</filter>
<clipPath id="clip0_829_339332">
<rect width="1366" height="1665" fill="white" transform="translate(-920 -1492)"/>
</clipPath>
<clipPath id="clip1_829_339332">
<rect width="1046" height="528" fill="white" transform="translate(-632 -491)"/>
</clipPath>
<clipPath id="clip2_829_339332">
<rect width="426" height="528" fill="white" transform="translate(-12 -491)"/>
</clipPath>
</defs>
</svg>
