<svg width="40" height="40" viewBox="0 0 40 40" fill="none" xmlns="http://www.w3.org/2000/svg">
<rect x="0.5" y="0.5" width="39" height="39" rx="19.5" fill="#404040" stroke="#404040"/>
<path fill-rule="evenodd" clip-rule="evenodd" d="M17.9328 11.3953C17.8437 11.3953 17.7583 11.4307 17.6953 11.4937C17.6323 11.5567 17.5969 11.6422 17.5969 11.7313V17.6438L21.5269 21.5739C21.6578 21.7047 21.7313 21.8821 21.7313 22.0672V28.6047H28.6047V11.7313C28.6047 11.6422 28.5693 11.5567 28.5063 11.4937C28.4433 11.4307 28.3578 11.3953 28.2687 11.3953H17.9328ZM20.3359 28.6047V22.3562L16.4062 18.4265C16.406 18.4263 16.4064 18.4267 16.4062 18.4265L15.8656 17.8859L11.3953 22.3562V28.6047H20.3359ZM16.2016 16.2877C16.0995 16.2317 15.9841 16.2016 15.8656 16.2016C15.6806 16.2016 15.5031 16.2751 15.3723 16.4059L10.2043 21.5739C10.0735 21.7047 10 21.8821 10 22.0672V29.3023C10 29.6876 10.3124 30 10.6977 30H29.3023C29.6876 30 30 29.6876 30 29.3023V11.7313C30 11.2721 29.8176 10.8318 29.4929 10.5071C29.1682 10.1824 28.7279 10 28.2687 10H17.9328C17.4737 10 17.0333 10.1824 16.7086 10.5071C16.384 10.8318 16.2016 11.2721 16.2016 11.7313V16.2877ZM21.0338 14.1344C21.4191 14.1344 21.7315 14.4467 21.7315 14.832V14.8424C21.7315 15.2277 21.4191 15.5401 21.0338 15.5401C20.6485 15.5401 20.3361 15.2277 20.3361 14.8424V14.832C20.3361 14.4467 20.6485 14.1344 21.0338 14.1344ZM25.1681 14.1344C25.5534 14.1344 25.8657 14.4467 25.8657 14.832V14.8424C25.8657 15.2277 25.5534 15.5401 25.1681 15.5401C24.7827 15.5401 24.4704 15.2277 24.4704 14.8424V14.832C24.4704 14.4467 24.7827 14.1344 25.1681 14.1344ZM25.1681 18.2687C25.5534 18.2687 25.8657 18.5811 25.8657 18.9664V18.9767C25.8657 19.3621 25.5534 19.6744 25.1681 19.6744C24.7827 19.6744 24.4704 19.3621 24.4704 18.9767V18.9664C24.4704 18.5811 24.7827 18.2687 25.1681 18.2687ZM15.814 21.6279C15.9424 21.6279 16.0465 21.5238 16.0465 21.3953C16.0465 21.2669 15.9424 21.1628 15.814 21.1628C15.6855 21.1628 15.5814 21.2669 15.5814 21.3953C15.5814 21.5238 15.6855 21.6279 15.814 21.6279ZM14.6512 21.3953C14.6512 20.7532 15.1718 20.2326 15.814 20.2326C16.4561 20.2326 16.9767 20.7532 16.9767 21.3953C16.9767 22.0375 16.4561 22.5581 15.814 22.5581C15.1718 22.5581 14.6512 22.0375 14.6512 21.3953ZM25.1681 22.4031C25.5534 22.4031 25.8657 22.7155 25.8657 23.1008V23.1111C25.8657 23.4964 25.5534 23.8088 25.1681 23.8088C24.7827 23.8088 24.4704 23.4964 24.4704 23.1111V23.1008C24.4704 22.7155 24.7827 22.4031 25.1681 22.4031Z" fill="white"/>
</svg>
