<svg width="14" height="14" viewBox="0 0 14 14" fill="none" xmlns="http://www.w3.org/2000/svg">
<path fill-rule="evenodd" clip-rule="evenodd" d="M11.8941 1.26617C11.6707 1.26617 11.4564 1.35493 11.2984 1.51293L5.53351 7.27778L5.13635 8.86641L6.72498 8.46925L12.4898 2.7044C12.6478 2.54641 12.7366 2.33211 12.7366 2.10867C12.7366 1.88522 12.6478 1.67093 12.4898 1.51293C12.3318 1.35493 12.1175 1.26617 11.8941 1.26617ZM10.6406 0.855158C10.973 0.522707 11.4239 0.335938 11.8941 0.335938C12.3643 0.335938 12.8152 0.522707 13.1476 0.855158C13.4801 1.18761 13.6668 1.63851 13.6668 2.10867C13.6668 2.57883 13.4801 3.02973 13.1476 3.36218L7.29166 9.21813C7.23205 9.27773 7.15736 9.32002 7.07558 9.34047L4.60991 9.95688C4.45142 9.99651 4.28375 9.95007 4.16822 9.83454C4.0527 9.71901 4.00625 9.55135 4.04588 9.39285L4.66229 6.92718C4.68274 6.8454 4.72503 6.77071 4.78464 6.7111L10.6406 0.855158ZM0.830814 2.14088C1.14924 1.82245 1.58112 1.64356 2.03144 1.64356H6.34636C6.60323 1.64356 6.81147 1.8518 6.81147 2.10868C6.81147 2.36556 6.60323 2.5738 6.34636 2.5738H2.03144C1.82783 2.5738 1.63256 2.65468 1.48859 2.79865C1.34461 2.94263 1.26373 3.1379 1.26373 3.34151V11.9713C1.26373 12.1749 1.34461 12.3702 1.48859 12.5142C1.63256 12.6582 1.82783 12.739 2.03144 12.739H10.6613C10.8649 12.739 11.0601 12.6582 11.2041 12.5142C11.3481 12.3702 11.429 12.1749 11.429 11.9713V7.65642C11.429 7.39954 11.6372 7.1913 11.8941 7.1913C12.151 7.1913 12.3592 7.39954 12.3592 7.65642V11.9713C12.3592 12.4216 12.1803 12.8535 11.8619 13.172C11.5435 13.4904 11.1116 13.6693 10.6613 13.6693H2.03144C1.58112 13.6693 1.14924 13.4904 0.830814 13.172C0.512387 12.8535 0.333496 12.4216 0.333496 11.9713V3.34151C0.333496 2.89119 0.512387 2.45931 0.830814 2.14088Z" fill="#AFAEAF"/>
</svg>
