<svg width="20" height="20" viewBox="0 0 20 20" fill="none" xmlns="http://www.w3.org/2000/svg">
<path fill-rule="evenodd" clip-rule="evenodd" d="M2.76486 1.39535C2.0085 1.39535 1.39535 2.0085 1.39535 2.76486V17.2351C1.39535 17.9915 2.0085 18.6047 2.76486 18.6047H17.2351C17.9915 18.6047 18.6047 17.9915 18.6047 17.2351V2.76486C18.6047 2.0085 17.9915 1.39535 17.2351 1.39535H2.76486ZM0 2.76486C0 1.23787 1.23787 0 2.76486 0L17.2351 0C18.7621 0 20 1.23787 20 2.76486V17.2351C20 18.7621 18.7621 20 17.2351 20H2.76486C1.23787 20 0 18.7621 0 17.2351L0 2.76486ZM5.5814 10C5.5814 9.61469 5.89375 9.30233 6.27907 9.30233H13.7209C14.1062 9.30233 14.4186 9.61469 14.4186 10C14.4186 10.3853 14.1062 10.6977 13.7209 10.6977H6.27907C5.89375 10.6977 5.5814 10.3853 5.5814 10Z" fill="#0662B7"/>
</svg>
