<svg width="16" height="16" viewBox="0 0 16 16" fill="none" xmlns="http://www.w3.org/2000/svg">
<rect width="16" height="16" fill="#E3E3E3"/>
<path d="M-3169 -2640C-3169 -2641.1 -3168.1 -2642 -3167 -2642H15802C15803.1 -2642 15804 -2641.1 15804 -2640V2078C15804 2079.1 15803.1 2080 15802 2080H-3167C-3168.1 2080 -3169 2079.1 -3169 2078V-2640Z" fill="#E5E5E5"/>
<g clip-path="url(#clip0_829_339332)">
<rect width="1366" height="1665" transform="translate(-920 -1300)" fill="#F0F2F5"/>
<rect x="-664" y="-441" width="1110" height="768" rx="8" fill="white"/>
<g clip-path="url(#clip1_829_339332)">
<rect width="154" height="48" transform="translate(-150 -11)" fill="white"/>
<rect width="154" height="48" transform="translate(4 -11)" fill="white"/>
<path d="M13.54 19V9.2H17.04C17.7027 9.2 18.2907 9.33533 18.804 9.606C19.3173 9.86733 19.7187 10.2407 20.008 10.726C20.2973 11.202 20.442 11.762 20.442 12.406C20.442 13.0407 20.2973 13.596 20.008 14.072C19.7187 14.548 19.3173 14.9167 18.804 15.178C18.2907 15.4393 17.7027 15.57 17.04 15.57H14.94V19H13.54ZM16.9 10.474H14.94V14.352H16.9C17.516 14.352 18.0153 14.1793 18.398 13.834C18.79 13.4793 18.986 13.0033 18.986 12.406C18.986 11.818 18.79 11.3513 18.398 11.006C18.0153 10.6513 17.516 10.474 16.9 10.474ZM21.569 16.998C21.569 16.3353 21.8257 15.7847 22.339 15.346C22.8617 14.9073 23.5803 14.688 24.495 14.688C24.803 14.688 25.0877 14.7067 25.349 14.744C25.6197 14.772 25.8857 14.8233 26.147 14.898V14.744C26.147 13.456 25.5497 12.812 24.355 12.812C24.0657 12.812 23.753 12.8587 23.417 12.952C23.0903 13.036 22.7683 13.1713 22.451 13.358L21.989 12.28C22.3717 12.0653 22.7823 11.8973 23.221 11.776C23.669 11.6453 24.1263 11.58 24.593 11.58C25.4797 11.58 26.1843 11.8367 26.707 12.35C27.2297 12.8633 27.491 13.5633 27.491 14.45V19H26.147V18.02C25.895 18.3747 25.5777 18.6547 25.195 18.86C24.8123 19.056 24.3877 19.154 23.921 19.154C23.4637 19.154 23.0577 19.0653 22.703 18.888C22.3483 18.7013 22.0683 18.4447 21.863 18.118C21.667 17.7913 21.569 17.418 21.569 16.998ZM22.913 16.9C22.913 17.2173 23.0203 17.4833 23.235 17.698C23.4497 17.9033 23.7623 18.006 24.173 18.006C24.5277 18.006 24.8543 17.9267 25.153 17.768C25.4517 17.6093 25.6897 17.39 25.867 17.11C26.0537 16.8207 26.147 16.4893 26.147 16.116V15.878C25.8857 15.822 25.6243 15.78 25.363 15.752C25.111 15.724 24.8403 15.71 24.551 15.71C23.9817 15.71 23.5663 15.8267 23.305 16.06C23.0437 16.2933 22.913 16.5733 22.913 16.9ZM29.2263 21.072L29.4643 19.91C29.5577 19.9473 29.6603 19.9753 29.7723 19.994C29.8843 20.022 29.9963 20.036 30.1083 20.036C30.3417 20.036 30.5423 19.9987 30.7103 19.924C30.8783 19.8493 31.0417 19.6953 31.2003 19.462C31.359 19.2287 31.541 18.874 31.7463 18.398L28.9883 11.748H30.4583L32.4043 16.774L34.4063 11.748H35.8203L32.7823 19.07C32.437 19.91 32.059 20.484 31.6483 20.792C31.2377 21.1 30.7803 21.254 30.2763 21.254C29.8843 21.254 29.5343 21.1933 29.2263 21.072ZM37.4705 19V11.748H38.8145V13.204C39.0012 12.7653 39.3092 12.3873 39.7385 12.07C40.1772 11.7433 40.6672 11.58 41.2085 11.58V12.952C39.6125 13.036 38.8145 13.918 38.8145 15.598V19H37.4705ZM42.2895 15.374C42.2895 14.6273 42.4435 13.9693 42.7515 13.4C43.0595 12.8307 43.4749 12.3873 43.9975 12.07C44.5295 11.7433 45.1222 11.58 45.7755 11.58C46.4382 11.58 47.0309 11.7433 47.5535 12.07C48.0855 12.3873 48.5055 12.8307 48.8135 13.4C49.1215 13.9693 49.2755 14.6273 49.2755 15.374C49.2755 16.1113 49.1215 16.7647 48.8135 17.334C48.5055 17.9033 48.0855 18.3513 47.5535 18.678C47.0309 18.9953 46.4382 19.154 45.7755 19.154C45.1222 19.154 44.5295 18.9953 43.9975 18.678C43.4749 18.3513 43.0595 17.9033 42.7515 17.334C42.4435 16.7647 42.2895 16.1113 42.2895 15.374ZM43.6755 15.374C43.6755 16.186 43.8809 16.816 44.2915 17.264C44.7022 17.7027 45.1969 17.922 45.7755 17.922C46.1675 17.922 46.5222 17.824 46.8395 17.628C47.1569 17.4227 47.4089 17.1333 47.5955 16.76C47.7915 16.3773 47.8895 15.9153 47.8895 15.374C47.8895 14.8327 47.7915 14.3707 47.5955 13.988C47.4089 13.6053 47.1569 13.316 46.8395 13.12C46.5222 12.9147 46.1675 12.812 45.7755 12.812C45.3929 12.812 45.0382 12.9147 44.7115 13.12C44.3942 13.316 44.1422 13.6053 43.9555 13.988C43.7689 14.3707 43.6755 14.8327 43.6755 15.374ZM51.3627 19V8.78H52.7067V19H51.3627ZM55.431 19V8.78H56.775V19H55.431Z" fill="#151515"/>
</g>
<g clip-path="url(#clip2_829_339332)" filter="url(#filter0_d_829_339332)">
<rect width="160" height="48" transform="translate(-12 -11)" fill="white"/>
<rect width="16" height="16" rx="8" fill="#FAD3D6"/>
<rect x="4" y="4" width="8" height="8" rx="4" fill="#EA5560"/>
</g>
</g>
<path d="M-3167 -2641H15802V-2643H-3167V-2641ZM15803 -2640V2078H15805V-2640H15803ZM15802 2079H-3167V2081H15802V2079ZM-3168 2078V-2640H-3170V2078H-3168ZM-3167 2079C-3167.55 2079 -3168 2078.55 -3168 2078H-3170C-3170 2079.66 -3168.66 2081 -3167 2081V2079ZM15803 2078C15803 2078.55 15802.6 2079 15802 2079V2081C15803.7 2081 15805 2079.66 15805 2078H15803ZM15802 -2641C15802.6 -2641 15803 -2640.55 15803 -2640H15805C15805 -2641.66 15803.7 -2643 15802 -2643V-2641ZM-3167 -2643C-3168.66 -2643 -3170 -2641.66 -3170 -2640H-3168C-3168 -2640.55 -3167.55 -2641 -3167 -2641V-2643Z" fill="#BAAAAA"/>
<defs>
<filter id="filter0_d_829_339332" x="-26" y="-307" width="442" height="544" filterUnits="userSpaceOnUse" color-interpolation-filters="sRGB">
<feFlood flood-opacity="0" result="BackgroundImageFix"/>
<feColorMatrix in="SourceAlpha" type="matrix" values="0 0 0 0 0 0 0 0 0 0 0 0 0 0 0 0 0 0 127 0" result="hardAlpha"/>
<feMorphology radius="4" operator="dilate" in="SourceAlpha" result="effect1_dropShadow_829_339332"/>
<feOffset dx="-6"/>
<feGaussianBlur stdDeviation="2"/>
<feColorMatrix type="matrix" values="0 0 0 0 0 0 0 0 0 0 0 0 0 0 0 0 0 0 0.07 0"/>
<feBlend mode="normal" in2="BackgroundImageFix" result="effect1_dropShadow_829_339332"/>
<feBlend mode="normal" in="SourceGraphic" in2="effect1_dropShadow_829_339332" result="shape"/>
</filter>
<clipPath id="clip0_829_339332">
<rect width="1366" height="1665" fill="white" transform="translate(-920 -1300)"/>
</clipPath>
<clipPath id="clip1_829_339332">
<rect width="1046" height="528" fill="white" transform="translate(-632 -299)"/>
</clipPath>
<clipPath id="clip2_829_339332">
<rect width="426" height="528" fill="white" transform="translate(-12 -299)"/>
</clipPath>
</defs>
</svg>
