<svg width="20" height="20" viewBox="0 0 20 20" fill="none" xmlns="http://www.w3.org/2000/svg">
<path fill-rule="evenodd" clip-rule="evenodd" d="M7.93282 1.39535C7.84373 1.39535 7.75828 1.43074 7.69529 1.49374C7.63229 1.55673 7.5969 1.64218 7.5969 1.73127V7.64383L11.5269 11.5739C11.6578 11.7047 11.7313 11.8821 11.7313 12.0672V18.6047H18.6047V1.73127C18.6047 1.64217 18.5693 1.55673 18.5063 1.49374C18.4433 1.43074 18.3578 1.39535 18.2687 1.39535H7.93282ZM10.3359 18.6047V12.3562L6.40622 8.42647C6.406 8.42626 6.40643 8.42669 6.40622 8.42647L5.86563 7.88589L1.39535 12.3562V18.6047H10.3359ZM6.20155 6.28774C6.09952 6.2317 5.98413 6.20155 5.86563 6.20155C5.6806 6.20155 5.50314 6.27506 5.3723 6.40589L0.204344 11.5739C0.0735048 11.7047 0 11.8821 0 12.0672V19.3023C0 19.6876 0.312359 20 0.697674 20H19.3023C19.6876 20 20 19.6876 20 19.3023V1.73127C20 1.27211 19.8176 0.831753 19.4929 0.507076C19.1682 0.1824 18.7279 0 18.2687 0H7.93282C7.47366 0 7.0333 0.182401 6.70863 0.507076C6.38395 0.831751 6.20155 1.27211 6.20155 1.73127V6.28774ZM11.0338 4.13437C11.4191 4.13437 11.7315 4.44673 11.7315 4.83204V4.84238C11.7315 5.22769 11.4191 5.54005 11.0338 5.54005C10.6485 5.54005 10.3361 5.22769 10.3361 4.84238V4.83204C10.3361 4.44673 10.6485 4.13437 11.0338 4.13437ZM15.1681 4.13437C15.5534 4.13437 15.8657 4.44673 15.8657 4.83204V4.84238C15.8657 5.22769 15.5534 5.54005 15.1681 5.54005C14.7827 5.54005 14.4704 5.22769 14.4704 4.84238V4.83204C14.4704 4.44673 14.7827 4.13437 15.1681 4.13437ZM15.1681 8.26873C15.5534 8.26873 15.8657 8.58109 15.8657 8.96641V8.97674C15.8657 9.36206 15.5534 9.67442 15.1681 9.67442C14.7827 9.67442 14.4704 9.36206 14.4704 8.97674V8.96641C14.4704 8.58109 14.7827 8.26873 15.1681 8.26873ZM5.81395 11.6279C5.94239 11.6279 6.04651 11.5238 6.04651 11.3953C6.04651 11.2669 5.94239 11.1628 5.81395 11.1628C5.68552 11.1628 5.5814 11.2669 5.5814 11.3953C5.5814 11.5238 5.68552 11.6279 5.81395 11.6279ZM4.65116 11.3953C4.65116 10.7532 5.17176 10.2326 5.81395 10.2326C6.45615 10.2326 6.97674 10.7532 6.97674 11.3953C6.97674 12.0375 6.45615 12.5581 5.81395 12.5581C5.17176 12.5581 4.65116 12.0375 4.65116 11.3953ZM15.1681 12.4031C15.5534 12.4031 15.8657 12.7155 15.8657 13.1008V13.1111C15.8657 13.4964 15.5534 13.8088 15.1681 13.8088C14.7827 13.8088 14.4704 13.4964 14.4704 13.1111V13.1008C14.4704 12.7155 14.7827 12.4031 15.1681 12.4031Z" fill="white"/>
</svg>
