<svg width="24" height="25" viewBox="0 0 24 25" fill="none" xmlns="http://www.w3.org/2000/svg">
<path d="M0.5 12.5117C0.5 10.6411 0.500271 9.2632 0.574961 8.16851C0.649344 7.07831 0.795863 6.3056 1.0709 5.64159C1.83211 3.80388 3.29216 2.34383 5.12987 1.58262C5.79388 1.30758 6.56659 1.16106 7.65679 1.08668C8.75148 1.01199 10.1294 1.01172 12 1.01172C13.8706 1.01172 15.2485 1.01199 16.3432 1.08668C17.4334 1.16106 18.2061 1.30758 18.8701 1.58262C20.7078 2.34383 22.1679 3.80388 22.9291 5.64159C23.2041 6.3056 23.3507 7.07831 23.425 8.16851C23.4997 9.2632 23.5 10.6411 23.5 12.5117C23.5 14.3823 23.4997 15.7602 23.425 16.8549C23.3507 17.9451 23.2041 18.7178 22.9291 19.3818C22.1679 21.2196 20.7078 22.6796 18.8701 23.4408C18.2061 23.7159 17.4334 23.8624 16.3432 23.9368C15.2485 24.0114 13.8706 24.0117 12 24.0117C10.1294 24.0117 8.75148 24.0114 7.65679 23.9368C6.56659 23.8624 5.79388 23.7159 5.12987 23.4408C3.29216 22.6796 1.83211 21.2196 1.0709 19.3818C0.795863 18.7178 0.649344 17.9451 0.574961 16.8549C0.500271 15.7602 0.5 14.3823 0.5 12.5117Z" fill="white" stroke="#0662B7" stroke-miterlimit="1.5728" stroke-linecap="round" stroke-linejoin="round"/>
<path d="M18 8.51172L9.75 16.5117L6 12.8754" stroke="white" stroke-width="1.5" stroke-linecap="round" stroke-linejoin="round"/>
<path d="M11.8188 17.5117V10.7197L9.92283 11.7997L9.29883 10.6597L12.0588 9.11172H13.2588V17.5117H11.8188Z" fill="#151515"/>
</svg>
