<svg width="16" height="16" viewBox="0 0 16 16" fill="none" xmlns="http://www.w3.org/2000/svg">
<rect width="16" height="16" fill="#E3E3E3"/>
<path d="M-3169 -2448C-3169 -2449.1 -3168.1 -2450 -3167 -2450H15802C15803.1 -2450 15804 -2449.1 15804 -2448V2270C15804 2271.1 15803.1 2272 15802 2272H-3167C-3168.1 2272 -3169 2271.1 -3169 2270V-2448Z" fill="#E5E5E5"/>
<g clip-path="url(#clip0_829_339332)">
<rect width="1366" height="1665" transform="translate(-920 -1108)" fill="#F0F2F5"/>
<rect x="-664" y="-249" width="1110" height="768" rx="8" fill="white"/>
<g clip-path="url(#clip1_829_339332)">
<rect width="154" height="48" transform="translate(-150 -11)" fill="white"/>
<rect width="154" height="48" transform="translate(4 -11)" fill="white"/>
<path d="M12.882 14.1C12.882 13.3627 12.994 12.686 13.218 12.07C13.4513 11.454 13.7733 10.922 14.184 10.474C14.5947 10.0167 15.08 9.66667 15.64 9.424C16.2 9.172 16.8113 9.046 17.474 9.046C18.2487 9.046 18.9347 9.214 19.532 9.55C20.1387 9.87667 20.6193 10.3293 20.974 10.908L19.812 11.678C19.56 11.2393 19.2287 10.908 18.818 10.684C18.4167 10.46 17.9687 10.348 17.474 10.348C16.8673 10.348 16.326 10.5067 15.85 10.824C15.3833 11.1413 15.0147 11.5847 14.744 12.154C14.4733 12.714 14.338 13.3627 14.338 14.1C14.338 14.8373 14.4687 15.4907 14.73 16.06C15.0007 16.62 15.3693 17.0587 15.836 17.376C16.312 17.6933 16.8533 17.852 17.46 17.852C17.964 17.852 18.4307 17.7353 18.86 17.502C19.2893 17.2687 19.63 16.9373 19.882 16.508L21.044 17.292C20.6987 17.852 20.2133 18.3047 19.588 18.65C18.9627 18.986 18.2533 19.154 17.46 19.154C16.5827 19.154 15.7987 18.9393 15.108 18.51C14.4173 18.0713 13.8713 17.474 13.47 16.718C13.078 15.9527 12.882 15.08 12.882 14.1ZM22.485 16.998C22.485 16.3353 22.7417 15.7847 23.255 15.346C23.7777 14.9073 24.4963 14.688 25.411 14.688C25.719 14.688 26.0037 14.7067 26.265 14.744C26.5357 14.772 26.8017 14.8233 27.063 14.898V14.744C27.063 13.456 26.4657 12.812 25.271 12.812C24.9817 12.812 24.669 12.8587 24.333 12.952C24.0063 13.036 23.6843 13.1713 23.367 13.358L22.905 12.28C23.2877 12.0653 23.6983 11.8973 24.137 11.776C24.585 11.6453 25.0423 11.58 25.509 11.58C26.3957 11.58 27.1003 11.8367 27.623 12.35C28.1457 12.8633 28.407 13.5633 28.407 14.45V19H27.063V18.02C26.811 18.3747 26.4937 18.6547 26.111 18.86C25.7283 19.056 25.3037 19.154 24.837 19.154C24.3797 19.154 23.9737 19.0653 23.619 18.888C23.2643 18.7013 22.9843 18.4447 22.779 18.118C22.583 17.7913 22.485 17.418 22.485 16.998ZM23.829 16.9C23.829 17.2173 23.9363 17.4833 24.151 17.698C24.3657 17.9033 24.6783 18.006 25.089 18.006C25.4437 18.006 25.7703 17.9267 26.069 17.768C26.3677 17.6093 26.6057 17.39 26.783 17.11C26.9697 16.8207 27.063 16.4893 27.063 16.116V15.878C26.8017 15.822 26.5403 15.78 26.279 15.752C26.027 15.724 25.7563 15.71 25.467 15.71C24.8977 15.71 24.4823 15.8267 24.221 16.06C23.9597 16.2933 23.829 16.5733 23.829 16.9ZM30.9824 19V11.748H32.3264V13.204C32.513 12.7653 32.821 12.3873 33.2504 12.07C33.689 11.7433 34.179 11.58 34.7204 11.58V12.952C33.1244 13.036 32.3264 13.918 32.3264 15.598V19H30.9824ZM35.8014 15.374C35.8014 14.6273 35.9368 13.9693 36.2074 13.4C36.4874 12.8307 36.8654 12.3873 37.3414 12.07C37.8174 11.7433 38.3494 11.58 38.9374 11.58C39.4134 11.58 39.8474 11.6873 40.2394 11.902C40.6314 12.1167 40.9581 12.4153 41.2194 12.798V8.78H42.5634V19H41.2194V17.95C40.9581 18.3233 40.6314 18.6173 40.2394 18.832C39.8474 19.0467 39.4134 19.154 38.9374 19.154C38.3494 19.154 37.8174 18.9953 37.3414 18.678C36.8654 18.3513 36.4874 17.9033 36.2074 17.334C35.9368 16.7647 35.8014 16.1113 35.8014 15.374ZM37.1874 15.374C37.1874 15.8967 37.2761 16.354 37.4534 16.746C37.6308 17.1287 37.8688 17.4273 38.1674 17.642C38.4754 17.8473 38.8161 17.95 39.1894 17.95C39.7961 17.95 40.3001 17.726 40.7014 17.278C41.1028 16.83 41.3034 16.1953 41.3034 15.374C41.3034 14.5527 41.1028 13.918 40.7014 13.47C40.3001 13.022 39.7961 12.798 39.1894 12.798C38.6294 12.798 38.1534 13.0267 37.7614 13.484C37.3788 13.9413 37.1874 14.5713 37.1874 15.374ZM44.8788 15.668V14.492H49.0088V15.668H44.8788ZM50.6781 15.374C50.6781 14.6273 50.8321 13.9693 51.1401 13.4C51.4481 12.8307 51.8634 12.3873 52.3861 12.07C52.9181 11.7433 53.5107 11.58 54.1641 11.58C54.8267 11.58 55.4194 11.7433 55.9421 12.07C56.4741 12.3873 56.8941 12.8307 57.2021 13.4C57.5101 13.9693 57.6641 14.6273 57.6641 15.374C57.6641 16.1113 57.5101 16.7647 57.2021 17.334C56.8941 17.9033 56.4741 18.3513 55.9421 18.678C55.4194 18.9953 54.8267 19.154 54.1641 19.154C53.5107 19.154 52.9181 18.9953 52.3861 18.678C51.8634 18.3513 51.4481 17.9033 51.1401 17.334C50.8321 16.7647 50.6781 16.1113 50.6781 15.374ZM52.0641 15.374C52.0641 16.186 52.2694 16.816 52.6801 17.264C53.0907 17.7027 53.5854 17.922 54.1641 17.922C54.5561 17.922 54.9107 17.824 55.2281 17.628C55.5454 17.4227 55.7974 17.1333 55.9841 16.76C56.1801 16.3773 56.2781 15.9153 56.2781 15.374C56.2781 14.8327 56.1801 14.3707 55.9841 13.988C55.7974 13.6053 55.5454 13.316 55.2281 13.12C54.9107 12.9147 54.5561 12.812 54.1641 12.812C53.7814 12.812 53.4267 12.9147 53.1001 13.12C52.7827 13.316 52.5307 13.6053 52.3441 13.988C52.1574 14.3707 52.0641 14.8327 52.0641 15.374ZM59.7513 19V11.748H61.0953V12.896C61.2726 12.5227 61.5619 12.21 61.9633 11.958C62.3646 11.706 62.8173 11.58 63.3213 11.58C63.7973 11.58 64.2313 11.7013 64.6233 11.944C65.0153 12.1773 65.3279 12.518 65.5613 12.966C65.8039 13.414 65.9253 13.96 65.9253 14.604V19H64.5813V14.786C64.5813 14.0953 64.4179 13.596 64.0913 13.288C63.7739 12.9707 63.3959 12.812 62.9573 12.812C62.6306 12.812 62.3226 12.9053 62.0333 13.092C61.7533 13.2787 61.5246 13.5447 61.3473 13.89C61.1793 14.226 61.0953 14.6273 61.0953 15.094V19H59.7513ZM68.0892 15.668V14.492H72.2192V15.668H68.0892ZM74.0565 14.1C74.0565 13.3627 74.1685 12.686 74.3925 12.07C74.6259 11.454 74.9479 10.922 75.3585 10.474C75.7692 10.0167 76.2545 9.66667 76.8145 9.424C77.3745 9.172 77.9859 9.046 78.6485 9.046C79.4232 9.046 80.1092 9.214 80.7065 9.55C81.3132 9.87667 81.7939 10.3293 82.1485 10.908L80.9865 11.678C80.7345 11.2393 80.4032 10.908 79.9925 10.684C79.5912 10.46 79.1432 10.348 78.6485 10.348C78.0419 10.348 77.5005 10.5067 77.0245 10.824C76.5579 11.1413 76.1892 11.5847 75.9185 12.154C75.6479 12.714 75.5125 13.3627 75.5125 14.1C75.5125 14.8373 75.6432 15.4907 75.9045 16.06C76.1752 16.62 76.5439 17.0587 77.0105 17.376C77.4865 17.6933 78.0279 17.852 78.6345 17.852C79.1385 17.852 79.6052 17.7353 80.0345 17.502C80.4639 17.2687 80.8045 16.9373 81.0565 16.508L82.2185 17.292C81.8732 17.852 81.3879 18.3047 80.7625 18.65C80.1372 18.986 79.4279 19.154 78.6345 19.154C77.7572 19.154 76.9732 18.9393 76.2825 18.51C75.5919 18.0713 75.0459 17.474 74.6445 16.718C74.2525 15.9527 74.0565 15.08 74.0565 14.1ZM83.6595 16.998C83.6595 16.3353 83.9162 15.7847 84.4295 15.346C84.9522 14.9073 85.6709 14.688 86.5855 14.688C86.8935 14.688 87.1782 14.7067 87.4395 14.744C87.7102 14.772 87.9762 14.8233 88.2375 14.898V14.744C88.2375 13.456 87.6402 12.812 86.4455 12.812C86.1562 12.812 85.8435 12.8587 85.5075 12.952C85.1809 13.036 84.8589 13.1713 84.5415 13.358L84.0795 12.28C84.4622 12.0653 84.8729 11.8973 85.3115 11.776C85.7595 11.6453 86.2169 11.58 86.6835 11.58C87.5702 11.58 88.2749 11.8367 88.7975 12.35C89.3202 12.8633 89.5815 13.5633 89.5815 14.45V19H88.2375V18.02C87.9855 18.3747 87.6682 18.6547 87.2855 18.86C86.9029 19.056 86.4782 19.154 86.0115 19.154C85.5542 19.154 85.1482 19.0653 84.7935 18.888C84.4389 18.7013 84.1589 18.4447 83.9535 18.118C83.7575 17.7913 83.6595 17.418 83.6595 16.998ZM85.0035 16.9C85.0035 17.2173 85.1109 17.4833 85.3255 17.698C85.5402 17.9033 85.8529 18.006 86.2635 18.006C86.6182 18.006 86.9449 17.9267 87.2435 17.768C87.5422 17.6093 87.7802 17.39 87.9575 17.11C88.1442 16.8207 88.2375 16.4893 88.2375 16.116V15.878C87.9762 15.822 87.7149 15.78 87.4535 15.752C87.2015 15.724 86.9309 15.71 86.6415 15.71C86.0722 15.71 85.6569 15.8267 85.3955 16.06C85.1342 16.2933 85.0035 16.5733 85.0035 16.9ZM92.1569 19V11.748H93.5009V13.204C93.6876 12.7653 93.9956 12.3873 94.4249 12.07C94.8636 11.7433 95.3536 11.58 95.8949 11.58V12.952C94.2989 13.036 93.5009 13.918 93.5009 15.598V19H92.1569ZM96.976 15.374C96.976 14.6273 97.1113 13.9693 97.382 13.4C97.662 12.8307 98.04 12.3873 98.516 12.07C98.992 11.7433 99.524 11.58 100.112 11.58C100.588 11.58 101.022 11.6873 101.414 11.902C101.806 12.1167 102.133 12.4153 102.394 12.798V8.78H103.738V19H102.394V17.95C102.133 18.3233 101.806 18.6173 101.414 18.832C101.022 19.0467 100.588 19.154 100.112 19.154C99.524 19.154 98.992 18.9953 98.516 18.678C98.04 18.3513 97.662 17.9033 97.382 17.334C97.1113 16.7647 96.976 16.1113 96.976 15.374ZM98.362 15.374C98.362 15.8967 98.4506 16.354 98.628 16.746C98.8053 17.1287 99.0433 17.4273 99.342 17.642C99.65 17.8473 99.9906 17.95 100.364 17.95C100.971 17.95 101.475 17.726 101.876 17.278C102.277 16.83 102.478 16.1953 102.478 15.374C102.478 14.5527 102.277 13.918 101.876 13.47C101.475 13.022 100.971 12.798 100.364 12.798C99.804 12.798 99.328 13.0267 98.936 13.484C98.5533 13.9413 98.362 14.5713 98.362 15.374Z" fill="#151515"/>
</g>
<g clip-path="url(#clip2_829_339332)" filter="url(#filter0_d_829_339332)">
<rect width="160" height="48" transform="translate(-12 -11)" fill="white"/>
<rect width="16" height="16" rx="8" fill="#D1EBD7"/>
<rect x="4" y="4" width="8" height="8" rx="4" fill="#4FB366"/>
</g>
</g>
<path d="M-3167 -2449H15802V-2451H-3167V-2449ZM15803 -2448V2270H15805V-2448H15803ZM15802 2271H-3167V2273H15802V2271ZM-3168 2270V-2448H-3170V2270H-3168ZM-3167 2271C-3167.55 2271 -3168 2270.55 -3168 2270H-3170C-3170 2271.66 -3168.66 2273 -3167 2273V2271ZM15803 2270C15803 2270.55 15802.6 2271 15802 2271V2273C15803.7 2273 15805 2271.66 15805 2270H15803ZM15802 -2449C15802.6 -2449 15803 -2448.55 15803 -2448H15805C15805 -2449.66 15803.7 -2451 15802 -2451V-2449ZM-3167 -2451C-3168.66 -2451 -3170 -2449.66 -3170 -2448H-3168C-3168 -2448.55 -3167.55 -2449 -3167 -2449V-2451Z" fill="#BAAAAA"/>
<defs>
<filter id="filter0_d_829_339332" x="-26" y="-115" width="442" height="544" filterUnits="userSpaceOnUse" color-interpolation-filters="sRGB">
<feFlood flood-opacity="0" result="BackgroundImageFix"/>
<feColorMatrix in="SourceAlpha" type="matrix" values="0 0 0 0 0 0 0 0 0 0 0 0 0 0 0 0 0 0 127 0" result="hardAlpha"/>
<feMorphology radius="4" operator="dilate" in="SourceAlpha" result="effect1_dropShadow_829_339332"/>
<feOffset dx="-6"/>
<feGaussianBlur stdDeviation="2"/>
<feColorMatrix type="matrix" values="0 0 0 0 0 0 0 0 0 0 0 0 0 0 0 0 0 0 0.07 0"/>
<feBlend mode="normal" in2="BackgroundImageFix" result="effect1_dropShadow_829_339332"/>
<feBlend mode="normal" in="SourceGraphic" in2="effect1_dropShadow_829_339332" result="shape"/>
</filter>
<clipPath id="clip0_829_339332">
<rect width="1366" height="1665" fill="white" transform="translate(-920 -1108)"/>
</clipPath>
<clipPath id="clip1_829_339332">
<rect width="1046" height="528" fill="white" transform="translate(-632 -107)"/>
</clipPath>
<clipPath id="clip2_829_339332">
<rect width="426" height="528" fill="white" transform="translate(-12 -107)"/>
</clipPath>
</defs>
</svg>
