<svg width="18" height="20" viewBox="0 0 18 20" fill="none" xmlns="http://www.w3.org/2000/svg">
<path fill-rule="evenodd" clip-rule="evenodd" d="M8.57496 0.146964C8.82496 -0.0489879 9.17504 -0.0489879 9.42504 0.146964L17.7327 6.65859C17.9014 6.79077 18 6.99401 18 7.2093V17.4419C18 18.1203 17.7326 18.771 17.2565 19.2507C16.7804 19.7305 16.1348 20 15.4615 20H2.53846C1.86522 20 1.21955 19.7305 0.743498 19.2507C0.267444 18.771 0 18.1203 0 17.4419V7.2093C0 6.99401 0.098635 6.79077 0.267272 6.65859L8.57496 0.146964ZM6.92308 18.6047H11.0769V10.6977H6.92308V18.6047ZM12.4615 18.6047V10C12.4615 9.61469 12.1516 9.30233 11.7692 9.30233H6.23077C5.84842 9.30233 5.53846 9.61469 5.53846 10V18.6047H2.53846C2.23244 18.6047 1.93896 18.4821 1.72257 18.2641C1.50618 18.046 1.38462 17.7503 1.38462 17.4419V7.55052L9 1.58153L16.6154 7.55052V17.4419C16.6154 17.7503 16.4938 18.046 16.2774 18.2641C16.061 18.4821 15.7676 18.6047 15.4615 18.6047H12.4615Z" fill="#999B9C"/>
</svg>
