<svg width="40" height="40" viewBox="0 0 40 40" fill="none" xmlns="http://www.w3.org/2000/svg">
<rect x="0.5" y="0.5" width="39" height="39" rx="19.5" fill="white" stroke="#404040"/>
<path fill-rule="evenodd" clip-rule="evenodd" d="M18.7322 10.3407C19.1178 10.1175 19.555 10 20 10C20.445 10 20.8822 10.1175 21.2677 10.3406C21.2682 10.3409 21.2687 10.3412 21.2692 10.3415L27.7308 14.049C28.0497 14.2338 28.3239 14.4857 28.5352 14.7862C28.5822 14.831 28.6236 14.8833 28.6577 14.9425C28.6875 14.9942 28.7099 15.0481 28.7253 15.1031C28.9052 15.4591 28.9996 15.8533 29 16.2538V23.6695C28.9995 24.1164 28.882 24.5562 28.6593 24.9431C28.4365 25.3301 28.1163 25.6515 27.7308 25.875L27.7281 25.8765L21.2692 29.5825C21.2687 29.5827 21.2683 29.583 21.2678 29.5833C20.9873 29.7457 20.6795 29.8521 20.3612 29.898C20.256 29.9627 20.1324 30 20 30C19.8676 30 19.744 29.9627 19.6388 29.898C19.3205 29.8521 19.0127 29.7456 18.7322 29.5833C18.7317 29.583 18.7312 29.5827 18.7308 29.5825L12.2719 25.8765L12.2692 25.875C11.8837 25.6515 11.5635 25.3301 11.3407 24.9431C11.118 24.5562 11.0005 24.1172 11 23.6702L11 16.2545C11.0004 15.854 11.0948 15.4591 11.2747 15.1031C11.2901 15.0481 11.3125 14.9942 11.3423 14.9425C11.3764 14.8833 11.4178 14.831 11.4648 14.7862C11.6761 14.4857 11.9503 14.2338 12.2692 14.049L12.2719 14.0474L18.7322 10.3407ZM12.3846 16.351V23.6691C12.3849 23.8721 12.4383 24.0716 12.5395 24.2474C12.6405 24.4229 12.7856 24.5687 12.9603 24.6702C12.9607 24.6705 12.9611 24.6707 12.9615 24.6709L19.3077 28.3122V20.3722L12.3846 16.351ZM20.6923 20.3722V28.3122L27.0385 24.6709C27.0389 24.6707 27.0393 24.6705 27.0397 24.6702C27.2144 24.5687 27.3595 24.4229 27.4605 24.2474C27.5618 24.0715 27.6152 23.8719 27.6154 23.6687V16.351L20.6923 20.3722ZM26.8885 15.167L20.5769 11.5455C20.4015 11.4438 20.2025 11.3903 20 11.3903C19.7975 11.3903 19.5985 11.4438 19.4231 11.5455L19.4204 11.5471L13.1115 15.167L20 19.1682L26.8885 15.167Z" fill="#404040"/>
</svg>
