<svg width="18" height="20" viewBox="0 0 18 20" fill="none" xmlns="http://www.w3.org/2000/svg">
<path fill-rule="evenodd" clip-rule="evenodd" d="M7.73221 0.340656C8.11775 0.117483 8.55496 0 9 0C9.44502 0 9.88221 0.117473 10.2677 0.340627C10.2682 0.340913 10.2687 0.3412 10.2692 0.341488L16.7308 4.04897C17.0497 4.23384 17.3239 4.48567 17.5352 4.78621C17.5822 4.83103 17.6236 4.88327 17.6577 4.94246C17.6875 4.99417 17.7099 5.04814 17.7253 5.10313C17.9052 5.45915 17.9996 5.85326 18 6.25377V13.6695C17.9995 14.1164 17.882 14.5562 17.6593 14.9431C17.4365 15.3301 17.1163 15.6515 16.7308 15.875L16.7281 15.8765L10.2692 19.5825C10.2687 19.5827 10.2683 19.583 10.2678 19.5833C9.98728 19.7457 9.67946 19.8521 9.36117 19.898C9.25602 19.9627 9.13235 20 9 20C8.86765 20 8.74398 19.9627 8.63883 19.898C8.32052 19.8521 8.01268 19.7456 7.73219 19.5833C7.73172 19.583 7.73124 19.5827 7.73077 19.5825L1.2719 15.8765L1.26923 15.875C0.883718 15.6515 0.563514 15.3301 0.34074 14.9431C0.117966 14.5562 0.000456938 14.1172 3.85138e-07 13.6702L0 6.25449C0.000409071 5.85397 0.0948001 5.45915 0.274692 5.10313C0.290061 5.04814 0.312479 4.99417 0.342272 4.94246C0.376368 4.88327 0.417824 4.83103 0.464807 4.78621C0.676143 4.48567 0.950345 4.23384 1.26923 4.04898L1.2719 4.04743L7.73221 0.340656ZM1.38462 6.35098V13.6691C1.38488 13.8721 1.43829 14.0716 1.5395 14.2474C1.64053 14.4229 1.78565 14.5687 1.96035 14.6702C1.96075 14.6705 1.96114 14.6707 1.96154 14.6709L8.30769 18.3122V10.3722L1.38462 6.35098ZM9.69231 10.3722V18.3122L16.0385 14.6709C16.0389 14.6707 16.0393 14.6705 16.0397 14.6702C16.2144 14.5687 16.3595 14.4229 16.4605 14.2474C16.5618 14.0715 16.6152 13.8719 16.6154 13.6688V6.35098L9.69231 10.3722ZM15.8885 5.167L9.57692 1.54554C9.40151 1.44385 9.20254 1.39031 9 1.39031C8.79746 1.39031 8.59848 1.44384 8.42308 1.54553L8.4204 1.54707L2.11147 5.167L9 9.16816L15.8885 5.167Z" fill="#999B9C"/>
</svg>
