<svg width="20" height="16" viewBox="0 0 20 16" fill="none" xmlns="http://www.w3.org/2000/svg">
<path fill-rule="evenodd" clip-rule="evenodd" d="M2.76486 1.37142C2.40808 1.37142 2.06181 1.51452 1.80337 1.77579C1.54427 2.03772 1.39535 2.39698 1.39535 2.7755V5.31425C1.87144 5.43888 2.30891 5.68972 2.65962 6.04427C3.17587 6.56616 3.46253 7.26999 3.46253 7.99996C3.46253 8.72994 3.17587 9.43377 2.65962 9.95566C2.30891 10.3102 1.87144 10.561 1.39535 10.6857V13.2244C1.39535 13.603 1.54427 13.9622 1.80337 14.2241C2.06181 14.4854 2.40808 14.6285 2.76486 14.6285H14.8839V13.2245C14.8839 12.8458 15.1962 12.5388 15.5815 12.5388C15.9669 12.5388 16.2792 12.8458 16.2792 13.2245V14.6285H17.2351C17.5919 14.6285 17.9382 14.4854 18.1966 14.2241C18.4557 13.9622 18.6047 13.603 18.6047 13.2244V10.6857C18.1286 10.561 17.6911 10.3102 17.3404 9.95566C16.8241 9.43377 16.5375 8.72994 16.5375 7.99996C16.5375 7.26999 16.8241 6.56616 17.3404 6.04427C17.6911 5.68972 18.1286 5.43888 18.6047 5.31425V2.7755C18.6047 2.39698 18.4557 2.03772 18.1966 1.77579C17.9382 1.51452 17.5919 1.37142 17.2351 1.37142H16.2791V2.7755C16.2791 3.15421 15.9667 3.46121 15.5814 3.46121C15.1961 3.46121 14.8837 3.15421 14.8837 2.7755V1.37142H2.76486ZM2.76486 0C2.02513 0 1.31981 0.29725 0.802909 0.819801C0.286659 1.3417 0 2.04553 0 2.7755V5.91018C0 6.28889 0.312359 6.59589 0.697674 6.59589C1.05445 6.59589 1.40072 6.73899 1.65917 7.00026C1.91826 7.26219 2.06718 7.62145 2.06718 7.99996C2.06718 8.37848 1.91826 8.73775 1.65917 8.99967C1.40072 9.26094 1.05445 9.40404 0.697674 9.40404C0.312359 9.40404 0 9.71104 0 10.0898V13.2244C0 13.9544 0.286659 14.6582 0.802909 15.1801C1.31981 15.7027 2.02513 15.9999 2.76486 15.9999H15.5715C15.5748 16 15.5782 16 15.5815 16C15.5849 16 15.5882 16 15.5916 15.9999H17.2351C17.9749 15.9999 18.6802 15.7027 19.1971 15.1801C19.7133 14.6582 20 13.9544 20 13.2244V10.0898C20 9.71104 19.6876 9.40404 19.3023 9.40404C18.9456 9.40404 18.5993 9.26094 18.3408 8.99967C18.0817 8.73775 17.9328 8.37848 17.9328 7.99996C17.9328 7.62145 18.0817 7.26219 18.3408 7.00026C18.5993 6.73899 18.9456 6.59589 19.3023 6.59589C19.6876 6.59589 20 6.28889 20 5.91018V2.7755C20 2.04553 19.7133 1.3417 19.1971 0.819801C18.6802 0.29725 17.9749 0 17.2351 0H2.76486ZM15.5815 6.26939C15.9669 6.26939 16.2792 6.5764 16.2792 6.9551V9.04489C16.2792 9.4236 15.9669 9.73061 15.5815 9.73061C15.1962 9.73061 14.8839 9.4236 14.8839 9.04489V6.9551C14.8839 6.5764 15.1962 6.26939 15.5815 6.26939Z" fill="#E6E7E7"/>
<path fill-rule="evenodd" clip-rule="evenodd" d="M9.06977 4.91471C9.04454 4.91471 9.02034 4.92456 9.0025 4.9421C8.98465 4.95963 8.97463 4.98342 8.97463 5.00822V5.06702C8.97374 5.28544 8.90789 5.49884 8.78518 5.68095C8.66247 5.86306 8.48827 6.00594 8.284 6.09198C8.24318 6.10918 8.2006 6.12167 8.1571 6.1293C7.97778 6.187 7.78607 6.20022 7.59925 6.16692C7.37521 6.127 7.16848 6.02202 7.00571 5.86554L7.00113 5.86113L6.98086 5.84116C6.97202 5.83246 6.9613 5.82534 6.94975 5.82064C6.9382 5.81593 6.92582 5.81351 6.91332 5.81351C6.90082 5.81351 6.88844 5.81593 6.87689 5.82064C6.86534 5.82534 6.85485 5.83224 6.84601 5.84093C6.83716 5.84962 6.82969 5.86038 6.8249 5.87173C6.82011 5.88308 6.81765 5.89525 6.81765 5.90754C6.81765 5.91983 6.82011 5.93199 6.8249 5.94335C6.82969 5.9547 6.83671 5.96501 6.84555 5.97369L6.87061 5.99832C7.02983 6.1583 7.13661 6.36151 7.17723 6.5817C7.21676 6.79597 7.19185 7.01679 7.10577 7.21716C7.0257 7.42094 6.88668 7.59739 6.70568 7.72463C6.5197 7.85537 6.298 7.92809 6.06941 7.93335L6.05581 7.93351H6.02537C6.00014 7.93351 5.97594 7.94336 5.9581 7.96089C5.94026 7.97843 5.93023 8.00221 5.93023 8.02701C5.93023 8.05181 5.94026 8.07559 5.9581 8.09313C5.97594 8.11066 6.00014 8.12052 6.02537 8.12052H6.08519C6.30743 8.12139 6.52455 8.18611 6.70984 8.30672C6.89428 8.42677 7.03916 8.59697 7.12683 8.79655C7.21774 9.00053 7.24472 9.22655 7.20429 9.44572C7.16367 9.66591 7.05686 9.8691 6.89765 10.0291L6.89316 10.0336L6.87284 10.0535C6.86399 10.0622 6.85675 10.0727 6.85196 10.0841C6.84718 10.0954 6.84471 10.1076 6.84471 10.1199C6.84471 10.1322 6.84718 10.1443 6.85196 10.1557C6.85675 10.167 6.86377 10.1774 6.87261 10.186C6.88145 10.1947 6.8924 10.2021 6.90395 10.2068C6.9155 10.2115 6.92788 10.2139 6.94038 10.2139C6.95288 10.2139 6.96526 10.2115 6.97681 10.2068C6.98836 10.2021 6.99886 10.1952 7.00769 10.1865L7.03275 10.1619C7.19552 10.0054 7.40227 9.90043 7.62631 9.8605C7.84432 9.82165 8.06898 9.84613 8.27285 9.93073C8.48019 10.0094 8.65972 10.1461 8.78917 10.324C8.92219 10.5068 8.99619 10.7246 9.00153 10.9493L9.00169 10.9627V10.9926C9.00169 11.0174 9.01171 11.0412 9.02956 11.0587C9.0474 11.0763 9.0716 11.0861 9.09683 11.0861C9.12206 11.0861 9.14626 11.0763 9.1641 11.0587C9.18194 11.0412 9.19197 11.0174 9.19197 10.9926V10.9338C9.19285 10.7154 9.25871 10.502 9.38142 10.3199C9.50356 10.1386 9.67674 9.9962 9.87979 9.91003C10.0873 9.82068 10.3173 9.79417 10.5403 9.83391C10.7643 9.87383 10.9711 9.9788 11.1338 10.1353L11.1384 10.1397L11.1587 10.1597C11.1675 10.1684 11.1782 10.1755 11.1898 10.1802C11.2013 10.1849 11.2137 10.1873 11.2262 10.1873C11.2387 10.1873 11.2511 10.1849 11.2626 10.1802C11.2742 10.1755 11.2847 10.1686 11.2935 10.1599C11.3024 10.1512 11.3098 10.1404 11.3146 10.1291C11.3194 10.1177 11.3219 10.1056 11.3219 10.0933C11.3219 10.081 11.3194 10.0688 11.3146 10.0575C11.3098 10.0461 11.3028 10.0358 11.294 10.0271L11.2689 10.0025C11.1097 9.84253 11.0029 9.63932 10.9623 9.41912C10.9219 9.19993 10.9489 8.97389 11.0398 8.76989C11.1275 8.57034 11.2723 8.40016 11.4568 8.28012C11.642 8.15952 11.8592 8.0948 12.0814 8.09392L12.0837 8.09391L12.1142 8.09392C12.1394 8.09392 12.1636 8.08407 12.1814 8.06653C12.1993 8.049 12.2093 8.02521 12.2093 8.00041C12.2093 7.97561 12.1993 7.95183 12.1814 7.93429C12.1636 7.91676 12.1394 7.90691 12.1142 7.90691H12.0543C11.8321 7.90604 11.615 7.84131 11.4297 7.72071C11.2444 7.6001 11.099 7.42888 11.0115 7.22812C10.994 7.188 10.9813 7.14615 10.9735 7.10339C10.9148 6.92715 10.9014 6.73872 10.9352 6.55511C10.9759 6.33491 11.0827 6.13173 11.2419 5.97175L11.2464 5.96725L11.2667 5.94733C11.2755 5.93864 11.2828 5.9281 11.2876 5.91675C11.2924 5.9054 11.2948 5.89323 11.2948 5.88094C11.2948 5.86865 11.2924 5.85649 11.2876 5.84513C11.2828 5.83378 11.2758 5.82347 11.2669 5.81479C11.2581 5.80609 11.2471 5.79875 11.2356 5.79404C11.224 5.78933 11.2117 5.78691 11.1992 5.78691C11.1867 5.78691 11.1743 5.78933 11.1627 5.79404C11.1512 5.79875 11.1407 5.80564 11.1318 5.81434L11.1068 5.83897C10.944 5.99545 10.7373 6.1004 10.5132 6.14032C10.2902 6.18007 10.0602 6.15354 9.85269 6.06418C9.64965 5.97801 9.47649 5.83562 9.35435 5.65436C9.23165 5.47225 9.1658 5.25884 9.16491 5.04042L9.16491 5.03814V5.00822C9.16491 4.98342 9.15488 4.95964 9.13704 4.9421C9.1192 4.92456 9.095 4.91471 9.06977 4.91471ZM8.18028 4.13398C8.41619 3.90212 8.73614 3.77186 9.06977 3.77186C9.40339 3.77186 9.72335 3.90212 9.95926 4.13398C10.1905 4.3613 10.3225 4.66802 10.3275 4.98896C10.4404 4.88232 10.5727 4.79729 10.7174 4.7383C10.8702 4.67608 11.0338 4.64406 11.1992 4.64406C11.3645 4.64406 11.5282 4.67608 11.6809 4.7383C11.8335 4.80048 11.9721 4.8916 12.0889 5.00644C12.2058 5.12122 12.2985 5.25749 12.3617 5.40749C12.425 5.55758 12.4576 5.71846 12.4576 5.88094C12.4576 6.04342 12.425 6.2043 12.3617 6.35439C12.2985 6.50439 12.2058 6.64066 12.0889 6.75544L12.0841 6.76021L12.0856 6.76405H12.1142C12.4478 6.76405 12.7677 6.89431 13.0037 7.12618C13.2396 7.35804 13.3721 7.67251 13.3721 8.00041C13.3721 8.32831 13.2396 8.64279 13.0037 8.87465C12.7724 9.10197 12.4603 9.23163 12.1338 9.23662C12.2423 9.34759 12.3288 9.47754 12.3888 9.61984C12.4521 9.76993 12.4847 9.93081 12.4847 10.0933C12.4847 10.2558 12.4521 10.4166 12.3888 10.5667C12.3255 10.7167 12.2328 10.853 12.116 10.9678C11.9992 11.0826 11.8605 11.1737 11.7079 11.2359C11.5552 11.2981 11.3915 11.3302 11.2262 11.3302C11.0609 11.3302 10.8972 11.2981 10.7445 11.2359C10.5998 11.177 10.4676 11.092 10.3548 10.9854V10.9926C10.3548 11.3205 10.2222 11.635 9.98632 11.8668C9.75041 12.0987 9.43045 12.229 9.09683 12.229C8.76321 12.229 8.44325 12.0987 8.20734 11.8668C7.97143 11.635 7.8389 11.3205 7.8389 10.9926V10.9912L7.83499 10.9896L7.83037 10.9942C7.71358 11.109 7.5747 11.2003 7.42209 11.2625C7.26938 11.3247 7.10569 11.3568 6.94038 11.3568C6.77507 11.3568 6.61138 11.3247 6.45867 11.2625C6.30606 11.2003 6.16741 11.1092 6.05063 10.9944C5.93377 10.8796 5.84107 10.7433 5.77781 10.5933C5.7145 10.4432 5.68192 10.2824 5.68192 10.1199C5.68192 9.95741 5.7145 9.79653 5.77781 9.64643C5.8378 9.5042 5.92426 9.3743 6.03269 9.26337H6.02537C5.69175 9.26337 5.37179 9.13311 5.13588 8.90125C4.89997 8.66939 4.76744 8.35491 4.76744 8.02701C4.76744 7.69911 4.89997 7.38464 5.13588 7.15277C5.37179 6.92091 5.69175 6.79065 6.02537 6.79065H6.02684L6.02842 6.78681L6.02379 6.78226C5.90694 6.66748 5.81401 6.53098 5.75075 6.38099C5.68744 6.2309 5.65486 6.07001 5.65486 5.90754C5.65486 5.74506 5.68744 5.58418 5.75075 5.43409C5.81401 5.28409 5.90671 5.14782 6.02356 5.03304C6.14034 4.91819 6.279 4.82708 6.43161 4.7649C6.58432 4.70268 6.74801 4.67066 6.91332 4.67066C7.07863 4.67066 7.24232 4.70268 7.39503 4.7649C7.54764 4.82708 7.6863 4.91819 7.80308 5.03304L7.80793 5.03781L7.81184 5.03626V5.00822C7.81184 4.68032 7.94437 4.36584 8.18028 4.13398ZM9.06977 7.65756C8.87711 7.65756 8.72093 7.81106 8.72093 8.00041C8.72093 8.18977 8.87711 8.34327 9.06977 8.34327C9.26243 8.34327 9.4186 8.18977 9.4186 8.00041C9.4186 7.81106 9.26243 7.65756 9.06977 7.65756ZM7.55814 8.00041C7.55814 7.17988 8.23492 6.51471 9.06977 6.51471C9.90462 6.51471 10.5814 7.17988 10.5814 8.00041C10.5814 8.82095 9.90462 9.48612 9.06977 9.48612C8.23492 9.48612 7.55814 8.82095 7.55814 8.00041Z" fill="#E6E7E7"/>
</svg>
