<svg width="24" height="24" viewBox="0 0 24 24" fill="none" xmlns="http://www.w3.org/2000/svg">
<path fill-rule="evenodd" clip-rule="evenodd" d="M10.5689 2.41052C10.6818 2.16062 10.9306 2 11.2048 2C12.1383 2 13.0358 2.36486 13.6993 3.01779C14.3631 3.6711 14.7381 4.55957 14.7381 5.48837V8.51163H19.3869C19.7589 8.50808 20.1276 8.58385 20.4678 8.7341C20.8093 8.88494 21.1143 9.10744 21.3612 9.38689C21.6082 9.66639 21.7911 9.99612 21.8965 10.3535C22.002 10.711 22.0272 11.0869 21.9704 11.4552L21.9703 11.4562L20.666 19.8272C20.666 19.8272 20.666 19.8271 20.666 19.8272C20.5716 20.44 20.2556 20.9964 19.7794 21.3947C19.3046 21.7919 18.702 22.0059 18.0824 22H4.58814C3.90529 22 3.2482 21.7332 2.76201 21.2547C2.27543 20.7758 2 20.124 2 19.4419V12.9302C2 12.2481 2.27543 11.5963 2.76201 11.1174C3.2482 10.6389 3.90529 10.3721 4.58814 10.3721H6.97339L10.5689 2.41052ZM8.1215 11.22L11.6358 3.43831C12.0448 3.52075 12.4228 3.7193 12.7205 4.01231C13.1203 4.40572 13.3428 4.9369 13.3428 5.48837V9.2093C13.3428 9.59462 13.6551 9.90698 14.0404 9.90698H19.3905L19.3982 9.90693C19.5728 9.90499 19.7455 9.94045 19.9041 10.0105C20.0626 10.0805 20.2029 10.1832 20.3156 10.3108C20.4283 10.4384 20.5108 10.5877 20.5582 10.7483C20.6056 10.9089 20.6168 11.0773 20.5914 11.2423C20.5914 11.2422 20.5914 11.2424 20.5914 11.2423L19.2871 19.6135L19.287 19.6147C19.2447 19.889 19.1027 20.1415 18.8841 20.3244C18.6652 20.5075 18.3846 20.6079 18.0938 20.6047L8.1215 20.6047V11.22ZM6.72616 20.6047V11.7674H4.58814C4.26822 11.7674 3.96361 11.8926 3.74075 12.1119C3.51826 12.3309 3.39535 12.6255 3.39535 12.9302V19.4419C3.39535 19.7466 3.51826 20.0412 3.74075 20.2602C3.96361 20.4795 4.26822 20.6047 4.58814 20.6047H6.72616Z" fill="#32A64D"/>
</svg>
