<svg width="24" height="24" viewBox="0 0 24 24" fill="none" xmlns="http://www.w3.org/2000/svg">
<path fill-rule="evenodd" clip-rule="evenodd" d="M10.7742 3.33081C11.1466 3.11462 11.5689 3 12 3C12.4311 3 12.8534 3.11462 13.2258 3.33081C13.5981 3.54687 13.907 3.85634 14.125 4.22687L14.1269 4.23013L21.6736 17.2178C21.8869 17.5986 21.9988 18.0286 22 18.4651C22.0012 18.9015 21.8916 19.3321 21.6803 19.7141C21.469 20.0963 21.1624 20.4181 20.7886 20.6449C20.4145 20.8718 19.9871 20.9949 19.5492 20.9999L19.5412 21L4.45082 21C4.01288 20.995 3.58551 20.8718 3.21143 20.6449C2.83756 20.4181 2.53102 20.0963 2.31968 19.7141C2.10843 19.3321 1.99882 18.9015 2.00001 18.4651C2.00119 18.0286 2.11314 17.5987 2.3265 17.2178L2.33183 17.2083L9.87501 4.22686C10.093 3.85634 10.4019 3.54687 10.7742 3.33081ZM12 4.38461C11.819 4.38461 11.6395 4.43262 11.4786 4.52599C11.318 4.61923 11.1802 4.7553 11.0808 4.92362C11.0806 4.92409 11.0803 4.92456 11.08 4.92503L3.54376 17.8947C3.44766 18.0679 3.3959 18.2659 3.39535 18.4688C3.3948 18.6734 3.4463 18.8732 3.543 19.0481C3.63961 19.2228 3.7771 19.3652 3.93919 19.4635C4.10003 19.5611 4.28057 19.6126 4.46325 19.6153H19.5367C19.7194 19.6126 19.9 19.5611 20.0608 19.4635C20.2229 19.3652 20.3604 19.2228 20.457 19.0481C20.5537 18.8732 20.6052 18.6734 20.6046 18.4688C20.6041 18.2658 20.5523 18.0679 20.4562 17.8947L12.92 4.92503C12.9197 4.92456 12.9194 4.92409 12.9192 4.92362C12.8198 4.7553 12.682 4.61923 12.5214 4.52599C12.3605 4.43262 12.181 4.38461 12 4.38461ZM12 8.53845C12.3853 8.53845 12.6977 8.8484 12.6977 9.23075V12.9231C12.6977 13.3054 12.3853 13.6154 12 13.6154C11.6147 13.6154 11.3023 13.3054 11.3023 12.9231V9.23075C11.3023 8.8484 11.6147 8.53845 12 8.53845ZM11.3023 16.6154C11.3023 16.233 11.6147 15.923 12 15.923H12.0093C12.3946 15.923 12.707 16.233 12.707 16.6154C12.707 16.9977 12.3946 17.3077 12.0093 17.3077H12C11.6147 17.3077 11.3023 16.9977 11.3023 16.6154Z" fill="#E4AC04"/>
</svg>
