<svg width="24" height="24" viewBox="0 0 24 24" fill="none" xmlns="http://www.w3.org/2000/svg">
<path fill-rule="evenodd" clip-rule="evenodd" d="M13.4311 21.5895C13.3182 21.8394 13.0694 22 12.7952 22C11.8617 22 10.9642 21.6351 10.3007 20.9822C9.6369 20.3289 9.26188 19.4404 9.26188 18.5116V15.4884H4.61312C4.24109 15.4919 3.87237 15.4162 3.53218 15.2659C3.19068 15.1151 2.88568 14.8926 2.63876 14.6131C2.39181 14.3336 2.20891 14.0039 2.10347 13.6465C1.99803 13.289 1.97276 12.9131 2.02956 12.5448L2.02972 12.5438L3.33396 4.17282C3.33397 4.17277 3.33396 4.17286 3.33396 4.17282C3.42843 3.55996 3.74445 3.00363 4.22059 2.60533C4.69545 2.2081 5.29804 1.99408 5.91761 2H19.4119C20.0947 2 20.7518 2.26685 21.238 2.74533C21.7246 3.22418 22 3.87604 22 4.55814V11.0698C22 11.7519 21.7246 12.4037 21.238 12.8826C20.7518 13.3611 20.0947 13.6279 19.4119 13.6279H17.0266L13.4311 21.5895ZM15.8785 12.78L12.3642 20.5617C11.9552 20.4793 11.5772 20.2807 11.2795 19.9877C10.8797 19.5943 10.6572 19.0631 10.6572 18.5116V14.7907C10.6572 14.4054 10.3449 14.093 9.95955 14.093H4.60954L4.60177 14.0931C4.42715 14.095 4.25452 14.0596 4.09595 13.9895C3.9374 13.9195 3.79713 13.8168 3.68441 13.6892C3.57171 13.5616 3.48918 13.4123 3.4418 13.2517C3.39445 13.0911 3.38316 12.9227 3.40858 12.7577C3.40857 12.7578 3.40858 12.7576 3.40858 12.7577L4.71286 4.38647L4.71303 4.38532C4.75531 4.11096 4.89726 3.85847 5.11588 3.67559C5.33477 3.49249 5.61539 3.39207 5.9062 3.3953L15.8785 3.39535V12.78ZM17.2738 3.39535V12.2326H19.4119C19.7318 12.2326 20.0364 12.1074 20.2593 11.8881C20.4817 11.6691 20.6047 11.3745 20.6047 11.0698V4.55814C20.6047 4.25338 20.4817 3.95881 20.2593 3.73985C20.0364 3.52052 19.7318 3.39535 19.4119 3.39535H17.2738Z" fill="#E63946"/>
</svg>
