<svg width="24" height="24" viewBox="0 0 24 24" fill="none" xmlns="http://www.w3.org/2000/svg">
<circle cx="12" cy="12" r="12" fill="#F3F3F3"/>
<path fill-rule="evenodd" clip-rule="evenodd" d="M6.29583 8.21559L12.0002 12.3855L17.7045 8.21559C17.6088 7.88171 17.3105 7.63549 16.9614 7.63549H7.03892C6.68981 7.63549 6.39149 7.88171 6.29583 8.21559ZM17.7366 9.3779L12.2669 13.3763C12.1067 13.4933 11.8936 13.4933 11.7334 13.3763L6.26373 9.3779V16.2164C6.26373 16.6606 6.61363 17.026 7.03892 17.026H16.9614C17.3867 17.026 17.7366 16.6606 17.7366 16.2164V9.3779ZM5.3335 8.44501C5.3335 7.46438 6.09988 6.66406 7.03892 6.66406H16.9614C17.9005 6.66406 18.6668 7.46438 18.6668 8.44501V16.2164C18.6668 17.1971 17.9005 17.9974 16.9614 17.9974H7.03892C6.09988 17.9974 5.3335 17.1971 5.3335 16.2164V8.44501Z" fill="#0662B7"/>
</svg>
