<svg width="14" height="12" viewBox="0 0 14 12" fill="none" xmlns="http://www.w3.org/2000/svg">
<path fill-rule="evenodd" clip-rule="evenodd" d="M1.29583 2.2195L7.00016 6.38936L12.7045 2.2195C12.6088 1.88562 12.3105 1.6394 11.9614 1.6394H2.03892C1.68981 1.6394 1.39149 1.88562 1.29583 2.2195ZM12.7366 3.38181L7.26689 7.38017C7.10674 7.49724 6.89359 7.49724 6.73344 7.38017L1.26373 3.38181V10.2203C1.26373 10.6645 1.61363 11.0299 2.03892 11.0299H11.9614C12.3867 11.0299 12.7366 10.6645 12.7366 10.2203V3.38181ZM0.333496 2.44892C0.333496 1.46829 1.09988 0.667969 2.03892 0.667969H11.9614C12.9005 0.667969 13.6668 1.46829 13.6668 2.44892V10.2203C13.6668 11.201 12.9005 12.0013 11.9614 12.0013H2.03892C1.09988 12.0013 0.333496 11.201 0.333496 10.2203V2.44892Z" fill="#0662B7"/>
</svg>
