<svg width="57" height="54" viewBox="0 0 57 54" fill="none" xmlns="http://www.w3.org/2000/svg">
<path d="M47.6626 40.7892C47.6626 40.8797 47.6986 40.9665 47.7626 41.0305C47.8266 41.0945 47.9134 41.1305 48.0039 41.1305C48.0944 41.1305 48.1812 41.0945 48.2452 41.0305C48.3092 40.9665 48.3451 40.8797 48.3451 40.7892C48.3451 40.6987 48.3092 40.6119 48.2452 40.5479C48.1812 40.4839 48.0944 40.448 48.0039 40.448C47.9134 40.448 47.8266 40.4839 47.7626 40.5479C47.6986 40.6119 47.6626 40.6987 47.6626 40.7892ZM40.1289 48.563C40.1289 48.743 40.2004 48.9156 40.3277 49.0429C40.455 49.1702 40.6276 49.2417 40.8076 49.2417C40.9877 49.2417 41.1603 49.1702 41.2876 49.0429C41.4149 48.9156 41.4864 48.743 41.4864 48.563C41.4864 48.383 41.4149 48.2103 41.2876 48.083C41.1603 47.9557 40.9877 47.8842 40.8076 47.8842C40.6276 47.8842 40.455 47.9557 40.3277 48.083C40.2004 48.2103 40.1289 48.383 40.1289 48.563ZM29.9739 52.5642C29.9739 52.8347 30.0813 53.0942 30.2726 53.2855C30.4639 53.4768 30.7234 53.5842 30.9939 53.5842C31.2644 53.5842 31.5238 53.4768 31.7151 53.2855C31.9064 53.0942 32.0139 52.8347 32.0139 52.5642C32.0139 52.4303 31.9875 52.2976 31.9362 52.1739C31.885 52.0501 31.8099 51.9377 31.7151 51.843C31.6204 51.7483 31.508 51.6731 31.3842 51.6219C31.2605 51.5706 31.1278 51.5442 30.9939 51.5442C30.8599 51.5442 30.7273 51.5706 30.6035 51.6219C30.4798 51.6731 30.3674 51.7483 30.2726 51.843C30.1779 51.9377 30.1028 52.0501 30.0515 52.1739C30.0003 52.2976 29.9739 52.4303 29.9739 52.5642ZM19.0426 52.028C19.0426 52.388 19.1857 52.7333 19.4402 52.9879C19.6948 53.2424 20.0401 53.3855 20.4001 53.3855C20.7602 53.3855 21.1055 53.2424 21.36 52.9879C21.6146 52.7333 21.7576 52.388 21.7576 52.028C21.7576 51.6679 21.6146 51.3227 21.36 51.0681C21.1055 50.8135 20.7602 50.6705 20.4001 50.6705C20.0401 50.6705 19.6948 50.8135 19.4402 51.0681C19.1857 51.3227 19.0426 51.6679 19.0426 52.028ZM9.34514 47.0517C9.34514 47.2748 9.38908 47.4957 9.47445 47.7018C9.55982 47.9079 9.68495 48.0952 9.84269 48.2529C10.0004 48.4107 10.1877 48.5358 10.3938 48.6212C10.5999 48.7065 10.8208 48.7505 11.0439 48.7505C11.267 48.7505 11.4879 48.7065 11.694 48.6212C11.9001 48.5358 12.0873 48.4107 12.2451 48.2529C12.4028 48.0952 12.528 47.9079 12.6133 47.7018C12.6987 47.4957 12.7426 47.2748 12.7426 47.0517C12.7426 46.8286 12.6987 46.6077 12.6133 46.4016C12.528 46.1955 12.4028 46.0083 12.2451 45.8505C12.0873 45.6928 11.9001 45.5676 11.694 45.4823C11.4879 45.3969 11.267 45.353 11.0439 45.353C10.8208 45.353 10.5999 45.3969 10.3938 45.4823C10.1877 45.5676 10.0004 45.6928 9.84269 45.8505C9.68495 46.0083 9.55982 46.1955 9.47445 46.4016C9.38908 46.6077 9.34514 46.8286 9.34514 47.0517ZM2.62889 38.5917C2.62889 39.1328 2.84381 39.6516 3.22639 40.0342C3.60896 40.4168 4.12785 40.6317 4.66889 40.6317C5.20993 40.6317 5.72881 40.4168 6.11138 40.0342C6.49396 39.6516 6.70889 39.1328 6.70889 38.5917C6.70889 38.0507 6.49396 37.5318 6.11138 37.1492C5.72881 36.7666 5.20993 36.5517 4.66889 36.5517C4.12785 36.5517 3.60896 36.7666 3.22639 37.1492C2.84381 37.5318 2.62889 38.0507 2.62889 38.5917ZM0.108887 28.2042C0.108887 28.5164 0.170383 28.8256 0.289863 29.114C0.409344 29.4025 0.584469 29.6646 0.80524 29.8854C1.02601 30.1061 1.28811 30.2813 1.57656 30.4007C1.86501 30.5202 2.17417 30.5817 2.48639 30.5817C2.7986 30.5817 3.10776 30.5202 3.39622 30.4007C3.68467 30.2813 3.94676 30.1061 4.16753 29.8854C4.3883 29.6646 4.56343 29.4025 4.68291 29.114C4.80239 28.8256 4.86389 28.5164 4.86389 28.2042C4.86389 27.5737 4.6134 26.9689 4.16753 26.5231C3.72166 26.0772 3.11694 25.8267 2.48639 25.8267C1.85583 25.8267 1.25111 26.0772 0.80524 26.5231C0.359373 26.9689 0.108887 27.5737 0.108887 28.2042ZM2.18264 17.8842C2.18264 18.2412 2.25296 18.5948 2.38959 18.9246C2.52622 19.2545 2.72648 19.5542 2.97894 19.8067C3.2314 20.0591 3.53111 20.2594 3.86097 20.396C4.19082 20.5326 4.54436 20.603 4.90139 20.603C5.62244 20.603 6.31397 20.3165 6.82383 19.8067C7.3337 19.2968 7.62014 18.6053 7.62014 17.8842C7.62014 17.1632 7.3337 16.4716 6.82383 15.9618C6.31397 15.4519 5.62244 15.1655 4.90139 15.1655C4.18033 15.1655 3.4888 15.4519 2.97894 15.9618C2.46908 16.4716 2.18264 17.1632 2.18264 17.8842ZM8.40389 9.56297C8.40389 9.96481 8.48304 10.3627 8.63682 10.734C8.79059 11.1052 9.01599 11.4426 9.30014 11.7267C9.58429 12.0109 9.92162 12.2363 10.2929 12.39C10.6641 12.5438 11.062 12.623 11.4639 12.623C11.8657 12.623 12.2636 12.5438 12.6349 12.39C13.0062 12.2363 13.3435 12.0109 13.6276 11.7267C13.9118 11.4426 14.1372 11.1052 14.291 10.734C14.4447 10.3627 14.5239 9.96481 14.5239 9.56297C14.5239 8.75141 14.2015 7.97308 13.6276 7.39922C13.0538 6.82536 12.2754 6.50297 11.4639 6.50297C10.6523 6.50297 9.874 6.82536 9.30014 7.39922C8.72628 7.97308 8.40389 8.75141 8.40389 9.56297ZM17.5389 4.79672C17.5389 5.24288 17.6268 5.68468 17.7975 6.09689C17.9682 6.50909 18.2185 6.88363 18.534 7.19911C18.8495 7.5146 19.224 7.76486 19.6362 7.9356C20.0484 8.10634 20.4902 8.19422 20.9364 8.19422C21.8375 8.19422 22.7016 7.83627 23.3388 7.19911C23.9759 6.56196 24.3339 5.69779 24.3339 4.79672C24.3339 3.89565 23.9759 3.03148 23.3388 2.39432C22.7016 1.75717 21.8375 1.39922 20.9364 1.39922C20.0353 1.39922 19.1711 1.75717 18.534 2.39432C17.8968 3.03148 17.5389 3.89565 17.5389 4.79672ZM27.7989 4.50047C27.7989 5.49205 28.1928 6.44301 28.8939 7.14416C29.5951 7.84532 30.5461 8.23922 31.5376 8.23922C32.5292 8.23922 33.4802 7.84532 34.1813 7.14416C34.8825 6.44301 35.2764 5.49205 35.2764 4.50047C35.2764 3.50889 34.8825 2.55792 34.1813 1.85677C33.4802 1.15562 32.5292 0.761719 31.5376 0.761719C30.5461 0.761719 29.5951 1.15562 28.8939 1.85677C28.1928 2.55792 27.7989 3.50889 27.7989 4.50047ZM37.1926 8.72672C37.1926 9.80781 37.6221 10.8446 38.3865 11.6091C39.151 12.3735 40.1878 12.803 41.2689 12.803C42.35 12.803 43.3868 12.3735 44.1512 11.6091C44.9157 10.8446 45.3451 9.80781 45.3451 8.72672C45.3451 7.64563 44.9157 6.60882 44.1512 5.84437C43.3868 5.07993 42.35 4.65047 41.2689 4.65047C40.1878 4.65047 39.151 5.07993 38.3865 5.84437C37.6221 6.60882 37.1926 7.64563 37.1926 8.72672ZM43.8676 16.6655C43.8676 17.2456 43.9819 17.82 44.2039 18.356C44.4259 18.8919 44.7513 19.3789 45.1615 19.7891C45.5717 20.1993 46.0587 20.5247 46.5946 20.7467C47.1306 20.9687 47.705 21.083 48.2851 21.083C48.8652 21.083 49.4397 20.9687 49.9756 20.7467C50.5116 20.5247 50.9986 20.1993 51.4088 19.7891C51.819 19.3789 52.1444 18.8919 52.3664 18.356C52.5884 17.82 52.7026 17.2456 52.7026 16.6655C52.7026 16.0854 52.5884 15.5109 52.3664 14.975C52.1444 14.439 51.819 13.952 51.4088 13.5418C50.9986 13.1316 50.5116 12.8062 49.9756 12.5842C49.4397 12.3622 48.8652 12.248 48.2851 12.248C47.705 12.248 47.1306 12.3622 46.5946 12.5842C46.0587 12.8062 45.5717 13.1316 45.1615 13.5418C44.7513 13.952 44.4259 14.439 44.2039 14.975C43.9819 15.5109 43.8676 16.0854 43.8676 16.6655ZM46.5226 26.948C46.5226 27.5729 46.6457 28.1917 46.8849 28.7691C47.124 29.3464 47.4746 29.871 47.9164 30.3129C48.3583 30.7548 48.8829 31.1053 49.4603 31.3445C50.0377 31.5836 50.6565 31.7067 51.2814 31.7067C52.5435 31.7067 53.7539 31.2054 54.6463 30.3129C55.5388 29.4205 56.0401 28.2101 56.0401 26.948C56.0401 25.6859 55.5388 24.4755 54.6463 23.583C53.7539 22.6906 52.5435 22.1892 51.2814 22.1892C50.0193 22.1892 48.8089 22.6906 47.9164 23.583C47.024 24.4755 46.5226 25.6859 46.5226 26.948Z" fill="#0662B7"/>
</svg>
