<svg width="50" height="50" viewBox="0 0 50 50" fill="none" xmlns="http://www.w3.org/2000/svg">
<path fill-rule="evenodd" clip-rule="evenodd" d="M21.4223 1.02631C21.7044 0.401552 22.3264 0 23.0119 0C25.3457 0 27.5895 0.912144 29.2482 2.54448C30.9078 4.17774 31.8453 6.39891 31.8453 8.72093V16.2791H43.4672C44.3973 16.2702 45.3191 16.4596 46.1696 16.8353C47.0233 17.2123 47.7858 17.7686 48.4031 18.4672C49.0205 19.166 49.4777 19.9903 49.7413 20.8838C50.0049 21.7774 50.0681 22.7173 49.9261 23.638L49.9257 23.6406L46.6651 44.568C46.6651 44.5681 46.6651 44.5679 46.6651 44.568C46.4289 46.1001 45.6389 47.4909 44.4485 48.4867C43.2614 49.4797 41.7549 50.0148 40.206 50H6.47034C4.76322 50 3.12051 49.3329 1.90502 48.1367C0.688586 46.9395 0 45.3099 0 43.6047V27.3256C0 25.6203 0.688586 23.9907 1.90502 22.7936C3.12051 21.5974 4.76322 20.9302 6.47034 20.9302H12.4335L21.4223 1.02631ZM15.3038 23.05L24.0895 3.59579C25.1121 3.80187 26.057 4.29825 26.8013 5.03078C27.8007 6.0143 28.3569 7.34225 28.3569 8.72093V18.0233C28.3569 18.9865 29.1378 19.7674 30.1011 19.7674H43.4761L43.4956 19.7673C43.9321 19.7625 44.3637 19.8511 44.7601 20.0262C45.1565 20.2013 45.5072 20.4581 45.789 20.777C46.0707 21.0959 46.277 21.4693 46.3955 21.8708C46.5139 22.2721 46.5421 22.6933 46.4786 23.1058C46.4786 23.1056 46.4785 23.1059 46.4786 23.1058L43.2179 44.0338L43.2174 44.0367C43.1117 44.7226 42.7568 45.3538 42.2103 45.811C41.6631 46.2688 40.9615 46.5198 40.2345 46.5117L15.3038 46.5116V23.05ZM11.8154 46.5116V24.4186H6.47034C5.67055 24.4186 4.90903 24.7315 4.35187 25.2799C3.79565 25.8273 3.48837 26.5637 3.48837 27.3256V43.6047C3.48837 44.3665 3.79565 45.103 4.35187 45.6504C4.90903 46.1987 5.67055 46.5116 6.47034 46.5116H11.8154Z" fill="#32A64D"/>
</svg>
