<svg width="50" height="50" viewBox="0 0 50 50" fill="none" xmlns="http://www.w3.org/2000/svg">
<path fill-rule="evenodd" clip-rule="evenodd" d="M45.2762 4.37236C44.5864 3.78962 43.6983 3.47297 42.7802 3.48895L42.7498 3.48948L38.1846 3.48921V25.5822H42.7802C43.6983 25.5982 44.5864 25.2818 45.2762 24.6991C45.9373 24.1406 46.3714 23.3764 46.5116 22.544V6.52745C46.3714 5.69508 45.9373 4.93082 45.2762 4.37236ZM34.6962 26.9508L25.9105 46.4051C24.8879 46.199 23.943 45.7026 23.1987 44.9701C22.1993 43.9865 21.6431 42.6586 21.6431 41.2799V31.9776C21.6431 31.0143 20.8622 30.2334 19.8989 30.2334H6.52386L6.50442 30.2335C6.06789 30.2384 5.63631 30.1497 5.23987 29.9746C4.84351 29.7995 4.49283 29.5428 4.21102 29.2238C3.92929 28.905 3.72296 28.5315 3.60451 28.13C3.48619 27.7289 3.45793 27.308 3.52132 26.8958C3.52126 26.8962 3.52139 26.8954 3.52132 26.8958L6.78259 5.96415C6.88829 5.27823 7.24315 4.64701 7.7897 4.18982C8.33693 3.73206 9.03847 3.48102 9.7655 3.4891L34.6962 3.48921V26.9508ZM42.7357 0.000840638C44.4867 -0.0257439 46.1913 0.578962 47.5273 1.70754C48.8682 2.84021 49.7452 4.42309 49.9837 6.15869C49.9946 6.2374 50 6.31675 50 6.39619V22.6753C50 22.7547 49.9946 22.8341 49.9837 22.9128C49.7452 24.6484 48.8682 26.2312 47.5273 27.3639C46.1913 28.4925 44.4867 29.0972 42.7357 29.0706H37.5665L28.5777 48.9745C28.2956 49.5993 27.6736 50.0008 26.9881 50.0008C24.6543 50.0008 22.4105 49.0887 20.7518 47.4564C19.0922 45.8231 18.1547 43.6019 18.1547 41.2799V33.7218H6.53279C5.60274 33.7306 4.68092 33.5412 3.83045 33.1656C2.97671 32.7885 2.21421 32.2323 1.5969 31.5336C0.979511 30.8349 0.522274 30.0105 0.258687 29.117C-0.00492085 28.2235 -0.06809 27.2835 0.0738996 26.3629L3.33491 5.43288C3.33499 5.43237 3.33483 5.43339 3.33491 5.43288C3.57131 3.90123 4.36143 2.50966 5.55148 1.51416C6.73859 0.521136 8.245 -0.0139189 9.79385 0.000840638H42.7357Z" fill="#E63946"/>
</svg>
