<svg width="18" height="16" viewBox="0 0 18 16" fill="none" xmlns="http://www.w3.org/2000/svg">
<path fill-rule="evenodd" clip-rule="evenodd" d="M0.720757 0.834109C0.816023 0.630361 1.0218 0.5 1.24815 0.5H16.752C16.9784 0.5 17.1841 0.630361 17.2794 0.834109C17.3747 1.03786 17.3421 1.27795 17.1959 1.44946L11.1319 8.56509V14.9231C11.1319 15.123 11.0275 15.3087 10.8561 15.4138C10.6847 15.519 10.4707 15.5285 10.2905 15.4391L7.18969 13.9006C6.99272 13.8029 6.8683 13.6031 6.8683 13.3846V8.56509L0.804215 1.44946C0.658054 1.27795 0.625491 1.03786 0.720757 0.834109ZM2.50123 1.65385L7.89363 7.98131C7.98239 8.08546 8.03109 8.21745 8.03109 8.35385V13.0281L9.96907 13.9896V8.35385C9.96907 8.21745 10.0178 8.08546 10.1065 7.98131L15.4989 1.65385H2.50123Z" fill="#0662B7"/>
</svg>
