<svg width="14" height="14" viewBox="0 0 14 14" fill="none" xmlns="http://www.w3.org/2000/svg">
<path fill-rule="evenodd" clip-rule="evenodd" d="M1.09842 0.461893C1.28465 0.284969 1.57905 0.292518 1.75598 0.478753L13.5389 12.8819C13.7158 13.0681 13.7083 13.3625 13.5221 13.5394C13.3358 13.7163 13.0414 13.7088 12.8645 13.5226L10.5688 11.106C9.54173 11.9387 8.29756 12.4038 7.00853 12.4269L7.00016 12.4271V12.427C4.82313 12.427 3.15486 11.0612 2.06548 9.78299C1.51475 9.13679 1.09424 8.49285 0.811542 8.01135C0.669892 7.77009 0.562069 7.56829 0.489106 7.42561C0.452608 7.35423 0.424783 7.29755 0.405762 7.25802C0.396251 7.23824 0.388936 7.22275 0.383836 7.21184L0.377846 7.19894L0.376099 7.19514L0.375538 7.19391L0.375336 7.19346C0.375257 7.19329 0.375186 7.19313 0.798612 7.00067L0.375186 7.19313C0.317768 7.06681 0.319747 6.92146 0.380582 6.79675C1.0521 5.42016 1.96454 4.20086 3.06668 3.20905L1.08156 1.11945C0.904635 0.933215 0.912183 0.638816 1.09842 0.461893ZM3.61464 3.96804C2.69077 4.81599 1.91179 5.84366 1.31763 7.00267C1.38341 7.13128 1.4825 7.31686 1.61373 7.54037C1.87719 7.9891 2.26712 8.58547 2.77347 9.17959C3.79745 10.3811 5.22852 11.495 6.99602 11.4968C7.93993 11.479 8.86236 11.1768 9.66409 10.6224L8.16568 8.97419C8.06649 9.04645 7.96131 9.11008 7.85104 9.16413C7.58367 9.29517 7.29303 9.36653 6.99684 9.37228C6.70063 9.37803 6.40758 9.31799 6.13568 9.19719C5.86395 9.07645 5.62029 8.89816 5.41786 8.67549C5.21552 8.45292 5.05817 8.19024 4.95313 7.90418C4.84809 7.61814 4.79694 7.31308 4.80185 7.0068C4.80676 6.70051 4.86768 6.39741 4.98197 6.11526C5.04007 5.97182 5.11151 5.83493 5.19528 5.70674L3.61464 3.96804ZM5.85675 6.43436C5.85245 6.44433 5.84825 6.45438 5.84415 6.46449C5.77356 6.63877 5.73506 6.82839 5.73196 7.02171C5.72886 7.21504 5.76125 7.40625 5.82635 7.58353C5.89144 7.76079 5.98731 7.91899 6.10618 8.04975C6.22496 8.18042 6.36392 8.28067 6.51339 8.34708C6.66269 8.41342 6.8208 8.44529 6.97879 8.44222C7.13678 8.43916 7.29407 8.40116 7.44164 8.32883C7.47276 8.31358 7.50337 8.29684 7.53337 8.27864L5.85675 6.43436ZM6.73853 2.51193L11.9435 8.24259C12.2148 7.84726 12.4619 7.43183 12.6829 6.99906C12.6171 6.87043 12.518 6.68471 12.3866 6.46096C12.1231 6.01223 11.7332 5.41586 11.2269 4.82175C10.2021 3.61933 8.76957 2.50454 7.00016 2.50454L6.99896 2.50454C6.91207 2.50432 6.82522 2.50678 6.73853 2.51193ZM13.2017 7.00067L13.6251 6.8082C13.6825 6.9343 13.6806 7.07938 13.6201 7.20395C13.2645 7.93571 12.84 8.62537 12.3534 9.26156C12.2696 9.37114 12.1414 9.43785 12.0036 9.44366C11.8657 9.44948 11.7324 9.3938 11.6397 9.29168L5.47193 2.50098C5.36234 2.38032 5.32391 2.2111 5.37063 2.05494C5.41735 1.89879 5.54241 1.77848 5.70025 1.73784C6.12619 1.62817 6.56267 1.57323 7.00076 1.57431C7.00096 1.57431 7.00116 1.57431 7.00137 1.57431L7.00016 2.03943V1.57431C7.00036 1.57431 7.00056 1.57431 7.00076 1.57431C9.1775 1.57456 10.8456 2.94026 11.9348 4.21835C12.4856 4.86454 12.9061 5.50848 13.1888 5.98998C13.3304 6.23124 13.4383 6.43304 13.5112 6.57573C13.5477 6.6471 13.5755 6.70378 13.5946 6.74332C13.6041 6.76309 13.6114 6.77859 13.6165 6.7895L13.6225 6.8024L13.6242 6.8062L13.6248 6.80743L13.625 6.80787C13.6251 6.80805 13.6251 6.8082 13.2017 7.00067Z" fill="#0662B7"/>
</svg>
