<svg width="40" height="40" viewBox="0 0 40 40" fill="none" xmlns="http://www.w3.org/2000/svg">
<rect x="0.5" y="0.5" width="39" height="39" rx="19.5" fill="white" stroke="#404040"/>
<path fill-rule="evenodd" clip-rule="evenodd" d="M14.3429 12.5429C13.3487 12.5429 12.5429 13.3487 12.5429 14.3429C12.5429 15.337 13.3487 16.1429 14.3429 16.1429C15.337 16.1429 16.1429 15.337 16.1429 14.3429C16.1429 13.3487 15.337 12.5429 14.3429 12.5429ZM11 14.3429C11 12.4966 12.4966 11 14.3429 11C16.1891 11 17.6857 12.4966 17.6857 14.3429C17.6857 16.1891 16.1891 17.6857 14.3429 17.6857C12.4966 17.6857 11 16.1891 11 14.3429ZM27.7455 12.2545C28.0467 12.5558 28.0467 13.0442 27.7455 13.3455L13.3455 27.7455C13.0442 28.0467 12.5558 28.0467 12.2545 27.7455C11.9533 27.4442 11.9533 26.9558 12.2545 26.6545L26.6545 12.2545C26.9558 11.9533 27.4442 11.9533 27.7455 12.2545ZM25.6571 23.8571C24.663 23.8571 23.8571 24.663 23.8571 25.6571C23.8571 26.6513 24.663 27.4571 25.6571 27.4571C26.6513 27.4571 27.4571 26.6513 27.4571 25.6571C27.4571 24.663 26.6513 23.8571 25.6571 23.8571ZM22.3143 25.6571C22.3143 23.8109 23.8109 22.3143 25.6571 22.3143C27.5034 22.3143 29 23.8109 29 25.6571C29 27.5034 27.5034 29 25.6571 29C23.8109 29 22.3143 27.5034 22.3143 25.6571Z" fill="#404040"/>
</svg>
