<svg width="20" height="18" viewBox="0 0 20 18" fill="none" xmlns="http://www.w3.org/2000/svg">
<path fill-rule="evenodd" clip-rule="evenodd" d="M10 1.54286C8.24384 1.54286 6.53137 2.08914 5.09991 3.10569C3.66849 4.12222 2.58906 5.55857 2.01081 7.21543C1.43257 8.87226 1.38402 10.6678 1.87185 12.3535C2.33529 13.9548 3.26112 15.3819 4.53085 16.4571H15.4692C16.7389 15.3819 17.6647 13.9548 18.1282 12.3535C18.616 10.6678 18.5674 8.87226 17.9892 7.21543C17.4109 5.55857 16.3315 4.12222 14.9001 3.10569C13.4686 2.08914 11.7562 1.54286 10 1.54286ZM4.21083 1.84656C5.90248 0.645226 7.92566 0 10 0C12.0743 0 14.0975 0.645226 15.7892 1.84656C17.4809 3.04791 18.7573 4.746 19.4413 6.70574C20.1252 8.66551 20.1827 10.7896 19.6056 12.7835C19.0286 14.7774 17.8457 16.5421 16.2214 17.8331C16.0854 17.9412 15.9171 18 15.7436 18H4.25641C4.08294 18 3.91456 17.9412 3.77861 17.8331C2.15427 16.5421 0.971412 14.7774 0.394361 12.7835C-0.182696 10.7896 -0.125246 8.66551 0.55872 6.70574C1.24268 4.746 2.51914 3.04791 4.21083 1.84656ZM10 5.65714C8.84393 5.65714 7.73521 6.1177 6.91774 6.93751C6.10027 7.75731 5.64103 8.8692 5.64103 10.0286C5.64103 10.4546 5.29663 10.8 4.8718 10.8C4.44696 10.8 4.10256 10.4546 4.10256 10.0286C4.10256 8.46001 4.7239 6.95568 5.82988 5.84654C6.93587 4.7374 8.4359 4.11429 10 4.11429C10.4248 4.11429 10.7692 4.45967 10.7692 4.88571C10.7692 5.31176 10.4248 5.65714 10 5.65714ZM14.6467 7.42595C14.9471 7.72721 14.9471 8.21565 14.6467 8.51691L11.9902 11.1809C11.8927 11.2788 11.7754 11.3448 11.6513 11.3791C11.7437 11.596 11.7949 11.8349 11.7949 12.0857C11.7949 13.0798 10.9913 13.8857 10 13.8857C9.00872 13.8857 8.20513 13.0798 8.20513 12.0857C8.20513 11.0916 9.00872 10.2857 10 10.2857C10.2502 10.2857 10.4884 10.337 10.7048 10.4298C10.739 10.3053 10.8048 10.1878 10.9024 10.0899L13.5588 7.42595C13.8592 7.12469 14.3463 7.12469 14.6467 7.42595ZM10 11.8286C9.85839 11.8286 9.74359 11.9437 9.74359 12.0857C9.74359 12.2277 9.85839 12.3429 10 12.3429C10.1416 12.3429 10.2564 12.2277 10.2564 12.0857C10.2564 11.9437 10.1416 11.8286 10 11.8286Z" fill="#999B9C"/>
</svg>
