<svg width="16" height="16" viewBox="0 0 16 16" fill="none" xmlns="http://www.w3.org/2000/svg">
<path fill-rule="evenodd" clip-rule="evenodd" d="M8 0C8.42758 0 8.77419 0.346618 8.77419 0.774194V7.22581H15.2258C15.6534 7.22581 16 7.57242 16 8C16 8.42758 15.6534 8.77419 15.2258 8.77419H8.77419V15.2258C8.77419 15.6534 8.42758 16 8 16C7.57242 16 7.22581 15.6534 7.22581 15.2258V8.77419H0.774194C0.346618 8.77419 0 8.42758 0 8C0 7.57242 0.346618 7.22581 0.774194 7.22581H7.22581V0.774194C7.22581 0.346618 7.57242 0 8 0Z" fill="white"/>
</svg>
