<svg width="24" height="24" viewBox="0 0 24 24" fill="none" xmlns="http://www.w3.org/2000/svg">
<path fill-rule="evenodd" clip-rule="evenodd" d="M2 4.55814C2 3.14532 3.14532 2 4.55814 2H19.4419C20.8547 2 22 3.14532 22 4.55814V19.4419C22 20.8547 20.8547 22 19.4419 22H4.55814C3.14532 22 2 20.8547 2 19.4419V4.55814ZM4.55814 3.39535C3.91595 3.39535 3.39535 3.91595 3.39535 4.55814V19.4419C3.39535 20.0841 3.91595 20.6047 4.55814 20.6047H19.4419C20.0841 20.6047 20.6047 20.0841 20.6047 19.4419V4.55814C20.6047 3.91595 20.0841 3.39535 19.4419 3.39535H4.55814ZM12 7.5814C12.3853 7.5814 12.6977 7.89375 12.6977 8.27907V11.3023H15.7209C16.1062 11.3023 16.4186 11.6147 16.4186 12C16.4186 12.3853 16.1062 12.6977 15.7209 12.6977H12.6977V15.7209C12.6977 16.1062 12.3853 16.4186 12 16.4186C11.6147 16.4186 11.3023 16.1062 11.3023 15.7209V12.6977H8.27907C7.89375 12.6977 7.5814 12.3853 7.5814 12C7.5814 11.6147 7.89375 11.3023 8.27907 11.3023H11.3023V8.27907C11.3023 7.89375 11.6147 7.5814 12 7.5814Z" fill="#0662B7"/>
</svg>
