<svg width="20" height="20" viewBox="0 0 20 20" fill="none" xmlns="http://www.w3.org/2000/svg">
<path fill-rule="evenodd" clip-rule="evenodd" d="M12.308 1.53845C11.4583 1.53845 10.7694 2.22727 10.7694 3.07697C10.7694 3.92667 11.4583 4.61549 12.308 4.61549C13.1577 4.61549 13.8465 3.92667 13.8465 3.07697C13.8465 2.22727 13.1577 1.53845 12.308 1.53845ZM9.32792 2.30775C9.66949 0.980619 10.8742 0 12.308 0C13.7417 0 14.9464 0.980619 15.288 2.30775L19.2308 2.30775C19.6556 2.30775 20 2.65214 20 3.07697C20 3.5018 19.6556 3.8462 19.2308 3.8462L15.288 3.8462C14.9464 5.17333 13.7417 6.15394 12.308 6.15394C10.8742 6.15394 9.66949 5.17333 9.32792 3.8462L0.769225 3.8462C0.344394 3.8462 1.74466e-09 3.5018 1.74466e-09 3.07697C1.74466e-09 2.65214 0.344394 2.30775 0.769225 2.30775L9.32792 2.30775ZM5.38465 8.46113C4.53495 8.46113 3.84613 9.14994 3.84613 9.99965C3.84613 10.8493 4.53495 11.5382 5.38465 11.5382C6.22551 11.5382 6.90882 10.8636 6.92295 10.0261C6.92267 10.0176 6.92253 10.0091 6.92253 10.0005C6.92253 9.99173 6.92267 9.983 6.92296 9.97431C6.90943 9.13629 6.22589 8.46113 5.38465 8.46113ZM8.3649 9.23127C8.02363 7.90371 6.8187 6.92268 5.38465 6.92268C3.95081 6.92268 2.74603 7.90341 2.40455 9.23067L0.768944 9.23127C0.344112 9.23142 -0.000155519 9.57594 6.28772e-08 10.0008C0.000155645 10.4256 0.344676 10.7699 0.769507 10.7697L2.40467 10.7691C2.74633 12.0961 3.95098 13.0766 5.38465 13.0766C6.81809 13.0766 8.0226 12.0964 8.36447 10.7697H19.2305C19.6553 10.7697 19.9997 10.4253 19.9997 10.0005C19.9997 9.57566 19.6553 9.23127 19.2305 9.23127H8.3649ZM15.7697 15.3844C14.92 15.3844 14.2312 16.0732 14.2312 16.9229C14.2312 17.7726 14.92 18.4614 15.7697 18.4614C16.6106 18.4614 17.2939 17.7868 17.308 16.9493C17.3077 16.9408 17.3076 16.9323 17.3076 16.9237C17.3076 16.915 17.3077 16.9062 17.308 16.8975C17.2945 16.0595 16.6109 15.3844 15.7697 15.3844ZM18.7499 16.1545C18.4087 14.8269 17.2037 13.8459 15.7697 13.8459C14.3359 13.8459 13.1312 14.8266 12.7896 16.1537L0.769174 16.1545C0.344343 16.1545 -2.83026e-05 16.499 1.74466e-09 16.9238C2.83061e-05 17.3486 0.344445 17.693 0.769276 17.693L12.7897 17.6922C13.1312 19.0193 14.336 19.9999 15.7697 19.9999C17.2031 19.9999 18.4076 19.0197 18.7495 17.693H19.2307C19.6555 17.693 19.9999 17.3486 19.9999 16.9237C19.9999 16.4989 19.6555 16.1545 19.2307 16.1545H18.7499Z" fill="#999B9C"/>
</svg>
