<svg width="48" height="48" viewBox="0 0 48 48" fill="none" xmlns="http://www.w3.org/2000/svg">
<g clip-path="url(#clip0_1_21536)">
<path d="M24 46C36.1503 46 46 36.1503 46 24C46 11.8497 36.1503 2 24 2C11.8497 2 2 11.8497 2 24C2 36.1503 11.8497 46 24 46Z" fill="#FFC200"/>
<path fill-rule="evenodd" clip-rule="evenodd" d="M39.4404 39.6688C35.2886 43.7611 29.6821 46.0379 23.8526 45.9991C18.0231 45.9602 12.4475 43.6089 8.35059 39.4616C8.87453 38.0127 9.89217 36.7946 11.2248 36.0213C12.123 35.3573 13.0969 34.8023 14.1261 34.3681C12.5612 28.9906 16.8152 26.347 18.4428 25.5859C18.4428 28.0686 20.7674 26.4211 23.6523 26.4524C26.0275 26.4788 30.7244 28.8696 30.7244 25.7155C33.3373 26.4887 36.1852 31.4683 34.2252 34.5276C35.0288 34.9206 35.788 35.3984 36.4899 35.953C37.8621 36.8262 38.9012 38.135 39.4404 39.6695V39.6688Z" fill="#677079"/>
<path fill-rule="evenodd" clip-rule="evenodd" d="M19.1103 29.5391L29.7329 29.6031V32.0502L29.7279 32.0879C29.7206 32.1988 29.7039 32.3088 29.6781 32.4169L29.6425 32.6596L29.6211 32.7102C28.9334 36.3228 25.9239 37.7189 24.0656 38.6915C22.1077 37.625 19.3395 35.7033 19.1195 32.3037L19.1103 32.2617V32.1193C19.1087 32.0701 19.1078 32.021 19.1074 31.9719C19.1074 31.9975 19.1096 32.0217 19.1103 32.0473V29.5391Z" fill="#F9DCA4"/>
<path opacity="0.11" fill-rule="evenodd" clip-rule="evenodd" d="M29.7333 29.4941V32.3456C29.7313 32.6099 29.7086 32.8737 29.6657 33.1345C29.6118 33.4573 29.521 33.7729 29.3952 34.075C25.7043 36.8624 19.8234 34.5762 18.8843 29.8152L29.7333 29.4941Z" fill="black"/>
<path fill-rule="evenodd" clip-rule="evenodd" d="M14.8894 19.9668C11.3722 20.871 14.3625 25.1571 16.5746 25.1386C15.6825 23.5404 15.1101 21.7838 14.8894 19.9668ZM33.2106 19.9668C36.7277 20.871 33.7374 25.1571 31.5246 25.1379C32.417 23.54 32.9896 21.7836 33.2106 19.9668Z" fill="#F9DCA4"/>
<path fill-rule="evenodd" clip-rule="evenodd" d="M23.8809 10.0879C38.4928 10.0879 32.7984 33.1886 23.8809 33.1886C15.4583 33.1886 9.26907 10.0879 23.8809 10.0879Z" fill="#FFE8BE"/>
<path fill-rule="evenodd" clip-rule="evenodd" d="M16.9847 17.7374C17.1094 17.874 17.2018 18.0369 17.2552 18.2139C17.3087 18.391 17.3217 18.5778 17.2935 18.7606C17.2652 18.9434 17.1963 19.1175 17.0918 19.2701C16.9874 19.4228 16.8501 19.5501 16.69 19.6426C15.6576 20.492 15.6199 23.4538 15.6199 23.4538C15.2212 23.058 15.2304 20.9377 14.3661 19.7124C13.5017 18.4871 12.9193 9.91351 17.7529 6.79577C17.4559 7.14514 17.2418 7.55723 17.1268 8.00113C17.0118 8.44503 16.9987 8.90922 17.0887 9.35888C17.0887 9.35888 20.4463 4.5438 26.0168 4.68263C25.5752 4.92343 25.1893 5.25458 24.8842 5.65449C24.5791 6.05441 24.3617 6.51412 24.2461 7.00367C24.2461 7.00367 29.116 4.99448 33.1743 7.38457C32.1192 7.6762 31.1213 8.14494 30.2232 8.77079C32.1939 8.8249 34.0984 9.19085 35.5345 10.4681C35.2254 10.5674 34.9394 10.7275 34.6933 10.9391C34.4471 11.1508 34.2459 11.4096 34.1015 11.7003C33.9571 11.991 33.8724 12.3077 33.8524 12.6317C33.8324 12.9556 33.8776 13.2803 33.9852 13.5866C34.5947 16.0806 34.6516 18.401 34.0614 19.6483C33.4712 20.8957 33.1928 20.0905 32.8233 22.7063C32.8052 22.883 32.7462 23.053 32.6511 23.2031C32.5559 23.3531 32.4272 23.4789 32.2751 23.5706C32.2608 23.76 32.547 20.8964 31.8087 20.1339C31.0711 19.3721 31.5346 18.4358 31.8294 17.8819C33.887 14.018 27.7248 12.2673 24.3565 12.2716C21.4353 12.2751 14.3889 13.603 16.9847 17.7374Z" fill="#8A5C42"/>
<path fill-rule="evenodd" clip-rule="evenodd" d="M16.0898 37.0018C16.1112 37.0288 23.5072 46.6013 32.2018 36.8594C31.1517 39.7443 26.6221 42.0354 24.0312 42.0283C19.083 42.0141 16.3447 38.0413 16.0898 37.0018Z" fill="#434955"/>
<path fill-rule="evenodd" clip-rule="evenodd" d="M27.8703 45.6614C27.5784 45.7126 27.2851 45.7575 26.9896 45.7981V39.4351C27.0005 39.3286 27.0526 39.2305 27.1348 39.1618C27.217 39.0932 27.3228 39.0594 27.4296 39.0678C27.5365 39.0592 27.6425 39.0929 27.7249 39.1616C27.8073 39.2302 27.8595 39.3284 27.8703 39.4351V45.6614ZM20.8788 45.7795C20.5835 45.7373 20.29 45.6898 19.998 45.6372V39.4351C20.0089 39.3286 20.061 39.2305 20.1432 39.1618C20.2254 39.0932 20.3313 39.0594 20.438 39.0678C20.5451 39.059 20.6513 39.0926 20.7338 39.1613C20.8163 39.23 20.8686 39.3283 20.8795 39.4351L20.8788 45.7795Z" fill="#E6E6E6"/>
</g>
<g clip-path="url(#clip1_1_21536)">
<path d="M24 48C37.2548 48 48 37.2548 48 24C48 10.7452 37.2548 0 24 0C10.7452 0 0 10.7452 0 24C0 37.2548 10.7452 48 24 48Z" fill="#FFC200"/>
<path fill-rule="evenodd" clip-rule="evenodd" d="M40.8443 41.0936C36.3151 45.5579 30.1989 48.0417 23.8395 47.9993C17.4801 47.957 11.3976 45.3918 6.92822 40.8676C7.4998 39.2869 8.60995 37.9581 10.0638 37.1145C11.0436 36.3901 12.1061 35.7847 13.2288 35.3111C11.5216 29.4446 16.1624 26.5608 17.9379 25.7305C17.9379 28.4388 20.4739 26.6415 23.621 26.6757C26.2121 26.7045 31.336 29.3126 31.336 25.8718C34.1865 26.7153 37.2933 32.1476 35.155 35.485C36.0317 35.9137 36.86 36.435 37.6257 37.04C39.1226 37.9925 40.2561 39.4204 40.8443 41.0944V41.0936Z" fill="#677079"/>
<path fill-rule="evenodd" clip-rule="evenodd" d="M18.6657 30.043L30.2541 30.1129V32.7824L30.2486 32.8235C30.2406 32.9445 30.2224 33.0645 30.1942 33.1824L30.1554 33.4472L30.1321 33.5024C29.3818 37.4434 26.0987 38.9665 24.0715 40.0274C21.9356 38.8639 18.9158 36.7676 18.6758 33.0589L18.6657 33.0131V32.8577C18.664 32.8041 18.663 32.7506 18.6626 32.6969C18.6626 32.7249 18.6649 32.7513 18.6657 32.7793V30.043Z" fill="#F9DCA4"/>
<path opacity="0.11" fill-rule="evenodd" clip-rule="evenodd" d="M30.2548 29.9941V33.1048C30.2525 33.3932 30.2278 33.6809 30.181 33.9654C30.1222 34.3176 30.0231 34.6618 29.8858 34.9914C25.8594 38.0322 19.4439 35.5382 18.4194 30.3444L30.2548 29.9941Z" fill="black"/>
<path fill-rule="evenodd" clip-rule="evenodd" d="M14.0613 19.5996C10.2244 20.586 13.4866 25.2617 15.8998 25.2415C14.9266 23.498 14.3022 21.5818 14.0613 19.5996ZM34.0481 19.5996C37.885 20.586 34.6229 25.2617 32.2089 25.2408C33.1824 23.4976 33.8071 21.5816 34.0481 19.5996Z" fill="#F9DCA4"/>
<path fill-rule="evenodd" clip-rule="evenodd" d="M23.8703 8.82422C39.8105 8.82422 33.5985 34.025 23.8703 34.025C14.682 34.025 7.93011 8.82422 23.8703 8.82422Z" fill="#FFE8BE"/>
<path fill-rule="evenodd" clip-rule="evenodd" d="M16.3472 17.1686C16.4832 17.3176 16.584 17.4953 16.6423 17.6885C16.7006 17.8816 16.7148 18.0854 16.684 18.2848C16.6531 18.4842 16.578 18.6741 16.4641 18.8407C16.3501 19.0072 16.2003 19.146 16.0256 19.247C14.8994 20.1736 14.8583 23.4047 14.8583 23.4047C14.4233 22.9729 14.4334 20.6599 13.4905 19.3232C12.5476 17.9865 11.9122 8.63345 17.1852 5.23228C16.8612 5.61341 16.6277 6.06296 16.5022 6.54722C16.3767 7.03148 16.3625 7.53786 16.4606 8.0284C16.4606 8.0284 20.1235 2.77559 26.2004 2.92704C25.7186 3.18973 25.2976 3.55098 24.9648 3.98725C24.632 4.42352 24.3948 4.92503 24.2687 5.45908C24.2687 5.45908 29.5814 3.26724 34.0085 5.87461C32.8575 6.19275 31.7689 6.7041 30.7891 7.38685C32.939 7.44588 35.0167 7.8451 36.5833 9.2385C36.2461 9.34674 35.9341 9.52146 35.6656 9.75233C35.3971 9.98319 35.1776 10.2655 35.02 10.5827C34.8625 10.8998 34.7701 11.2453 34.7483 11.5987C34.7265 11.9521 34.7758 12.3064 34.8932 12.6404C35.5581 15.3612 35.6202 17.8925 34.9763 19.2533C34.3324 20.614 34.0287 19.7356 33.6256 22.5892C33.6059 22.782 33.5416 22.9675 33.4378 23.1311C33.334 23.2948 33.1935 23.4321 33.0276 23.5321C33.012 23.7387 33.3243 20.6148 32.5188 19.783C31.7142 18.9519 32.2198 17.9305 32.5414 17.3263C34.786 13.1111 28.0637 11.2012 24.3891 11.2059C21.2023 11.2098 13.5153 12.6583 16.3472 17.1686Z" fill="#8A5C42"/>
<path fill-rule="evenodd" clip-rule="evenodd" d="M15.3711 38.1846C15.3944 38.2141 23.4627 48.6569 32.9478 38.0293C31.8022 41.1765 26.8608 43.6759 24.0344 43.6681C18.6363 43.6526 15.6492 39.3186 15.3711 38.1846Z" fill="#434955"/>
<path fill-rule="evenodd" clip-rule="evenodd" d="M28.2222 47.63C27.9038 47.686 27.5838 47.7349 27.2615 47.7792V40.8378C27.2733 40.7216 27.3301 40.6145 27.4198 40.5396C27.5095 40.4647 27.625 40.4279 27.7415 40.437C27.8581 40.4277 27.9737 40.4644 28.0636 40.5393C28.1535 40.6143 28.2104 40.7214 28.2222 40.8378V47.63ZM20.5951 47.759C20.273 47.7129 19.9527 47.6611 19.6343 47.6036V40.8378C19.6461 40.7216 19.7029 40.6145 19.7926 40.5396C19.8823 40.4647 19.9978 40.4279 20.1143 40.437C20.231 40.4275 20.3469 40.4641 20.4369 40.5391C20.527 40.614 20.584 40.7213 20.5958 40.8378L20.5951 47.759Z" fill="#E6E6E6"/>
</g>
<defs>
<clipPath id="clip0_1_21536">
<rect width="44" height="44" fill="white" transform="translate(2 2)"/>
</clipPath>
<clipPath id="clip1_1_21536">
<rect width="48" height="48" fill="white"/>
</clipPath>
</defs>
</svg>
