<svg width="14" height="20" viewBox="0 0 14 20" fill="none" xmlns="http://www.w3.org/2000/svg">
<path fill-rule="evenodd" clip-rule="evenodd" d="M6.09677 1.39535C5.5386 1.39535 4.96774 1.93754 4.96774 2.76486C4.96774 3.59218 5.5386 4.13437 6.09677 4.13437H7.90323C8.4614 4.13437 9.03226 3.59218 9.03226 2.76486C9.03226 1.93754 8.4614 1.39535 7.90323 1.39535H6.09677ZM3.69407 2.06718C3.96581 0.915632 4.89471 0 6.09677 0H7.90323C9.10529 0 10.0342 0.915632 10.3059 2.06718H11.5161C12.1993 2.06718 12.838 2.37839 13.297 2.9036C13.7538 3.42639 14 4.12109 14 4.83204V17.2351C14 17.9461 13.7538 18.6408 13.297 19.1636C12.838 19.6888 12.1993 20 11.5161 20H2.48387C1.8007 20 1.16196 19.6888 0.702995 19.1636C0.246149 18.6408 0 17.9461 0 17.2351V4.83204C0 4.12109 0.246149 3.42639 0.702995 2.9036C1.16196 2.37839 1.8007 2.06718 2.48387 2.06718H3.69407ZM3.69407 3.46253H2.48387C2.20884 3.46253 1.92862 3.58691 1.71004 3.83704C1.48933 4.0896 1.35484 4.44649 1.35484 4.83204V17.2351C1.35484 17.6207 1.48933 17.9776 1.71004 18.2301C1.92862 18.4803 2.20884 18.6047 2.48387 18.6047H11.5161C11.7912 18.6047 12.0714 18.4803 12.29 18.2301C12.5107 17.9776 12.6452 17.6207 12.6452 17.2351V4.83204C12.6452 4.44649 12.5107 4.0896 12.29 3.83704C12.0714 3.58691 11.7912 3.46253 11.5161 3.46253H10.3059C10.0342 4.61408 9.10529 5.52972 7.90323 5.52972H6.09677C4.89471 5.52972 3.96581 4.61408 3.69407 3.46253ZM10.1887 9.50667C10.4532 9.77913 10.4532 10.2209 10.1887 10.4933L6.57578 14.2143C6.31123 14.4867 5.88232 14.4867 5.61777 14.2143L3.81131 12.3538C3.54677 12.0813 3.54677 11.6396 3.81131 11.3671C4.07586 11.0947 4.50478 11.0947 4.76933 11.3671L6.09677 12.7343L9.23067 9.50667C9.49522 9.23421 9.92414 9.23421 10.1887 9.50667Z" fill="#999B9C"/>
</svg>
