<svg width="16" height="16" viewBox="0 0 16 16" fill="none" xmlns="http://www.w3.org/2000/svg">
<rect width="16" height="16" fill="#E3E3E3"/>
<path d="M-3169 -2496C-3169 -2497.1 -3168.1 -2498 -3167 -2498H15802C15803.1 -2498 15804 -2497.1 15804 -2496V2222C15804 2223.1 15803.1 2224 15802 2224H-3167C-3168.1 2224 -3169 2223.1 -3169 2222V-2496Z" fill="#E5E5E5"/>
<g clip-path="url(#clip0_829_339332)">
<rect width="1366" height="1665" transform="translate(-920 -1156)" fill="#F0F2F5"/>
<rect x="-664" y="-297" width="1110" height="768" rx="8" fill="white"/>
<g clip-path="url(#clip1_829_339332)">
<rect width="154" height="48" transform="translate(-150 -11)" fill="white"/>
<rect width="154" height="48" transform="translate(4 -11)" fill="white"/>
<path d="M12.616 17.782L13.484 16.76C13.848 17.0773 14.2727 17.348 14.758 17.572C15.2433 17.7867 15.7613 17.894 16.312 17.894C17.0493 17.894 17.5907 17.7587 17.936 17.488C18.2813 17.208 18.454 16.872 18.454 16.48C18.454 16.2373 18.3933 16.0133 18.272 15.808C18.1507 15.6027 17.9267 15.4067 17.6 15.22C17.2733 15.0333 16.8067 14.856 16.2 14.688C15.4067 14.464 14.7813 14.2027 14.324 13.904C13.8667 13.6053 13.54 13.274 13.344 12.91C13.148 12.5367 13.05 12.1447 13.05 11.734C13.05 11.2487 13.19 10.8053 13.47 10.404C13.75 9.99333 14.1327 9.66667 14.618 9.424C15.1127 9.172 15.682 9.046 16.326 9.046C16.9607 9.046 17.5253 9.144 18.02 9.34C18.5147 9.52667 18.9767 9.788 19.406 10.124L18.524 11.118C18.2347 10.866 17.908 10.6653 17.544 10.516C17.18 10.3667 16.7833 10.292 16.354 10.292C15.71 10.292 15.2293 10.4367 14.912 10.726C14.5947 11.0153 14.436 11.328 14.436 11.664C14.436 12.0093 14.59 12.322 14.898 12.602C15.206 12.8727 15.7847 13.1293 16.634 13.372C17.8287 13.708 18.6593 14.128 19.126 14.632C19.602 15.136 19.84 15.7193 19.84 16.382C19.84 16.8953 19.6953 17.362 19.406 17.782C19.126 18.202 18.72 18.538 18.188 18.79C17.656 19.0327 17.012 19.154 16.256 19.154C15.584 19.154 14.9353 19.0327 14.31 18.79C13.6847 18.5473 13.12 18.2113 12.616 17.782ZM21.2802 15.402C21.2802 14.6553 21.4296 13.9973 21.7282 13.428C22.0269 12.8493 22.4329 12.3967 22.9462 12.07C23.4689 11.7433 24.0569 11.58 24.7102 11.58C25.3823 11.58 25.9609 11.734 26.4463 12.042C26.9409 12.3407 27.3189 12.7607 27.5803 13.302C27.8416 13.834 27.9723 14.4547 27.9723 15.164C27.9723 15.3787 27.9583 15.584 27.9303 15.78H22.6522C22.7269 16.4707 22.9649 17.0027 23.3662 17.376C23.7676 17.74 24.2669 17.922 24.8643 17.922C25.2003 17.922 25.5409 17.8427 25.8863 17.684C26.2409 17.5253 26.5256 17.3107 26.7403 17.04L27.6922 17.838C27.3749 18.23 26.9643 18.5473 26.4603 18.79C25.9563 19.0327 25.4009 19.154 24.7943 19.154C24.1129 19.154 23.5063 19 22.9742 18.692C22.4422 18.3747 22.0269 17.936 21.7282 17.376C21.4296 16.8067 21.2802 16.1487 21.2802 15.402ZM24.7243 12.742C24.2389 12.742 23.8049 12.9147 23.4223 13.26C23.0396 13.6053 22.7969 14.1 22.6942 14.744H26.6423C26.5956 14.0813 26.3996 13.582 26.0543 13.246C25.7089 12.91 25.2656 12.742 24.7243 12.742ZM29.4363 15.374C29.4363 14.6273 29.5903 13.9693 29.8983 13.4C30.2063 12.8307 30.6263 12.3873 31.1583 12.07C31.6903 11.7433 32.297 11.58 32.9783 11.58C33.585 11.58 34.1217 11.7013 34.5883 11.944C35.055 12.1773 35.433 12.4993 35.7223 12.91L34.6023 13.68C34.4437 13.4093 34.215 13.1993 33.9163 13.05C33.627 12.9007 33.3143 12.826 32.9783 12.826C32.577 12.826 32.213 12.9287 31.8863 13.134C31.5597 13.3393 31.2983 13.6333 31.1023 14.016C30.9157 14.3987 30.8223 14.8513 30.8223 15.374C30.8223 15.8967 30.9203 16.3493 31.1163 16.732C31.3123 17.1053 31.5737 17.3947 31.9003 17.6C32.2363 17.8053 32.6097 17.908 33.0203 17.908C33.375 17.908 33.7063 17.824 34.0143 17.656C34.3223 17.488 34.5557 17.2687 34.7143 16.998L35.7783 17.81C35.489 18.2113 35.1017 18.538 34.6163 18.79C34.1403 19.0327 33.5943 19.154 32.9783 19.154C32.297 19.154 31.6903 18.9953 31.1583 18.678C30.6263 18.3513 30.2063 17.9033 29.8983 17.334C29.5903 16.7647 29.4363 16.1113 29.4363 15.374ZM37.5082 16.144V11.748H38.8522V15.962C38.8522 16.6433 39.0109 17.1427 39.3282 17.46C39.6456 17.768 40.0282 17.922 40.4762 17.922C40.8122 17.922 41.1202 17.8287 41.4002 17.642C41.6802 17.4553 41.9042 17.194 42.0722 16.858C42.2496 16.5127 42.3382 16.1067 42.3382 15.64V11.748H43.6822V19H42.3382V17.838C42.1609 18.2113 41.8669 18.524 41.4562 18.776C41.0549 19.028 40.6022 19.154 40.0982 19.154C39.6316 19.154 39.1976 19.0373 38.7962 18.804C38.4042 18.5613 38.0916 18.216 37.8582 17.768C37.6249 17.32 37.5082 16.7787 37.5082 16.144ZM46.3922 19V11.748H47.7362V13.204C47.9229 12.7653 48.2309 12.3873 48.6602 12.07C49.0989 11.7433 49.5889 11.58 50.1302 11.58V12.952C48.5342 13.036 47.7362 13.918 47.7362 15.598V19H46.3922ZM51.2113 15.402C51.2113 14.6553 51.3606 13.9973 51.6593 13.428C51.9579 12.8493 52.3639 12.3967 52.8773 12.07C53.3999 11.7433 53.9879 11.58 54.6413 11.58C55.3133 11.58 55.8919 11.734 56.3773 12.042C56.8719 12.3407 57.2499 12.7607 57.5113 13.302C57.7726 13.834 57.9033 14.4547 57.9033 15.164C57.9033 15.3787 57.8893 15.584 57.8613 15.78H52.5833C52.6579 16.4707 52.8959 17.0027 53.2973 17.376C53.6986 17.74 54.1979 17.922 54.7953 17.922C55.1313 17.922 55.4719 17.8427 55.8173 17.684C56.1719 17.5253 56.4566 17.3107 56.6713 17.04L57.6233 17.838C57.3059 18.23 56.8953 18.5473 56.3913 18.79C55.8873 19.0327 55.3319 19.154 54.7253 19.154C54.0439 19.154 53.4373 19 52.9053 18.692C52.3733 18.3747 51.9579 17.936 51.6593 17.376C51.3606 16.8067 51.2113 16.1487 51.2113 15.402ZM54.6553 12.742C54.1699 12.742 53.7359 12.9147 53.3533 13.26C52.9706 13.6053 52.7279 14.1 52.6253 14.744H56.5733C56.5266 14.0813 56.3306 13.582 55.9853 13.246C55.6399 12.91 55.1966 12.742 54.6553 12.742ZM63.2071 14.1C63.2071 13.3627 63.3191 12.686 63.5431 12.07C63.7764 11.454 64.0984 10.922 64.5091 10.474C64.9197 10.0167 65.4051 9.66667 65.9651 9.424C66.5251 9.172 67.1364 9.046 67.7991 9.046C68.5737 9.046 69.2597 9.214 69.8571 9.55C70.4637 9.87667 70.9444 10.3293 71.2991 10.908L70.1371 11.678C69.8851 11.2393 69.5537 10.908 69.1431 10.684C68.7417 10.46 68.2937 10.348 67.7991 10.348C67.1924 10.348 66.6511 10.5067 66.1751 10.824C65.7084 11.1413 65.3397 11.5847 65.0691 12.154C64.7984 12.714 64.6631 13.3627 64.6631 14.1C64.6631 14.8373 64.7937 15.4907 65.0551 16.06C65.3257 16.62 65.6944 17.0587 66.1611 17.376C66.6371 17.6933 67.1784 17.852 67.7851 17.852C68.2891 17.852 68.7557 17.7353 69.1851 17.502C69.6144 17.2687 69.9551 16.9373 70.2071 16.508L71.3691 17.292C71.0237 17.852 70.5384 18.3047 69.9131 18.65C69.2877 18.986 68.5784 19.154 67.7851 19.154C66.9077 19.154 66.1237 18.9393 65.4331 18.51C64.7424 18.0713 64.1964 17.474 63.7951 16.718C63.4031 15.9527 63.2071 15.08 63.2071 14.1ZM72.8101 16.998C72.8101 16.3353 73.0668 15.7847 73.5801 15.346C74.1028 14.9073 74.8214 14.688 75.7361 14.688C76.0441 14.688 76.3288 14.7067 76.5901 14.744C76.8608 14.772 77.1268 14.8233 77.3881 14.898V14.744C77.3881 13.456 76.7908 12.812 75.5961 12.812C75.3068 12.812 74.9941 12.8587 74.6581 12.952C74.3314 13.036 74.0094 13.1713 73.6921 13.358L73.2301 12.28C73.6128 12.0653 74.0234 11.8973 74.4621 11.776C74.9101 11.6453 75.3674 11.58 75.8341 11.58C76.7208 11.58 77.4254 11.8367 77.9481 12.35C78.4708 12.8633 78.7321 13.5633 78.7321 14.45V19H77.3881V18.02C77.1361 18.3747 76.8188 18.6547 76.4361 18.86C76.0534 19.056 75.6288 19.154 75.1621 19.154C74.7048 19.154 74.2988 19.0653 73.9441 18.888C73.5894 18.7013 73.3094 18.4447 73.1041 18.118C72.9081 17.7913 72.8101 17.418 72.8101 16.998ZM74.1541 16.9C74.1541 17.2173 74.2614 17.4833 74.4761 17.698C74.6908 17.9033 75.0034 18.006 75.4141 18.006C75.7688 18.006 76.0954 17.9267 76.3941 17.768C76.6928 17.6093 76.9308 17.39 77.1081 17.11C77.2948 16.8207 77.3881 16.4893 77.3881 16.116V15.878C77.1268 15.822 76.8654 15.78 76.6041 15.752C76.3521 15.724 76.0814 15.71 75.7921 15.71C75.2228 15.71 74.8074 15.8267 74.5461 16.06C74.2848 16.2933 74.1541 16.5733 74.1541 16.9ZM81.3074 19V11.748H82.6514V13.204C82.8381 12.7653 83.1461 12.3873 83.5754 12.07C84.0141 11.7433 84.5041 11.58 85.0454 11.58V12.952C83.4494 13.036 82.6514 13.918 82.6514 15.598V19H81.3074ZM86.1265 15.374C86.1265 14.6273 86.2618 13.9693 86.5325 13.4C86.8125 12.8307 87.1905 12.3873 87.6665 12.07C88.1425 11.7433 88.6745 11.58 89.2625 11.58C89.7385 11.58 90.1725 11.6873 90.5645 11.902C90.9565 12.1167 91.2832 12.4153 91.5445 12.798V8.78H92.8885V19H91.5445V17.95C91.2832 18.3233 90.9565 18.6173 90.5645 18.832C90.1725 19.0467 89.7385 19.154 89.2625 19.154C88.6745 19.154 88.1425 18.9953 87.6665 18.678C87.1905 18.3513 86.8125 17.9033 86.5325 17.334C86.2618 16.7647 86.1265 16.1113 86.1265 15.374ZM87.5125 15.374C87.5125 15.8967 87.6012 16.354 87.7785 16.746C87.9558 17.1287 88.1938 17.4273 88.4925 17.642C88.8005 17.8473 89.1412 17.95 89.5145 17.95C90.1212 17.95 90.6252 17.726 91.0265 17.278C91.4278 16.83 91.6285 16.1953 91.6285 15.374C91.6285 14.5527 91.4278 13.918 91.0265 13.47C90.6252 13.022 90.1212 12.798 89.5145 12.798C88.9545 12.798 88.4785 13.0267 88.0865 13.484C87.7038 13.9413 87.5125 14.5713 87.5125 15.374Z" fill="#151515"/>
</g>
<g clip-path="url(#clip2_829_339332)" filter="url(#filter0_d_829_339332)">
<rect width="160" height="48" transform="translate(-12 -11)" fill="white"/>
<rect width="16" height="16" rx="8" fill="#FDE1CD"/>
<rect x="4" y="4" width="8" height="8" rx="4" fill="#F58D40"/>
</g>
</g>
<path d="M-3167 -2497H15802V-2499H-3167V-2497ZM15803 -2496V2222H15805V-2496H15803ZM15802 2223H-3167V2225H15802V2223ZM-3168 2222V-2496H-3170V2222H-3168ZM-3167 2223C-3167.55 2223 -3168 2222.55 -3168 2222H-3170C-3170 2223.66 -3168.66 2225 -3167 2225V2223ZM15803 2222C15803 2222.55 15802.6 2223 15802 2223V2225C15803.7 2225 15805 2223.66 15805 2222H15803ZM15802 -2497C15802.6 -2497 15803 -2496.55 15803 -2496H15805C15805 -2497.66 15803.7 -2499 15802 -2499V-2497ZM-3167 -2499C-3168.66 -2499 -3170 -2497.66 -3170 -2496H-3168C-3168 -2496.55 -3167.55 -2497 -3167 -2497V-2499Z" fill="#BAAAAA"/>
<defs>
<filter id="filter0_d_829_339332" x="-26" y="-163" width="442" height="544" filterUnits="userSpaceOnUse" color-interpolation-filters="sRGB">
<feFlood flood-opacity="0" result="BackgroundImageFix"/>
<feColorMatrix in="SourceAlpha" type="matrix" values="0 0 0 0 0 0 0 0 0 0 0 0 0 0 0 0 0 0 127 0" result="hardAlpha"/>
<feMorphology radius="4" operator="dilate" in="SourceAlpha" result="effect1_dropShadow_829_339332"/>
<feOffset dx="-6"/>
<feGaussianBlur stdDeviation="2"/>
<feColorMatrix type="matrix" values="0 0 0 0 0 0 0 0 0 0 0 0 0 0 0 0 0 0 0.07 0"/>
<feBlend mode="normal" in2="BackgroundImageFix" result="effect1_dropShadow_829_339332"/>
<feBlend mode="normal" in="SourceGraphic" in2="effect1_dropShadow_829_339332" result="shape"/>
</filter>
<clipPath id="clip0_829_339332">
<rect width="1366" height="1665" fill="white" transform="translate(-920 -1156)"/>
</clipPath>
<clipPath id="clip1_829_339332">
<rect width="1046" height="528" fill="white" transform="translate(-632 -155)"/>
</clipPath>
<clipPath id="clip2_829_339332">
<rect width="426" height="528" fill="white" transform="translate(-12 -155)"/>
</clipPath>
</defs>
</svg>
