<svg width="14" height="14" viewBox="0 0 14 14" fill="none" xmlns="http://www.w3.org/2000/svg">
<path fill-rule="evenodd" clip-rule="evenodd" d="M7.00065 1.26226C3.83251 1.26226 1.26422 3.83055 1.26422 6.9987C1.26422 10.1668 3.83251 12.7351 7.00065 12.7351C10.1688 12.7351 12.7371 10.1668 12.7371 6.9987C12.7371 3.83055 10.1688 1.26226 7.00065 1.26226ZM0.333984 6.9987C0.333984 3.3168 3.31875 0.332031 7.00065 0.332031C10.6826 0.332031 13.6673 3.3168 13.6673 6.9987C13.6673 10.6806 10.6826 13.6654 7.00065 13.6654C3.31875 13.6654 0.333984 10.6806 0.333984 6.9987ZM6.12352 3.63062C6.41172 3.48802 6.72909 3.41426 7.05064 3.41515C7.37219 3.41604 7.68914 3.49156 7.97655 3.63576C8.26395 3.77996 8.51396 3.98891 8.70689 4.24615C8.89982 4.50339 9.03041 4.8019 9.08837 5.11819C9.14633 5.43447 9.13008 5.75989 9.0409 6.06883C8.95172 6.37777 8.79205 6.66179 8.57446 6.89853C8.35686 7.13528 8.08728 7.31828 7.78694 7.43313L7.7751 7.43748C7.67999 7.47092 7.59832 7.53437 7.54239 7.61826C7.48647 7.70214 7.45931 7.80193 7.46502 7.90259C7.47957 8.15906 7.28345 8.37876 7.02699 8.3933C6.77052 8.40785 6.55083 8.21173 6.53628 7.95527C6.51915 7.65329 6.60061 7.35392 6.76839 7.10226C6.93479 6.85266 7.17715 6.66339 7.45948 6.56241C7.62341 6.49888 7.77057 6.39851 7.88957 6.26904C8.00974 6.1383 8.09791 5.98145 8.14716 5.81084C8.19641 5.64024 8.20538 5.46053 8.17337 5.28586C8.14137 5.1112 8.06925 4.94635 7.96271 4.80429C7.85616 4.66223 7.7181 4.54684 7.55938 4.46721C7.40067 4.38758 7.22563 4.34587 7.04806 4.34538C6.87049 4.34489 6.69522 4.38562 6.53607 4.46437C6.37691 4.54312 6.23821 4.65774 6.13088 4.79921C5.97562 5.00385 5.68386 5.04388 5.47921 4.88862C5.27457 4.73335 5.23454 4.44159 5.3898 4.23695C5.58416 3.98078 5.83532 3.77323 6.12352 3.63062ZM7.00065 9.63436C7.25753 9.63436 7.46577 9.8426 7.46577 10.0995V10.1057C7.46577 10.3626 7.25753 10.5708 7.00065 10.5708C6.74378 10.5708 6.53554 10.3626 6.53554 10.1057V10.0995C6.53554 9.8426 6.74378 9.63436 7.00065 9.63436Z" fill="#997F31"/>
</svg>
