<svg width="20" height="20" viewBox="0 0 20 20" fill="none" xmlns="http://www.w3.org/2000/svg">
<path fill-rule="evenodd" clip-rule="evenodd" d="M5.7719 2.84568C7.36729 1.92243 9.22145 1.55023 11.0488 1.78642C12.8761 2.02261 14.5752 2.85408 15.8844 4.15277C17.1936 5.45145 18.0402 7.14529 18.2938 8.97337C18.3589 9.44306 18.7919 9.7709 19.2607 9.70562C19.7296 9.64035 20.0569 9.20669 19.9917 8.737C19.6864 6.53584 18.667 4.49632 17.0906 2.9326C15.5143 1.36888 13.4684 0.367709 11.2682 0.0833173C9.0679 -0.201075 6.83534 0.247085 4.91437 1.35876C3.64173 2.09524 2.55263 3.09587 1.71437 4.28391V1.98632C1.71437 1.51212 1.33062 1.12771 0.857239 1.12771C0.383858 1.12771 0.000104904 1.51212 0.000104904 1.98632V6.56556C0.000104904 7.03976 0.383858 7.42417 0.857239 7.42417H1.40881C1.42184 7.42447 1.43484 7.42447 1.44782 7.42417H5.42862C5.902 7.42417 6.28575 7.03976 6.28575 6.56556C6.28575 6.09137 5.902 5.70695 5.42862 5.70695H2.82901C3.55531 4.53013 4.56408 3.54466 5.7719 2.84568ZM0.739256 10.2944C0.27038 10.3596 -0.0568962 10.7933 0.00826454 11.263C0.313637 13.4642 1.33301 15.5037 2.90936 17.0674C4.48571 18.6311 6.53159 19.6323 8.73184 19.9167C10.9321 20.2011 13.1647 19.7529 15.0856 18.6412C16.3583 17.9048 17.4474 16.9041 18.2856 15.7161V18.0137C18.2856 18.4879 18.6694 18.8723 19.1428 18.8723C19.6161 18.8723 19.9999 18.4879 19.9999 18.0137V13.4344C19.9999 12.9602 19.6161 12.5758 19.1428 12.5758H18.5912C18.5782 12.5755 18.5652 12.5755 18.5522 12.5758H14.5714C14.098 12.5758 13.7142 12.9602 13.7142 13.4344C13.7142 13.9086 14.098 14.293 14.5714 14.293H17.171C16.4447 15.4699 15.4359 16.4553 14.2281 17.1543C12.6327 18.0776 10.7785 18.4498 8.95122 18.2136C7.12389 17.9774 5.42477 17.1459 4.1156 15.8472C2.80643 14.5485 1.95983 12.8547 1.70621 11.0266C1.64105 10.5569 1.20813 10.2291 0.739256 10.2944Z" fill="white"/>
</svg>
