<svg width="50" height="46" viewBox="0 0 50 46" fill="none" xmlns="http://www.w3.org/2000/svg">
<path fill-rule="evenodd" clip-rule="evenodd" d="M21.9354 1.32701C22.8666 0.786554 23.9223 0.5 25 0.5C26.0777 0.5 27.1334 0.786554 28.0646 1.32701C28.9953 1.86718 29.7674 2.64085 30.3124 3.56717L30.3172 3.57532L49.1839 36.0444C49.7173 36.9966 49.997 38.0716 50 39.1627C50.0029 40.2538 49.7289 41.3302 49.2008 42.2853C48.6725 43.2408 47.9061 44.0452 46.9714 44.6122C46.0362 45.1795 44.9678 45.4874 43.8729 45.4998L43.853 45.5L6.12706 45.4999C5.03221 45.4875 3.96378 45.1795 3.02857 44.6122C2.09391 44.0452 1.32754 43.2408 0.799212 42.2853C0.271083 41.3302 -0.00293995 40.2538 2.37873e-05 39.1627C0.00298739 38.0716 0.282856 36.9967 0.816247 36.0445L0.829569 36.0207L19.6875 3.56716C20.2326 2.64084 21.0047 1.86718 21.9354 1.32701ZM25 3.96153C24.5475 3.96153 24.0988 4.08154 23.6966 4.31498C23.295 4.54807 22.9505 4.88825 22.7021 5.30904C22.7014 5.31021 22.7007 5.31139 22.7 5.31256L3.8594 37.7367C3.61914 38.1699 3.48976 38.6647 3.48838 39.172C3.48699 39.6835 3.61576 40.1831 3.85749 40.6202C4.09902 41.0571 4.44275 41.413 4.84797 41.6588C5.25009 41.9027 5.70142 42.0316 6.15812 42.0384H43.8419C44.2986 42.0316 44.7499 41.9027 45.152 41.6588C45.5573 41.413 45.901 41.0571 46.1425 40.6202C46.3842 40.1831 46.513 39.6835 46.5116 39.172C46.5102 38.6646 46.3808 38.1698 46.1405 37.7366L27.3 5.31256C27.2993 5.31139 27.2986 5.31021 27.2979 5.30904C27.0495 4.88825 26.705 4.54807 26.3034 4.31498C25.9012 4.08154 25.4525 3.96153 25 3.96153ZM25 14.3461C25.9633 14.3461 26.7442 15.121 26.7442 16.0769V25.3076C26.7442 26.2635 25.9633 27.0384 25 27.0384C24.0367 27.0384 23.2558 26.2635 23.2558 25.3076V16.0769C23.2558 15.121 24.0367 14.3461 25 14.3461ZM23.2558 34.5384C23.2558 33.5825 24.0367 32.8076 25 32.8076H25.0233C25.9865 32.8076 26.7674 33.5825 26.7674 34.5384C26.7674 35.4942 25.9865 36.2691 25.0233 36.2691H25C24.0367 36.2691 23.2558 35.4942 23.2558 34.5384Z" fill="#E63946"/>
</svg>
