<svg width="20" height="20" viewBox="0 0 20 20" fill="none" xmlns="http://www.w3.org/2000/svg">
<path fill-rule="evenodd" clip-rule="evenodd" d="M10 1.39535C5.24778 1.39535 1.39535 5.24778 1.39535 10C1.39535 14.7522 5.24778 18.6047 10 18.6047C14.7522 18.6047 18.6047 14.7522 18.6047 10C18.6047 5.24778 14.7522 1.39535 10 1.39535ZM0 10C0 4.47715 4.47715 0 10 0C15.5228 0 20 4.47715 20 10C20 15.5228 15.5228 20 10 20C4.47715 20 0 15.5228 0 10ZM6.71597 6.71597C6.98843 6.44351 7.43017 6.44351 7.70263 6.71597L10 9.01334L12.2974 6.71597C12.5698 6.44351 13.0116 6.44351 13.284 6.71597C13.5565 6.98843 13.5565 7.43017 13.284 7.70263L10.9867 10L13.284 12.2974C13.5565 12.5698 13.5565 13.0116 13.284 13.284C13.0116 13.5565 12.5698 13.5565 12.2974 13.284L10 10.9867L7.70263 13.284C7.43017 13.5565 6.98843 13.5565 6.71597 13.284C6.44351 13.0116 6.44351 12.5698 6.71597 12.2974L9.01334 10L6.71597 7.70263C6.44351 7.43017 6.44351 6.98843 6.71597 6.71597Z" fill="#0662B7"/>
</svg>
