<svg width="14" height="14" viewBox="0 0 14 14" fill="none" xmlns="http://www.w3.org/2000/svg">
    <path fill-rule="evenodd" clip-rule="evenodd"
        d="M10.7019 2.74849C9.65513 1.83717 8.30869 1.34221 6.91947 1.35804C5.53025 1.37387 4.19549 1.89938 3.16986 2.83432C2.14423 3.76925 1.49951 5.04816 1.35872 6.42704C1.32996 6.70881 1.07767 6.91396 0.795239 6.88526C0.512805 6.85655 0.307168 6.60487 0.335938 6.32311C0.502326 4.69352 1.26426 3.18208 2.47637 2.07716C3.68848 0.972237 5.26592 0.351175 6.90773 0.332467C8.54954 0.313758 10.1408 0.898714 11.3779 1.97573C12.615 3.05274 13.4113 4.54643 13.615 6.1718C13.8186 7.79716 13.4153 9.44044 12.482 10.7881C11.5488 12.1358 10.1508 13.0935 8.5549 13.4785C6.95899 13.8636 5.27685 13.649 3.82941 12.8757C2.81891 12.3359 1.97218 11.5502 1.36137 10.6014V12.5289C1.36137 12.8121 1.13123 13.0417 0.847331 13.0417C0.563435 13.0417 0.333292 12.8121 0.333292 12.5289V9.11012C0.333292 8.82689 0.563435 8.5973 0.847331 8.5973H1.17803C1.18602 8.59711 1.19398 8.59711 1.20193 8.5973H4.27426C4.55816 8.5973 4.7883 8.82689 4.7883 9.11012C4.7883 9.39334 4.55816 9.62294 4.27426 9.62294H1.97872C2.50189 10.6161 3.31326 11.4366 4.31474 11.9716C5.5395 12.6259 6.96285 12.8075 8.31323 12.4816C9.66361 12.1558 10.8465 11.3455 11.6362 10.2051C12.4259 9.06479 12.7671 7.67432 12.5948 6.29901C12.4225 4.9237 11.7487 3.65981 10.7019 2.74849Z"
        fill="#82B1DB" />
</svg>