<svg width="14" height="12" viewBox="0 0 14 12" fill="none" xmlns="http://www.w3.org/2000/svg">
<path fill-rule="evenodd" clip-rule="evenodd" d="M1.92617 1.57835C1.60104 1.57835 1.26373 1.87749 1.26373 2.34025V4.32121H12.7366V2.34025C12.7366 1.87749 12.3993 1.57835 12.0742 1.57835H1.92617ZM13.6668 2.34025C13.6668 1.4565 12.9945 0.664062 12.0742 0.664062H1.92617C1.00584 0.664062 0.333496 1.4565 0.333496 2.34025V9.65454C0.333496 10.5383 1.00584 11.3307 1.92617 11.3307H12.0742C12.9945 11.3307 13.6668 10.5383 13.6668 9.65454V2.34025ZM12.7366 5.23549H1.26373V9.65454C1.26373 10.1173 1.60104 10.4164 1.92617 10.4164H12.0742C12.3993 10.4164 12.7366 10.1173 12.7366 9.65454V5.23549Z" fill="white"/>
</svg>
