<svg width="12" height="14" viewBox="0 0 12 14" fill="none" xmlns="http://www.w3.org/2000/svg">
<path fill-rule="evenodd" clip-rule="evenodd" d="M8.68792 0.465563C8.89101 0.285976 9.21662 0.289285 9.41519 0.472953L11.8533 2.72806C12.0487 2.90882 12.0487 3.19765 11.8533 3.3784L9.41519 5.63351C9.21662 5.81718 8.89101 5.82049 8.68792 5.6409C8.48484 5.46132 8.48118 5.16684 8.67975 4.98317L10.2634 3.51835H2.95238C2.44593 3.51835 1.95783 3.70434 1.5961 4.03891C1.234 4.37384 1.02857 4.83028 1.02857 5.30834V6.4359C1.02857 6.69277 0.798318 6.90101 0.514286 6.90101C0.230254 6.90101 5.10897e-09 6.69277 5.10897e-09 6.4359V5.30834C5.10897e-09 4.59023 0.30831 3.89947 0.860669 3.38857C1.41341 2.87731 2.16558 2.58812 2.95238 2.58812H10.2634L8.67975 1.1233C8.48118 0.939627 8.48484 0.64515 8.68792 0.465563ZM11.4857 7.09834C11.7697 7.09834 12 7.30658 12 7.56345V8.69101C12 9.40912 11.6917 10.0999 11.1393 10.6108C10.5866 11.122 9.83442 11.4112 9.04762 11.4112H1.73642L3.3201 12.8761C3.51867 13.0597 3.51501 13.3542 3.31193 13.5338C3.10884 13.7134 2.78324 13.7101 2.58466 13.5264L0.146568 11.2713C-0.048856 11.0905 -0.048856 10.8017 0.146568 10.6209L2.58466 8.36584C2.78324 8.18217 3.10884 8.17886 3.31193 8.35845C3.51501 8.53803 3.51867 8.83251 3.3201 9.01618L1.73642 10.481H9.04762C9.55407 10.481 10.0422 10.295 10.4039 9.96044C10.766 9.62551 10.9714 9.16907 10.9714 8.69101V7.56345C10.9714 7.30658 11.2017 7.09834 11.4857 7.09834Z" fill="white"/>
</svg>
