<svg width="20" height="12" viewBox="0 0 20 12" fill="none" xmlns="http://www.w3.org/2000/svg">
<path fill-rule="evenodd" clip-rule="evenodd" d="M13.5307 0.72C13.5307 0.322355 13.843 0 14.2283 0H19.3023C19.6876 0 20 0.322355 20 0.72L20 6C20 6.39764 19.6876 6.72 19.3023 6.72C18.917 6.72 18.6047 6.39764 18.6047 6L18.6046 2.46848L11.7639 9.587C11.6329 9.72332 11.4545 9.8 11.2685 9.8C11.0825 9.8 10.9041 9.72332 10.7731 9.587L7.04017 5.70249L1.19305 11.787C0.921721 12.0693 0.479982 12.0712 0.206395 11.7912C-0.0671916 11.5112 -0.0690245 11.0553 0.202301 10.773L6.5448 4.173C6.6758 4.03668 6.85413 3.96 7.04017 3.96C7.22621 3.96 7.40454 4.03668 7.53554 4.173L11.2685 8.05752L17.6278 1.44H14.2283C13.843 1.44 13.5307 1.11765 13.5307 0.72Z" fill="white"/>
</svg>
