<svg width="20" height="20" viewBox="0 0 20 20" fill="none" xmlns="http://www.w3.org/2000/svg">
<path fill-rule="evenodd" clip-rule="evenodd" d="M10 1.39535C5.24778 1.39535 1.39535 5.24778 1.39535 10C1.39535 14.7522 5.24778 18.6047 10 18.6047C14.7522 18.6047 18.6047 14.7522 18.6047 10C18.6047 5.24778 14.7522 1.39535 10 1.39535ZM0 10C0 4.47715 4.47715 0 10 0C15.5228 0 20 4.47715 20 10C20 15.5228 15.5228 20 10 20C4.47715 20 0 15.5228 0 10ZM10 5.11628C7.3028 5.11628 5.11628 7.3028 5.11628 10C5.11628 12.6972 7.3028 14.8837 10 14.8837C12.6972 14.8837 14.8837 12.6972 14.8837 10C14.8837 7.3028 12.6972 5.11628 10 5.11628ZM3.72093 10C3.72093 6.53217 6.53217 3.72093 10 3.72093C13.4678 3.72093 16.2791 6.53217 16.2791 10C16.2791 13.4678 13.4678 16.2791 10 16.2791C6.53217 16.2791 3.72093 13.4678 3.72093 10ZM10 8.83721C9.35781 8.83721 8.83721 9.35781 8.83721 10C8.83721 10.6422 9.35781 11.1628 10 11.1628C10.6422 11.1628 11.1628 10.6422 11.1628 10C11.1628 9.35781 10.6422 8.83721 10 8.83721ZM7.44186 10C7.44186 8.58718 8.58718 7.44186 10 7.44186C11.4128 7.44186 12.5581 8.58718 12.5581 10C12.5581 11.4128 11.4128 12.5581 10 12.5581C8.58718 12.5581 7.44186 11.4128 7.44186 10Z" fill="#999B9C"/>
</svg>
