<svg width="14" height="12" viewBox="0 0 14 12" fill="none" xmlns="http://www.w3.org/2000/svg">
<path fill-rule="evenodd" clip-rule="evenodd" d="M0.227806 0.229221C0.531547 -0.0764069 1.02401 -0.0764069 1.32775 0.229221L6.51293 5.44661C6.81668 5.75224 6.81668 6.24776 6.51293 6.55339L1.32775 11.7708C1.02401 12.0764 0.531547 12.0764 0.227806 11.7708C-0.0759353 11.4652 -0.0759353 10.9696 0.227806 10.664L4.86302 6L0.227806 1.336C-0.0759353 1.03037 -0.0759353 0.534848 0.227806 0.229221ZM7.48706 0.229221C7.79081 -0.0764069 8.28327 -0.0764069 8.58701 0.229221L13.7722 5.44661C14.0759 5.75224 14.0759 6.24776 13.7722 6.55339L8.58701 11.7708C8.28327 12.0764 7.79081 12.0764 7.48706 11.7708C7.18332 11.4652 7.18332 10.9696 7.48706 10.664L12.1223 6L7.48706 1.336C7.18332 1.03037 7.18332 0.534848 7.48706 0.229221Z" fill="white"/>
</svg>
