<svg width="20" height="18" viewBox="0 0 20 18" fill="none" xmlns="http://www.w3.org/2000/svg">
<path fill-rule="evenodd" clip-rule="evenodd" d="M8.77416 0.330806C9.14664 0.114622 9.56892 0 10 0C10.4311 0 10.8534 0.114622 11.2258 0.330806C11.5981 0.54687 11.907 0.856341 12.125 1.22687L12.1269 1.23013L19.6736 14.2178C19.8869 14.5986 19.9988 15.0286 20 15.4651C20.0012 15.9015 19.8916 16.3321 19.6803 16.7141C19.469 17.0963 19.1624 17.4181 18.7886 17.6449C18.4145 17.8718 17.9871 17.9949 17.5492 17.9999L17.5412 18L2.45082 18C2.01288 17.995 1.58551 17.8718 1.21143 17.6449C0.837565 17.4181 0.531016 17.0963 0.319685 16.7141C0.108433 16.3321 -0.00117598 15.9015 9.51493e-06 15.4651C0.00119495 15.0286 0.113142 14.5987 0.326499 14.2178L0.331828 14.2083L7.87501 1.22686C8.09303 0.856336 8.40189 0.54687 8.77416 0.330806ZM10 1.38461C9.81899 1.38461 9.63952 1.43262 9.47864 1.52599C9.318 1.61923 9.18019 1.7553 9.08084 1.92362C9.08056 1.92409 9.08028 1.92456 9.08 1.92503L1.54376 14.8947C1.44766 15.0679 1.3959 15.2659 1.39535 15.4688C1.3948 15.6734 1.4463 15.8732 1.543 16.0481C1.63961 16.2228 1.7771 16.3652 1.93919 16.4635C2.10003 16.5611 2.28057 16.6126 2.46325 16.6153H17.5367C17.7194 16.6126 17.9 16.5611 18.0608 16.4635C18.2229 16.3652 18.3604 16.2228 18.457 16.0481C18.5537 15.8732 18.6052 15.6734 18.6046 15.4688C18.6041 15.2658 18.5523 15.0679 18.4562 14.8947L10.92 1.92503C10.9197 1.92456 10.9194 1.92409 10.9192 1.92362C10.8198 1.7553 10.682 1.61923 10.5214 1.52599C10.3605 1.43262 10.181 1.38461 10 1.38461ZM10 5.53845C10.3853 5.53845 10.6977 5.8484 10.6977 6.23075V9.92305C10.6977 10.3054 10.3853 10.6154 10 10.6154C9.61469 10.6154 9.30233 10.3054 9.30233 9.92305V6.23075C9.30233 5.8484 9.61469 5.53845 10 5.53845ZM9.30233 13.6154C9.30233 13.233 9.61469 12.923 10 12.923H10.0093C10.3946 12.923 10.707 13.233 10.707 13.6154C10.707 13.9977 10.3946 14.3077 10.0093 14.3077H10C9.61469 14.3077 9.30233 13.9977 9.30233 13.6154Z" fill="white"/>
</svg>
