<svg width="16" height="20" viewBox="0 0 16 20" fill="none" xmlns="http://www.w3.org/2000/svg">
<path fill-rule="evenodd" clip-rule="evenodd" d="M7.75923 0.0444217C7.91447 -0.0148072 8.08554 -0.0148072 8.24077 0.0444217L15.5551 2.83513C15.8227 2.93725 16 3.19757 16 3.48839V10.0001C16 13.1022 13.9782 15.6049 12.1087 17.2693C11.1595 18.1144 10.2136 18.7757 9.50628 19.2255C9.15193 19.4508 8.85565 19.6242 8.64639 19.742C8.54171 19.801 8.45868 19.8461 8.40089 19.877C8.37199 19.8924 8.34939 19.9043 8.33354 19.9126L8.31487 19.9222L8.30944 19.925L8.30772 19.9259C8.30748 19.926 8.30666 19.9265 8 19.3024C7.69334 19.9265 7.69313 19.9263 7.6929 19.9262L7.69056 19.925L7.68513 19.9222L7.66646 19.9126C7.65061 19.9043 7.62801 19.8924 7.59911 19.877C7.54132 19.8461 7.45829 19.801 7.35361 19.742C7.14435 19.6242 6.84807 19.4508 6.49372 19.2255C5.78643 18.7757 4.84049 18.1144 3.89131 17.2693C2.02177 15.6049 0 13.1022 0 10.0001V3.48839C0 3.19757 0.177307 2.93725 0.444944 2.83513L7.75923 0.0444217ZM8 19.3024L7.6929 19.9262C7.88594 20.0244 8.11361 20.0247 8.30666 19.9265L8 19.3024ZM8 18.5112C8.18988 18.4039 8.45825 18.2464 8.77943 18.0422C9.44357 17.6199 10.3262 17.0021 11.2056 16.2192C12.9932 14.6278 14.6286 12.4793 14.6286 10.0001V3.97188L8 1.4428L1.37143 3.97188V10.0001C1.37143 12.4793 3.0068 14.6278 4.7944 16.2192C5.6738 17.0021 6.55643 17.6199 7.22057 18.0422C7.54175 18.2464 7.81012 18.4039 8 18.5112Z" fill="#999B9C"/>
</svg>
