<svg width="24" height="24" viewBox="0 0 24 24" fill="none" xmlns="http://www.w3.org/2000/svg">
<rect width="24" height="24" rx="12" fill="#E63946"/>
<path fill-rule="evenodd" clip-rule="evenodd" d="M12 3.39535C7.24778 3.39535 3.39535 7.24778 3.39535 12C3.39535 16.7522 7.24778 20.6047 12 20.6047C16.7522 20.6047 20.6047 16.7522 20.6047 12C20.6047 7.24778 16.7522 3.39535 12 3.39535ZM2 12C2 6.47715 6.47715 2 12 2C17.5228 2 22 6.47715 22 12C22 17.5228 17.5228 22 12 22C6.47715 22 2 17.5228 2 12ZM12 7.5814C12.3853 7.5814 12.6977 7.89375 12.6977 8.27907V12C12.6977 12.3853 12.3853 12.6977 12 12.6977C11.6147 12.6977 11.3023 12.3853 11.3023 12V8.27907C11.3023 7.89375 11.6147 7.5814 12 7.5814ZM11.3023 15.7209C11.3023 15.3356 11.6147 15.0233 12 15.0233H12.0093C12.3946 15.0233 12.707 15.3356 12.707 15.7209C12.707 16.1062 12.3946 16.4186 12.0093 16.4186H12C11.6147 16.4186 11.3023 16.1062 11.3023 15.7209Z" fill="white"/>
</svg>
