<svg width="24" height="24" viewBox="0 0 24 24" fill="none" xmlns="http://www.w3.org/2000/svg">
<path d="M6.59957 10.8015L11.9995 0.601562L14.9995 5.40153V8.40152L22.7995 9.60151L20.9995 22.2014L1.19961 23.4014L0.599609 11.4015L6.59957 10.8015Z" fill="#32A64D"/>
<path fill-rule="evenodd" clip-rule="evenodd" d="M10.2826 0.492624C10.4181 0.192744 10.7166 0 11.0456 0C12.1659 0 13.2429 0.437826 14.039 1.22134C14.8356 2.0053 15.2857 3.07146 15.2857 4.18602V7.81391H20.8641C21.3106 7.80965 21.753 7.90057 22.1613 8.08087C22.571 8.26188 22.937 8.52887 23.2333 8.86422C23.5297 9.19961 23.7492 9.59529 23.8757 10.0242C24.0022 10.4531 24.0325 10.9043 23.9644 11.3462L23.9642 11.3474L22.3991 21.3925C22.3991 21.3925 22.3991 21.3924 22.3991 21.3925C22.2857 22.1279 21.9065 22.7955 21.3352 23.2735C20.7653 23.7501 20.0422 24.007 19.2988 23.9999H3.10575C2.28633 23.9999 1.49784 23.6796 0.914405 23.1055C0.330519 22.5308 0 21.7486 0 20.9301V13.1162C0 12.2977 0.330519 11.5155 0.914405 10.9408C1.49784 10.3667 2.28633 10.0465 3.10575 10.0465H5.96803L10.2826 0.492624ZM7.34576 11.0639L11.5629 1.72597C12.0537 1.82489 12.5073 2.06315 12.8646 2.41476C13.3443 2.88685 13.6112 3.52426 13.6112 4.18602V8.65111C13.6112 9.11349 13.9861 9.48832 14.4485 9.48832H20.8684L20.8778 9.48826C21.0873 9.48593 21.2944 9.52848 21.4847 9.61253C21.675 9.69656 21.8433 9.81982 21.9786 9.97291C22.1138 10.126 22.2128 10.3052 22.2697 10.4979C22.3265 10.6906 22.3401 10.8927 22.3096 11.0907C22.3096 11.0906 22.3096 11.0908 22.3096 11.0907L20.7444 21.1361L20.7442 21.1375C20.6935 21.4667 20.5232 21.7697 20.2608 21.9892C19.9982 22.2089 19.6614 22.3294 19.3124 22.3255L7.34576 22.3254V11.0639ZM5.67135 22.3254V11.7209H3.10575C2.72185 11.7209 2.35632 11.8711 2.08888 12.1343C1.8219 12.397 1.67441 12.7505 1.67441 13.1162V20.9301C1.67441 21.2958 1.8219 21.6493 2.08888 21.912C2.35632 22.1752 2.72185 22.3254 3.10575 22.3254H5.67135Z" fill="white"/>
</svg>
