<svg width="20" height="20" viewBox="0 0 20 20" fill="none" xmlns="http://www.w3.org/2000/svg">
<path fill-rule="evenodd" clip-rule="evenodd" d="M0 2.55814C0 1.14532 1.14532 0 2.55814 0L17.4419 0C18.8547 0 20 1.14532 20 2.55814V17.4419C20 18.8547 18.8547 20 17.4419 20H2.55814C1.14532 20 0 18.8547 0 17.4419L0 2.55814ZM2.55814 1.39535C1.91595 1.39535 1.39535 1.91595 1.39535 2.55814V17.4419C1.39535 18.0841 1.91595 18.6047 2.55814 18.6047H17.4419C18.0841 18.6047 18.6047 18.0841 18.6047 17.4419V2.55814C18.6047 1.91595 18.0841 1.39535 17.4419 1.39535H2.55814ZM10 5.5814C10.3853 5.5814 10.6977 5.89375 10.6977 6.27907V9.30233H13.7209C14.1062 9.30233 14.4186 9.61469 14.4186 10C14.4186 10.3853 14.1062 10.6977 13.7209 10.6977H10.6977V13.7209C10.6977 14.1062 10.3853 14.4186 10 14.4186C9.61469 14.4186 9.30233 14.1062 9.30233 13.7209V10.6977H6.27907C5.89375 10.6977 5.5814 10.3853 5.5814 10C5.5814 9.61469 5.89375 9.30233 6.27907 9.30233H9.30233V6.27907C9.30233 5.89375 9.61469 5.5814 10 5.5814Z" fill="#0662B7"/>
</svg>
