<svg width="16" height="20" viewBox="0 0 16 20" fill="none" xmlns="http://www.w3.org/2000/svg">
<path fill-rule="evenodd" clip-rule="evenodd" d="M0.736417 0.749262C1.20794 0.269517 1.84746 0 2.51429 0H9.82857C10.0104 0 10.1848 0.0735048 10.3134 0.204344L15.7992 5.78574C15.9278 5.91658 16 6.09404 16 6.27907V17.4419C16 18.1203 15.7351 18.771 15.2636 19.2507C14.7921 19.7305 14.1525 20 13.4857 20H2.51429C1.84746 20 1.20794 19.7305 0.736417 19.2507C0.264897 18.771 0 18.1203 0 17.4419V2.55814C0 1.87968 0.264897 1.22901 0.736417 0.749262ZM2.51429 1.39535C2.21118 1.39535 1.92049 1.51786 1.70616 1.73592C1.49184 1.95399 1.37143 2.24975 1.37143 2.55814V17.4419C1.37143 17.7503 1.49184 18.046 1.70616 18.2641C1.92049 18.4821 2.21118 18.6047 2.51429 18.6047H13.4857C13.7888 18.6047 14.0795 18.4821 14.2938 18.2641C14.5082 18.046 14.6286 17.7503 14.6286 17.4419V6.97674H9.82857C9.44986 6.97674 9.14286 6.66438 9.14286 6.27907V1.39535H2.51429ZM10.5143 2.38201L13.6588 5.5814H10.5143V2.38201ZM3.65714 7.2093C3.65714 6.82399 3.96415 6.51163 4.34286 6.51163H6.17143C6.55014 6.51163 6.85714 6.82399 6.85714 7.2093C6.85714 7.59462 6.55014 7.90698 6.17143 7.90698H4.34286C3.96415 7.90698 3.65714 7.59462 3.65714 7.2093ZM3.65714 10.9302C3.65714 10.5449 3.96415 10.2326 4.34286 10.2326H11.6571C12.0359 10.2326 12.3429 10.5449 12.3429 10.9302C12.3429 11.3155 12.0359 11.6279 11.6571 11.6279H4.34286C3.96415 11.6279 3.65714 11.3155 3.65714 10.9302ZM3.65714 14.6512C3.65714 14.2658 3.96415 13.9535 4.34286 13.9535H11.6571C12.0359 13.9535 12.3429 14.2658 12.3429 14.6512C12.3429 15.0365 12.0359 15.3488 11.6571 15.3488H4.34286C3.96415 15.3488 3.65714 15.0365 3.65714 14.6512Z" fill="#999B9C"/>
</svg>
