<svg width="24" height="24" viewBox="0 0 24 24" fill="none" xmlns="http://www.w3.org/2000/svg">
<path d="M17.4004 13.1985L12.0005 23.3984L9.00048 18.5985L9.00048 15.5985L1.20052 14.3985L3.00051 1.79857L22.8004 0.598576L23.4004 12.5985L17.4004 13.1985Z" fill="#E63946"/>
<path fill-rule="evenodd" clip-rule="evenodd" d="M13.7174 23.5074C13.5819 23.8073 13.2834 24 12.9544 24C11.8341 24 10.7571 23.5622 9.96097 22.7787C9.16437 21.9947 8.71434 20.9285 8.71434 19.814L8.71434 16.1861L3.13586 16.1861C2.68944 16.1904 2.24697 16.0994 1.83875 15.9191C1.42896 15.7381 1.06296 15.4711 0.766651 15.1358C0.470308 14.8004 0.250834 14.4047 0.124313 13.9758C-0.00221825 13.5469 -0.0325394 13.0957 0.0356159 12.6538L0.0358124 12.6526L1.60089 2.60751C1.6009 2.60746 1.60088 2.60756 1.60089 2.60751C1.71425 1.87209 2.09347 1.20449 2.66484 0.726532C3.23466 0.249866 3.95777 -0.00695992 4.70124 0.000143051L20.8943 0.000143051C21.7137 0.000143051 22.5022 0.320362 23.0856 0.894537C23.6695 1.46916 24 2.25138 24 3.06989L24 10.8838C24 11.7023 23.6695 12.4845 23.0856 13.0592C22.5022 13.6333 21.7137 13.9535 20.8943 13.9535H18.032L13.7174 23.5074ZM16.6542 12.9361L12.4371 22.274C11.9463 22.1751 11.4927 21.9369 11.1354 21.5852C10.6557 21.1132 10.3888 20.4757 10.3888 19.814L10.3888 15.3489C10.3888 14.8865 10.0139 14.5117 9.55155 14.5117H3.13158L3.12225 14.5117C2.91271 14.5141 2.70555 14.4715 2.51527 14.3875C2.32501 14.3034 2.15669 14.1802 2.02142 14.0271C1.88619 13.874 1.78715 13.6948 1.7303 13.5021C1.67347 13.3094 1.65992 13.1073 1.69042 12.9093C1.69041 12.9094 1.69043 12.9092 1.69042 12.9093L3.25555 2.8639L3.25577 2.86251C3.3065 2.53328 3.47684 2.23029 3.73918 2.01084C4.00184 1.79112 4.33858 1.67062 4.68756 1.6745L16.6542 1.67455L16.6542 12.9361ZM18.3286 1.67455L18.3286 12.2791H20.8943C21.2782 12.2791 21.6437 12.1289 21.9111 11.8657C22.1781 11.603 22.3256 11.2495 22.3256 10.8838L22.3256 3.06989C22.3256 2.70419 22.1781 2.3507 21.9111 2.08795C21.6437 1.82476 21.2782 1.67455 20.8943 1.67455H18.3286Z" fill="white"/>
</svg>
