<svg width="14" height="14" viewBox="0 0 14 14" fill="none" xmlns="http://www.w3.org/2000/svg">
<path fill-rule="evenodd" clip-rule="evenodd" d="M6.99968 1.26422C3.83153 1.26422 1.26324 3.83251 1.26324 7.00065C1.26324 10.1688 3.83153 12.7371 6.99968 12.7371C10.1678 12.7371 12.7361 10.1688 12.7361 7.00065C12.7361 3.83251 10.1678 1.26422 6.99968 1.26422ZM0.333008 7.00065C0.333008 3.31875 3.31778 0.333984 6.99968 0.333984C10.6816 0.333984 13.6663 3.31875 13.6663 7.00065C13.6663 10.6826 10.6816 13.6673 6.99968 13.6673C3.31778 13.6673 0.333008 10.6826 0.333008 7.00065ZM4.81032 4.8113C4.99196 4.62966 5.28646 4.62966 5.4681 4.8113L6.99968 6.34288L8.53125 4.8113C8.71289 4.62966 9.00739 4.62966 9.18903 4.8113C9.37067 4.99294 9.37067 5.28743 9.18903 5.46907L7.65745 7.00065L9.18903 8.53223C9.37067 8.71387 9.37067 9.00836 9.18903 9.19C9.00739 9.37164 8.71289 9.37164 8.53125 9.19L6.99968 7.65842L5.4681 9.19C5.28646 9.37164 4.99196 9.37164 4.81032 9.19C4.62868 9.00836 4.62868 8.71387 4.81032 8.53223L6.3419 7.00065L4.81032 5.46907C4.62868 5.28743 4.62868 4.99294 4.81032 4.8113Z" fill="#992D26"/>
</svg>
