<svg width="14" height="12" viewBox="0 0 14 12" fill="none" xmlns="http://www.w3.org/2000/svg">
<path fill-rule="evenodd" clip-rule="evenodd" d="M6.18245 0.220537C6.43077 0.0764145 6.71229 0 6.99968 0C7.28706 0 7.56858 0.0764145 7.8169 0.220537C8.06508 0.36458 8.27098 0.570894 8.41633 0.817912L8.41761 0.820085L13.4487 9.4785C13.591 9.73243 13.6655 10.0191 13.6663 10.3101C13.6671 10.601 13.5941 10.888 13.4532 11.1428C13.3123 11.3976 13.108 11.6121 12.8587 11.7632C12.6093 11.9145 12.3244 11.9966 12.0325 11.9999L12.0271 12L1.96689 12C1.67493 11.9967 1.39001 11.9145 1.14063 11.7632C0.891384 11.6121 0.687019 11.3976 0.546131 11.1428C0.405297 10.888 0.332224 10.601 0.333014 10.3101C0.333804 10.0191 0.408436 9.73246 0.550674 9.47853L0.554226 9.47219L5.58302 0.817908C5.72836 0.570891 5.93427 0.36458 6.18245 0.220537ZM6.99968 0.923075C6.879 0.923075 6.75936 0.955077 6.6521 1.01733C6.54501 1.07948 6.45314 1.1702 6.3869 1.28241C6.38671 1.28272 6.38653 1.28304 6.38634 1.28335L1.36218 9.9298C1.29811 10.0453 1.26361 10.1772 1.26324 10.3125C1.26287 10.4489 1.29721 10.5821 1.36167 10.6987C1.42608 10.8152 1.51774 10.9101 1.6258 10.9757C1.73303 11.0407 1.85339 11.0751 1.97517 11.0769H12.0242C12.146 11.0751 12.2663 11.0407 12.3735 10.9757C12.4816 10.9101 12.5733 10.8152 12.6377 10.6987C12.7021 10.5821 12.7365 10.4489 12.7361 10.3125C12.7357 10.1772 12.7012 10.0453 12.6372 9.92977L7.61301 1.28335C7.61282 1.28304 7.61264 1.28272 7.61245 1.28241C7.54621 1.1702 7.45434 1.07948 7.34725 1.01733C7.23999 0.955077 7.12035 0.923075 6.99968 0.923075ZM6.99968 3.6923C7.25655 3.6923 7.46479 3.89894 7.46479 4.15384V6.61537C7.46479 6.87027 7.25655 7.0769 6.99968 7.0769C6.7428 7.0769 6.53456 6.87027 6.53456 6.61537V4.15384C6.53456 3.89894 6.7428 3.6923 6.99968 3.6923ZM6.53456 9.0769C6.53456 8.822 6.7428 8.61536 6.99968 8.61536H7.00588C7.26275 8.61536 7.47099 8.822 7.47099 9.0769C7.47099 9.3318 7.26275 9.53844 7.00588 9.53844H6.99968C6.7428 9.53844 6.53456 9.3318 6.53456 9.0769Z" fill="#997F31"/>
</svg>
