<svg width="24" height="24" viewBox="0 0 24 24" fill="none" xmlns="http://www.w3.org/2000/svg">
<rect width="24" height="24" rx="12" fill="#32A64D"/>
<path fill-rule="evenodd" clip-rule="evenodd" d="M12 3.39535C7.24778 3.39535 3.39535 7.24778 3.39535 12C3.39535 16.7522 7.24778 20.6047 12 20.6047C16.7522 20.6047 20.6047 16.7522 20.6047 12C20.6047 7.24778 16.7522 3.39535 12 3.39535ZM2 12C2 6.47715 6.47715 2 12 2C17.5228 2 22 6.47715 22 12C22 17.5228 17.5228 22 12 22C6.47715 22 2 17.5228 2 12ZM17.1445 8.71597C17.417 8.98843 17.417 9.43017 17.1445 9.70263L10.7491 16.098C10.4767 16.3704 10.0349 16.3704 9.76248 16.098L6.85551 13.191C6.58305 12.9185 6.58305 12.4768 6.85551 12.2043C7.12797 11.9319 7.56971 11.9319 7.84217 12.2043L10.2558 14.618L16.1578 8.71597C16.4303 8.44351 16.872 8.44351 17.1445 8.71597Z" fill="white"/>
</svg>
