<svg width="18" height="20" viewBox="0 0 18 20" fill="none" xmlns="http://www.w3.org/2000/svg">
<path fill-rule="evenodd" clip-rule="evenodd" d="M9 16.1573C8.82543 16.1573 8.68391 16.0201 8.68391 15.8509C8.68391 15.6818 8.82543 15.5446 9 15.5446C9.17457 15.5446 9.31609 15.6818 9.31609 15.8509C9.31609 16.0201 9.17457 16.1573 9 16.1573ZM7.47701 15.8509C7.47701 16.6661 8.15888 17.3268 9 17.3268C9.84113 17.3268 10.523 16.6661 10.523 15.8509C10.523 15.0358 9.84113 14.375 9 14.375C8.15888 14.375 7.47701 15.0358 7.47701 15.8509Z" fill="#999B9C"/>
<path fill-rule="evenodd" clip-rule="evenodd" d="M9 18.8304C8.98268 18.8304 8.96607 18.8237 8.95382 18.8119C8.94157 18.8 8.93469 18.7839 8.93469 18.7671V18.7097C8.93379 18.4914 8.86703 18.2781 8.74264 18.0961C8.61825 17.914 8.44165 17.7712 8.23458 17.6852C8.19284 17.6679 8.14932 17.6552 8.10486 17.6474C7.92362 17.5902 7.72998 17.5772 7.54125 17.6104C7.31414 17.6503 7.10457 17.7552 6.93957 17.9116L6.93482 17.9161L6.91478 17.9356C6.90871 17.9415 6.90127 17.9464 6.89335 17.9496C6.88542 17.9527 6.87692 17.9544 6.86834 17.9544C6.85975 17.9544 6.85126 17.9527 6.84333 17.9496C6.8354 17.9464 6.8282 17.9417 6.82213 17.9358C6.81606 17.9299 6.81077 17.9225 6.80748 17.9148C6.80419 17.9071 6.8025 17.8989 6.8025 17.8906C6.8025 17.8823 6.80419 17.874 6.80748 17.8663C6.81077 17.8587 6.81558 17.8517 6.82166 17.8458L6.84666 17.8216C7.00806 17.6617 7.11631 17.4586 7.15749 17.2385C7.19753 17.0244 7.17234 16.8039 7.08523 16.6037C7.00403 16.4002 6.86316 16.224 6.6798 16.0969C6.49127 15.9662 6.26653 15.8935 6.0348 15.8883L6.02069 15.8881H5.99059C5.97327 15.8881 5.95666 15.8814 5.94441 15.8696C5.93217 15.8577 5.92528 15.8416 5.92528 15.8248C5.92528 15.808 5.93217 15.7919 5.94441 15.7801C5.95666 15.7682 5.97327 15.7615 5.99059 15.7615H6.04984C6.27513 15.7607 6.49523 15.696 6.68306 15.5754C6.87001 15.4554 7.01687 15.2853 7.10575 15.0859C7.19788 14.882 7.22522 14.6561 7.18424 14.4371C7.14306 14.217 7.03479 14.0139 6.87339 13.854L6.86873 13.8494L6.84864 13.83C6.84257 13.8241 6.83752 13.8169 6.83423 13.8092C6.83094 13.8015 6.82925 13.7933 6.82925 13.785C6.82925 13.7766 6.83094 13.7684 6.83423 13.7607C6.83752 13.753 6.84233 13.7461 6.84841 13.7402C6.85447 13.7343 6.86215 13.7292 6.87008 13.726C6.87801 13.7228 6.8865 13.7212 6.89509 13.7212C6.90367 13.7212 6.91217 13.7228 6.9201 13.726C6.92803 13.7292 6.93523 13.7338 6.94129 13.7397L6.9663 13.764C7.1313 13.9204 7.34089 14.0253 7.568 14.0652C7.78886 14.104 8.01645 14.0796 8.22301 13.9952C8.43301 13.9165 8.61486 13.78 8.746 13.6023C8.88085 13.4196 8.95585 13.2018 8.96127 12.9772L8.96144 12.9635V12.9344C8.96144 12.9176 8.96832 12.9015 8.98057 12.8896C8.99282 12.8777 9.00943 12.8711 9.02675 12.8711C9.04407 12.8711 9.06068 12.8777 9.07293 12.8896C9.08517 12.9015 9.09206 12.9176 9.09206 12.9344V12.9918C9.09295 13.2101 9.15971 13.4234 9.28411 13.6054C9.40791 13.7866 9.58344 13.9289 9.78925 14.015C9.99963 14.1043 10.2327 14.1308 10.4587 14.0911C10.6859 14.0512 10.8954 13.9463 11.0604 13.7899L11.0652 13.7854L11.0852 13.7659C11.0913 13.76 11.0987 13.7551 11.1067 13.7519C11.1146 13.7487 11.1231 13.7471 11.1317 13.7471C11.1402 13.7471 11.1487 13.7487 11.1567 13.7519C11.1646 13.7551 11.1718 13.7598 11.1779 13.7657C11.1839 13.7715 11.1892 13.779 11.1925 13.7867C11.1958 13.7943 11.1975 13.8026 11.1975 13.8109C11.1975 13.8192 11.1958 13.8274 11.1925 13.8351C11.1892 13.8428 11.1844 13.8498 11.1783 13.8557L11.1533 13.8799C10.9919 14.0398 10.8837 14.2429 10.8425 14.463C10.8015 14.6821 10.8289 14.908 10.921 15.1119C11.0099 15.3113 11.1568 15.4814 11.3437 15.6013C11.5315 15.7219 11.7516 15.7866 11.9769 15.7874L11.9793 15.7875L12.0094 15.7874C12.0267 15.7874 12.0433 15.7941 12.0556 15.806C12.0678 15.8179 12.0747 15.834 12.0747 15.8507C12.0747 15.8675 12.0678 15.8836 12.0556 15.8955C12.0433 15.9074 12.0267 15.914 12.0094 15.914H11.9502C11.7249 15.9149 11.5048 15.9796 11.3169 16.1001C11.1291 16.2207 10.9817 16.3918 10.893 16.5925C10.8751 16.6329 10.862 16.6751 10.8539 16.7182C10.795 16.8938 10.7815 17.0815 10.8158 17.2644C10.8569 17.4845 10.9652 17.6876 11.1266 17.8475L11.1313 17.8521L11.1514 17.8715C11.1574 17.8774 11.1625 17.8846 11.1658 17.8923C11.1691 17.9 11.1707 17.9082 11.1707 17.9165C11.1707 17.9248 11.1691 17.9331 11.1658 17.9407C11.1625 17.9484 11.1577 17.9554 11.1516 17.9613C11.1455 17.9672 11.1378 17.9723 11.1299 17.9755C11.122 17.9787 11.1135 17.9803 11.1049 17.9803C11.0963 17.9803 11.0878 17.9787 11.0799 17.9755C11.072 17.9723 11.0648 17.9676 11.0587 17.9617L11.0337 17.9375C10.8687 17.7811 10.6591 17.6762 10.432 17.6363C10.2059 17.5966 9.97284 17.6231 9.76246 17.7124C9.55666 17.7985 9.38115 17.9408 9.25735 18.122C9.13296 18.304 9.06621 18.5173 9.06531 18.7356L9.0653 18.738L9.06531 18.7671C9.06531 18.7839 9.05843 18.8 9.04618 18.8119C9.03393 18.8237 9.01732 18.8304 9 18.8304ZM11.4744 14.8786L11.9732 14.6653L11.9776 14.6696L11.4744 14.8786ZM12.0917 14.6204C12.1818 14.5201 12.2547 14.4062 12.3074 14.283C12.3714 14.1333 12.4044 13.9729 12.4044 13.8109C12.4044 13.6489 12.3714 13.4884 12.3074 13.3388C12.2434 13.1892 12.1497 13.0533 12.0315 12.9389C11.9134 12.8243 11.7732 12.7335 11.6188 12.6715C11.4644 12.6094 11.2988 12.5775 11.1317 12.5775C10.9645 12.5775 10.7989 12.6094 10.6445 12.6715C10.5179 12.7223 10.4009 12.7926 10.2977 12.8794C10.2836 12.5724 10.1515 12.2808 9.92633 12.0626C9.68775 11.8314 9.36416 11.7015 9.02675 11.7015C8.68934 11.7015 8.36575 11.8314 8.12716 12.0626C7.90264 12.2802 7.77071 12.5707 7.75593 12.8767C7.6464 12.7791 7.51995 12.7009 7.38227 12.6456C7.22782 12.5835 7.06227 12.5516 6.89509 12.5516C6.7279 12.5516 6.56235 12.5835 6.40791 12.6456C6.25357 12.7076 6.11334 12.7984 5.99524 12.9129C5.87706 13.0274 5.78331 13.1633 5.71933 13.3128C5.65531 13.4625 5.62236 13.6229 5.62236 13.785C5.62236 13.947 5.65531 14.1074 5.71933 14.2571C5.7718 14.3797 5.84428 14.4932 5.93383 14.5932C5.61707 14.6069 5.31618 14.7348 5.09101 14.953C4.85242 15.1842 4.71839 15.4978 4.71839 15.8248C4.71839 16.1518 4.85242 16.4654 5.09101 16.6966C5.31553 16.9142 5.61533 17.042 5.93109 17.0563C5.83043 17.1625 5.74966 17.285 5.69258 17.4185C5.62856 17.5681 5.5956 17.7286 5.5956 17.8906C5.5956 18.0526 5.62856 18.213 5.69258 18.3627C5.75656 18.5123 5.85032 18.6482 5.96849 18.7626C6.08659 18.8771 6.22682 18.968 6.38116 19.03C6.5356 19.092 6.70115 19.124 6.86834 19.124C7.03552 19.124 7.20107 19.092 7.35551 19.03C7.4928 18.9748 7.61892 18.8969 7.72824 18.7997C7.73683 19.1149 7.86976 19.4154 8.10041 19.6389C8.339 19.8701 8.66259 20 9 20C9.33741 20 9.661 19.8701 9.89958 19.6389C10.1187 19.4266 10.2496 19.1447 10.2695 18.8469C10.373 18.9342 10.4906 19.0048 10.6177 19.0559C10.7722 19.118 10.9377 19.1499 11.1049 19.1499C11.2721 19.1499 11.4376 19.118 11.5921 19.0559C11.7464 18.9939 11.8867 18.9031 12.0048 18.7885C12.1229 18.6741 12.2167 18.5382 12.2807 18.3886C12.3447 18.239 12.3776 18.0785 12.3776 17.9165C12.3776 17.7545 12.3447 17.5941 12.2807 17.4444C12.2238 17.3113 12.1433 17.1891 12.043 17.0832C12.3682 17.0749 12.6783 16.946 12.909 16.7225C13.1476 16.4913 13.2816 16.1777 13.2816 15.8507C13.2816 15.5238 13.1476 15.2102 12.909 14.979C12.6899 14.7666 12.3991 14.6397 12.0917 14.6204ZM12.0277 14.6454L12.0261 14.6426L12.001 14.6534L12.0057 14.6579L12.0287 14.6484L12.0277 14.6454ZM11.9815 14.665L11.9837 14.6671L12.0057 14.6579L12.001 14.6534L11.9815 14.6617L11.9815 14.665Z" fill="#999B9C"/>
<path fill-rule="evenodd" clip-rule="evenodd" d="M1.43873e-08 15.8507C1.43873e-08 16.2383 0.324208 16.5525 0.724138 16.5525H4.86207C5.262 16.5525 5.58621 16.2383 5.58621 15.8507C5.58621 15.4632 5.262 15.149 4.86207 15.149H4.2069V2.39594L5.72934 3.87132C6.01213 4.14537 6.47063 4.14537 6.75342 3.87132C7.03622 3.59727 7.03622 3.15294 6.75342 2.87889L3.9948 0.205538C3.71201 -0.0685139 3.25351 -0.0685139 2.97072 0.205538L0.212095 2.87889C-0.0706983 3.15294 -0.0706984 3.59727 0.212095 3.87132C0.494888 4.14537 0.953387 4.14537 1.23618 3.87132L2.75862 2.39594V15.149H0.724138C0.324208 15.149 1.43873e-08 15.4632 1.43873e-08 15.8507ZM12.4138 15.8507C12.4138 16.2383 12.738 16.5525 13.1379 16.5525H17.2759C17.6758 16.5525 18 16.2383 18 15.8507C18 15.4632 17.6758 15.149 17.2759 15.149H15.2414V5.96041L16.7638 7.43579C17.0466 7.70984 17.5051 7.70984 17.7879 7.43579C18.0707 7.16173 18.0707 6.71741 17.7879 6.44336L15.0293 3.77001C14.8935 3.6384 14.7093 3.56447 14.5172 3.56447C14.3252 3.56447 14.141 3.6384 14.0052 3.77001L11.2466 6.44336C10.9638 6.71741 10.9638 7.16173 11.2466 7.43579C11.5294 7.70984 11.9879 7.70984 12.2707 7.43579L13.7931 5.96041V15.149H13.1379C12.738 15.149 12.4138 15.4632 12.4138 15.8507ZM9 12.988C9.39993 12.988 9.72414 12.6738 9.72414 12.2863V8.63375L11.2466 10.1091C11.5294 10.3832 11.9879 10.3832 12.2707 10.1091C12.5535 9.83508 12.5535 9.39076 12.2707 9.1167L9.51204 6.44336C9.37624 6.31175 9.19205 6.23782 9 6.23782C8.80795 6.23782 8.62376 6.31175 8.48796 6.44336L5.72934 9.1167C5.44654 9.39076 5.44654 9.83508 5.72934 10.1091C6.01213 10.3832 6.47063 10.3832 6.75342 10.1091L8.27586 8.63376V12.2863C8.27586 12.6738 8.60007 12.988 9 12.988Z" fill="#999B9C"/>
</svg>
