<svg width="40" height="40" viewBox="0 0 40 40" fill="none" xmlns="http://www.w3.org/2000/svg">
<rect x="0.5" y="0.5" width="39" height="39" rx="19.5" fill="white" stroke="#404040"/>
<path fill-rule="evenodd" clip-rule="evenodd" d="M14.2308 11.5385C13.8059 11.5385 13.4615 11.1941 13.4615 10.7692C13.4615 10.3444 13.8059 10 14.2308 10H18.8462C19.271 10 19.6154 10.3444 19.6154 10.7692V15.3846C19.6154 15.8095 19.271 16.1538 18.8462 16.1538C18.4213 16.1538 18.0769 15.8095 18.0769 15.3846V12.6263L11.3132 19.3901C11.0128 19.6905 10.5257 19.6905 10.2253 19.3901C9.9249 19.0897 9.9249 18.6026 10.2253 18.3022L16.9891 11.5385H14.2308ZM23.8462 15.3846C23.8462 14.9598 24.1906 14.6154 24.6154 14.6154H29.2308C29.6556 14.6154 30 14.9598 30 15.3846C30 15.8095 29.6556 16.1538 29.2308 16.1538H25.3846V20C25.3846 20.4248 25.0402 20.7692 24.6154 20.7692H20.7692V24.6154C20.7692 25.0402 20.4248 25.3846 20 25.3846H16.1538V29.2308C16.1538 29.6556 15.8095 30 15.3846 30H10.7692C10.3444 30 10 29.6556 10 29.2308C10 28.8059 10.3444 28.4615 10.7692 28.4615H14.6154V24.6154C14.6154 24.1906 14.9598 23.8462 15.3846 23.8462H19.2308V20C19.2308 19.5752 19.5752 19.2308 20 19.2308H23.8462V15.3846Z" fill="#404040"/>
</svg>
