<svg width="16" height="14" viewBox="0 0 16 14" fill="none" xmlns="http://www.w3.org/2000/svg">
<path fill-rule="evenodd" clip-rule="evenodd" d="M11.6192 0.0011095C11.814 -0.0102811 12.0041 0.0664494 12.142 0.212096L15.7992 4.07416C16.0669 4.35696 16.0669 4.81546 15.7992 5.09825C15.5314 5.38104 15.0972 5.38104 14.8294 5.09825L11.714 1.80827L8.53549 6.00409C8.3335 6.27072 7.98258 6.35212 7.69338 6.19941L4.57768 4.55426L1.25633 9.81547C1.04626 10.1482 0.620524 10.2382 0.30542 10.0163C-0.00968403 9.79447 -0.0948314 9.34488 0.115238 9.01211L3.77236 3.21901C3.96419 2.91515 4.34026 2.80968 4.64957 2.973L7.81088 4.64224L11.1217 0.271774C11.2436 0.110934 11.4245 0.0125001 11.6192 0.0011095ZM7.28894e-05 13.2759C7.28894e-05 12.8759 0.307076 12.5517 0.685784 12.5517H15.3143C15.693 12.5517 16 12.8759 16 13.2759C16 13.6758 15.693 14 15.3143 14H0.685784C0.307076 14 7.28894e-05 13.6758 7.28894e-05 13.2759Z" fill="#999B9C"/>
</svg>
