<svg width="20" height="18" viewBox="0 0 20 18" fill="none" xmlns="http://www.w3.org/2000/svg">
<path fill-rule="evenodd" clip-rule="evenodd" d="M14.1344 1.38462C13.957 1.38462 13.7984 1.53146 13.7984 1.73078L13.7983 16.2692C13.7983 16.4684 13.9569 16.6154 14.1344 16.6154H18.2687C18.4461 16.6154 18.6047 16.4685 18.6047 16.2692V1.73077C18.6047 1.53146 18.4461 1.38462 18.2687 1.38462H14.1344ZM18.2687 18C19.233 18 20 17.217 20 16.2692V1.73077C20 0.783025 19.233 0 18.2687 0H14.1344C13.1701 0 12.4031 0.783025 12.4031 1.73077L12.4031 4.18629C12.2945 4.16501 12.1822 4.15385 12.067 4.15385H7.93266C6.96837 4.15385 6.2014 4.93687 6.2014 5.88462L6.20143 8.34009C6.09296 8.31884 5.9807 8.30769 5.86563 8.30769H1.73127C0.766969 8.30769 0 9.09072 0 10.0385V16.2692C0 17.217 0.766969 18 1.73127 18H18.2687ZM12.067 16.6154C12.2444 16.6154 12.4029 16.4685 12.4029 16.2692V5.88462C12.4029 5.68531 12.2444 5.53846 12.067 5.53846H7.93266C7.75529 5.53846 7.59675 5.6853 7.59675 5.88461C7.59675 5.88461 7.59675 5.8846 7.59675 5.88461L7.59681 10.0206C7.59687 10.0266 7.5969 10.0325 7.5969 10.0385V16.2692C7.5969 16.4687 7.75542 16.6154 7.93266 16.6154H12.067ZM1.73127 16.6154H5.86563C6.04301 16.6154 6.20155 16.4685 6.20155 16.2692L6.20146 10.0302C6.19716 9.83512 6.04056 9.69231 5.86563 9.69231H1.73127C1.55389 9.69231 1.39535 9.83915 1.39535 10.0385V16.2692C1.39535 16.4685 1.55389 16.6154 1.73127 16.6154Z" fill="#999B9C"/>
</svg>
