<svg width="24" height="25" viewBox="0 0 24 25" fill="none" xmlns="http://www.w3.org/2000/svg">
<path d="M0.5 12.5117C0.5 10.6411 0.500271 9.2632 0.574961 8.16851C0.649344 7.07831 0.795863 6.3056 1.0709 5.64159C1.83211 3.80388 3.29216 2.34383 5.12987 1.58262C5.79388 1.30758 6.56659 1.16106 7.65679 1.08668C8.75148 1.01199 10.1294 1.01172 12 1.01172C13.8706 1.01172 15.2485 1.01199 16.3432 1.08668C17.4334 1.16106 18.2061 1.30758 18.8701 1.58262C20.7078 2.34383 22.1679 3.80388 22.9291 5.64159C23.2041 6.3056 23.3507 7.07831 23.425 8.16851C23.4997 9.2632 23.5 10.6411 23.5 12.5117C23.5 14.3823 23.4997 15.7602 23.425 16.8549C23.3507 17.9451 23.2041 18.7178 22.9291 19.3818C22.1679 21.2196 20.7078 22.6796 18.8701 23.4408C18.2061 23.7159 17.4334 23.8624 16.3432 23.9368C15.2485 24.0114 13.8706 24.0117 12 24.0117C10.1294 24.0117 8.75148 24.0114 7.65679 23.9368C6.56659 23.8624 5.79388 23.7159 5.12987 23.4408C3.29216 22.6796 1.83211 21.2196 1.0709 19.3818C0.795863 18.7178 0.649344 17.9451 0.574961 16.8549C0.500271 15.7602 0.5 14.3823 0.5 12.5117Z" fill="white" stroke="#0662B7" stroke-miterlimit="1.5728" stroke-linecap="round" stroke-linejoin="round"/>
<path d="M18 8.51172L9.75 16.5117L6 12.8754" stroke="white" stroke-width="1.5" stroke-linecap="round" stroke-linejoin="round"/>
<path d="M9.61367 17.5117V16.5517L12.3617 13.8157C12.7537 13.4237 13.0497 13.0957 13.2497 12.8317C13.4497 12.5677 13.5857 12.3357 13.6577 12.1357C13.7297 11.9357 13.7657 11.7397 13.7657 11.5477C13.7657 11.2117 13.6337 10.9277 13.3697 10.6957C13.1057 10.4637 12.7857 10.3477 12.4097 10.3477C12.0097 10.3477 11.6777 10.4557 11.4137 10.6717C11.1577 10.8877 10.9577 11.1957 10.8137 11.5957L9.61367 11.0917C9.80567 10.4517 10.1537 9.93972 10.6577 9.55572C11.1697 9.16372 11.7617 8.96772 12.4337 8.96772C12.9777 8.96772 13.4617 9.07972 13.8857 9.30372C14.3097 9.52772 14.6417 9.83172 14.8817 10.2157C15.1297 10.5997 15.2537 11.0277 15.2537 11.4997C15.2537 12.0517 15.0857 12.5797 14.7497 13.0837C14.4217 13.5797 13.9657 14.1077 13.3817 14.6677L11.7977 16.1917H15.3857V17.5117H9.61367Z" fill="#151515"/>
</svg>
