<svg width="14" height="14" viewBox="0 0 14 14" fill="none" xmlns="http://www.w3.org/2000/svg">
<path fill-rule="evenodd" clip-rule="evenodd" d="M1.0845 1.08695C1.56537 0.606083 2.21756 0.335938 2.8976 0.335938C3.57764 0.335938 4.22983 0.606083 4.71069 1.08695C5.19156 1.56781 5.4617 2.22 5.4617 2.90004V4.4385H8.53862V2.90004C8.53862 2.22 8.80877 1.56781 9.28963 1.08695C9.7705 0.606083 10.4227 0.335938 11.1027 0.335938C11.7828 0.335938 12.435 0.606083 12.9158 1.08695C13.3967 1.56781 13.6668 2.22 13.6668 2.90004C13.6668 3.58008 13.3967 4.23227 12.9158 4.71313C12.435 5.194 11.7828 5.46414 11.1027 5.46414H9.56427V8.54107H11.1027C11.7828 8.54107 12.435 8.81121 12.9158 9.29207C13.3967 9.77294 13.6668 10.4251 13.6668 11.1052C13.6668 11.7852 13.3967 12.4374 12.9158 12.9183C12.435 13.3991 11.7828 13.6693 11.1027 13.6693C10.4227 13.6693 9.7705 13.3991 9.28963 12.9183C8.80877 12.4374 8.53862 11.7852 8.53862 11.1052V9.56671H5.4617V11.1052C5.4617 11.7852 5.19156 12.4374 4.71069 12.9183C4.22983 13.3991 3.57764 13.6693 2.8976 13.6693C2.21756 13.6693 1.56537 13.3991 1.0845 12.9183C0.603642 12.4374 0.333496 11.7852 0.333496 11.1052C0.333496 10.4251 0.603642 9.77294 1.0845 9.29207C1.56537 8.81121 2.21756 8.54107 2.8976 8.54107H4.43606V5.46414H2.8976C2.21756 5.46414 1.56537 5.194 1.0845 4.71313C0.603642 4.23227 0.333496 3.58008 0.333496 2.90004C0.333496 2.22 0.603642 1.56781 1.0845 1.08695ZM4.43606 4.4385V2.90004C4.43606 2.49201 4.27397 2.1007 3.98546 1.81218C3.69694 1.52367 3.30562 1.36158 2.8976 1.36158C2.48957 1.36158 2.09826 1.52367 1.80974 1.81218C1.52122 2.1007 1.35914 2.49201 1.35914 2.90004C1.35914 3.30807 1.52122 3.69938 1.80974 3.9879C2.09826 4.27641 2.48957 4.4385 2.8976 4.4385H4.43606ZM5.4617 5.46414V8.54107H8.53862V5.46414H5.4617ZM4.43606 9.56671H2.8976C2.48957 9.56671 2.09826 9.72879 1.80974 10.0173C1.52122 10.3058 1.35914 10.6971 1.35914 11.1052C1.35914 11.5132 1.52122 11.9045 1.80974 12.193C2.09826 12.4815 2.48957 12.6436 2.8976 12.6436C3.30562 12.6436 3.69694 12.4815 3.98546 12.193C4.27397 11.9045 4.43606 11.5132 4.43606 11.1052V9.56671ZM9.56427 9.56671V11.1052C9.56427 11.5132 9.72635 11.9045 10.0149 12.193C10.3034 12.4815 10.6947 12.6436 11.1027 12.6436C11.5108 12.6436 11.9021 12.4815 12.1906 12.193C12.4791 11.9045 12.6412 11.5132 12.6412 11.1052C12.6412 10.6971 12.4791 10.3058 12.1906 10.0173C11.9021 9.72879 11.5108 9.56671 11.1027 9.56671H9.56427ZM9.56427 4.4385H11.1027C11.5108 4.4385 11.9021 4.27641 12.1906 3.9879C12.4791 3.69938 12.6412 3.30807 12.6412 2.90004C12.6412 2.49201 12.4791 2.1007 12.1906 1.81218C11.9021 1.52367 11.5108 1.36158 11.1027 1.36158C10.6947 1.36158 10.3034 1.52367 10.0149 1.81218C9.72635 2.1007 9.56427 2.49201 9.56427 2.90004V4.4385Z" fill="white"/>
</svg>
