<svg width="20" height="20" viewBox="0 0 20 20" fill="none" xmlns="http://www.w3.org/2000/svg">
<path fill-rule="evenodd" clip-rule="evenodd" d="M9.72517 0.0564104C9.90067 -0.0188035 10.0993 -0.0188035 10.2748 0.0564104L17.51 3.15719C17.8641 3.30897 18.0282 3.71912 17.8764 4.07328C17.7246 4.42744 17.3145 4.5915 16.9603 4.43971L10 1.45672L3.03969 4.43971C2.68553 4.5915 2.27538 4.42744 2.12359 4.07328C1.97181 3.71912 2.13587 3.30897 2.49003 3.15719L9.72517 0.0564104ZM0 7.93282C0 7.5475 0.312359 7.23514 0.697674 7.23514H19.3023C19.6876 7.23514 20 7.5475 20 7.93282C20 8.31813 19.6876 8.63049 19.3023 8.63049H18.9662V18.6047H19.3023C19.6876 18.6047 20 18.917 20 19.3023C20 19.6876 19.6876 20 19.3023 20H0.697674C0.312359 20 0 19.6876 0 19.3023C0 18.917 0.312359 18.6047 0.697674 18.6047H1.03379V8.63049H0.697674C0.312359 8.63049 0 8.31813 0 7.93282ZM2.42914 8.63049V18.6047H17.5709V8.63049H2.42914ZM5.86573 11.3695C6.25105 11.3695 6.56341 11.6819 6.56341 12.0672V15.168C6.56341 15.5533 6.25105 15.8656 5.86573 15.8656C5.48042 15.8656 5.16806 15.5533 5.16806 15.168V12.0672C5.16806 11.6819 5.48042 11.3695 5.86573 11.3695ZM10 11.3695C10.3853 11.3695 10.6977 11.6819 10.6977 12.0672V15.168C10.6977 15.5533 10.3853 15.8656 10 15.8656C9.61469 15.8656 9.30233 15.5533 9.30233 15.168V12.0672C9.30233 11.6819 9.61469 11.3695 10 11.3695ZM14.1343 11.3695C14.5196 11.3695 14.8319 11.6819 14.8319 12.0672V15.168C14.8319 15.5533 14.5196 15.8656 14.1343 15.8656C13.749 15.8656 13.4366 15.5533 13.4366 15.168V12.0672C13.4366 11.6819 13.749 11.3695 14.1343 11.3695Z" fill="white"/>
</svg>
