<svg width="16" height="20" viewBox="0 0 16 20" fill="none" xmlns="http://www.w3.org/2000/svg">
<path fill-rule="evenodd" clip-rule="evenodd" d="M0.736417 0.749262C1.20794 0.269517 1.84746 0 2.51429 0H8.91429C9.09615 0 9.27056 0.0735048 9.39916 0.204344L15.7992 6.71597C15.9278 6.84681 16 7.02427 16 7.2093V17.4419C16 18.1203 15.7351 18.771 15.2636 19.2507C14.7921 19.7305 14.1525 20 13.4857 20H2.51429C1.84746 20 1.20794 19.7305 0.736417 19.2507C0.264897 18.771 0 18.1203 0 17.4419V2.55814C0 1.87968 0.264897 1.22901 0.736417 0.749262ZM2.51429 1.39535C2.21118 1.39535 1.92049 1.51786 1.70616 1.73592C1.49184 1.95399 1.37143 2.24975 1.37143 2.55814V17.4419C1.37143 17.7503 1.49184 18.046 1.70616 18.2641C1.92049 18.4821 2.21118 18.6047 2.51429 18.6047H13.4857C13.7888 18.6047 14.0795 18.4821 14.2938 18.2641C14.5082 18.046 14.6286 17.7503 14.6286 17.4419V7.90698H8.91429C8.53558 7.90698 8.22857 7.59462 8.22857 7.2093V1.39535H2.51429ZM9.6 2.38201L13.6588 6.51163H9.6V2.38201Z" fill="white"/>
</svg>
