<svg width="20" height="18" viewBox="0 0 20 18" fill="none" xmlns="http://www.w3.org/2000/svg">
<path fill-rule="evenodd" clip-rule="evenodd" d="M7.67442 1.38462C6.00472 1.38462 4.65116 2.72776 4.65116 4.38462C4.65116 6.04147 6.00472 7.38462 7.67442 7.38462C9.34412 7.38462 10.6977 6.04147 10.6977 4.38462C10.6977 2.72776 9.34412 1.38462 7.67442 1.38462ZM3.25581 4.38462C3.25581 1.96306 5.23409 0 7.67442 0C10.1147 0 12.093 1.96306 12.093 4.38462C12.093 6.80617 10.1147 8.76923 7.67442 8.76923C5.23409 8.76923 3.25581 6.80617 3.25581 4.38462ZM16.9767 4.61538C17.3621 4.61538 17.6744 4.92534 17.6744 5.30769V6.92308H19.3023C19.6876 6.92308 20 7.23303 20 7.61538C20 7.99774 19.6876 8.30769 19.3023 8.30769H17.6744V9.92308C17.6744 10.3054 17.3621 10.6154 16.9767 10.6154C16.5914 10.6154 16.2791 10.3054 16.2791 9.92308V8.30769H14.6512C14.2658 8.30769 13.9535 7.99774 13.9535 7.61538C13.9535 7.23303 14.2658 6.92308 14.6512 6.92308H16.2791V5.30769C16.2791 4.92534 16.5914 4.61538 16.9767 4.61538ZM1.29418 12.3611C2.12283 11.5389 3.24672 11.0769 4.4186 11.0769H10.9302C12.1021 11.0769 13.226 11.5389 14.0547 12.3611C14.8833 13.1834 15.3488 14.2987 15.3488 15.4615V17.3077C15.3488 17.69 15.0365 18 14.6512 18C14.2658 18 13.9535 17.69 13.9535 17.3077V15.4615C13.9535 14.6659 13.635 13.9028 13.068 13.3402C12.501 12.7776 11.732 12.4615 10.9302 12.4615H4.4186C3.61679 12.4615 2.84781 12.7776 2.28084 13.3402C1.71387 13.9028 1.39535 14.6659 1.39535 15.4615V17.3077C1.39535 17.69 1.08299 18 0.697674 18C0.312359 18 0 17.69 0 17.3077V15.4615C0 14.2987 0.46553 13.1834 1.29418 12.3611Z" fill="#ffffff"/>
</svg>
