<svg width="40" height="40" viewBox="0 0 40 40" fill="none" xmlns="http://www.w3.org/2000/svg">
<rect x="0.5" y="0.5" width="39" height="39" rx="19.5" fill="#404040" stroke="#404040"/>
<path fill-rule="evenodd" clip-rule="evenodd" d="M20 12.3846C18.3589 12.3846 17.0286 13.7278 17.0286 15.3846C17.0286 17.0415 18.3589 18.3846 20 18.3846C21.6411 18.3846 22.9714 17.0415 22.9714 15.3846C22.9714 13.7278 21.6411 12.3846 20 12.3846ZM15.6571 15.3846C15.6571 12.9631 17.6015 11 20 11C22.3985 11 24.3429 12.9631 24.3429 15.3846C24.3429 17.8062 22.3985 19.7692 20 19.7692C17.6015 19.7692 15.6571 17.8062 15.6571 15.3846ZM13.272 23.3611C14.0864 22.5389 15.1911 22.0769 16.3429 22.0769H23.6571C24.8089 22.0769 25.9136 22.5389 26.728 23.3611C27.5424 24.1834 28 25.2987 28 26.4615V28.3077C28 28.69 27.693 29 27.3143 29C26.9356 29 26.6286 28.69 26.6286 28.3077V26.4615C26.6286 25.6659 26.3155 24.9028 25.7583 24.3402C25.201 23.7776 24.4452 23.4615 23.6571 23.4615H16.3429C15.5548 23.4615 14.799 23.7776 14.2417 24.3402C13.6845 24.9028 13.3714 25.6659 13.3714 26.4615V28.3077C13.3714 28.69 13.0644 29 12.6857 29C12.307 29 12 28.69 12 28.3077V26.4615C12 25.2987 12.4575 24.1834 13.272 23.3611Z" fill="white"/>
</svg>
