<svg width="20" height="18" viewBox="0 0 20 18" fill="none" xmlns="http://www.w3.org/2000/svg">
<path fill-rule="evenodd" clip-rule="evenodd" d="M8.13954 1.38462C6.46984 1.38462 5.11628 2.72776 5.11628 4.38461C5.11628 6.04147 6.46984 7.38461 8.13954 7.38461C9.80923 7.38461 11.1628 6.04147 11.1628 4.38461C11.1628 2.72776 9.80923 1.38462 8.13954 1.38462ZM3.72093 4.38461C3.72093 1.96306 5.69921 0 8.13954 0C10.5799 0 12.5581 1.96306 12.5581 4.38461C12.5581 6.80617 10.5799 8.76923 8.13954 8.76923C5.69921 8.76923 3.72093 6.80617 3.72093 4.38461ZM12.1148 0.640593C12.2104 0.27019 12.5905 0.0468011 12.9637 0.141639C13.9142 0.383123 14.7566 0.931638 15.3582 1.70071C15.9598 2.46978 16.2864 3.41566 16.2864 4.38923C16.2864 5.36281 15.9598 6.30869 15.3582 7.07776C14.7566 7.84683 13.9142 8.39535 12.9637 8.63683C12.5905 8.73167 12.2104 8.50828 12.1148 8.13788C12.0193 7.76747 12.2444 7.39032 12.6176 7.29548C13.268 7.13026 13.8444 6.75496 14.256 6.22875C14.6676 5.70254 14.891 5.05536 14.891 4.38923C14.891 3.72311 14.6676 3.07592 14.256 2.54972C13.8444 2.02351 13.268 1.64821 12.6176 1.48298C12.2444 1.38815 12.0193 1.011 12.1148 0.640593ZM1.29418 12.3611C2.12283 11.5389 3.24672 11.0769 4.4186 11.0769H11.8605C13.0324 11.0769 14.1562 11.5389 14.9849 12.3611C15.8135 13.1834 16.2791 14.2987 16.2791 15.4615V17.3077C16.2791 17.69 15.9667 18 15.5814 18C15.1961 18 14.8837 17.69 14.8837 17.3077V15.4615C14.8837 14.6659 14.5652 13.9028 13.9982 13.3402C13.4313 12.7776 12.6623 12.4615 11.8605 12.4615H4.4186C3.61679 12.4615 2.84781 12.7776 2.28084 13.3402C1.71387 13.9028 1.39535 14.6659 1.39535 15.4615V17.3077C1.39535 17.69 1.08299 18 0.697674 18C0.312359 18 0 17.69 0 17.3077V15.4615C0 14.2987 0.46553 13.1834 1.29418 12.3611ZM15.8361 11.7162C15.9324 11.3459 16.313 11.1233 16.686 11.2189C17.634 11.4618 18.4738 12.0102 19.0736 12.778C19.6734 13.5458 19.9993 14.4895 20 15.461V17.3077C20 17.69 19.6876 18 19.3023 18C18.917 18 18.6047 17.69 18.6047 17.3077V15.4621C18.6042 14.7974 18.3812 14.1516 17.9708 13.6263C17.5604 13.1009 16.9858 12.7257 16.3372 12.5596C15.9641 12.464 15.7398 12.0864 15.8361 11.7162Z" fill="#999B9C"/>
</svg>
