<svg width="12" height="12" viewBox="0 0 12 12" fill="none" xmlns="http://www.w3.org/2000/svg">
<path fill-rule="evenodd" clip-rule="evenodd" d="M5.99984 0.923077C4.90579 0.923077 4.01888 1.81851 4.01888 2.92308C4.01888 4.02765 4.90579 4.92308 5.99984 4.92308C7.09389 4.92308 7.98079 4.02765 7.98079 2.92308C7.98079 1.81851 7.09389 0.923077 5.99984 0.923077ZM3.1046 2.92308C3.1046 1.30871 4.40084 0 5.99984 0C7.59883 0 8.89507 1.30871 8.89507 2.92308C8.89507 4.53745 7.59883 5.84615 5.99984 5.84615C4.40084 5.84615 3.1046 4.53745 3.1046 2.92308ZM1.5145 8.24077C2.05746 7.69258 2.79388 7.38462 3.56174 7.38462H8.43793C9.2058 7.38462 9.94221 7.69258 10.4852 8.24077C11.0281 8.78895 11.3332 9.53244 11.3332 10.3077V11.5385C11.3332 11.7934 11.1285 12 10.876 12C10.6236 12 10.4189 11.7934 10.4189 11.5385V10.3077C10.4189 9.77726 10.2102 9.26855 9.83868 8.89348C9.46718 8.51841 8.96331 8.30769 8.43793 8.30769H3.56174C3.03636 8.30769 2.5325 8.51841 2.161 8.89348C1.7895 9.26855 1.58079 9.77726 1.58079 10.3077V11.5385C1.58079 11.7934 1.37612 12 1.12365 12C0.871174 12 0.666504 11.7934 0.666504 11.5385V10.3077C0.666504 9.53244 0.971537 8.78895 1.5145 8.24077Z" fill="#A7A8A7"/>
</svg>
