<svg width="50" height="50" viewBox="0 0 50 50" fill="none" xmlns="http://www.w3.org/2000/svg">
<path fill-rule="evenodd" clip-rule="evenodd" d="M25 3.48837C13.1195 3.48837 3.48837 13.1195 3.48837 25C3.48837 36.8805 13.1195 46.5116 25 46.5116C36.8805 46.5116 46.5116 36.8805 46.5116 25C46.5116 13.1195 36.8805 3.48837 25 3.48837ZM0 25C0 11.1929 11.1929 0 25 0C38.8071 0 50 11.1929 50 25C50 38.8071 38.8071 50 25 50C11.1929 50 0 38.8071 0 25ZM21.7108 12.3697C22.7915 11.8349 23.9816 11.5583 25.1875 11.5617C26.3933 11.565 27.5818 11.8482 28.6596 12.389C29.7374 12.9297 30.6749 13.7133 31.3984 14.6779C32.1219 15.6426 32.6116 16.762 32.8289 17.9481C33.0463 19.1342 32.9854 20.3545 32.6509 21.513C32.3165 22.6715 31.7178 23.7366 30.9018 24.6244C30.0858 25.5122 29.0749 26.1984 27.9486 26.6291L27.9042 26.6454C27.5475 26.7708 27.2412 27.0088 27.0315 27.3233C26.8218 27.6379 26.72 28.0121 26.7414 28.3896C26.7959 29.3513 26.0605 30.1752 25.0988 30.2298C24.137 30.2843 23.3132 29.5489 23.2586 28.5871C23.1944 27.4547 23.4999 26.3321 24.129 25.3883C24.753 24.4524 25.6619 23.7426 26.7206 23.3639C27.3353 23.1257 27.8872 22.7493 28.3334 22.2638C28.7841 21.7735 29.1147 21.1853 29.2994 20.5455C29.4841 19.9058 29.5177 19.2319 29.3977 18.5769C29.2777 17.9219 29.0072 17.3037 28.6077 16.771C28.2082 16.2382 27.6904 15.8055 27.0952 15.5069C26.5001 15.2083 25.8437 15.0519 25.1778 15.05C24.5119 15.0482 23.8546 15.201 23.2578 15.4963C22.661 15.7916 22.1408 16.2214 21.7384 16.7519C21.1561 17.5193 20.062 17.6694 19.2946 17.0872C18.5272 16.505 18.3771 15.4108 18.9593 14.6434C19.6881 13.6828 20.63 12.9045 21.7108 12.3697ZM25 34.8837C25.9633 34.8837 26.7442 35.6646 26.7442 36.6279V36.6512C26.7442 37.6144 25.9633 38.3953 25 38.3953C24.0367 38.3953 23.2558 37.6144 23.2558 36.6512V36.6279C23.2558 35.6646 24.0367 34.8837 25 34.8837Z" fill="#F37B21"/>
</svg>
